<?xml version="1.0" standalone="no"?>
<!DOCTYPE svg PUBLIC "-//W3C//DTD SVG 1.1//EN" "http://www.w3.org/Graphics/SVG/1.1/DTD/svg11.dtd" >
<svg xmlns="http://www.w3.org/2000/svg">
<metadata></metadata>
<defs>
<font id="akzidenz-grotesk_nextblack" horiz-adv-x="614" >
<font-face units-per-em="2048" ascent="1536" descent="-512" />
<missing-glyph horiz-adv-x="500" />
<glyph unicode="&#xfb01;" horiz-adv-x="1406" d="M14 731v324h144v80q0 177 97 257.5t302 80.5q118 0 219 -29v-309q-36 20 -84 20q-84 0 -84 -82v-18h168v-324h-168v-731h-450v731h-144zM872 0v1055h455v-1055h-455zM872 1159v287h455v-287h-455z" />
<glyph unicode="&#xfb02;" horiz-adv-x="1406" d="M14 731v324h144v80q0 177 97 257.5t302 80.5q118 0 219 -29v-309q-36 20 -84 20q-84 0 -84 -82v-18h168v-324h-168v-731h-450v731h-144zM872 0v1446h455v-1446h-455z" />
<glyph horiz-adv-x="0" />
<glyph horiz-adv-x="682" />
<glyph unicode=" " />
<glyph unicode="!" horiz-adv-x="673" d="M106 1446h527l-47 -461q-19 -189 -56 -471h-317q-34 224 -59 469zM164 0v422h426v-422h-426z" />
<glyph unicode="&#x22;" horiz-adv-x="948" d="M59 1446h377l-119 -682h-147zM512 1446h377l-119 -682h-147z" />
<glyph unicode="#" horiz-adv-x="1380" d="M66 369v270h258l24 184h-231v273h268l49 350h262l-49 -350h193l49 350h262l-47 -350h211v-273h-250l-25 -184h228v-270h-267l-51 -369h-264l53 369h-194l-51 -369h-261l50 369h-217zM584 639h192l27 184h-195z" />
<glyph unicode="$" horiz-adv-x="1372" d="M33 231l325 248q95 -121 240 -155v225l-143 43q-180 54 -272.5 160t-92.5 254q0 182 137.5 292.5t366.5 131.5v204h192v-207q164 -17 300.5 -82t222.5 -163l-316 -242q-97 131 -211 162v-219l136 -41q205 -62 301 -154t96 -246q0 -183 -139 -305t-390 -145v-211h-192v207 q-382 20 -561 243zM492 1038q0 -33 21.5 -55.5t84.5 -42.5v178q-54 -1 -80 -23.5t-26 -56.5zM782 309q109 9 109 80q0 39 -23 63t-86 40v-183z" />
<glyph unicode="%" horiz-adv-x="2093" d="M49 983q0 223 107 337t309 114q105 0 183 -37t122.5 -102t66 -145.5t21.5 -176.5q0 -222 -102 -342.5t-293 -120.5q-196 0 -305 121t-109 352zM360 981q0 -133 25 -187.5t78 -54.5q48 0 71 53.5t23 176.5q0 126 -25 179.5t-73 53.5q-50 0 -74.5 -50.5t-24.5 -170.5z M618 0l586 1411h269l-588 -1411h-267zM1235 457q0 223 106.5 336.5t309.5 113.5q105 0 183 -37t122.5 -102t66 -145.5t21.5 -176.5q0 -222 -102 -342t-293 -120q-196 0 -305 121t-109 352zM1546 455q0 -133 25 -187.5t78 -54.5q48 0 71 53t23 176q0 126 -25 180t-73 54 q-50 0 -74.5 -50.5t-24.5 -170.5z" />
<glyph unicode="&#x26;" horiz-adv-x="1476" d="M47 428q0 76 27.5 147t75.5 123q39 41 97 82t111 66q-108 138 -108 276q0 161 121.5 251.5t351.5 90.5q196 0 314 -90.5t118 -243.5q0 -111 -62 -205t-204 -177l137 -170q43 56 67.5 104t41.5 111l307 -179q-29 -63 -87.5 -141t-107.5 -119q57 -47 123 -47q28 0 68 8 v-315q-95 -14 -203 -14q-91 0 -150 20.5t-124 79.5q-158 -115 -396 -115q-240 0 -379 121.5t-139 335.5zM485 449q0 -63 44.5 -106.5t103.5 -43.5q61 0 108 39l-184 240q-36 -27 -54 -56.5t-18 -72.5zM645 1116q0 -54 57 -119q52 31 75.5 59t23.5 60q0 34 -22.5 56t-57.5 22 t-55.5 -21.5t-20.5 -56.5z" />
<glyph unicode="'" horiz-adv-x="495" d="M59 1446h377l-119 -682h-147z" />
<glyph unicode="(" horiz-adv-x="894" d="M106 608q0 141 30.5 274t95 263t172.5 250.5t255 220.5l168 -180q-299 -347 -299 -830q0 -259 72.5 -483t226.5 -385l-165 -176q-253 168 -404.5 443t-151.5 603z" />
<glyph unicode=")" horiz-adv-x="894" d="M68 -258q299 347 299 829q0 259 -72.5 483.5t-226.5 385.5l165 176q253 -168 404 -443.5t151 -603.5q0 -292 -133 -551.5t-419 -455.5z" />
<glyph unicode="*" horiz-adv-x="952" d="M55 1108l88 244l207 -88l-12 219h276l-10 -217l203 84l90 -244l-238 -70l162 -188l-207 -154l-139 195l-127 -195l-223 156l149 186z" />
<glyph unicode="+" horiz-adv-x="1566" d="M213 455v354h387v395h369v-395h385v-354h-385v-396h-369v396h-387z" />
<glyph unicode="," horiz-adv-x="581" d="M78 0v422h426v-387q0 -146 -50 -258t-167 -201l-205 176q62 56 88.5 110t30.5 138h-123z" />
<glyph unicode="-" horiz-adv-x="815" d="M72 487v334h671v-334h-671z" />
<glyph unicode="." horiz-adv-x="581" d="M78 0v422h426v-422h-426z" />
<glyph unicode="/" horiz-adv-x="1003" d="M20 -377l570 1938h350l-567 -1938h-353z" />
<glyph unicode="0" horiz-adv-x="1320" d="M47 723q0 359 162 543t467 184q128 0 230.5 -40t170.5 -108.5t113 -164t64.5 -203t19.5 -229.5q0 -358 -155 -550t-445 -192q-299 0 -463 192.5t-164 567.5zM506 717q0 -150 20 -239.5t55.5 -125t92.5 -35.5q80 0 117.5 87.5t37.5 293.5q0 213 -40.5 303.5t-120.5 90.5 q-54 0 -88.5 -34.5t-54 -118.5t-19.5 -222z" />
<glyph unicode="1" horiz-adv-x="1320" d="M209 860v365q153 0 237 44t109 154h416v-1423h-477v911q-104 -51 -285 -51z" />
<glyph unicode="2" horiz-adv-x="1320" d="M51 954q0 232 162.5 364t443.5 132q280 0 428 -125t148 -342q0 -199 -156 -362q-50 -51 -152 -128t-186 -131q208 7 498 7v-369h-1161v317l368 277q169 128 233 211.5t64 173.5q0 57 -31.5 85t-86.5 28q-64 0 -97.5 -46.5t-33.5 -121.5q0 -40 10 -99l-447 56q-4 50 -4 73 z" />
<glyph unicode="3" horiz-adv-x="1320" d="M16 389l412 125q20 -102 73 -156.5t124 -54.5q64 0 112.5 33.5t48.5 93.5q0 66 -53 103.5t-151 37.5q-61 0 -88 -2v308q40 -5 81 -5q88 0 137.5 32.5t49.5 99.5q0 56 -36.5 88t-98.5 32q-166 0 -178 -217l-410 103q21 76 51 137t80 119t116 97.5t162 63t214 23.5 q277 0 427 -109t150 -303q0 -226 -240 -297q134 -23 205.5 -106.5t71.5 -216.5q0 -213 -160 -334t-461 -121q-271 0 -428.5 101.5t-210.5 324.5z" />
<glyph unicode="4" horiz-adv-x="1320" d="M55 258v326l557 827h498v-819h172v-334h-172v-258h-448v258h-607zM446 592h216q0 262 4 387q-60 -122 -220 -387z" />
<glyph unicode="5" horiz-adv-x="1320" d="M31 346l403 156q17 -99 61 -149t109 -50q81 0 123.5 46.5t42.5 131.5q0 83 -37.5 124.5t-105.5 41.5q-103 0 -140 -88l-376 49l63 803h981v-328h-616l-19 -209q126 109 283 109q215 0 330.5 -123.5t115.5 -345.5q0 -259 -161.5 -405t-460.5 -146q-469 0 -596 383z" />
<glyph unicode="6" horiz-adv-x="1323" d="M55 700q0 363 169 556.5t503 193.5q144 0 249 -37t168.5 -99.5t112.5 -158.5l-391 -141q-46 108 -151 108q-101 0 -151.5 -71.5t-53.5 -237.5q53 63 143 101t201 38q211 0 320.5 -127t109.5 -352q0 -114 -35.5 -206t-106.5 -160.5t-184 -106t-260 -37.5 q-330 0 -486.5 192t-156.5 545zM535 467q0 -77 41 -132.5t108 -55.5q70 0 110 46.5t40 135.5q0 82 -42.5 135t-111.5 53q-67 0 -106 -51t-39 -131z" />
<glyph unicode="7" horiz-adv-x="1320" d="M80 1071v340h1149v-285q-121 -166 -202 -309t-130.5 -280.5t-75.5 -257.5t-45 -279h-502q27 281 170.5 587.5t317.5 483.5h-682z" />
<glyph unicode="8" horiz-adv-x="1320" d="M39 403q0 118 64.5 203.5t222.5 136.5q-240 81 -240 310q0 191 151 294t439 103q276 0 415.5 -100.5t139.5 -290.5q0 -229 -236 -307q145 -35 215 -129.5t70 -231.5q0 -208 -160 -318t-475 -110q-300 0 -453 113t-153 327zM512 414q0 -70 42.5 -110t107.5 -40 q63 0 103 41.5t40 112.5q0 80 -39.5 126t-106.5 46q-70 0 -108.5 -48.5t-38.5 -127.5zM518 1036q0 -67 36 -105t95 -38q60 0 94.5 39t34.5 104t-35 102.5t-90 37.5q-61 0 -98 -38t-37 -102z" />
<glyph unicode="9" horiz-adv-x="1323" d="M37 940q0 104 37.5 195.5t108.5 162t184.5 111.5t255.5 41q330 0 486.5 -192t156.5 -545q0 -363 -168.5 -556.5t-503.5 -193.5q-214 0 -341 75t-200 220l410 141q46 -108 147 -108q100 0 149 71t52 238q-53 -63 -143 -101t-201 -38q-211 0 -320.5 127t-109.5 352z M487 952q0 -82 42.5 -135t111.5 -53q67 0 106 51t39 131q0 77 -41 133t-108 56q-70 0 -110 -47t-40 -136z" />
<glyph unicode=":" horiz-adv-x="655" d="M152 0v422h426v-422h-426zM152 633v422h426v-422h-426z" />
<glyph unicode=";" horiz-adv-x="655" d="M152 0v422h426v-387q0 -146 -50.5 -258t-167.5 -201l-204 176q62 56 88 110t30 138h-122zM152 633v422h426v-422h-426z" />
<glyph unicode="&#x3c;" horiz-adv-x="1566" d="M264 467v334l1008 416v-379l-574 -203l574 -199v-387z" />
<glyph unicode="=" horiz-adv-x="1566" d="M213 193v354h1141v-354h-1141zM213 721v354h1141v-354h-1141z" />
<glyph unicode="&#x3e;" horiz-adv-x="1566" d="M295 51v379l573 203l-573 198v388l1008 -418v-334z" />
<glyph unicode="?" horiz-adv-x="1271" d="M92 989q3 247 149.5 371.5t428.5 124.5q265 0 408 -106.5t143 -297.5q0 -61 -8 -103t-34 -91.5t-79.5 -98t-138.5 -104.5q-92 -60 -114 -88t-22 -82h-393v51q0 45 5.5 75t24 67.5t57.5 77t104 89.5q61 47 79.5 81.5t18.5 84.5q0 36 -25 59t-67 23q-107 0 -107 -104 q0 -34 10 -92zM434 0v422h426v-422h-426z" />
<glyph unicode="@" horiz-adv-x="1875" d="M113 584q0 207 67.5 380.5t189 295.5t297 190t386.5 68q340 0 537.5 -197t197.5 -528q0 -159 -57 -293.5t-164.5 -216.5t-243.5 -82q-89 0 -149.5 38t-77.5 113q-95 -151 -269 -151q-151 0 -238 102t-87 279q0 224 125 376t311 152q78 0 132.5 -27.5t96.5 -93.5l15 103 h211l-70 -424q-23 -131 -23 -176q0 -41 21 -63.5t55 -22.5q89 0 139 109.5t50 291.5q0 257 -142 394.5t-387 137.5q-197 0 -356.5 -92t-251.5 -260t-92 -381q0 -295 181 -468t480 -173q178 0 308 43t262 146l114 -168q-291 -217 -677 -217q-258 0 -458.5 95t-316.5 281.5 t-116 438.5zM737 600q0 -95 37.5 -146t108.5 -51q72 0 123.5 47t75.5 121.5t24 169.5q0 85 -38 132t-107 47q-93 0 -158.5 -94.5t-65.5 -225.5z" />
<glyph unicode="A" horiz-adv-x="1636" d="M0 0l526 1446h613l497 -1446h-549l-59 207h-430l-57 -207h-541zM686 557h252q-74 274 -121 471q-62 -244 -131 -471z" />
<glyph unicode="B" horiz-adv-x="1474" d="M86 0v1446h737q282 0 383 -49q85 -39 136 -122.5t51 -191.5q0 -113 -54.5 -192t-179.5 -131q277 -62 277 -344q0 -103 -44.5 -190t-121.5 -142q-65 -46 -163 -65t-261 -19h-760zM573 375h218q82 0 109.5 23t27.5 69t-30.5 67t-104.5 21h-220v-180zM573 909h220 q63 0 86.5 20.5t23.5 63.5q0 40 -25 59t-83 19h-222v-162z" />
<glyph unicode="C" horiz-adv-x="1470" d="M57 731q0 360 200.5 558t551.5 198q121 0 224.5 -32t180 -89.5t131.5 -129t89 -157.5l-435 -161q-27 76 -73 113.5t-123 37.5q-102 0 -169 -85.5t-67 -256.5q0 -356 242 -356q78 0 124 41.5t64 136.5l461 -158q-47 -100 -105.5 -176t-139 -134.5t-187.5 -89t-238 -30.5 q-340 0 -535.5 198t-195.5 572z" />
<glyph unicode="D" horiz-adv-x="1529" d="M86 0v1446h557q199 0 324.5 -19.5t210.5 -64.5q140 -74 217.5 -239t77.5 -392q0 -248 -100.5 -431.5t-282.5 -246.5q-89 -31 -189 -42t-280 -11h-535zM588 401h57q87 0 143 13t91 47q84 81 84 280q0 185 -78 254q-34 30 -84.5 41t-128.5 11h-84v-646z" />
<glyph unicode="E" horiz-adv-x="1320" d="M86 0v1446h1159v-375h-670v-145h627v-377h-627v-174h703v-375h-1192z" />
<glyph unicode="F" horiz-adv-x="1241" d="M86 0v1446h1112v-375h-625v-186h582v-373h-582v-512h-487z" />
<glyph unicode="G" horiz-adv-x="1613" d="M57 705q0 360 209 570t592 210q485 0 662 -398l-437 -161q-25 74 -84.5 109.5t-134.5 35.5q-130 0 -213.5 -84t-83.5 -258q0 -184 80.5 -278.5t218.5 -94.5q89 0 138 35q52 34 65 105h-219v348h684v-844h-430v115q-143 -152 -387 -152q-299 0 -479.5 199t-180.5 543z" />
<glyph unicode="H" horiz-adv-x="1525" d="M86 0v1446h502v-490h350v490h502v-1446h-502v547h-350v-547h-502z" />
<glyph unicode="I" horiz-adv-x="677" d="M86 0v1446h506v-1446h-506z" />
<glyph unicode="J" horiz-adv-x="952" d="M0 23l59 391q64 -47 136 -47q46 0 78 15.5t50 40.5t28 70.5t13 91.5t3 117v744h499v-856q0 -213 -30 -318t-103 -178q-125 -125 -424 -125q-171 0 -309 54z" />
<glyph unicode="K" horiz-adv-x="1572" d="M86 0v1446h500v-461l358 461h610l-481 -572l500 -874h-584l-260 485l-143 -174v-311h-500z" />
<glyph unicode="L" horiz-adv-x="1136" d="M86 0v1446h500v-1094h508v-352h-1008z" />
<glyph unicode="M" horiz-adv-x="1945" d="M86 0v1446h700q27 -125 74 -333.5t75 -338.5t44 -211q58 323 188 883h693v-1446h-469q0 530 12 950q-55 -235 -234 -950h-395q-108 423 -233 967q12 -546 12 -967h-467z" />
<glyph unicode="N" horiz-adv-x="1593" d="M86 0v1446h561q27 -53 93.5 -182t103.5 -201t90 -179.5t94 -195.5q-12 249 -12 758h491v-1446h-544q-45 86 -126.5 238.5t-147 277.5t-120.5 236q6 -193 6 -752h-489z" />
<glyph unicode="O" horiz-adv-x="1656" d="M57 723q0 355 210 558.5t571 203.5q358 0 559.5 -199t201.5 -563q0 -159 -38.5 -287t-107 -216t-164.5 -147.5t-208 -86.5t-241 -27q-238 0 -413 86.5t-272.5 260t-97.5 417.5zM567 725q0 -177 72 -264.5t195 -87.5q253 0 253 360q-7 174 -71.5 254t-181.5 80 q-126 0 -196.5 -84t-70.5 -258z" />
<glyph unicode="P" horiz-adv-x="1482" d="M86 0v1446h616q221 0 334.5 -17.5t184.5 -52.5q105 -51 162 -161.5t57 -264.5q0 -135 -52.5 -246t-148.5 -172q-149 -94 -405 -94h-252v-438h-496zM580 805h143q120 0 164 33q41 33 41 102q0 59 -35 94q-21 22 -56.5 29.5t-105.5 7.5h-151v-266z" />
<glyph unicode="Q" horiz-adv-x="1656" d="M57 723q0 355 211 558.5t572 203.5q358 0 558.5 -198.5t200.5 -563.5q0 -280 -120 -465l288 -242l-266 -288l-317 290q-157 -59 -344 -59q-238 0 -413 86.5t-272.5 260t-97.5 417.5zM567 725q0 -177 72 -264.5t195 -87.5q253 0 253 360q-7 174 -71.5 254t-181.5 80 q-126 0 -196.5 -84t-70.5 -258z" />
<glyph unicode="R" horiz-adv-x="1497" d="M86 0v1446h692q322 0 432 -55q110 -54 169 -159.5t59 -250.5q0 -312 -281 -424l340 -557h-561l-252 477h-104v-477h-494zM580 856h182q79 0 112 24.5t33 86.5q0 54 -32 79t-115 25h-180v-215z" />
<glyph unicode="S" horiz-adv-x="1337" d="M4 231l354 291q59 -77 141.5 -122.5t157.5 -45.5q123 0 123 64q0 27 -26.5 47t-114.5 49l-197 64q-182 58 -270 169t-88 279q0 142 75 246.5t208.5 158.5t308.5 54q198 0 363.5 -68.5t265.5 -187.5l-332 -279q-134 152 -291 152q-98 0 -98 -64q0 -25 24.5 -45t96.5 -41 l204 -61q201 -60 298.5 -170.5t97.5 -280.5q0 -210 -174 -346.5t-467 -136.5q-222 0 -393.5 72t-266.5 202z" />
<glyph unicode="T" horiz-adv-x="1265" d="M29 1071v375h1208v-375h-352v-1071h-502v1071h-354z" />
<glyph unicode="U" horiz-adv-x="1480" d="M86 621v825h477v-813q0 -115 19 -166q36 -94 155 -94q121 0 160 96q21 56 21 168v809h477v-828q0 -354 -160 -497q-179 -162 -508 -162q-350 0 -500 160q-83 87 -112 207.5t-29 294.5z" />
<glyph unicode="V" horiz-adv-x="1507" d="M0 1446h547q186 -750 221 -901q54 292 201 901h538l-471 -1446h-553z" />
<glyph unicode="W" horiz-adv-x="2152" d="M0 1446h520q96 -502 174 -934q58 428 150 934h481q94 -495 174 -932q67 458 148 932h505l-348 -1446h-555q-115 577 -168 920q-67 -457 -151 -920h-584z" />
<glyph unicode="X" horiz-adv-x="1515" d="M0 0l426 745l-397 701h557q132 -288 172 -381q6 13 56.5 124t119.5 257h559l-428 -701l451 -745h-568q-167 307 -207 395q-50 -123 -178 -395h-563z" />
<glyph unicode="Y" horiz-adv-x="1542" d="M-2 1446h565q116 -238 230 -477q32 75 215 477h534l-510 -856v-590h-502v590z" />
<glyph unicode="Z" horiz-adv-x="1388" d="M63 0v299l599 772h-586v375h1224v-328l-579 -743h602v-375h-1260z" />
<glyph unicode="[" horiz-adv-x="905" d="M195 -365v1903h624v-248h-248v-1411h248v-244h-624z" />
<glyph unicode="\" horiz-adv-x="1003" d="M63 1561h351l569 -1938h-354z" />
<glyph unicode="]" horiz-adv-x="905" d="M86 -117h248v1411h-248v244h625v-1903h-625v248z" />
<glyph unicode="^" horiz-adv-x="1566" d="M233 598l379 848h338l383 -844h-364l-191 455l-180 -459h-365z" />
<glyph unicode="_" horiz-adv-x="1437" d="M0 -289h1438v-252h-1438v252z" />
<glyph unicode="`" d="M18 1503h422l154 -317h-285z" />
<glyph unicode="a" horiz-adv-x="1212" d="M39 291q0 103 49.5 168t149.5 108q143 62 460 95v34q0 47 -22.5 68.5t-71.5 21.5q-52 0 -77 -26.5t-31 -79.5l-412 31q12 94 46 162t98 118t165 74.5t240 24.5q275 0 399 -103q59 -47 84 -121.5t25 -201.5v-412q0 -190 28 -252h-436q-12 56 -14 111 q-63 -75 -146.5 -106.5t-193.5 -31.5q-158 0 -249 85.5t-91 232.5zM473 338q0 -28 19 -47t57 -19q67 0 108 41t41 115v14q-118 -13 -186 -43q-39 -17 -39 -61z" />
<glyph unicode="b" horiz-adv-x="1273" d="M80 0v1446h450v-500q50 60 127.5 95.5t173.5 35.5q184 0 290 -146.5t106 -404.5q0 -260 -111 -406.5t-307 -146.5q-104 0 -174 35t-125 113v-121h-430zM514 528q0 -225 133 -225q121 0 121 213q0 115 -32.5 175.5t-94.5 60.5q-127 0 -127 -224z" />
<glyph unicode="c" horiz-adv-x="1130" d="M47 530q0 261 157 410.5t429 149.5q191 0 314.5 -91t166.5 -245l-391 -121q-11 64 -32.5 91.5t-65.5 27.5q-117 0 -117 -236q0 -115 33.5 -164t81.5 -49q43 0 67 25.5t33 77.5l393 -121q-55 -149 -179 -235.5t-314 -86.5q-276 0 -426 146.5t-150 420.5z" />
<glyph unicode="d" horiz-adv-x="1273" d="M47 526q0 260 111 406.5t307 146.5q189 0 278 -129v496h451v-1446h-430v106q-115 -131 -322 -131q-184 0 -289.5 146.5t-105.5 404.5zM506 535q0 -115 32.5 -175.5t94.5 -60.5q127 0 127 223q0 226 -133 226q-121 0 -121 -213z" />
<glyph unicode="e" horiz-adv-x="1204" d="M47 526q0 256 152.5 410t400.5 154q287 0 428 -170.5t141 -487.5h-669q5 -80 43 -111.5t88 -31.5q93 0 114 110l398 -123q-157 -313 -518 -313q-278 0 -428 147.5t-150 415.5zM500 666h245q-17 122 -118 122q-108 0 -127 -122z" />
<glyph unicode="f" horiz-adv-x="792" d="M14 731v324h144v80q0 177 97 257.5t302 80.5q118 0 219 -29v-309q-36 20 -84 20q-84 0 -84 -82v-18h168v-324h-168v-731h-450v731h-144z" />
<glyph unicode="g" horiz-adv-x="1273" d="M47 569q0 237 120 372.5t322 135.5q205 0 281 -131v109h424v-910q0 -301 -131.5 -432t-444.5 -131q-244 0 -388.5 96t-170.5 273l439 49q24 -94 116 -94q72 0 100.5 40t28.5 134v67q-38 -45 -109 -69.5t-161 -24.5q-200 0 -313 136.5t-113 379.5zM506 547 q0 -112 32.5 -162.5t96.5 -50.5q66 0 98.5 46.5t32.5 164.5q0 103 -33 156t-92 53q-135 0 -135 -207z" />
<glyph unicode="h" horiz-adv-x="1253" d="M80 0v1446h450v-512q73 73 149 108t181 35q209 0 281 -153q39 -83 39 -258v-666h-451v561q0 72 -22 102.5t-70 30.5q-107 0 -107 -155v-539h-450z" />
<glyph unicode="i" d="M80 0v1055h455v-1055h-455zM80 1159v287h455v-287h-455z" />
<glyph unicode="j" horiz-adv-x="643" d="M-76 -74q30 -6 56 -6q70 0 100 35q18 21 23.5 55t5.5 99v946h454v-1049q0 -144 -44 -230t-130 -136q-102 -58 -295 -58q-91 0 -170 12v332zM109 1159v287h454v-287h-454z" />
<glyph unicode="k" horiz-adv-x="1298" d="M80 0v1446h450v-655l205 264h545l-367 -398l383 -657h-528l-172 338l-66 -66v-272h-450z" />
<glyph unicode="l" d="M80 0v1446h455v-1446h-455z" />
<glyph unicode="m" horiz-adv-x="1886" d="M80 0v1055h440v-129q71 74 149.5 112.5t182.5 38.5q218 0 287 -166q77 79 158 120.5t196 41.5q208 0 281 -155q38 -81 38 -259v-659h-450v561q0 71 -16 98q-20 35 -72 35t-78 -39q-25 -39 -25 -120v-535h-450v561q0 71 -16 98q-20 35 -72 35t-78 -39q-25 -39 -25 -120 v-535h-450z" />
<glyph unicode="n" horiz-adv-x="1253" d="M80 0v1055h440v-129q144 151 340 151q209 0 281 -153q39 -83 39 -258v-666h-451v561q0 69 -16 96q-19 37 -76 37q-56 0 -82 -39q-25 -39 -25 -120v-535h-450z" />
<glyph unicode="o" horiz-adv-x="1275" d="M47 518q0 267 163.5 420.5t440.5 153.5t427.5 -151.5t150.5 -428.5q0 -137 -48.5 -244t-132 -172.5t-188 -99t-223.5 -33.5q-278 0 -434 145.5t-156 409.5zM506 537q0 -118 37 -176t100 -58q127 0 127 221q0 228 -127 228q-63 0 -100 -52t-37 -163z" />
<glyph unicode="p" horiz-adv-x="1273" d="M80 -381v1436h430v-107q115 131 321 131q184 0 290 -146.5t106 -404.5q0 -259 -111 -402.5t-307 -143.5q-190 0 -279 129v-492h-450zM514 532q0 -223 133 -223q121 0 121 211q0 115 -32.5 175.5t-94.5 60.5q-127 0 -127 -224z" />
<glyph unicode="q" horiz-adv-x="1273" d="M47 528q0 260 111 406.5t307 146.5q105 0 174.5 -35t124.5 -112v121h430v-1436h-451v496q-49 -59 -127 -94t-174 -35q-184 0 -289.5 142.5t-105.5 399.5zM506 539q0 -115 32.5 -174.5t94.5 -59.5q127 0 127 221q0 226 -133 226q-121 0 -121 -213z" />
<glyph unicode="r" horiz-adv-x="870" d="M80 0v1055h430v-146q40 71 109.5 115.5t156.5 44.5q39 0 86 -12v-387q-64 26 -123 26q-109 0 -161 -61q-28 -31 -38 -77t-10 -134v-424h-450z" />
<glyph unicode="s" horiz-adv-x="1046" d="M6 164l227 250q45 -69 119.5 -108.5t151.5 -39.5q76 0 76 43q0 20 -14.5 34.5t-53.5 27.5l-162 55q-140 47 -214.5 123t-74.5 192q0 157 122 253t378 96q136 0 260.5 -45t212.5 -125l-219 -244q-51 61 -112 93t-117 32q-74 0 -74 -47q0 -21 20 -33.5t89 -36.5l139 -49 q270 -95 270 -305q0 -168 -142.5 -267.5t-365.5 -99.5q-146 0 -283 52t-233 149z" />
<glyph unicode="t" horiz-adv-x="780" d="M8 729v326h133v311h443v-311h176v-326h-176v-313q0 -70 27.5 -91.5t74.5 -21.5q35 0 82 21v-324q-122 -25 -268 -25q-93 0 -160 21.5t-106 55t-61 88.5t-29 109t-7 128v352h-129z" />
<glyph unicode="u" horiz-adv-x="1253" d="M74 389v666h450v-561q0 -54 8 -78q17 -56 84 -56q66 0 91 54q16 36 16 102v539h451v-1055h-441v129q-61 -77 -140 -114.5t-187 -37.5q-106 0 -181 39.5t-110 114.5q-41 87 -41 258z" />
<glyph unicode="v" horiz-adv-x="1222" d="M0 1055h483q130 -588 140 -637q30 174 141 637h459l-328 -1055h-555z" />
<glyph unicode="w" horiz-adv-x="1730" d="M0 1055h465q64 -358 96 -594q36 249 107 594h434q70 -398 98 -594q37 272 100 594h431l-236 -1055h-510q-39 226 -70.5 418t-33.5 203q-58 -343 -113 -621h-510z" />
<glyph unicode="x" horiz-adv-x="1181" d="M0 0l301 545l-283 510h484q48 -111 100 -258q67 187 96 258h465l-280 -506l299 -549h-480q-67 155 -116 283q-54 -144 -115 -283h-471z" />
<glyph unicode="y" horiz-adv-x="1200" d="M0 1055h481q89 -385 133 -623q60 316 125 623h459l-276 -918q-47 -154 -95.5 -250t-115.5 -163q-142 -142 -430 -142q-90 0 -189 15v346q54 -21 101 -21q56 0 91 24t58 81z" />
<glyph unicode="z" horiz-adv-x="1089" d="M43 0v248l406 481h-386v326h957v-256l-385 -471h405v-328h-997z" />
<glyph unicode="{" horiz-adv-x="919" d="M74 492v204q112 17 148 82.5t36 225.5v194q0 81 22.5 143.5t66 103.5t96.5 69t124 42t137 19.5t148 5.5v-195q-46 -7 -73.5 -13.5t-56 -18t-43.5 -28t-27.5 -43t-17.5 -63t-5 -87.5v-175q0 -175 -47.5 -251t-182.5 -113q129 -38 179.5 -115.5t50.5 -251.5v-217 q0 -40 4.5 -70.5t11.5 -53t22 -38.5t30.5 -26t41.5 -17t50.5 -10.5t62.5 -7.5v-193q-69 0 -126 3.5t-120 13.5t-112 26.5t-94.5 45.5t-75.5 67.5t-48 94t-18 124.5v215q0 90 -6 140t-26 88t-55.5 54.5t-96.5 25.5z" />
<glyph unicode="|" horiz-adv-x="763" d="M195 -365v1903h376v-1903h-376z" />
<glyph unicode="}" horiz-adv-x="919" d="M68 -211q68 11 104.5 22t66.5 38t41 72.5t11 121.5v174q0 176 47.5 252t181.5 113q-129 38 -179 115t-50 251v217q0 56 -9 94t-23.5 61.5t-45 37t-61 20t-84.5 11.5v192q69 0 126 -3.5t120 -13.5t112 -26.5t94.5 -45.5t75.5 -67.5t48 -94t18 -124.5v-215q0 -90 6 -140 t26 -87.5t55.5 -54t96.5 -25.5v-205q-113 -17 -148.5 -82t-35.5 -225v-195q0 -81 -22.5 -143.5t-66 -103.5t-96.5 -69t-124 -42t-137 -19.5t-148 -5.5v195z" />
<glyph unicode="~" horiz-adv-x="1566" d="M127 655q199 238 403 238q63 0 119.5 -16.5t155.5 -69.5q137 -74 211 -74q55 0 106 34t125 122l197 -273q-77 -103 -191.5 -173t-224.5 -70q-67 0 -123 19t-151 67q-135 71 -199 71q-58 0 -111.5 -36.5t-117.5 -116.5z" />
<glyph unicode="&#xa0;" />
<glyph unicode="&#xa1;" horiz-adv-x="673" d="M41 0l47 461q23 226 55 471h318q34 -224 59 -469l47 -463h-526zM84 1024v422h426v-422h-426z" />
<glyph unicode="&#xa2;" horiz-adv-x="1228" d="M76 530q0 236 132 382t361 171v201h185v-199q351 -33 436 -331l-354 -111q-15 102 -88 121v-461q31 9 54 33.5t32 58.5l364 -110q-103 -283 -444 -316v-196h-185v194q-234 22 -363.5 167t-129.5 396zM471 522q0 -165 104 -213v451q-52 -21 -78 -77t-26 -161z" />
<glyph unicode="&#xa3;" horiz-adv-x="1480" d="M43 252q0 122 83.5 197t219.5 75q85 0 158 -30q-8 20 -28.5 57.5t-41.5 60.5h-274v232h153q-53 114 -53 221q0 180 146.5 282.5t396.5 102.5q212 0 354.5 -76.5t224.5 -238.5l-378 -166q-19 82 -58 126t-110 44q-61 0 -104.5 -33.5t-43.5 -93.5q0 -86 51 -168h361v-232 h-256q55 -82 55 -176q0 -37 -6 -61q71 -39 104 -39q47 0 71 33.5t36 119.5l377 -120q-40 -195 -140 -296.5t-254 -101.5q-197 0 -354 135q-73 -68 -160.5 -102.5t-207.5 -34.5q-146 0 -234 78t-88 205zM328 240q0 -30 22 -49t58 -19q37 0 67 23.5t47 66.5q-49 49 -106 49 q-40 0 -64 -19.5t-24 -51.5z" />
<glyph unicode="&#xa4;" horiz-adv-x="1406" d="M51 272l164 166q-70 116 -70 256t70 256l-164 166l232 232l161 -166q121 69 261 69q137 0 258 -69l163 166l232 -232l-164 -166q68 -113 68 -256t-68 -256l164 -166l-232 -231l-163 164q-119 -68 -258 -68q-142 0 -261 68l-161 -164zM473 696q0 -106 66 -175.5t166 -69.5 q98 0 164.5 70t66.5 173t-66.5 173.5t-164.5 70.5q-97 0 -164.5 -70.5t-67.5 -171.5z" />
<glyph unicode="&#xa5;" horiz-adv-x="1560" d="M43 1413h518q47 -95 125 -262t109 -231q17 37 97 215.5t126 277.5h500l-310 -532h213v-205h-329l-60 -88v-23h389v-205h-387v-360h-485v360h-399v205h401v23l-55 88h-346v205h215z" />
<glyph unicode="&#xa6;" horiz-adv-x="763" d="M195 -365v818h376v-818h-376zM195 721v817h376v-817h-376z" />
<glyph unicode="&#xa7;" horiz-adv-x="1339" d="M59 639q0 202 201 322q-98 92 -98 219q0 169 142 265.5t386 96.5q311 0 504 -201l-250 -245q-114 153 -262 153q-39 0 -61.5 -15.5t-22.5 -43.5q0 -49 70 -82l309 -141q169 -77 240 -164t71 -211q0 -174 -168 -307q97 -84 97 -213q0 -178 -150.5 -286t-427.5 -108 q-152 0 -307.5 56.5t-245.5 167.5l260 254q59 -88 142 -136.5t169 -48.5q39 0 63.5 17t24.5 43q0 29 -16.5 50.5t-71.5 45.5l-305 133q-151 66 -222 158.5t-71 220.5zM436 702q0 -31 18 -53.5t72 -48.5l336 -164q45 39 45 82q0 33 -20 54t-76 49l-330 163q-45 -36 -45 -82z " />
<glyph unicode="&#xa8;" d="M-115 1186v303h357v-303h-357zM373 1186v303h356v-303h-356z" />
<glyph unicode="&#xa9;" horiz-adv-x="1691" d="M90 729q0 156 60 297t162 242.5t244 161t300 59.5q156 0 296 -59t241.5 -159t161 -239t59.5 -293q0 -217 -98 -395t-269 -279.5t-379 -101.5q-161 0 -305 59.5t-248 161.5t-164.5 244t-60.5 301zM246 727q0 -168 82.5 -311t224.5 -226.5t309 -83.5q122 0 232 48.5 t190 130.5t127 195.5t47 238.5q0 176 -78 319.5t-216 225.5t-306 82q-127 0 -240.5 -48.5t-195 -131t-129 -197t-47.5 -242.5zM428 729q0 205 119.5 322.5t322.5 117.5q147 0 241.5 -69t127.5 -189l-299 -94q-6 49 -24 69.5t-52 20.5q-48 0 -74 -42t-26 -146q0 -168 98 -168 q67 0 82 80l295 -94q-42 -118 -136.5 -186t-240.5 -68q-206 0 -320 115.5t-114 330.5z" />
<glyph unicode="&#xaa;" horiz-adv-x="933" d="M29 829q0 82 37.5 134.5t115.5 87.5q114 51 355 73v29q0 38 -17 55t-55 17q-74 0 -84 -84l-318 24q21 147 127.5 225t296.5 78q214 0 308 -82q46 -38 65 -97.5t19 -162.5v-329q0 -145 22 -201h-336q-9 34 -12 88q-49 -60 -112 -84.5t-150 -24.5q-121 0 -191.5 68.5 t-70.5 185.5zM365 866q0 -24 14 -38.5t43 -14.5q52 0 83.5 33t31.5 92v12q-83 -9 -144 -35q-28 -14 -28 -49z" />
<glyph unicode="&#xab;" horiz-adv-x="1210" d="M57 584l342 501l244 -167l-231 -334l229 -357l-242 -157zM545 584l342 501l243 -167l-231 -334l229 -357l-241 -157z" />
<glyph unicode="&#xac;" horiz-adv-x="1566" d="M193 455v354h1140v-750h-375v396h-765z" />
<glyph unicode="&#xad;" horiz-adv-x="815" d="M72 487v334h671v-334h-671z" />
<glyph unicode="&#xae;" horiz-adv-x="1691" d="M90 729q0 156 60 297t162 242.5t244 161t300 59.5q156 0 296 -59t241.5 -159t161 -239t59.5 -293q0 -217 -98 -395t-269 -279.5t-379 -101.5q-161 0 -305 59.5t-248 161.5t-164.5 244t-60.5 301zM246 727q0 -168 82.5 -311t224.5 -226.5t309 -83.5q122 0 232 48.5 t190 130.5t127 195.5t47 238.5q0 176 -78 319.5t-216 225.5t-306 82q-127 0 -240.5 -48.5t-195 -131t-129 -197t-47.5 -242.5zM506 322v831h375q107 0 159 -9.5t95 -37.5q104 -67 104 -219q0 -87 -36.5 -143.5t-115.5 -90.5l187 -331h-324l-133 286h-31v-286h-280zM791 805 h63q102 0 102 74q0 40 -23 56.5t-81 16.5h-61v-147z" />
<glyph unicode="&#xaf;" d="M-41 1219v225h698v-225h-698z" />
<glyph unicode="&#xb0;" horiz-adv-x="952" d="M78 1102q0 163 114.5 272t284.5 109q171 0 284 -106t113 -281q0 -167 -111.5 -276t-283.5 -109q-170 0 -285.5 112.5t-115.5 278.5zM319 1098q0 -66 44 -112t110 -46q65 0 109.5 45.5t44.5 110.5q0 67 -43.5 111t-108.5 44q-66 0 -111 -44t-45 -109z" />
<glyph unicode="&#xb1;" horiz-adv-x="1566" d="M213 0v354h1141v-354h-1141zM213 809v354h387v375h369v-375h385v-354h-385v-354h-369v354h-387z" />
<glyph unicode="&#xb2;" horiz-adv-x="907" d="M53 1495q0 144 107.5 225.5t292.5 81.5q183 0 279.5 -77.5t96.5 -211.5q0 -132 -102 -231q-84 -77 -205 -152q185 5 312 5v-234h-764v201l241 170q101 71 146 128t45 111q0 64 -72 64q-39 0 -60.5 -30.5t-21.5 -76.5q0 -9 6 -63l-297 33q-4 32 -4 57z" />
<glyph unicode="&#xb3;" horiz-adv-x="907" d="M31 1149l280 80q10 -62 44 -96.5t79 -34.5q41 0 71 18.5t30 52.5q0 37 -33.5 58.5t-93.5 21.5h-64v201q20 -4 59 -4q53 0 84 19.5t31 58.5q0 31 -22.5 49t-59.5 18q-101 0 -110 -137l-281 70q18 61 46.5 107.5t76 87t121 62t170.5 21.5q183 0 282 -68t99 -190 q0 -135 -133 -182q73 -20 115 -73.5t42 -127.5q0 -133 -105.5 -207.5t-303.5 -74.5q-178 0 -283 64t-141 206z" />
<glyph unicode="&#xb4;" d="M2 1186l186 317h422l-323 -317h-285z" />
<glyph unicode="&#xb5;" horiz-adv-x="1290" d="M96 -377v1432h451v-578q0 -64 12 -88q20 -45 78 -45q56 0 80 31q26 30 26 114v566h451v-1055h-434v102q-23 -108 -121 -108q-78 0 -109 69v-440h-434z" />
<glyph unicode="&#xb6;" horiz-adv-x="1224" d="M51 1020q0 125 53.5 223t155.5 148q63 31 134 43t184 12h602v-168h-111v-1575h-180v1575h-285v-1575h-178v897q-169 25 -272 137.5t-103 282.5z" />
<glyph unicode="&#xb7;" horiz-adv-x="581" d="M78 410v421h426v-421h-426z" />
<glyph unicode="&#xb8;" d="M51 -408l107 113q51 -63 118 -63q40 0 62 18t22 51q0 32 -24.5 51t-69.5 19q-38 0 -92 -29l-55 82l135 176h156l-70 -106q109 0 165 -52.5t56 -140.5q0 -99 -72.5 -160t-195.5 -61q-148 0 -242 102z" />
<glyph unicode="&#xb9;" horiz-adv-x="907" d="M154 1434v235q101 0 157 28t70 95h281v-891h-322v559q-69 -26 -186 -26z" />
<glyph unicode="&#xba;" horiz-adv-x="1040" d="M49 1012q0 213 129 334.5t350 121.5q220 0 341.5 -120.5t121.5 -339.5q0 -109 -39 -195t-105.5 -138t-150.5 -79t-178 -27q-221 0 -345 116t-124 327zM418 1026q0 -94 29 -140t79 -46q101 0 101 176q0 182 -101 182q-49 0 -78.5 -41.5t-29.5 -130.5z" />
<glyph unicode="&#xbb;" horiz-adv-x="1210" d="M80 238l231 333l-229 357l242 157l342 -514l-342 -501zM567 238l232 333l-230 357l242 157l342 -514l-342 -501z" />
<glyph unicode="&#xbc;" horiz-adv-x="2093" d="M131 1065v235q101 0 157 28t70 95h281v-891h-322v560q-72 -27 -186 -27zM553 0l586 1411h268l-588 -1411h-266zM1151 160v207l365 512h331v-504h113v-215h-113v-160h-299v160h-397zM1413 375h135q0 155 2 223q-39 -68 -137 -223z" />
<glyph unicode="&#xbd;" horiz-adv-x="2093" d="M106 1065v235q101 0 157.5 28t70.5 95h280v-891h-321v560q-72 -27 -187 -27zM528 0l586 1411h268l-587 -1411h-267zM1192 594q0 144 107 225.5t292 81.5q183 0 280 -77.5t97 -211.5q0 -132 -102 -231q-84 -77 -205 -152q148 4 311 4v-233h-764v201l242 170 q101 71 145.5 128t44.5 111q0 64 -71 64q-39 0 -60.5 -30.5t-21.5 -76.5q0 -9 6 -63l-297 33q-4 32 -4 57z" />
<glyph unicode="&#xbe;" horiz-adv-x="2093" d="M49 780l281 80q10 -62 44 -96.5t79 -34.5q40 0 70 19t30 53q0 37 -33.5 58.5t-93.5 21.5h-64v200q20 -4 60 -4q53 0 84 19.5t31 58.5q0 31 -22.5 49.5t-59.5 18.5q-102 0 -111 -138l-281 70q18 61 46.5 107.5t76 87.5t121 62.5t170.5 21.5q183 0 282 -68t99 -190 q0 -136 -133 -183q73 -21 115.5 -73.5t42.5 -126.5q0 -133 -106 -208t-304 -75q-178 0 -283 64t-141 206zM686 0l586 1411h268l-588 -1411h-266zM1225 160v207l364 512h332v-504h113v-215h-113v-160h-299v160h-397zM1487 375h135q0 155 2 223q-39 -68 -137 -223z" />
<glyph unicode="&#xbf;" horiz-adv-x="1271" d="M51 365q0 61 8 103t34 91.5t79.5 98t138.5 104.5q91 59 113 87t22 83h394v-51q0 -45 -5.5 -75t-24 -68t-57.5 -77.5t-104 -89.5q-61 -47 -79.5 -81t-18.5 -84q0 -36 25 -59t67 -23q107 0 107 104q0 28 -11 92l441 -63q-3 -247 -149.5 -371.5t-428.5 -124.5 q-265 0 -408 106.5t-143 297.5zM412 1024v422h426v-422h-426z" />
<glyph unicode="&#xc0;" horiz-adv-x="1636" d="M0 0l526 1446h613l497 -1446h-549l-59 207h-430l-57 -207h-541zM477 1862h428l107 -308h-291zM686 557h252q-74 274 -121 471q-62 -244 -131 -471z" />
<glyph unicode="&#xc1;" horiz-adv-x="1636" d="M0 0l526 1446h613l497 -1446h-549l-59 207h-430l-57 -207h-541zM666 1554l106 308h428l-244 -308h-290zM686 557h252q-74 274 -121 471q-62 -244 -131 -471z" />
<glyph unicode="&#xc2;" horiz-adv-x="1636" d="M0 0l526 1446h613l497 -1446h-549l-59 207h-430l-57 -207h-541zM406 1554l194 308h455l186 -308h-360l-64 140l-65 -140h-346zM686 557h252q-74 274 -121 471q-62 -244 -131 -471z" />
<glyph unicode="&#xc3;" horiz-adv-x="1636" d="M0 0l526 1446h613l497 -1446h-549l-59 207h-430l-57 -207h-541zM356 1681q53 99 116.5 144t154.5 45q48 0 127 -23l120 -37q40 -10 78 -10q39 0 64 18.5t51 67.5l219 -145q-55 -102 -120.5 -148.5t-151.5 -46.5q-55 0 -127 21l-117 37q-46 14 -80 14q-49 0 -75 -22 t-54 -70zM686 557h252q-74 274 -121 471q-62 -244 -131 -471z" />
<glyph unicode="&#xc4;" horiz-adv-x="1636" d="M0 0l526 1446h613l497 -1446h-549l-59 207h-430l-57 -207h-541zM367 1554v304h370v-304h-370zM686 557h252q-74 274 -121 471q-62 -244 -131 -471zM918 1554v304h370v-304h-370z" />
<glyph unicode="&#xc5;" horiz-adv-x="1636" d="M0 0l526 1446h613l497 -1446h-549l-59 207h-430l-57 -207h-541zM573 1741q0 105 70 173t178 68q115 0 189.5 -68.5t74.5 -174.5t-72 -175t-182 -69q-114 0 -186 68.5t-72 177.5zM686 557h252q-74 274 -121 471q-62 -244 -131 -471zM737 1739q0 -43 26.5 -70t67.5 -27 t67 27t26 68q0 43 -26 69.5t-67 26.5t-67.5 -26.5t-26.5 -67.5z" />
<glyph unicode="&#xc6;" horiz-adv-x="2215" d="M0 0l729 1446h1411v-375h-624v-145h581v-377h-581v-174h657v-375h-1135v217h-385l-92 -217h-561zM817 598h221v543z" />
<glyph unicode="&#xc7;" horiz-adv-x="1470" d="M57 731q0 360 200.5 558t551.5 198q121 0 224.5 -32t180 -89.5t131.5 -129t89 -157.5l-435 -161q-27 76 -73 113.5t-123 37.5q-102 0 -169 -85.5t-67 -256.5q0 -356 242 -356q78 0 124 41.5t64 136.5l461 -158q-181 -386 -596 -426l-63 -88q254 0 254 -190 q0 -100 -79 -164t-214 -64q-161 0 -266 99l108 127q58 -66 133 -66q43 0 67.5 19t24.5 51q0 71 -98 71q-51 0 -104 -30l-58 82l121 153q-302 22 -466.5 217.5t-164.5 548.5z" />
<glyph unicode="&#xc8;" horiz-adv-x="1320" d="M86 0v1446h1159v-375h-670v-145h627v-377h-627v-174h703v-375h-1192zM307 1862h428l107 -308h-291z" />
<glyph unicode="&#xc9;" horiz-adv-x="1320" d="M86 0v1446h1159v-375h-670v-145h627v-377h-627v-174h703v-375h-1192zM473 1554l107 308h428l-244 -308h-291z" />
<glyph unicode="&#xca;" horiz-adv-x="1320" d="M86 0v1446h1159v-375h-670v-145h627v-377h-627v-174h703v-375h-1192zM236 1554l194 308h455l186 -308h-360l-64 140l-65 -140h-346z" />
<glyph unicode="&#xcb;" horiz-adv-x="1320" d="M86 0v1446h1159v-375h-670v-145h627v-377h-627v-174h703v-375h-1192zM197 1554v304h370v-304h-370zM748 1554v304h370v-304h-370z" />
<glyph unicode="&#xcc;" horiz-adv-x="677" d="M-20 1862h428l106 -308h-291zM86 0v1446h506v-1446h-506z" />
<glyph unicode="&#xcd;" horiz-adv-x="677" d="M86 0v1446h506v-1446h-506zM176 1554l107 308h428l-244 -308h-291z" />
<glyph unicode="&#xce;" horiz-adv-x="677" d="M-80 1554l195 308h454l187 -308h-361l-63 140l-66 -140h-346zM86 0v1446h506v-1446h-506z" />
<glyph unicode="&#xcf;" horiz-adv-x="677" d="M-123 1554v304h371v-304h-371zM86 0v1446h506v-1446h-506zM428 1554v304h371v-304h-371z" />
<glyph unicode="&#xd0;" horiz-adv-x="1529" d="M2 578v317h84v551h557q199 0 324.5 -19.5t210.5 -64.5q140 -74 217.5 -239t77.5 -392q0 -248 -100.5 -431.5t-282.5 -246.5q-89 -31 -189 -42t-280 -11h-535v578h-84zM588 401h57q87 0 143 13t91 47q84 81 84 280q0 185 -78 254q-34 30 -84.5 41t-128.5 11h-84v-152h225 v-317h-225v-177z" />
<glyph unicode="&#xd1;" horiz-adv-x="1593" d="M86 0v1446h561q27 -53 93.5 -182t103.5 -201t90 -179.5t94 -195.5q-12 249 -12 758h491v-1446h-544q-45 86 -126.5 238.5t-147 277.5t-120.5 236q6 -193 6 -752h-489zM332 1681q53 100 116 144.5t154 44.5q48 0 127 -23l121 -37q40 -10 78 -10q39 0 63.5 18.5t50.5 67.5 l220 -145q-55 -102 -121 -148.5t-152 -46.5q-55 0 -127 21l-117 37q-45 14 -79 14q-49 0 -75 -22t-54 -70z" />
<glyph unicode="&#xd2;" horiz-adv-x="1656" d="M57 723q0 355 210 558.5t571 203.5q358 0 559.5 -199t201.5 -563q0 -159 -38.5 -287t-107 -216t-164.5 -147.5t-208 -86.5t-241 -27q-238 0 -413 86.5t-272.5 260t-97.5 417.5zM489 1862h429l106 -308h-291zM567 725q0 -177 72 -264.5t195 -87.5q253 0 253 360 q-7 174 -71.5 254t-181.5 80q-126 0 -196.5 -84t-70.5 -258z" />
<glyph unicode="&#xd3;" horiz-adv-x="1656" d="M57 723q0 355 210 558.5t571 203.5q358 0 559.5 -199t201.5 -563q0 -159 -38.5 -287t-107 -216t-164.5 -147.5t-208 -86.5t-241 -27q-238 0 -413 86.5t-272.5 260t-97.5 417.5zM567 725q0 -177 72 -264.5t195 -87.5q253 0 253 360q-7 174 -71.5 254t-181.5 80 q-126 0 -196.5 -84t-70.5 -258zM647 1554l107 308h428l-244 -308h-291z" />
<glyph unicode="&#xd4;" horiz-adv-x="1656" d="M57 723q0 355 210 558.5t571 203.5q358 0 559.5 -199t201.5 -563q0 -159 -38.5 -287t-107 -216t-164.5 -147.5t-208 -86.5t-241 -27q-238 0 -413 86.5t-272.5 260t-97.5 417.5zM428 1554l195 308h454l187 -308h-361l-63 140l-66 -140h-346zM567 725q0 -177 72 -264.5 t195 -87.5q253 0 253 360q-7 174 -71.5 254t-181.5 80q-126 0 -196.5 -84t-70.5 -258z" />
<glyph unicode="&#xd5;" horiz-adv-x="1656" d="M57 723q0 355 210 558.5t571 203.5q358 0 559.5 -199t201.5 -563q0 -159 -38.5 -287t-107 -216t-164.5 -147.5t-208 -86.5t-241 -27q-238 0 -413 86.5t-272.5 260t-97.5 417.5zM362 1681q53 99 116.5 144t154.5 45q48 0 127 -23l121 -37q40 -10 77 -10q39 0 64 18.5 t51 67.5l219 -145q-55 -102 -120.5 -148.5t-151.5 -46.5q-55 0 -127 21l-117 37q-46 14 -80 14q-49 0 -75 -22t-54 -70zM567 725q0 -177 72 -264.5t195 -87.5q253 0 253 360q-7 174 -71.5 254t-181.5 80q-126 0 -196.5 -84t-70.5 -258z" />
<glyph unicode="&#xd6;" horiz-adv-x="1656" d="M57 723q0 355 210 558.5t571 203.5q358 0 559.5 -199t201.5 -563q0 -159 -38.5 -287t-107 -216t-164.5 -147.5t-208 -86.5t-241 -27q-238 0 -413 86.5t-272.5 260t-97.5 417.5zM371 1554v304h370v-304h-370zM567 725q0 -177 72 -264.5t195 -87.5q253 0 253 360 q-7 174 -71.5 254t-181.5 80q-126 0 -196.5 -84t-70.5 -258zM922 1554v304h370v-304h-370z" />
<glyph unicode="&#xd7;" horiz-adv-x="1566" d="M238 340l294 293l-294 297l254 256l296 -295l293 295l250 -248l-295 -293l291 -289l-256 -258l-291 289l-291 -293z" />
<glyph unicode="&#xd8;" horiz-adv-x="1656" d="M16 104l164 158q-123 186 -123 461q0 355 211 558.5t572 203.5q283 0 475 -129l168 162l162 -175l-166 -157q120 -186 120 -463q0 -159 -38.5 -287t-107 -216t-164.5 -147.5t-208 -86.5t-241 -27q-302 0 -500 139l-172 -166zM557 725q0 -59 8 -98l418 403q-57 45 -149 45 q-131 0 -204 -86t-73 -264zM668 416q66 -51 166 -51q264 0 264 368q0 46 -8 86z" />
<glyph unicode="&#xd9;" horiz-adv-x="1480" d="M86 621v825h477v-813q0 -115 19 -166q36 -94 155 -94q121 0 160 96q21 56 21 168v809h477v-828q0 -354 -160 -497q-179 -162 -508 -162q-350 0 -500 160q-83 87 -112 207.5t-29 294.5zM387 1862h428l107 -308h-291z" />
<glyph unicode="&#xda;" horiz-adv-x="1480" d="M86 621v825h477v-813q0 -115 19 -166q36 -94 155 -94q121 0 160 96q21 56 21 168v809h477v-828q0 -354 -160 -497q-179 -162 -508 -162q-350 0 -500 160q-83 87 -112 207.5t-29 294.5zM569 1554l107 308h428l-244 -308h-291z" />
<glyph unicode="&#xdb;" horiz-adv-x="1480" d="M86 621v825h477v-813q0 -115 19 -166q36 -94 155 -94q121 0 160 96q21 56 21 168v809h477v-828q0 -354 -160 -497q-179 -162 -508 -162q-350 0 -500 160q-83 87 -112 207.5t-29 294.5zM328 1554l194 308h455l186 -308h-360l-64 140l-65 -140h-346z" />
<glyph unicode="&#xdc;" horiz-adv-x="1480" d="M86 621v825h477v-813q0 -115 19 -166q36 -94 155 -94q121 0 160 96q21 56 21 168v809h477v-828q0 -354 -160 -497q-179 -162 -508 -162q-350 0 -500 160q-83 87 -112 207.5t-29 294.5zM281 1554v304h370v-304h-370zM831 1554v304h371v-304h-371z" />
<glyph unicode="&#xdd;" horiz-adv-x="1542" d="M-2 1446h565q116 -238 230 -477q32 75 215 477h534l-510 -856v-590h-502v590zM616 1554l107 308h428l-244 -308h-291z" />
<glyph unicode="&#xde;" horiz-adv-x="1482" d="M86 0v1446h496v-184h123q221 0 334 -17t184 -53q105 -51 162 -161.5t57 -264.5q0 -135 -52.5 -246t-148.5 -172q-149 -94 -405 -94h-254v-254h-496zM582 621h143q122 0 164 32q41 33 41 103q0 59 -35 94q-21 22 -56.5 29.5t-105.5 7.5h-151v-266z" />
<glyph unicode="&#xdf;" horiz-adv-x="1300" d="M80 0v926q0 298 138 427.5t435 129.5q253 0 384.5 -103.5t131.5 -283.5q0 -109 -58.5 -184.5t-172.5 -110.5q164 -23 246 -121t82 -262q0 -202 -122 -318t-345 -116q-89 0 -195 16v307q41 -16 82 -16q131 0 131 139q0 89 -41 129.5t-131 40.5q-26 0 -53 -4v299 q16 -2 43 -2q110 0 110 149q0 67 -27 100.5t-71 33.5q-82 0 -104 -78q-8 -27 -8 -115v-983h-455z" />
<glyph unicode="&#xe0;" horiz-adv-x="1212" d="M39 291q0 103 49.5 168t149.5 108q143 62 460 95v34q0 47 -22.5 68.5t-71.5 21.5q-52 0 -77 -26.5t-31 -79.5l-412 31q12 94 46 162t98 118t165 74.5t240 24.5q275 0 399 -103q59 -47 84 -121.5t25 -201.5v-412q0 -190 28 -252h-436q-12 56 -14 111 q-63 -75 -146.5 -106.5t-193.5 -31.5q-158 0 -249 85.5t-91 232.5zM248 1503h422l153 -317h-284zM473 338q0 -28 19 -47t57 -19q67 0 108 41t41 115v14q-118 -13 -186 -43q-39 -17 -39 -61z" />
<glyph unicode="&#xe1;" horiz-adv-x="1212" d="M39 291q0 103 49.5 168t149.5 108q143 62 460 95v34q0 47 -22.5 68.5t-71.5 21.5q-52 0 -77 -26.5t-31 -79.5l-412 31q12 94 46 162t98 118t165 74.5t240 24.5q275 0 399 -103q59 -47 84 -121.5t25 -201.5v-412q0 -190 28 -252h-436q-12 56 -14 111 q-63 -75 -146.5 -106.5t-193.5 -31.5q-158 0 -249 85.5t-91 232.5zM420 1186l186 317h422l-323 -317h-285zM473 338q0 -28 19 -47t57 -19q67 0 108 41t41 115v14q-118 -13 -186 -43q-39 -17 -39 -61z" />
<glyph unicode="&#xe2;" horiz-adv-x="1212" d="M39 291q0 103 49.5 168t149.5 108q143 62 460 95v34q0 47 -22.5 68.5t-71.5 21.5q-52 0 -77 -26.5t-31 -79.5l-412 31q12 94 46 162t98 118t165 74.5t240 24.5q275 0 399 -103q59 -47 84 -121.5t25 -201.5v-412q0 -190 28 -252h-436q-12 56 -14 111 q-63 -75 -146.5 -106.5t-193.5 -31.5q-158 0 -249 85.5t-91 232.5zM217 1186l195 317h403l186 -317h-344l-55 135l-55 -135h-330zM473 338q0 -28 19 -47t57 -19q67 0 108 41t41 115v14q-118 -13 -186 -43q-39 -17 -39 -61z" />
<glyph unicode="&#xe3;" horiz-adv-x="1212" d="M39 291q0 103 49.5 168t149.5 108q143 62 460 95v34q0 47 -22.5 68.5t-71.5 21.5q-52 0 -77 -26.5t-31 -79.5l-412 31q12 94 46 162t98 118t165 74.5t240 24.5q275 0 399 -103q59 -47 84 -121.5t25 -201.5v-412q0 -190 28 -252h-436q-12 56 -14 111 q-63 -75 -146.5 -106.5t-193.5 -31.5q-158 0 -249 85.5t-91 232.5zM160 1294q73 116 131.5 162.5t152.5 46.5q45 0 103 -20l102 -35q56 -18 78 -18q41 0 64.5 17.5t42.5 61.5l221 -127q-55 -109 -117.5 -158.5t-151.5 -49.5q-58 0 -110 20l-98 37q-50 16 -82 16 q-78 0 -117 -86zM473 338q0 -28 19 -47t57 -19q67 0 108 41t41 115v14q-118 -13 -186 -43q-39 -17 -39 -61z" />
<glyph unicode="&#xe4;" horiz-adv-x="1212" d="M39 291q0 103 49.5 168t149.5 108q143 62 460 95v34q0 47 -22.5 68.5t-71.5 21.5q-52 0 -77 -26.5t-31 -79.5l-412 31q12 94 46 162t98 118t165 74.5t240 24.5q275 0 399 -103q59 -47 84 -121.5t25 -201.5v-412q0 -190 28 -252h-436q-12 56 -14 111 q-63 -75 -146.5 -106.5t-193.5 -31.5q-158 0 -249 85.5t-91 232.5zM182 1186v303h357v-303h-357zM473 338q0 -28 19 -47t57 -19q67 0 108 41t41 115v14q-118 -13 -186 -43q-39 -17 -39 -61zM670 1186v303h356v-303h-356z" />
<glyph unicode="&#xe5;" horiz-adv-x="1212" d="M39 291q0 103 49.5 168t149.5 108q143 62 460 95v34q0 47 -22.5 68.5t-71.5 21.5q-52 0 -77 -26.5t-31 -79.5l-412 31q12 94 46 162t98 118t165 74.5t240 24.5q275 0 399 -103q59 -47 84 -121.5t25 -201.5v-412q0 -190 28 -252h-436q-12 56 -14 111 q-63 -75 -146.5 -106.5t-193.5 -31.5q-158 0 -249 85.5t-91 232.5zM356 1401q0 97 65.5 159t164.5 62q106 0 172.5 -62.5t66.5 -160.5q0 -97 -66 -160t-167 -63q-103 0 -169.5 63.5t-66.5 161.5zM473 338q0 -28 19 -47t57 -19q67 0 108 41t41 115v14q-118 -13 -186 -43 q-39 -17 -39 -61zM506 1399q0 -38 25 -62t63 -24q37 0 60.5 23.5t23.5 60.5q0 38 -23.5 63t-60.5 25q-40 0 -64 -24t-24 -62z" />
<glyph unicode="&#xe6;" horiz-adv-x="1832" d="M39 279q0 103 50 171.5t149 110.5q146 63 460 96v39q0 47 -22.5 68.5t-71.5 21.5q-52 0 -77 -28t-31 -82l-412 31q27 184 165.5 283.5t383.5 99.5q187 0 303 -101q53 48 130.5 74.5t164.5 26.5q287 0 427 -170.5t140 -487.5h-670q5 -80 43.5 -111.5t88.5 -31.5 q93 0 114 110l398 -123q-156 -313 -519 -313q-146 0 -248.5 36t-175.5 126q-97 -90 -193.5 -126t-242.5 -36q-160 0 -257 85.5t-97 230.5zM473 334q0 -28 19 -47t57 -19q67 0 108 41t41 115v14q-118 -13 -186 -43q-39 -17 -39 -61zM1128 666h246q-17 122 -119 122 q-108 0 -127 -122z" />
<glyph unicode="&#xe7;" horiz-adv-x="1130" d="M47 530q0 261 156 410.5t430 149.5q191 0 314.5 -91t166.5 -245l-391 -121q-11 64 -32.5 91.5t-65.5 27.5q-117 0 -117 -236q0 -115 33.5 -164t81.5 -49q43 0 67 25.5t33 77.5l393 -121q-49 -133 -163.5 -218t-280.5 -100l-39 -63q109 0 165 -52.5t56 -140.5 q0 -99 -72.5 -160t-195.5 -61q-148 0 -242 102l107 113q51 -63 118 -63q40 0 62 18t22 51q0 32 -24.5 51t-69.5 19q-38 0 -92 -29l-55 82l102 133q-228 25 -347.5 168.5t-119.5 394.5z" />
<glyph unicode="&#xe8;" horiz-adv-x="1204" d="M47 526q0 256 152.5 410t400.5 154q287 0 428 -170.5t141 -487.5h-669q5 -80 43 -111.5t88 -31.5q93 0 114 110l398 -123q-157 -313 -518 -313q-278 0 -428 147.5t-150 415.5zM209 1503h422l153 -317h-284zM500 666h245q-17 122 -118 122q-108 0 -127 -122z" />
<glyph unicode="&#xe9;" horiz-adv-x="1204" d="M47 526q0 256 152.5 410t400.5 154q287 0 428 -170.5t141 -487.5h-669q5 -80 43 -111.5t88 -31.5q93 0 114 110l398 -123q-157 -313 -518 -313q-278 0 -428 147.5t-150 415.5zM406 1186l186 317h422l-324 -317h-284zM500 666h245q-17 122 -118 122q-108 0 -127 -122z" />
<glyph unicode="&#xea;" horiz-adv-x="1204" d="M47 526q0 256 152.5 410t400.5 154q287 0 428 -170.5t141 -487.5h-669q5 -80 43 -111.5t88 -31.5q93 0 114 110l398 -123q-157 -313 -518 -313q-278 0 -428 147.5t-150 415.5zM217 1186l195 317h403l186 -317h-344l-55 135l-55 -135h-330zM500 666h245q-17 122 -118 122 q-108 0 -127 -122z" />
<glyph unicode="&#xeb;" horiz-adv-x="1204" d="M47 526q0 256 152.5 410t400.5 154q287 0 428 -170.5t141 -487.5h-669q5 -80 43 -111.5t88 -31.5q93 0 114 110l398 -123q-157 -313 -518 -313q-278 0 -428 147.5t-150 415.5zM193 1186v303h356v-303h-356zM500 666h245q-17 122 -118 122q-108 0 -127 -122zM680 1186v303 h356v-303h-356z" />
<glyph unicode="&#xec;" d="M-80 1503h422l154 -317h-285zM80 0v1055h455v-1055h-455z" />
<glyph unicode="&#xed;" d="M80 0v1055h455v-1055h-455zM111 1186l186 317h422l-324 -317h-284z" />
<glyph unicode="&#xee;" d="M-86 1186l195 317h403l186 -317h-344l-55 135l-55 -135h-330zM80 0v1055h455v-1055h-455z" />
<glyph unicode="&#xef;" d="M-115 1186v303h357v-303h-357zM80 0v1055h455v-1055h-455zM373 1186v303h356v-303h-356z" />
<glyph unicode="&#xf0;" horiz-adv-x="1275" d="M47 494q0 103 31 189t82 142.5t118 95.5t137 56.5t142 17.5q67 0 107 -12q-36 74 -99 137l-370 -114l-64 196l279 88q-68 68 -134 109l295 192q136 -88 228 -180l260 80l65 -197l-170 -51q142 -173 208.5 -334t66.5 -372q0 -176 -80.5 -308t-213.5 -199t-298 -67 q-279 0 -434.5 137.5t-155.5 393.5zM506 510q0 -103 37 -155t100 -52q127 0 127 201q0 106 -35 153.5t-92 47.5t-97 -44.5t-40 -150.5z" />
<glyph unicode="&#xf1;" horiz-adv-x="1253" d="M80 0v1055h440v-129q144 151 340 151q209 0 281 -153q39 -83 39 -258v-666h-451v561q0 69 -16 96q-19 37 -76 37q-56 0 -82 -39q-25 -39 -25 -120v-535h-450zM180 1294q73 116 132 162.5t153 46.5q44 0 102 -20l103 -35q56 -18 78 -18q41 0 64 17.5t42 61.5l221 -127 q-55 -109 -117 -158.5t-151 -49.5q-59 0 -111 20l-98 37q-50 16 -82 16q-78 0 -117 -86z" />
<glyph unicode="&#xf2;" horiz-adv-x="1275" d="M47 518q0 267 163.5 420.5t440.5 153.5t427.5 -151.5t150.5 -428.5q0 -137 -48.5 -244t-132 -172.5t-188 -99t-223.5 -33.5q-278 0 -434 145.5t-156 409.5zM264 1503h422l154 -317h-285zM506 537q0 -118 37 -176t100 -58q127 0 127 221q0 228 -127 228q-63 0 -100 -52 t-37 -163z" />
<glyph unicode="&#xf3;" horiz-adv-x="1275" d="M47 518q0 267 163.5 420.5t440.5 153.5t427.5 -151.5t150.5 -428.5q0 -137 -48.5 -244t-132 -172.5t-188 -99t-223.5 -33.5q-278 0 -434 145.5t-156 409.5zM449 1186l186 317h422l-324 -317h-284zM506 537q0 -118 37 -176t100 -58q127 0 127 221q0 228 -127 228 q-63 0 -100 -52t-37 -163z" />
<glyph unicode="&#xf4;" horiz-adv-x="1275" d="M47 518q0 267 163.5 420.5t440.5 153.5t427.5 -151.5t150.5 -428.5q0 -137 -48.5 -244t-132 -172.5t-188 -99t-223.5 -33.5q-278 0 -434 145.5t-156 409.5zM250 1186l194 317h404l186 -317h-344l-55 135l-55 -135h-330zM506 537q0 -118 37 -176t100 -58q127 0 127 221 q0 228 -127 228q-63 0 -100 -52t-37 -163z" />
<glyph unicode="&#xf5;" horiz-adv-x="1275" d="M47 518q0 267 163.5 420.5t440.5 153.5t427.5 -151.5t150.5 -428.5q0 -137 -48.5 -244t-132 -172.5t-188 -99t-223.5 -33.5q-278 0 -434 145.5t-156 409.5zM190 1294q73 116 132 162.5t153 46.5q45 0 103 -20l102 -35q56 -18 78 -18q41 0 64 17.5t42 61.5l221 -127 q-55 -109 -117 -158.5t-151 -49.5q-58 0 -110 20l-99 37q-50 16 -82 16q-77 0 -116 -86zM506 537q0 -118 37 -176t100 -58q127 0 127 221q0 228 -127 228q-63 0 -100 -52t-37 -163z" />
<glyph unicode="&#xf6;" horiz-adv-x="1275" d="M47 518q0 267 163.5 420.5t440.5 153.5t427.5 -151.5t150.5 -428.5q0 -137 -48.5 -244t-132 -172.5t-188 -99t-223.5 -33.5q-278 0 -434 145.5t-156 409.5zM219 1186v303h356v-303h-356zM506 537q0 -118 37 -176t100 -58q127 0 127 221q0 228 -127 228q-63 0 -100 -52 t-37 -163zM707 1186v303h356v-303h-356z" />
<glyph unicode="&#xf7;" horiz-adv-x="1566" d="M213 455v354h1141v-354h-1141zM596 4v365h377v-365h-377zM596 897v363h377v-363h-377z" />
<glyph unicode="&#xf8;" horiz-adv-x="1275" d="M4 61l131 125q-88 133 -88 332q0 267 163.5 420.5t440.5 153.5q204 0 346 -88l136 129l137 -136l-135 -129q94 -142 94 -356q0 -137 -48.5 -244t-132 -172.5t-188 -99t-223.5 -33.5q-216 0 -361 88l-137 -129zM487 514l240 227q-31 31 -82 31q-111 0 -145 -127 q-13 -54 -13 -131zM551 319q38 -38 94 -38q107 0 135 135q8 44 8 129z" />
<glyph unicode="&#xf9;" horiz-adv-x="1253" d="M74 389v666h450v-561q0 -54 8 -78q17 -56 84 -56q66 0 91 54q16 36 16 102v539h451v-1055h-441v129q-61 -77 -140 -114.5t-187 -37.5q-106 0 -181 39.5t-110 114.5q-41 87 -41 258zM229 1503h422l154 -317h-285z" />
<glyph unicode="&#xfa;" horiz-adv-x="1253" d="M74 389v666h450v-561q0 -54 8 -78q17 -56 84 -56q66 0 91 54q16 36 16 102v539h451v-1055h-441v129q-61 -77 -140 -114.5t-187 -37.5q-106 0 -181 39.5t-110 114.5q-41 87 -41 258zM455 1186l186 317h422l-324 -317h-284z" />
<glyph unicode="&#xfb;" horiz-adv-x="1253" d="M74 389v666h450v-561q0 -54 8 -78q17 -56 84 -56q66 0 91 54q16 36 16 102v539h451v-1055h-441v129q-61 -77 -140 -114.5t-187 -37.5q-106 0 -181 39.5t-110 114.5q-41 87 -41 258zM238 1186l194 317h404l186 -317h-344l-55 135l-56 -135h-329z" />
<glyph unicode="&#xfc;" horiz-adv-x="1253" d="M74 389v666h450v-561q0 -54 8 -78q17 -56 84 -56q66 0 91 54q16 36 16 102v539h451v-1055h-441v129q-61 -77 -140 -114.5t-187 -37.5q-106 0 -181 39.5t-110 114.5q-41 87 -41 258zM203 1186v303h356v-303h-356zM690 1186v303h357v-303h-357z" />
<glyph unicode="&#xfd;" horiz-adv-x="1200" d="M0 1055h481q89 -385 133 -623q60 316 125 623h459l-276 -918q-47 -154 -95.5 -250t-115.5 -163q-142 -142 -430 -142q-90 0 -189 15v346q54 -21 101 -21q56 0 91 24t58 81zM420 1186l186 317h422l-323 -317h-285z" />
<glyph unicode="&#xfe;" horiz-adv-x="1273" d="M80 -381v1827h455v-479q100 112 296 112q184 0 290 -146.5t106 -404.5q0 -259 -111 -402.5t-307 -143.5q-190 0 -279 129v-492h-450zM514 532q0 -223 133 -223q121 0 121 211q0 115 -32.5 175.5t-94.5 60.5q-127 0 -127 -224z" />
<glyph unicode="&#xff;" horiz-adv-x="1200" d="M0 1055h481q89 -385 133 -623q60 316 125 623h459l-276 -918q-47 -154 -95.5 -250t-115.5 -163q-142 -142 -430 -142q-90 0 -189 15v346q54 -21 101 -21q56 0 91 24t58 81zM182 1186v303h357v-303h-357zM670 1186v303h356v-303h-356z" />
<glyph unicode="&#x152;" horiz-adv-x="2256" d="M57 711q0 354 183 560t479 206q249 0 358 -134v103h1104v-375h-625v-143h582v-379h-582v-174h658v-375h-1137v109q-76 -74 -162.5 -107t-218.5 -33q-137 0 -253 48t-202.5 139t-135 233.5t-48.5 321.5zM567 725q0 -173 68.5 -262.5t185.5 -89.5q135 0 200.5 85t65.5 259 q0 186 -64.5 268t-197.5 82q-122 0 -190 -85t-68 -257z" />
<glyph unicode="&#x153;" horiz-adv-x="1910" d="M47 518q0 268 160.5 421t439.5 153q107 0 194.5 -33.5t145.5 -91.5q61 58 147 90.5t183 32.5q284 0 421.5 -170.5t137.5 -487.5h-670q5 -80 43 -111.5t88 -31.5q94 0 115 110l397 -123q-157 -313 -518 -313q-221 0 -358 123q-58 -58 -150.5 -90.5t-199.5 -32.5 q-271 0 -423.5 144.5t-152.5 410.5zM506 537q0 -118 37 -176t100 -58q127 0 127 221q0 228 -127 228q-63 0 -100 -52t-37 -163zM1206 666h246q-17 122 -119 122q-108 0 -127 -122z" />
<glyph unicode="&#x178;" horiz-adv-x="1542" d="M-2 1446h565q116 -238 230 -477q32 75 215 477h534l-510 -856v-590h-502v590zM322 1554v304h370v-304h-370zM872 1554v304h371v-304h-371z" />
<glyph unicode="&#x2c6;" d="M-84 1186l195 317h403l186 -317h-344l-55 135l-55 -135h-330z" />
<glyph unicode="&#x2dc;" d="M-139 1294q73 116 131.5 162.5t152.5 46.5q45 0 103 -20l102 -35q56 -18 78 -18q41 0 64.5 17.5t42.5 61.5l221 -127q-55 -109 -117.5 -158.5t-151.5 -49.5q-58 0 -110 20l-98 37q-50 16 -82 16q-78 0 -117 -86z" />
<glyph unicode="&#x2000;" horiz-adv-x="991" />
<glyph unicode="&#x2001;" horiz-adv-x="1982" />
<glyph unicode="&#x2002;" horiz-adv-x="991" />
<glyph unicode="&#x2003;" horiz-adv-x="1982" />
<glyph unicode="&#x2004;" horiz-adv-x="660" />
<glyph unicode="&#x2005;" horiz-adv-x="495" />
<glyph unicode="&#x2006;" horiz-adv-x="330" />
<glyph unicode="&#x2007;" horiz-adv-x="330" />
<glyph unicode="&#x2008;" horiz-adv-x="247" />
<glyph unicode="&#x2009;" horiz-adv-x="396" />
<glyph unicode="&#x200a;" horiz-adv-x="110" />
<glyph unicode="&#x2010;" horiz-adv-x="815" d="M72 487v334h671v-334h-671z" />
<glyph unicode="&#x2011;" horiz-adv-x="815" d="M72 487v334h671v-334h-671z" />
<glyph unicode="&#x2012;" horiz-adv-x="815" d="M72 487v334h671v-334h-671z" />
<glyph unicode="&#x2013;" horiz-adv-x="1288" d="M72 487v334h1145v-334h-1145z" />
<glyph unicode="&#x2014;" horiz-adv-x="1611" d="M72 487v334h1468v-334h-1468z" />
<glyph unicode="&#x2018;" horiz-adv-x="587" d="M78 672v387q0 146 50 258t167 201l205 -177q-62 -56 -88.5 -109.5t-30.5 -137.5h123v-422h-426z" />
<glyph unicode="&#x2019;" horiz-adv-x="587" d="M84 1024v422h426v-387q0 -146 -50 -258t-167 -201l-205 176q62 56 88.5 110t30.5 138h-123z" />
<glyph unicode="&#x201a;" horiz-adv-x="587" d="M84 0v422h426v-387q0 -146 -50 -258t-167 -201l-205 176q62 56 88.5 110t30.5 138h-123z" />
<glyph unicode="&#x201c;" horiz-adv-x="1116" d="M78 672v387q0 146 50 258t167 201l205 -177q-62 -56 -88.5 -109.5t-30.5 -137.5h123v-422h-426zM606 672v387q0 146 50 258t167 201l205 -177q-62 -56 -88.5 -109.5t-30.5 -137.5h123v-422h-426z" />
<glyph unicode="&#x201d;" horiz-adv-x="1116" d="M84 1024v422h426v-387q0 -146 -50 -258t-167 -201l-205 176q62 56 88.5 110t30.5 138h-123zM612 1024v422h426v-387q0 -146 -50 -258t-167 -201l-205 176q62 56 88.5 110t30.5 138h-123z" />
<glyph unicode="&#x201e;" horiz-adv-x="1116" d="M84 0v422h426v-387q0 -146 -50 -258t-167 -201l-205 176q62 56 88.5 110t30.5 138h-123zM612 0v422h426v-387q0 -146 -50 -258t-167 -201l-205 176q62 56 88.5 110t30.5 138h-123z" />
<glyph unicode="&#x2022;" horiz-adv-x="702" d="M59 293v598h584v-598h-584z" />
<glyph unicode="&#x2026;" horiz-adv-x="2168" d="M158 0v412h407v-412h-407zM881 0v412h407v-412h-407zM1602 0v412h409v-412h-409z" />
<glyph unicode="&#x202f;" horiz-adv-x="396" />
<glyph unicode="&#x2039;" horiz-adv-x="722" d="M57 584l342 501l244 -167l-231 -334l229 -357l-242 -157z" />
<glyph unicode="&#x203a;" horiz-adv-x="722" d="M80 238l231 333l-229 357l242 157l342 -514l-342 -501z" />
<glyph unicode="&#x205f;" horiz-adv-x="495" />
<glyph unicode="&#x20ac;" horiz-adv-x="1517" d="M131 772v205h162q59 226 243 349.5t447 123.5q150 0 267.5 -33.5t226.5 -105.5l-197 -324q-132 135 -305 135q-100 0 -162 -33t-98 -112h459v-205h-484q-2 -20 -2 -55q0 -37 2 -55h484v-205h-453q19 -74 88 -117t168 -43q179 0 305 141l213 -286q-222 -189 -549 -189 q-265 0 -439.5 132.5t-215.5 361.5h-158v205h133q0 73 4 110h-139z" />
<glyph unicode="&#x2122;" horiz-adv-x="1851" d="M41 1249v197h676v-197h-199v-624h-278v624h-199zM778 625v821h381q81 -348 117 -510q33 191 108 510h381v-821h-260q0 283 8 551q-7 -28 -49 -199.5t-88 -351.5h-213q-95 367 -135 551q6 -304 6 -551h-256z" />
<glyph unicode="&#x25fc;" horiz-adv-x="1054" d="M0 0v1055h1055v-1055h-1055z" />
</font>
</defs>
</svg>
