<?xml version="1.0" standalone="no"?>
<!DOCTYPE svg PUBLIC "-//W3C//DTD SVG 1.1//EN" "http://www.w3.org/Graphics/SVG/1.1/DTD/svg11.dtd" >
<svg xmlns="http://www.w3.org/2000/svg">
<metadata></metadata>
<defs>
<font id="akzidenz-grotesk_nextBdIt" horiz-adv-x="522" >
<font-face units-per-em="2048" ascent="1536" descent="-512" />
<missing-glyph horiz-adv-x="500" />
<glyph unicode="&#xfb01;" horiz-adv-x="1216" d="M96 0l174 782h-166l54 242h166l24 106q41 183 131.5 261.5t257.5 78.5q93 0 191 -28l-66 -254q-34 18 -74 18q-54 0 -84.5 -28t-48.5 -103l-12 -51h184l-53 -242h-184l-174 -782h-320zM729 0l227 1024h318l-230 -1024h-315zM997 1204l56 242h311l-53 -242h-314z" />
<glyph unicode="&#xfb02;" horiz-adv-x="1216" d="M96 0l174 782h-166l54 242h166l24 106q41 183 131.5 261.5t257.5 78.5q93 0 191 -28l-66 -254q-34 18 -74 18q-54 0 -84.5 -28t-48.5 -103l-12 -51h184l-53 -242h-184l-174 -782h-320zM731 0l320 1446h317l-321 -1446h-316z" />
<glyph horiz-adv-x="0" />
<glyph horiz-adv-x="682" />
<glyph unicode=" " />
<glyph unicode="!" horiz-adv-x="602" d="M117 0l76 344h307l-76 -344h-307zM258 477q75 556 141 969h371q-184 -646 -291 -969h-221z" />
<glyph unicode="&#x22;" horiz-adv-x="860" d="M274 801l50 645h284l-241 -645h-93zM688 801l49 645h285l-242 -645h-92z" />
<glyph unicode="#" horiz-adv-x="1376" d="M139 434l43 197h271l49 207h-269l43 198h273l100 410h199l-100 -410h215l100 410h201l-101 -410h252l-43 -198h-258l-49 -207h258l-41 -197h-264l-109 -434h-200l108 434h-215l-106 -434h-197l104 434h-264zM649 631h215l51 207h-215z" />
<glyph unicode="$" horiz-adv-x="1288" d="M51 305l289 162q27 -86 72.5 -133t122.5 -74l73 332q-188 68 -278 162.5t-90 242.5q0 188 146.5 309t389.5 121h19l43 193h180l-45 -207q254 -45 389 -274l-277 -158q-24 64 -63 105t-111 63l-67 -305q212 -73 296.5 -165t84.5 -245q0 -194 -156.5 -319t-396.5 -125h-17 l-45 -205h-180l47 215q-142 25 -252.5 104t-173.5 201zM547 1038q0 -46 27.5 -79.5t101.5 -61.5l61 268q-103 -1 -146.5 -39.5t-43.5 -87.5zM711 252q101 6 152.5 43t51.5 98q0 53 -31.5 85.5t-107.5 62.5z" />
<glyph unicode="%" horiz-adv-x="1996" d="M180 850q0 157 74 311q131 271 395 271q155 0 235.5 -83.5t80.5 -244.5q0 -92 -30.5 -200t-78.5 -187q-64 -104 -148.5 -154.5t-201.5 -50.5q-159 0 -242.5 85t-83.5 253zM397 831q0 -133 121 -133q94 0 150 117q77 161 77 305q0 66 -28.5 95.5t-85.5 29.5 q-101 0 -158 -108q-29 -57 -52.5 -147.5t-23.5 -158.5zM530 0l891 1411h217l-895 -1411h-213zM1208 317q0 158 74 312q130 270 395 270q155 0 235.5 -83.5t80.5 -244.5q0 -92 -30.5 -200t-78.5 -187q-64 -104 -148.5 -154t-201.5 -50q-159 0 -242.5 85t-83.5 252zM1425 299 q0 -133 121 -133q94 0 150 117q78 163 78 305q0 66 -29 95.5t-86 29.5q-101 0 -158 -109q-29 -57 -52.5 -147t-23.5 -158z" />
<glyph unicode="&#x26;" horiz-adv-x="1368" d="M53 383q0 164 109 279q54 58 130 103t195 93q-42 76 -56.5 130t-14.5 118q0 159 120.5 255.5t309.5 96.5q167 0 263.5 -77.5t96.5 -211.5q0 -136 -76 -231.5t-266 -189.5l123 -240q84 91 135 225l246 -164q-84 -151 -225 -280q28 -28 53.5 -39.5t67.5 -11.5q24 0 47 4 l-54 -246q-61 -6 -108 -6q-84 2 -140 23t-100 79q-183 -115 -403 -115q-202 0 -327.5 111.5t-125.5 294.5zM379 397q0 -78 49 -123t139 -45q114 0 199 76l-176 322q-114 -41 -162.5 -94.5t-48.5 -135.5zM711 1102q0 -60 43 -141q99 45 135.5 84t36.5 88q0 36 -25 61t-67 25 q-58 0 -90.5 -30t-32.5 -87z" />
<glyph unicode="'" horiz-adv-x="446" d="M274 801l50 645h284l-241 -645h-93z" />
<glyph unicode="(" horiz-adv-x="851" d="M176 332q0 105 16 212t50.5 223.5t94.5 229.5t140.5 219.5t196 204t254.5 172.5l82 -151q-267 -195 -410 -503.5t-143 -651.5q0 -174 39 -309.5t129 -276.5l-131 -100q-157 136 -237.5 327t-80.5 404z" />
<glyph unicode=")" horiz-adv-x="851" d="M-43 -248q267 195 410 503.5t143 651.5q0 174 -39 309.5t-129 276.5l131 100q157 -136 237.5 -327t80.5 -404q0 -105 -16 -212t-50.5 -223.5t-94.5 -229.5t-140.5 -219.5t-196 -204t-254.5 -172.5z" />
<glyph unicode="*" horiz-adv-x="790" d="M221 1190l86 178l199 -104l31 213h192l-53 -213l217 69l33 -176l-238 -57l129 -182l-164 -109l-110 184l-160 -172l-143 123l182 170z" />
<glyph unicode="+" horiz-adv-x="1566" d="M252 485l67 293h418l94 426h306l-95 -426h418l-67 -293h-418l-94 -426h-306l95 426h-418z" />
<glyph unicode="," horiz-adv-x="507" d="M-20 -236q68 54 95 96t56 140h-100l75 344h314l-74 -330q-29 -129 -79.5 -208.5t-164.5 -159.5z" />
<glyph unicode="-" horiz-adv-x="786" d="M125 514l53 238h623l-53 -238h-623z" />
<glyph unicode="." horiz-adv-x="509" d="M37 0l76 344h307l-76 -344h-307z" />
<glyph unicode="/" horiz-adv-x="950" d="M-143 -369l1024 1925h272l-1022 -1925h-274z" />
<glyph unicode="0" horiz-adv-x="1228" d="M117 504q0 244 94 483q89 225 241.5 341t358.5 116q222 0 338.5 -133.5t116.5 -392.5q0 -138 -30 -286t-85 -274q-86 -193 -228.5 -294t-326.5 -101q-236 0 -357.5 137t-121.5 404zM444 502q0 -121 45 -184.5t127 -63.5q84 0 145.5 58.5t106.5 191.5q70 207 70 391 q0 139 -38 198.5t-120 59.5q-90 0 -156 -66t-114 -217q-66 -201 -66 -368z" />
<glyph unicode="1" horiz-adv-x="1228" d="M352 944l60 273q291 0 374 200h287l-315 -1417h-334l223 1001q-114 -57 -295 -57z" />
<glyph unicode="2" horiz-adv-x="1228" d="M31 0l57 246q289 170 377 225q102 64 176 118t145.5 120.5t108.5 136t37 139.5q0 78 -45 122t-127 44q-112 0 -172 -67.5t-60 -172.5q0 -32 2 -63l-317 41q4 52 8 82q34 225 184.5 349t393.5 124q216 0 337 -109.5t121 -294.5q0 -279 -233 -481q-168 -148 -428 -297 q279 10 547 10l-68 -272h-1044z" />
<glyph unicode="3" horiz-adv-x="1228" d="M47 346l303 115q15 -73 56.5 -122t88.5 -68t97 -19q105 0 169 45t64 129q0 89 -73.5 131.5t-245.5 42.5h-19l56 244q37 -4 82 -4q155 0 225 44t70 140q0 60 -45.5 98.5t-135.5 38.5q-183 0 -241 -192l-285 114q144 361 555 361q222 0 348.5 -101.5t126.5 -267.5 q0 -279 -321 -360q116 -29 176.5 -107.5t60.5 -187.5q0 -209 -152 -331t-405 -122q-228 0 -368.5 97t-186.5 282z" />
<glyph unicode="4" horiz-adv-x="1228" d="M63 293l54 239l743 879h400l-191 -860h191l-58 -258h-190l-66 -293h-321l65 293h-627zM457 551h291q21 89 42 176t47.5 193t43.5 176q-216 -284 -424 -545z" />
<glyph unicode="5" horiz-adv-x="1228" d="M55 348l303 109q18 -107 82 -156t152 -49q112 0 185 67.5t73 196.5q0 87 -49 143t-139 56q-132 0 -205 -117l-262 61l192 752h881l-68 -272h-584l-69 -260q115 96 274 96q177 0 275 -111t98 -307q0 -166 -70 -299t-206 -212t-316 -79q-216 0 -362.5 102.5t-184.5 278.5z " />
<glyph unicode="6" horiz-adv-x="1228" d="M156 530q0 209 65.5 398t181.5 315q186 201 478 201q168 0 281.5 -79.5t150.5 -223.5l-295 -117q-18 68 -59 102.5t-115 34.5q-129 0 -212 -87.5t-126 -266.5q132 135 342 135q174 0 276.5 -110t102.5 -297q0 -256 -153 -413t-410 -157q-241 0 -374.5 146t-133.5 419z M473 436q0 -81 52.5 -138.5t140.5 -57.5q105 0 170 65.5t65 179.5q0 90 -53.5 142.5t-140.5 52.5q-106 0 -170 -65t-64 -179z" />
<glyph unicode="7" horiz-adv-x="1228" d="M233 1137l62 274h1046l-59 -260q-513 -478 -688 -1151h-354q176 625 688 1137h-695z" />
<glyph unicode="8" horiz-adv-x="1228" d="M106 367q0 140 91.5 249t267.5 144q-195 86 -195 278q0 185 145 295.5t384 110.5q222 0 350.5 -96.5t128.5 -262.5q0 -133 -77 -224t-222 -124q101 -33 162 -116t61 -199q0 -210 -158 -334.5t-426 -124.5q-241 0 -376.5 108t-135.5 296zM453 410q0 -83 50 -131t138 -48 q95 0 155 62t60 158q0 79 -48 123t-132 44q-100 0 -161.5 -56.5t-61.5 -151.5zM602 1010q0 -61 42 -99.5t110 -38.5q78 0 131 50t53 125q0 62 -41.5 99.5t-110.5 37.5q-80 0 -132 -49t-52 -125z" />
<glyph unicode="9" horiz-adv-x="1228" d="M72 268l299 117q37 -137 178 -137q133 0 216 87.5t120 266.5q-132 -135 -342 -135q-164 0 -271.5 114.5t-107.5 292.5q0 256 153 413t410 157q241 0 374.5 -146t133.5 -419q0 -216 -62 -406t-176 -315q-178 -193 -481 -193q-169 0 -288.5 80t-155.5 223zM489 924 q0 -90 54 -142.5t141 -52.5q106 0 170 65t64 179q0 81 -52.5 138.5t-140.5 57.5q-105 0 -170.5 -66t-65.5 -179z" />
<glyph unicode=":" horiz-adv-x="589" d="M119 0l76 344h307l-78 -344h-305zM270 690l76 342h307l-75 -342h-308z" />
<glyph unicode=";" horiz-adv-x="589" d="M61 -236q68 55 95.5 97t56.5 139h-100l75 344h314l-74 -330q-29 -129 -79.5 -208.5t-164.5 -159.5zM270 690l78 342h305l-75 -342h-308z" />
<glyph unicode="&#x3c;" horiz-adv-x="1579" d="M307 498l68 272l1116 455l-78 -336l-741 -283l618 -284l-69 -297z" />
<glyph unicode="=" horiz-adv-x="1566" d="M199 238l67 292h1141l-68 -292h-1140zM309 737l68 293h1141l-68 -293h-1141z" />
<glyph unicode="&#x3e;" horiz-adv-x="1579" d="M223 25l78 335l741 283l-618 285l70 297l911 -473l-66 -273z" />
<glyph unicode="?" horiz-adv-x="1167" d="M217 1032q65 449 596 449q209 0 331 -94t122 -261q0 -122 -66 -218t-239 -212q-49 -33 -74.5 -52t-55.5 -48.5t-44 -61t-17 -69.5h-293q16 123 58.5 194t166.5 156q112 75 161.5 139t49.5 129q0 134 -168 134q-108 0 -160.5 -74.5t-52.5 -192.5zM373 0l73 334h308 l-74 -334h-307z" />
<glyph unicode="@" horiz-adv-x="1882" d="M184 520q0 215 77 400t211 314t319 202t395 73q313 0 491 -171.5t178 -467.5q0 -139 -39.5 -261t-107 -208t-160 -136t-194.5 -50q-87 0 -139 28.5t-72 106.5q-64 -70 -124 -102.5t-142 -32.5q-129 0 -202 82t-73 225q0 156 66 289.5t175.5 210t233.5 76.5t176 -99l23 80 h199q-134 -511 -134 -581q0 -46 16.5 -66t51.5 -20q69 0 120 64.5t76 167t25 226.5q0 118 -38 208t-104.5 143.5t-149.5 79.5t-181 26q-164 0 -304 -65t-233.5 -173.5t-145.5 -250.5t-52 -297q0 -259 155.5 -416.5t415.5 -157.5q178 0 310.5 46.5t273.5 154.5l100 -174 q-317 -223 -702 -223q-230 0 -410 93.5t-280.5 264.5t-100.5 391zM821 555q0 -66 27.5 -110t85.5 -44q109 0 180.5 105.5t71.5 265.5q0 70 -29.5 109t-87.5 39q-97 0 -172.5 -107t-75.5 -258z" />
<glyph unicode="A" horiz-adv-x="1433" d="M-74 0l822 1446h403l207 -1446h-361l-32 293h-504l-156 -293h-379zM580 545h370q-45 454 -57 604q-104 -211 -313 -604z" />
<glyph unicode="B" horiz-adv-x="1392" d="M41 0l319 1446h611q250 0 348 -66q54 -35 89.5 -101t35.5 -140q0 -149 -81.5 -249t-240.5 -136q240 -48 240 -293q0 -158 -96.5 -276t-253.5 -156q-119 -29 -361 -29h-610zM440 274h242q135 0 203 25q112 45 112 176q0 87 -69 119q-43 22 -137 22h-275zM578 879h247 q103 0 162 20q100 38 100 152q0 80 -63 108q-46 21 -135 21h-246z" />
<glyph unicode="C" horiz-adv-x="1421" d="M145 602q0 180 60.5 348t171.5 285q109 116 258 182t315 66q229 0 377 -99q141 -98 205 -262l-340 -141q-52 201 -246 201q-191 0 -311 -160q-58 -77 -92.5 -186.5t-34.5 -212.5q0 -176 78.5 -267.5t228.5 -91.5q205 0 311 219l297 -174q-98 -171 -266.5 -257.5 t-386.5 -86.5q-294 0 -459.5 166t-165.5 471z" />
<glyph unicode="D" horiz-adv-x="1452" d="M43 0l317 1446h453q307 0 447 -82q101 -60 159 -178.5t58 -278.5q0 -121 -23.5 -239t-70.5 -227.5t-124.5 -200.5t-177.5 -146q-108 -59 -222.5 -76.5t-346.5 -17.5h-469zM444 285h150q170 2 265 39.5t159 146.5q100 168 100 389q0 168 -92 246q-69 57 -238 57h-145z" />
<glyph unicode="E" horiz-adv-x="1249" d="M41 0l319 1446h1018l-57 -283h-680l-61 -280h639l-64 -283h-639l-70 -315h738l-58 -285h-1085z" />
<glyph unicode="F" horiz-adv-x="1183" d="M41 0l319 1446h1006l-59 -283h-668l-66 -297h631l-61 -274h-629l-131 -592h-342z" />
<glyph unicode="G" horiz-adv-x="1544" d="M145 584q0 191 61 358.5t173 288.5q110 120 260.5 186t325.5 66q454 0 600 -361l-344 -135q-26 102 -95.5 148.5t-189.5 46.5q-170 0 -295 -158q-62 -81 -97.5 -191t-35.5 -231q0 -162 78 -250t217 -88q38 0 75 6t80 24t78 46t64.5 76.5t44.5 111.5h-301l65 283h645 l-180 -811h-297l37 147q-150 -178 -399 -178q-262 0 -416 162t-154 453z" />
<glyph unicode="H" horiz-adv-x="1472" d="M41 0l319 1446h345l-121 -543h555l121 543h342l-320 -1446h-342l133 604h-555l-135 -604h-342z" />
<glyph unicode="I" horiz-adv-x="577" d="M41 0l319 1446h349l-320 -1446h-348z" />
<glyph unicode="J" horiz-adv-x="903" d="M-66 49l132 293q81 -78 178 -78q41 0 68.5 6t57 25.5t51 56t43.5 98.5t42 152l188 844h348l-182 -828q-20 -91 -37 -157.5t-39.5 -134t-46.5 -113.5t-56 -90t-70.5 -71.5t-87 -49t-108 -30.5t-132.5 -9q-211 0 -349 86z" />
<glyph unicode="K" horiz-adv-x="1433" d="M41 0l319 1446h345l-140 -623l654 623h407l-616 -598l350 -848h-387l-238 606l-268 -233l-84 -373h-342z" />
<glyph unicode="L" horiz-adv-x="1118" d="M41 0l321 1446h343l-259 -1161h635l-63 -285h-977z" />
<glyph unicode="M" horiz-adv-x="1812" d="M41 0l319 1446h492q20 -198 76 -979q77 159 159 312.5t197 359.5t170 307h490l-322 -1446h-330q179 780 252 1081q-23 -44 -579 -1081h-271q-10 102 -34.5 345t-39 411.5t-22.5 320.5q-84 -426 -231 -1077h-326z" />
<glyph unicode="N" horiz-adv-x="1511" d="M41 0l319 1446h394q170 -460 348 -1008q29 166 62 325t147 683h329l-321 -1446h-383q-257 681 -356 979q-62 -304 -209 -979h-330z" />
<glyph unicode="O" horiz-adv-x="1570" d="M145 588q0 182 57.5 348t157.5 283q108 129 260.5 196.5t340.5 67.5q298 0 466 -165.5t168 -465.5q0 -165 -54 -328.5t-148 -285.5q-211 -275 -607 -275q-301 0 -471 160t-170 465zM508 606q0 -173 79.5 -257.5t225.5 -84.5q99 0 179 49t134 136q50 79 78.5 180.5 t28.5 206.5q0 163 -73.5 254.5t-211.5 91.5q-94 0 -175 -42t-138 -120q-57 -79 -92 -187t-35 -227z" />
<glyph unicode="P" horiz-adv-x="1378" d="M41 0l319 1446h529q126 0 241 -19t179 -55q83 -47 129.5 -131t46.5 -188q0 -160 -61 -290.5t-177 -195.5q-153 -88 -497 -88h-263l-104 -479h-342zM553 760h180q171 0 250 24q65 21 101 75t36 124q0 107 -71 147q-57 33 -218 33h-188z" />
<glyph unicode="Q" horiz-adv-x="1570" d="M145 588q0 182 57.5 348t157.5 283q108 129 260.5 196.5t340.5 67.5q298 0 466 -165.5t168 -465.5q0 -165 -54 -328.5t-148 -285.5q-32 -40 -62 -70l277 -236l-215 -198l-295 282q-136 -53 -312 -53q-301 0 -471 160t-170 465zM508 606q0 -173 79.5 -257.5t225.5 -84.5 q99 0 179 49t134 136q50 79 78.5 180.5t28.5 206.5q0 163 -73.5 254.5t-211.5 91.5q-94 0 -175 -42t-138 -120q-57 -79 -92 -187t-35 -227z" />
<glyph unicode="R" horiz-adv-x="1366" d="M41 0l319 1446h488q245 0 371 -49q101 -38 163 -127t62 -205q0 -200 -108.5 -316.5t-305.5 -154.5l246 -594h-379l-197 543h-198l-121 -543h-340zM561 803h215q190 0 248 51q68 57 68 162q0 78 -58 117q-36 23 -83 30.5t-138 7.5h-172z" />
<glyph unicode="S" horiz-adv-x="1308" d="M45 274l311 193q58 -97 145.5 -153t178.5 -56q113 0 168 38t55 95q0 56 -34 91t-128 73l-211 84q-301 120 -301 397q0 131 78.5 233.5t214.5 158t305 55.5q378 0 578 -293l-297 -180q-48 91 -122.5 135.5t-186.5 44.5q-98 0 -149.5 -36t-51.5 -83q0 -49 32 -81.5 t120 -65.5l204 -78q172 -66 249 -164t77 -233q0 -223 -168 -353.5t-459 -130.5q-175 0 -335 74.5t-273 234.5z" />
<glyph unicode="T" horiz-adv-x="1185" d="M213 1163l61 283h1125l-64 -283h-372l-258 -1163h-357l258 1163h-393z" />
<glyph unicode="U" horiz-adv-x="1439" d="M147 399q0 113 39 279l170 768h346l-167 -752q-43 -179 -43 -258q0 -89 58.5 -138.5t160.5 -49.5q193 0 256 135q42 90 86 289l170 774h348l-191 -864q-35 -155 -70.5 -251t-90.5 -165q-160 -201 -539 -201q-260 0 -396.5 111t-136.5 323z" />
<glyph unicode="V" horiz-adv-x="1349" d="M246 1446h366q13 -155 47 -501t50 -542q57 126 126.5 270.5t119.5 244.5t135.5 270.5t128.5 257.5h376l-776 -1446h-377z" />
<glyph unicode="W" horiz-adv-x="1984" d="M246 1446h350q4 -348 4 -1059q48 120 201 476.5t248 582.5h381q11 -469 14 -1057q215 532 442 1057h338l-663 -1446h-381q-17 540 -17 1065q-185 -434 -469 -1065h-381z" />
<glyph unicode="X" horiz-adv-x="1368" d="M-78 0l633 754l-303 692h393q106 -298 176 -485q19 26 89 120.5t131 175t147 189.5h401l-612 -750l319 -696h-385q-92 214 -198 479q-36 -46 -146.5 -187.5t-228.5 -291.5h-416z" />
<glyph unicode="Y" horiz-adv-x="1386" d="M248 1446h377q99 -273 204 -594q254 372 424 594h381l-692 -893l-121 -553h-346l129 590z" />
<glyph unicode="Z" horiz-adv-x="1312" d="M4 0l59 252l885 911h-678l56 283h1134l-55 -252l-879 -909h717l-63 -285h-1176z" />
<glyph unicode="[" horiz-adv-x="802" d="M45 -356l422 1902h520l-43 -188h-248l-340 -1530h250l-41 -184h-520z" />
<glyph unicode="\" horiz-adv-x="950" d="M328 1556h262l225 -1925h-260z" />
<glyph unicode="]" horiz-adv-x="802" d="M-78 -369l43 191h250l342 1548h-248l41 189h520l-428 -1928h-520z" />
<glyph unicode="^" horiz-adv-x="1579" d="M309 598l594 848h309l209 -844h-299l-116 516l-344 -520h-353z" />
<glyph unicode="_" horiz-adv-x="1415" d="M-150 -487l44 192h1415l-43 -192h-1416z" />
<glyph unicode="`" d="M14 1485h365l129 -311h-234z" />
<glyph unicode="a" horiz-adv-x="1093" d="M41 260q0 113 60 197t173 125q91 33 208.5 48t277.5 25q6 34 6 70q0 41 -29.5 68.5t-95.5 27.5q-69 0 -108.5 -28t-57.5 -99l-293 41q56 162 171.5 242t320.5 80q397 0 397 -293q0 -73 -90 -506q-23 -112 -23 -186q0 -28 9 -72h-312q-2 18 -2 45q0 35 9 82 q-69 -85 -143.5 -116t-176.5 -31q-134 0 -217.5 75t-83.5 205zM342 305q0 -45 31 -71.5t82 -26.5q103 0 172 69q60 60 78 150l8 39q-183 -7 -283 -47q-88 -36 -88 -113z" />
<glyph unicode="b" horiz-adv-x="1202" d="M35 0l319 1446h320l-133 -561q115 164 321 164q162 0 251 -109t89 -309q0 -97 -19.5 -190t-61 -177.5t-100.5 -148t-144.5 -101t-186.5 -37.5q-243 0 -313 195l-37 -172h-305zM444 428q0 -87 45 -141t121 -54q111 0 178.5 102.5t67.5 258.5q0 105 -41 156t-117 51 q-109 0 -181.5 -104.5t-72.5 -268.5z" />
<glyph unicode="c" horiz-adv-x="1067" d="M100 436q0 182 75 324t208.5 219.5t302.5 77.5q305 0 420 -260l-277 -140q-33 142 -157 142q-117 0 -186.5 -98.5t-69.5 -258.5q0 -102 51 -159.5t141 -57.5q125 0 205 150l250 -150q-89 -125 -205.5 -190.5t-286.5 -65.5q-211 0 -341 124t-130 343z" />
<glyph unicode="d" horiz-adv-x="1206" d="M98 391q0 96 20.5 190t63.5 179t103.5 150t146.5 103t186 38q248 0 306 -195l129 590h305l-320 -1446h-319l41 143q-115 -163 -318 -163q-163 0 -253.5 106t-90.5 305zM444 434q0 -105 41 -156t117 -51q109 0 181.5 104.5t72.5 268.5q0 87 -45 141t-121 54 q-107 0 -176.5 -103t-69.5 -258z" />
<glyph unicode="e" horiz-adv-x="1126" d="M100 449q0 173 73.5 312t207.5 217.5t303 78.5q211 0 330 -127t119 -348q0 -62 -13 -138h-708q0 -32 5 -60.5t18.5 -58.5t35.5 -51.5t59.5 -35t85.5 -13.5q62 0 120 37t95 107l248 -154q-78 -117 -207.5 -181.5t-287.5 -64.5q-222 0 -353 128.5t-131 351.5zM440 645h383 q0 79 -44.5 124.5t-119.5 45.5q-84 0 -140 -44t-79 -126z" />
<glyph unicode="f" horiz-adv-x="694" d="M96 0l174 782h-166l54 242h166l24 106q41 183 131.5 261.5t257.5 78.5q93 0 191 -28l-66 -254q-34 18 -74 18q-54 0 -84.5 -28t-48.5 -103l-12 -51h184l-53 -242h-184l-174 -782h-320z" />
<glyph unicode="g" horiz-adv-x="1204" d="M4 -100l318 55q6 -48 33.5 -80t60 -43.5t67.5 -11.5q126 0 185 82q42 57 80 213l12 51q-57 -81 -134.5 -117.5t-183.5 -36.5q-160 0 -251 104t-91 279q0 122 33.5 237t96 209.5t163.5 152t225 57.5q258 0 316 -195l35 168h295l-201 -918q-38 -177 -80 -261.5t-119 -153.5 q-133 -121 -397 -121q-120 0 -214 33t-161.5 108.5t-87.5 188.5zM444 442q0 -93 44 -137.5t114 -44.5q108 0 181 96.5t73 243.5q0 87 -45 141t-121 54q-107 0 -176.5 -99.5t-69.5 -253.5z" />
<glyph unicode="h" horiz-adv-x="1159" d="M35 0l319 1446h305l-131 -588q62 87 154.5 135.5t200.5 48.5q129 0 197.5 -66t68.5 -190q0 -67 -35 -219l-127 -567h-315l110 504q25 116 25 153q0 55 -29.5 84t-85.5 29q-91 0 -153 -74q-27 -32 -44.5 -81t-39.5 -148l-105 -467h-315z" />
<glyph unicode="i" d="M35 0l227 1024h318l-230 -1024h-315zM303 1204l55 242h312l-54 -242h-313z" />
<glyph unicode="j" horiz-adv-x="548" d="M-246 -391l58 252q48 -25 84 -25q52 0 81.5 20t52 74.5t48.5 171.5l207 922h319l-203 -903q-39 -176 -59 -242q-45 -155 -139.5 -227t-257.5 -72q-103 0 -191 29zM326 1202l55 244h315l-53 -244h-317z" />
<glyph unicode="k" horiz-adv-x="1136" d="M35 0l319 1446h316l-176 -791l387 369h381l-445 -406l256 -618h-348l-166 424l-143 -119l-68 -305h-313z" />
<glyph unicode="l" horiz-adv-x="520" d="M35 0l319 1446h318l-322 -1446h-315z" />
<glyph unicode="m" horiz-adv-x="1775" d="M35 0l227 1024h303l-35 -162q80 91 161 135.5t188 44.5q230 0 260 -204q133 202 372 202q125 0 189.5 -60t64.5 -175q0 -71 -39 -248l-122 -557h-318l119 522q22 96 22 137q0 54 -28.5 82.5t-79.5 28.5q-41 0 -82 -17t-68 -48q-12 -14 -21 -27.5t-17 -31t-12.5 -29 t-11 -35t-9 -34t-9.5 -41t-10 -42.5l-102 -465h-318l117 522q21 100 21 137q0 54 -29.5 82.5t-77.5 28.5q-95 0 -153 -76q-25 -32 -41 -79.5t-37 -137.5l-109 -477h-315z" />
<glyph unicode="n" horiz-adv-x="1159" d="M35 0l227 1024h303l-37 -166q62 87 154.5 135.5t200.5 48.5q129 0 197.5 -66t68.5 -190q0 -67 -35 -219l-127 -567h-315l110 504q25 116 25 153q0 55 -29.5 84t-85.5 29q-91 0 -153 -74q-27 -32 -44.5 -81t-39.5 -148l-105 -467h-315z" />
<glyph unicode="o" horiz-adv-x="1179" d="M100 444q0 240 142 412q79 96 196 148.5t258 52.5q224 0 348.5 -121.5t124.5 -341.5q0 -258 -147 -432q-78 -92 -189 -142.5t-245 -50.5q-230 0 -359 125.5t-129 349.5zM414 451q0 -104 51 -165t139 -61q122 0 193 117q59 97 59 242q0 106 -45 161.5t-131 55.5 q-122 0 -195 -105q-71 -101 -71 -245z" />
<glyph unicode="p" horiz-adv-x="1202" d="M-53 -397l315 1421h311l-32 -139q115 164 321 164q162 0 251 -109t89 -309q0 -97 -19.5 -190t-61 -177.5t-100.5 -148t-144.5 -101t-186.5 -37.5q-109 0 -187 42.5t-116 127.5l-123 -544h-317zM444 428q0 -87 45 -141t121 -54q111 0 178.5 102.5t67.5 258.5 q0 105 -41 156t-117 51q-109 0 -181.5 -104.5t-72.5 -268.5z" />
<glyph unicode="q" horiz-adv-x="1206" d="M98 391q0 96 20.5 190t63.5 179t103.5 150t146.5 103t186 38q243 0 314 -191l37 164h295l-316 -1421h-319l131 540q-115 -163 -318 -163q-163 0 -253.5 106t-90.5 305zM444 434q0 -105 41 -156t117 -51q109 0 181.5 104.5t72.5 268.5q0 87 -45 141t-121 54 q-107 0 -176.5 -103t-69.5 -258z" />
<glyph unicode="r" horiz-adv-x="776" d="M35 0l227 1024h309l-45 -180q63 111 125 157t148 46q60 0 116 -23l-69 -283q-63 27 -121 27q-103 0 -166 -72q-66 -73 -108 -262l-97 -434h-319z" />
<glyph unicode="s" horiz-adv-x="980" d="M0 180l250 176q100 -141 233 -141q66 0 100.5 21t34.5 51q0 29 -17 49.5t-66 40.5l-175 74q-204 84 -204 274q0 146 122.5 239t321.5 93q151 0 258 -48t184 -149l-227 -160q-82 119 -211 119q-62 0 -94.5 -20t-32.5 -51q0 -19 16 -35.5t34 -25.5t55 -25l118 -50 q128 -54 187 -120t59 -164q0 -162 -130.5 -260.5t-344.5 -98.5q-301 0 -471 211z" />
<glyph unicode="t" horiz-adv-x="681" d="M106 782l54 242h155l76 340h311l-75 -340h188l-55 -242h-185l-77 -348q-15 -73 -15 -104q0 -82 88 -82q46 0 91 18l-58 -264q-87 -18 -186 -18q-275 0 -275 233q0 49 21 143l96 422h-154z" />
<glyph unicode="u" horiz-adv-x="1155" d="M98 236q0 67 35 219l127 569h315l-110 -506q-25 -116 -25 -153q0 -55 29.5 -84t85.5 -29q92 0 154 74q27 32 44.5 81t39.5 148l104 469h315l-227 -1026h-303l37 166q-62 -87 -154 -135.5t-200 -48.5q-129 0 -198 66t-69 190z" />
<glyph unicode="v" horiz-adv-x="1046" d="M162 1024h323q37 -686 39 -731q171 398 336 731h348l-553 -1024h-366z" />
<glyph unicode="w" horiz-adv-x="1579" d="M162 1024h323q2 -136 4 -275.5t3.5 -236.5t1.5 -207q146 371 294 719h318q10 -553 10 -717q47 121 293 717h332l-488 -1024h-346q-6 183 -14.5 393.5t-9.5 302.5q-75 -188 -303 -696h-347z" />
<glyph unicode="x" horiz-adv-x="1028" d="M-68 0l433 545l-195 479h332q42 -130 104 -315q120 183 217 315h340l-415 -528l217 -496h-332q-53 136 -125 328q-131 -192 -227 -328h-349z" />
<glyph unicode="y" horiz-adv-x="1046" d="M-59 -393l57 254q48 -25 100 -25q34 0 56 3t50.5 14.5t51.5 38t43 69.5l12 27l-149 1036h323q30 -316 54 -735q130 316 321 735h348l-497 -952q-52 -99 -79.5 -149.5t-65.5 -108t-72 -93.5q-71 -77 -158 -109t-209 -32q-101 0 -186 27z" />
<glyph unicode="z" horiz-adv-x="991" d="M-10 0l41 184l585 598h-442l53 242h850l-41 -195l-573 -587h473l-53 -242h-893z" />
<glyph unicode="{" horiz-adv-x="829" d="M141 532l33 152q73 16 113 45.5t68.5 91t54.5 180.5l36 170q19 87 43.5 147t66 111.5t102 82t148.5 48.5t208 21l-29 -133q-95 -21 -143 -48.5t-80.5 -88.5t-59.5 -183l-30 -137q-33 -147 -65 -221.5t-81 -113t-139 -62.5q135 -62 135 -225q0 -51 -26 -172l-29 -131 q-18 -92 -18 -142q0 -82 36 -122.5t121 -55.5l-28 -133q-210 14 -304 83t-94 220q0 50 13 107l43 190q20 87 20 149q0 70 -24.5 106t-90.5 64z" />
<glyph unicode="|" horiz-adv-x="653" d="M35 -369l428 1928h270l-428 -1928h-270z" />
<glyph unicode="}" horiz-adv-x="829" d="M-74 -387l29 133q95 21 143 48.5t80.5 88.5t59.5 183l30 137q33 147 65 221.5t81 113t139 62.5q-135 62 -135 225q0 51 26 172l29 131q19 97 19 142q0 81 -36.5 122t-121.5 56l28 133q210 -14 304 -83t94 -220q0 -54 -12 -107l-43 -190q-21 -92 -21 -150 q0 -70 24.5 -105.5t90.5 -63.5l-33 -152q-73 -16 -113 -45.5t-68.5 -91t-54.5 -180.5l-36 -170q-19 -87 -43.5 -147t-66 -111.5t-102 -82t-148.5 -48.5t-208 -21z" />
<glyph unicode="~" horiz-adv-x="1566" d="M170 647q130 116 233.5 168.5t210.5 52.5q61 0 118 -18.5t177 -87.5q106 -62 185 -62q62 0 127.5 33t158.5 125l162 -250q-121 -115 -223 -165t-207 -50q-63 0 -114.5 14.5t-123.5 57.5q-158 94 -241 94q-159 0 -305 -153z" />
<glyph unicode="&#xa0;" />
<glyph unicode="&#xa1;" horiz-adv-x="602" d="M4 0q184 646 291 969h221q-75 -556 -141 -969h-371zM274 1102l76 344h307l-75 -344h-308z" />
<glyph unicode="&#xa2;" horiz-adv-x="1191" d="M147 434q0 177 72 317t211.5 223.5t327.5 90.5l43 195h174l-47 -207q214 -34 309 -244l-252 -137q-35 101 -115 123l-127 -566q111 9 181 131l233 -167q-94 -112 -204 -169t-265 -57l-45 -200h-174l47 210q-160 27 -264.5 151.5t-104.5 305.5zM457 459q0 -161 118 -211 l123 555q-108 -18 -174.5 -110t-66.5 -234z" />
<glyph unicode="&#xa3;" horiz-adv-x="1357" d="M39 209q0 121 73 191.5t203 70.5q105 0 213 -53q7 38 7 76q0 43 -31 124h-264l43 187h170q-23 113 -23 176q0 216 144 339.5t391 123.5q183 0 305 -86.5t170 -239.5l-293 -129q-37 170 -193 170q-91 0 -142.5 -52t-51.5 -157q0 -48 20 -145h371l-43 -187h-293 q10 -59 10 -129q0 -93 -51 -167q36 -21 91.5 -39.5t82.5 -18.5q65 0 100 33t60 117l278 -97q-62 -168 -172 -254t-249 -86q-93 0 -170.5 28t-153.5 93q-79 -69 -158.5 -97t-171.5 -28q-125 0 -198.5 67t-73.5 169zM258 217q0 -30 20.5 -50t63.5 -20q36 0 74.5 23.5 t66.5 67.5q-66 53 -137 53q-43 0 -65.5 -19.5t-22.5 -54.5z" />
<glyph unicode="&#xa4;" horiz-adv-x="1431" d="M143 287l174 155q-71 111 -71 250q0 188 104 314l-139 159l195 172l137 -159q105 63 252 63q183 0 315 -106l174 153l160 -184l-174 -154q71 -114 71 -252q0 -183 -102 -307l143 -166l-196 -176l-144 166q-116 -65 -249 -65q-182 0 -316 108l-174 -154zM489 702 q0 -140 85.5 -229.5t218.5 -89.5q131 0 218 90t87 225q0 132 -87 222t-216 90q-128 0 -217 -85.5t-89 -222.5z" />
<glyph unicode="&#xa5;" horiz-adv-x="1435" d="M158 397l32 150h412l10 47l-39 102h-352l35 150h254l-227 567h356q98 -292 188 -590q123 172 435 590h370l-469 -567h246l-35 -150h-338l-86 -106l-10 -43h401l-30 -150h-404l-88 -397h-340l90 397h-411z" />
<glyph unicode="&#xa6;" horiz-adv-x="653" d="M35 -369l182 820h270l-182 -820h-270zM281 739l182 820h270l-182 -820h-270z" />
<glyph unicode="&#xa7;" horiz-adv-x="1271" d="M18 -27l261 166q45 -93 123.5 -141.5t158.5 -48.5q180 0 180 100q0 42 -22.5 71.5t-91.5 65.5l-226 115q-251 128 -251 334q0 260 313 354q-92 84 -92 207q0 154 131.5 247t353.5 93q329 0 465 -227l-254 -160q-35 76 -96 112.5t-135 36.5q-78 0 -112 -29.5t-34 -66.5 t22 -63.5t89 -63.5l221 -123q130 -73 185 -142t55 -163q0 -118 -62 -204.5t-211 -157.5q88 -81 88 -199q0 -167 -147 -274t-379 -107q-177 0 -308 63.5t-225 204.5zM446 694q0 -50 34 -88t118 -84l223 -119q69 26 105.5 68.5t36.5 95.5q0 54 -28.5 85.5t-117.5 82.5 l-221 127q-80 -33 -115 -71.5t-35 -96.5z" />
<glyph unicode="&#xa8;" d="M-127 1198l55 252h265l-58 -252h-262zM328 1198l55 252h266l-55 -252h-266z" />
<glyph unicode="&#xa9;" horiz-adv-x="1691" d="M172 729q0 208 101.5 381.5t277.5 274t387 100.5q155 0 295 -59t241 -158.5t160.5 -238.5t59.5 -292q0 -161 -57.5 -304t-156.5 -245.5t-237 -162.5t-293 -60q-161 0 -305 59.5t-248 161.5t-164.5 243.5t-60.5 299.5zM299 725q0 -174 86.5 -321.5t235 -233.5t323.5 -86 q127 0 242 50t198.5 135t133 202.5t49.5 247.5q0 136 -48 256.5t-131.5 206t-200 135t-247.5 49.5q-176 0 -323.5 -84.5t-232.5 -232t-85 -324.5zM502 668q0 225 134 369.5t347 144.5q258 0 358 -217l-186 -101q-20 71 -61 103t-111 32q-116 0 -190 -89t-74 -234 q0 -101 56 -164t151 -63q135 0 196 124l152 -135q-135 -172 -354 -172q-193 0 -305.5 109t-112.5 293z" />
<glyph unicode="&#xaa;" horiz-adv-x="899" d="M176 819q0 131 96 207q114 89 471 109q13 48 13 79q0 66 -97 66q-57 0 -88.5 -28.5t-46.5 -90.5l-239 35q34 135 131 202.5t266 67.5q322 0 322 -241q0 -70 -19 -148l-63 -280q-12 -52 -15 -127q0 -38 4 -62h-249q-3 21 -3 31q0 37 11 74q-61 -67 -117.5 -93t-138.5 -26 q-107 0 -172.5 61t-65.5 164zM418 852q0 -38 24.5 -60t65.5 -22q70 0 121 47.5t73 134.5l7 25q-155 -8 -222 -35q-69 -27 -69 -90z" />
<glyph unicode="&#xab;" horiz-adv-x="1087" d="M131 571l408 453l145 -143l-272 -318l147 -338l-199 -116zM571 571l408 453l145 -143l-272 -318l147 -338l-198 -116z" />
<glyph unicode="&#xac;" horiz-adv-x="1566" d="M225 485l68 293h1141l-160 -719h-305l94 426h-838z" />
<glyph unicode="&#xad;" horiz-adv-x="786" d="M125 514l53 238h623l-53 -238h-623z" />
<glyph unicode="&#xae;" horiz-adv-x="1691" d="M170 729q0 208 101.5 381.5t277.5 274t387 100.5q155 0 295 -59t241 -158.5t160.5 -238.5t59.5 -292q0 -161 -57.5 -304t-156.5 -245.5t-237 -162.5t-293 -60q-161 0 -305 59.5t-248 161.5t-164.5 243.5t-60.5 299.5zM297 725q0 -174 86.5 -321.5t235 -233.5t323.5 -86 q127 0 242 50t198.5 135t133 202.5t49.5 247.5q0 136 -48 256.5t-131.5 206t-200 135t-247.5 49.5q-176 0 -323.5 -84.5t-232.5 -232t-85 -324.5zM543 309l188 854h283q169 0 246 -55q39 -29 61 -78t22 -106q0 -105 -61.5 -183t-167.5 -104l154 -328h-213l-133 307h-107 l-65 -307h-207zM854 778h111q88 0 129 28.5t41 88.5q0 54 -32.5 75t-109.5 21h-90z" />
<glyph unicode="&#xaf;" d="M-68 1196l43 197h615l-45 -197h-613z" />
<glyph unicode="&#xb0;" horiz-adv-x="864" d="M248 1124q0 146 102.5 247.5t251.5 101.5q160 0 258 -96t98 -251q0 -150 -100.5 -249t-251.5 -99q-155 0 -256.5 98.5t-101.5 247.5zM424 1126q0 -78 51 -130t127 -52q73 0 125.5 53.5t52.5 128.5q0 74 -51 127.5t-125 53.5q-76 0 -128 -53.5t-52 -127.5z" />
<glyph unicode="&#xb1;" horiz-adv-x="1566" d="M135 0l68 293h1140l-67 -293h-1141zM324 811l67 293h418l86 393h305l-86 -393h418l-68 -293h-417l-86 -393h-306l86 393h-417z" />
<glyph unicode="&#xb2;" horiz-adv-x="890" d="M211 901l37 160q362 212 411 242q80 49 121 100t41 115q0 44 -31 71t-85 27q-72 0 -117 -40.5t-45 -117.5q0 -10 6 -45l-219 27q2 169 106 264.5t293 95.5q157 0 245.5 -69.5t88.5 -188.5q0 -117 -82 -209q-111 -120 -387 -250q180 7 381 7l-43 -189h-721z" />
<glyph unicode="&#xb3;" horiz-adv-x="890" d="M225 1133l207 71q28 -143 160 -143q69 0 112.5 28t43.5 78q0 52 -49.5 76.5t-157.5 24.5h-29l35 166q23 -2 63 -2q205 0 205 112q0 37 -32.5 59.5t-88.5 22.5q-123 0 -164 -123l-196 78q112 219 377 219q156 0 244.5 -61.5t88.5 -171.5q0 -85 -55 -142.5t-155 -76.5 q72 -19 112.5 -68t40.5 -117q0 -129 -108 -205.5t-279 -76.5q-312 0 -375 252z" />
<glyph unicode="&#xb4;" d="M-39 1174l225 311h377l-356 -311h-246z" />
<glyph unicode="&#xb5;" horiz-adv-x="1163" d="M-39 -371l309 1395h318l-115 -514q-20 -87 -20 -141q0 -59 29.5 -91t86.5 -32q86 0 150 80q28 35 45 82.5t39 148.5l104 467h318l-228 -1024h-303l37 166q-46 -95 -100.5 -137.5t-130.5 -42.5q-113 0 -142 102l-100 -459h-297z" />
<glyph unicode="&#xb6;" horiz-adv-x="1204" d="M225 989q0 94 35.5 179t99.5 147q77 74 175.5 102.5t277.5 28.5h573l-28 -131h-121l-356 -1610h-140l357 1610h-314l-356 -1610h-139l207 928q-135 40 -203 132.5t-68 223.5z" />
<glyph unicode="&#xb7;" horiz-adv-x="507" d="M119 420l76 344h307l-76 -344h-307z" />
<glyph unicode="&#xb8;" d="M20 -420l99 101q44 -54 112 -54q52 0 80.5 24t28.5 60q0 40 -24 63t-68 23q-45 0 -88 -22l-33 63l152 172h153l-98 -119q79 -9 122.5 -54.5t43.5 -121.5q0 -93 -75.5 -155t-195.5 -62q-127 0 -209 82z" />
<glyph unicode="&#xb9;" horiz-adv-x="890" d="M422 1473l43 188q188 3 248 131h205l-199 -891h-232l136 602q-68 -30 -201 -30z" />
<glyph unicode="&#xba;" horiz-adv-x="1007" d="M221 967q0 224 132.5 361.5t346.5 137.5q184 0 282.5 -99t98.5 -284q0 -224 -127.5 -361.5t-339.5 -137.5q-187 0 -290 101t-103 282zM473 983q0 -94 38 -145.5t110 -51.5q91 0 145.5 81t54.5 227q0 81 -38 124.5t-101 43.5q-91 0 -150 -77.5t-59 -201.5z" />
<glyph unicode="&#xbb;" horiz-adv-x="1087" d="M76 248l272 317l-147 338l198 117l230 -463l-408 -453zM516 248l272 317l-147 338l199 117l229 -463l-407 -453z" />
<glyph unicode="&#xbc;" horiz-adv-x="1996" d="M285 1104l43 188q187 3 247 131h205l-198 -891h-232l135 603q-71 -31 -200 -31zM414 0l891 1411h217l-895 -1411h-213zM1004 176l38 166l502 537h273l-123 -539h133l-37 -164h-131l-41 -176h-223l41 176h-432zM1255 340h215l86 328q-92 -122 -301 -328z" />
<glyph unicode="&#xbd;" horiz-adv-x="1996" d="M285 1104l43 188q187 3 247 131h205l-198 -891h-232l135 603q-71 -31 -200 -31zM414 0l891 1411h217l-895 -1411h-213zM1055 0l37 160q394 230 411 241q80 49 121 100t41 115q0 44 -31.5 71.5t-85.5 27.5q-72 0 -117 -40.5t-45 -117.5q0 -5 7 -45l-219 27 q2 169 106 264.5t293 95.5q157 0 245.5 -69.5t88.5 -188.5q0 -117 -82 -209q-111 -120 -387 -250q154 6 381 6l-43 -188h-721z" />
<glyph unicode="&#xbe;" horiz-adv-x="1996" d="M123 764l207 72q28 -144 159 -144q69 0 112.5 28.5t43.5 78.5q0 51 -49.5 75.5t-157.5 24.5h-28l34 166q23 -2 64 -2q205 0 205 113q0 37 -32.5 59t-88.5 22q-124 0 -164 -122l-197 77q112 220 377 220q156 0 245 -62t89 -172q0 -85 -55.5 -142.5t-155.5 -76.5 q72 -19 113 -68t41 -116q0 -129 -108 -206t-279 -77q-312 0 -375 252zM555 0l891 1411h217l-895 -1411h-213zM1118 176l39 166l502 537h272l-123 -539h134l-37 -164h-131l-41 -176h-224l41 176h-432zM1370 340h215l86 328q-92 -122 -301 -328z" />
<glyph unicode="&#xbf;" horiz-adv-x="1167" d="M78 319q0 122 66.5 219t238.5 212q48 33 74 52t55.5 48.5t43.5 61t17 69.5h293q-16 -123 -58.5 -194t-166.5 -156q-112 -75 -161.5 -139t-49.5 -130q0 -133 168 -133q108 0 160.5 74.5t52.5 192.5l315 -82q-65 -449 -596 -449q-209 0 -330.5 93.5t-121.5 260.5zM590 1112 l74 334h307l-74 -334h-307z" />
<glyph unicode="&#xc0;" horiz-adv-x="1433" d="M-74 0l822 1446h403l207 -1446h-361l-32 293h-504l-156 -293h-379zM578 1833h374l189 -270h-246zM580 545h370q-45 454 -57 604q-104 -211 -313 -604z" />
<glyph unicode="&#xc1;" horiz-adv-x="1433" d="M-74 0l822 1446h403l207 -1446h-361l-32 293h-504l-156 -293h-379zM580 545h370q-45 454 -57 604q-104 -211 -313 -604zM780 1563l285 270h385l-414 -270h-256z" />
<glyph unicode="&#xc2;" horiz-adv-x="1433" d="M-74 0l822 1446h403l207 -1446h-361l-32 293h-504l-156 -293h-379zM580 545h370q-45 454 -57 604q-104 -211 -313 -604zM598 1563l242 270h331l148 -270h-246l-86 133l-135 -133h-254z" />
<glyph unicode="&#xc3;" horiz-adv-x="1433" d="M-74 0l822 1446h403l207 -1446h-361l-32 293h-504l-156 -293h-379zM567 1634q76 115 132.5 161t134.5 46q38 0 90 -24l53 -27q63 -29 92 -29q91 0 143 88l146 -92q-67 -109 -124 -157t-128 -48q-58 0 -117 33l-49 25q-50 24 -84 24q-42 0 -81 -23.5t-64 -68.5zM580 545 h370q-45 454 -57 604q-104 -211 -313 -604z" />
<glyph unicode="&#xc4;" horiz-adv-x="1433" d="M-74 0l822 1446h403l207 -1446h-361l-32 293h-504l-156 -293h-379zM573 1563l56 254h276l-55 -254h-277zM580 545h370q-45 454 -57 604q-104 -211 -313 -604zM1055 1563l55 254h276l-55 -254h-276z" />
<glyph unicode="&#xc5;" horiz-adv-x="1433" d="M-74 0l822 1446h403l207 -1446h-361l-32 293h-504l-156 -293h-379zM580 545h370q-45 454 -57 604q-104 -211 -313 -604zM754 1675q0 94 63.5 154.5t161.5 60.5q91 0 145 -50t54 -136q0 -93 -64.5 -154t-161.5 -61q-91 0 -144.5 50t-53.5 136zM866 1681q0 -43 25.5 -69.5 t66.5 -26.5q47 0 77 33.5t30 83.5q0 42 -24 67t-68 25t-75.5 -33.5t-31.5 -79.5z" />
<glyph unicode="&#xc6;" horiz-adv-x="2107" d="M-74 0l1084 1446h1226l-63 -283h-660l-59 -280h621l-64 -281h-620l-72 -317h727l-64 -285h-1073l64 291h-424l-211 -291h-412zM725 547h305l152 674q-272 -410 -457 -674z" />
<glyph unicode="&#xc7;" horiz-adv-x="1421" d="M145 602q0 180 60.5 348t171.5 285q109 116 258 182t315 66q229 0 377 -99q141 -98 205 -262l-340 -141q-52 201 -246 201q-191 0 -311 -160q-58 -77 -92.5 -186.5t-34.5 -212.5q0 -176 78.5 -267.5t228.5 -91.5q205 0 311 219l297 -174q-90 -159 -241 -244.5t-348 -97.5 l-64 -80q83 -9 128.5 -56t45.5 -126q0 -96 -77.5 -159.5t-202.5 -63.5q-134 0 -218 84l103 104q45 -55 117 -55q53 0 82.5 25t29.5 61q0 42 -25.5 66t-70.5 24q-49 0 -90 -24l-35 65l125 137q-255 25 -396 188.5t-141 444.5z" />
<glyph unicode="&#xc8;" horiz-adv-x="1249" d="M41 0l319 1446h1018l-57 -283h-680l-61 -280h639l-64 -283h-639l-70 -315h738l-58 -285h-1085zM512 1833h375l188 -270h-246z" />
<glyph unicode="&#xc9;" horiz-adv-x="1249" d="M41 0l319 1446h1018l-57 -283h-680l-61 -280h639l-64 -283h-639l-70 -315h738l-58 -285h-1085zM643 1563l285 270h385l-414 -270h-256z" />
<glyph unicode="&#xca;" horiz-adv-x="1249" d="M41 0l319 1446h1018l-57 -283h-680l-61 -280h639l-64 -283h-639l-70 -315h738l-58 -285h-1085zM514 1563l242 270h331l148 -270h-246l-86 133l-135 -133h-254z" />
<glyph unicode="&#xcb;" horiz-adv-x="1249" d="M41 0l319 1446h1018l-57 -283h-680l-61 -280h639l-64 -283h-639l-70 -315h738l-58 -285h-1085zM492 1563l55 254h276l-55 -254h-276zM973 1563l55 254h277l-56 -254h-276z" />
<glyph unicode="&#xcc;" horiz-adv-x="577" d="M41 0l319 1446h349l-320 -1446h-348zM180 1833h375l188 -270h-245z" />
<glyph unicode="&#xcd;" horiz-adv-x="577" d="M41 0l319 1446h349l-320 -1446h-348zM356 1563l285 270h385l-414 -270h-256z" />
<glyph unicode="&#xce;" horiz-adv-x="577" d="M41 0l319 1446h349l-320 -1446h-348zM180 1563l242 270h332l147 -270h-246l-86 133l-135 -133h-254z" />
<glyph unicode="&#xcf;" horiz-adv-x="577" d="M41 0l319 1446h349l-320 -1446h-348zM172 1563l55 254h277l-55 -254h-277zM653 1563l56 254h276l-55 -254h-277z" />
<glyph unicode="&#xd0;" horiz-adv-x="1452" d="M43 0l137 627h-125l54 239h122l129 580h453q307 0 447 -82q101 -60 159 -178.5t58 -278.5q0 -121 -23.5 -239t-70.5 -227.5t-124.5 -200.5t-177.5 -146q-108 -59 -222.5 -76.5t-346.5 -17.5h-469zM444 285h150q170 2 265 39.5t159 146.5q100 168 100 389q0 168 -92 246 q-69 57 -238 57h-145l-68 -297h361l-53 -239h-361z" />
<glyph unicode="&#xd1;" horiz-adv-x="1511" d="M41 0l319 1446h394q170 -460 348 -1008q29 166 62 325t147 683h329l-321 -1446h-383q-257 681 -356 979q-62 -304 -209 -979h-330zM625 1634q76 115 132 161t134 46q38 0 90 -24l53 -27q63 -29 92 -29q92 0 144 88l145 -92q-67 -109 -124 -157t-128 -48q-57 0 -116 33 l-50 25q-49 24 -84 24q-42 0 -81 -23.5t-64 -68.5z" />
<glyph unicode="&#xd2;" horiz-adv-x="1570" d="M145 588q0 182 57.5 348t157.5 283q108 129 260.5 196.5t340.5 67.5q298 0 466 -165.5t168 -465.5q0 -165 -54 -328.5t-148 -285.5q-211 -275 -607 -275q-301 0 -471 160t-170 465zM508 606q0 -173 79.5 -257.5t225.5 -84.5q99 0 179 49t134 136q50 79 78.5 180.5 t28.5 206.5q0 163 -73.5 254.5t-211.5 91.5q-94 0 -175 -42t-138 -120q-57 -79 -92 -187t-35 -227zM608 1833h375l188 -270h-245z" />
<glyph unicode="&#xd3;" horiz-adv-x="1570" d="M145 588q0 182 57.5 348t157.5 283q108 129 260.5 196.5t340.5 67.5q298 0 466 -165.5t168 -465.5q0 -165 -54 -328.5t-148 -285.5q-211 -275 -607 -275q-301 0 -471 160t-170 465zM508 606q0 -173 79.5 -257.5t225.5 -84.5q99 0 179 49t134 136q50 79 78.5 180.5 t28.5 206.5q0 163 -73.5 254.5t-211.5 91.5q-94 0 -175 -42t-138 -120q-57 -79 -92 -187t-35 -227zM745 1563l285 270h385l-414 -270h-256z" />
<glyph unicode="&#xd4;" horiz-adv-x="1570" d="M145 588q0 182 57.5 348t157.5 283q108 129 260.5 196.5t340.5 67.5q298 0 466 -165.5t168 -465.5q0 -165 -54 -328.5t-148 -285.5q-211 -275 -607 -275q-301 0 -471 160t-170 465zM508 606q0 -173 79.5 -257.5t225.5 -84.5q99 0 179 49t134 136q50 79 78.5 180.5 t28.5 206.5q0 163 -73.5 254.5t-211.5 91.5q-94 0 -175 -42t-138 -120q-57 -79 -92 -187t-35 -227zM629 1563l241 270h332l148 -270h-246l-86 133l-135 -133h-254z" />
<glyph unicode="&#xd5;" horiz-adv-x="1570" d="M145 588q0 182 57.5 348t157.5 283q108 129 260.5 196.5t340.5 67.5q298 0 466 -165.5t168 -465.5q0 -165 -54 -328.5t-148 -285.5q-211 -275 -607 -275q-301 0 -471 160t-170 465zM508 606q0 -173 79.5 -257.5t225.5 -84.5q99 0 179 49t134 136q50 79 78.5 180.5 t28.5 206.5q0 163 -73.5 254.5t-211.5 91.5q-94 0 -175 -42t-138 -120q-57 -79 -92 -187t-35 -227zM588 1634q76 115 132 161t134 46q38 0 90 -24l53 -27q63 -29 93 -29q91 0 143 88l145 -92q-67 -109 -124 -157t-128 -48q-57 0 -116 33l-49 25q-49 24 -84 24 q-42 0 -81.5 -23.5t-64.5 -68.5z" />
<glyph unicode="&#xd6;" horiz-adv-x="1570" d="M145 588q0 182 57.5 348t157.5 283q108 129 260.5 196.5t340.5 67.5q298 0 466 -165.5t168 -465.5q0 -165 -54 -328.5t-148 -285.5q-211 -275 -607 -275q-301 0 -471 160t-170 465zM508 606q0 -173 79.5 -257.5t225.5 -84.5q99 0 179 49t134 136q50 79 78.5 180.5 t28.5 206.5q0 163 -73.5 254.5t-211.5 91.5q-94 0 -175 -42t-138 -120q-57 -79 -92 -187t-35 -227zM608 1563l56 254h276l-55 -254h-277zM1090 1563l55 254h276l-55 -254h-276z" />
<glyph unicode="&#xd7;" horiz-adv-x="1566" d="M291 344l352 307l-272 314l231 198l272 -313l357 313l184 -213l-354 -311l266 -309l-231 -199l-267 309l-352 -309z" />
<glyph unicode="&#xd8;" horiz-adv-x="1570" d="M2 84l209 182q-66 135 -66 322q0 182 57.5 348t157.5 283q108 129 260.5 196.5t340.5 67.5q292 0 462 -162l197 172l109 -129l-205 -178q71 -139 71 -334q0 -165 -54 -328.5t-148 -285.5q-211 -275 -607 -275q-314 0 -479 168l-198 -172zM508 606q0 -28 4 -78l647 564 q-77 90 -211 90q-94 0 -175 -42t-138 -120q-57 -79 -92 -187t-35 -227zM575 362q74 -98 238 -98q99 0 179 49t134 136q50 79 78.5 180.5t28.5 206.5q0 48 -6 92z" />
<glyph unicode="&#xd9;" horiz-adv-x="1439" d="M147 399q0 113 39 279l170 768h346l-167 -752q-43 -179 -43 -258q0 -89 58.5 -138.5t160.5 -49.5q193 0 256 135q42 90 86 289l170 774h348l-191 -864q-35 -155 -70.5 -251t-90.5 -165q-160 -201 -539 -201q-260 0 -396.5 111t-136.5 323zM565 1833h375l188 -270h-245z " />
<glyph unicode="&#xda;" horiz-adv-x="1439" d="M147 399q0 113 39 279l170 768h346l-167 -752q-43 -179 -43 -258q0 -89 58.5 -138.5t160.5 -49.5q193 0 256 135q42 90 86 289l170 774h348l-191 -864q-35 -155 -70.5 -251t-90.5 -165q-160 -201 -539 -201q-260 0 -396.5 111t-136.5 323zM756 1563l284 270h385 l-413 -270h-256z" />
<glyph unicode="&#xdb;" horiz-adv-x="1439" d="M147 399q0 113 39 279l170 768h346l-167 -752q-43 -179 -43 -258q0 -89 58.5 -138.5t160.5 -49.5q193 0 256 135q42 90 86 289l170 774h348l-191 -864q-35 -155 -70.5 -251t-90.5 -165q-160 -201 -539 -201q-260 0 -396.5 111t-136.5 323zM598 1563l242 270h331l148 -270 h-246l-86 133l-135 -133h-254z" />
<glyph unicode="&#xdc;" horiz-adv-x="1439" d="M147 399q0 113 39 279l170 768h346l-167 -752q-43 -179 -43 -258q0 -89 58.5 -138.5t160.5 -49.5q193 0 256 135q42 90 86 289l170 774h348l-191 -864q-35 -155 -70.5 -251t-90.5 -165q-160 -201 -539 -201q-260 0 -396.5 111t-136.5 323zM580 1563l55 254h276l-55 -254 h-276zM1061 1563l55 254h277l-56 -254h-276z" />
<glyph unicode="&#xdd;" horiz-adv-x="1386" d="M248 1446h377q99 -273 204 -594q254 372 424 594h381l-692 -893l-121 -553h-346l129 590zM764 1563l285 270h385l-414 -270h-256z" />
<glyph unicode="&#xde;" horiz-adv-x="1378" d="M41 0l319 1446h349l-45 -205h180q291 0 418 -72q83 -47 130.5 -131.5t47.5 -187.5q0 -160 -61 -290t-177 -195q-155 -89 -497 -89h-263l-59 -276h-342zM508 557h180q176 0 250 25q62 21 99.5 77t37.5 121q0 109 -71 148q-62 33 -218 33h-188z" />
<glyph unicode="&#xdf;" horiz-adv-x="1200" d="M35 0l205 924q28 126 52 203t60 133q73 115 182.5 167t272.5 52q195 0 305.5 -89t110.5 -239q0 -154 -72.5 -247.5t-235.5 -129.5q142 -33 204.5 -108t62.5 -201q0 -220 -137 -352.5t-371 -132.5q-128 0 -211 28l53 254q56 -26 119 -26q108 0 168.5 59t60.5 178 q0 87 -59 136.5t-172 49.5h-27l49 224h23q117 0 181.5 49t64.5 147q0 64 -36 104t-104 40q-93 0 -149 -72q-43 -57 -68 -170l-217 -981h-315z" />
<glyph unicode="&#xe0;" horiz-adv-x="1093" d="M41 260q0 113 60 197t173 125q91 33 208.5 48t277.5 25q6 34 6 70q0 41 -29.5 68.5t-95.5 27.5q-69 0 -108.5 -28t-57.5 -99l-293 41q56 162 171.5 242t320.5 80q397 0 397 -293q0 -73 -90 -506q-23 -112 -23 -186q0 -28 9 -72h-312q-2 18 -2 45q0 35 9 82 q-69 -85 -143.5 -116t-176.5 -31q-134 0 -217.5 75t-83.5 205zM342 305q0 -45 31 -71.5t82 -26.5q103 0 172 69q60 60 78 150l8 39q-183 -7 -283 -47q-88 -36 -88 -113zM354 1485h365l129 -311h-234z" />
<glyph unicode="&#xe1;" horiz-adv-x="1093" d="M41 260q0 113 60 197t173 125q91 33 208.5 48t277.5 25q6 34 6 70q0 41 -29.5 68.5t-95.5 27.5q-69 0 -108.5 -28t-57.5 -99l-293 41q56 162 171.5 242t320.5 80q397 0 397 -293q0 -73 -90 -506q-23 -112 -23 -186q0 -28 9 -72h-312q-2 18 -2 45q0 35 9 82 q-69 -85 -143.5 -116t-176.5 -31q-134 0 -217.5 75t-83.5 205zM342 305q0 -45 31 -71.5t82 -26.5q103 0 172 69q60 60 78 150l8 39q-183 -7 -283 -47q-88 -36 -88 -113zM535 1174l225 311h377l-357 -311h-245z" />
<glyph unicode="&#xe2;" horiz-adv-x="1093" d="M41 260q0 113 60 197t173 125q91 33 208.5 48t277.5 25q6 34 6 70q0 41 -29.5 68.5t-95.5 27.5q-69 0 -108.5 -28t-57.5 -99l-293 41q56 162 171.5 242t320.5 80q397 0 397 -293q0 -73 -90 -506q-23 -112 -23 -186q0 -28 9 -72h-312q-2 18 -2 45q0 35 9 82 q-69 -85 -143.5 -116t-176.5 -31q-134 0 -217.5 75t-83.5 205zM342 305q0 -45 31 -71.5t82 -26.5q103 0 172 69q60 60 78 150l8 39q-183 -7 -283 -47q-88 -36 -88 -113zM365 1174l251 311h277l127 -311h-232l-53 167l-119 -167h-251z" />
<glyph unicode="&#xe3;" horiz-adv-x="1093" d="M41 260q0 113 60 197t173 125q91 33 208.5 48t277.5 25q6 34 6 70q0 41 -29.5 68.5t-95.5 27.5q-69 0 -108.5 -28t-57.5 -99l-293 41q56 162 171.5 242t320.5 80q397 0 397 -293q0 -73 -90 -506q-23 -112 -23 -186q0 -28 9 -72h-312q-2 18 -2 45q0 35 9 82 q-69 -85 -143.5 -116t-176.5 -31q-134 0 -217.5 75t-83.5 205zM328 1245q74 117 125 162t125 45q39 0 90 -25l51 -26q60 -29 84 -29q37 0 67 20.5t62 67.5l141 -92q-66 -111 -117.5 -158t-119.5 -47q-57 0 -113 33l-47 25q-50 24 -82 24q-79 0 -127 -92zM342 305 q0 -45 31 -71.5t82 -26.5q103 0 172 69q60 60 78 150l8 39q-183 -7 -283 -47q-88 -36 -88 -113z" />
<glyph unicode="&#xe4;" horiz-adv-x="1093" d="M41 260q0 113 60 197t173 125q91 33 208.5 48t277.5 25q6 34 6 70q0 41 -29.5 68.5t-95.5 27.5q-69 0 -108.5 -28t-57.5 -99l-293 41q56 162 171.5 242t320.5 80q397 0 397 -293q0 -73 -90 -506q-23 -112 -23 -186q0 -28 9 -72h-312q-2 18 -2 45q0 35 9 82 q-69 -85 -143.5 -116t-176.5 -31q-134 0 -217.5 75t-83.5 205zM340 1198l55 252h264l-57 -252h-262zM342 305q0 -45 31 -71.5t82 -26.5q103 0 172 69q60 60 78 150l8 39q-183 -7 -283 -47q-88 -36 -88 -113zM795 1198l55 252h266l-55 -252h-266z" />
<glyph unicode="&#xe5;" horiz-adv-x="1093" d="M41 260q0 113 60 197t173 125q91 33 208.5 48t277.5 25q6 34 6 70q0 41 -29.5 68.5t-95.5 27.5q-69 0 -108.5 -28t-57.5 -99l-293 41q56 162 171.5 242t320.5 80q397 0 397 -293q0 -73 -90 -506q-23 -112 -23 -186q0 -28 9 -72h-312q-2 18 -2 45q0 35 9 82 q-69 -85 -143.5 -116t-176.5 -31q-134 0 -217.5 75t-83.5 205zM342 305q0 -45 31 -71.5t82 -26.5q103 0 172 69q60 60 78 150l8 39q-183 -7 -283 -47q-88 -36 -88 -113zM508 1346q0 97 65 159t166 62q94 0 149.5 -52t55.5 -141q0 -96 -65.5 -158.5t-165.5 -62.5 q-94 0 -149.5 52t-55.5 141zM621 1352q0 -44 26.5 -71.5t69.5 -27.5q47 0 78.5 34t31.5 85q0 43 -25.5 68.5t-70.5 25.5q-46 0 -78 -33.5t-32 -80.5z" />
<glyph unicode="&#xe6;" horiz-adv-x="1730" d="M41 264q0 113 59.5 195t173.5 123q91 33 208.5 48t277.5 25q6 34 6 70q0 41 -29.5 68.5t-95.5 27.5q-69 0 -108.5 -28t-57.5 -99l-293 41q56 162 171.5 242t320.5 80q110 0 182 -28.5t119 -90.5q131 119 313 119q211 0 330 -127t119 -348q0 -62 -13 -138h-708 q0 -42 9 -77.5t30 -69t63.5 -53t102.5 -19.5q62 0 120 37t95 107l247 -154q-78 -117 -207.5 -181.5t-287.5 -64.5q-130 0 -228.5 52.5t-152.5 142.5q-42 -46 -75 -74t-84 -56t-119 -41t-158 -13q-144 0 -237 77t-93 207zM342 305q0 -45 31 -71.5t82 -26.5q103 0 172 69 q60 60 78 150l8 39q-183 -7 -283 -47q-88 -36 -88 -113zM1044 645h383q0 81 -43.5 125.5t-119.5 44.5q-85 0 -141.5 -44t-78.5 -126z" />
<glyph unicode="&#xe7;" horiz-adv-x="1067" d="M100 436q0 182 75 324t208.5 219.5t302.5 77.5q305 0 420 -260l-277 -140q-33 142 -157 142q-117 0 -186.5 -98.5t-69.5 -258.5q0 -102 51 -159.5t141 -57.5q125 0 205 150l250 -150q-76 -107 -173.5 -170t-230.5 -80l-67 -84q79 -9 122.5 -54.5t43.5 -121.5 q0 -93 -75.5 -155t-195.5 -62q-126 0 -208 82l98 101q44 -54 112 -54q52 0 80.5 24t28.5 60q0 40 -24 63t-68 23q-45 0 -88 -22l-33 63l119 135q-185 21 -294.5 141.5t-109.5 321.5z" />
<glyph unicode="&#xe8;" horiz-adv-x="1126" d="M100 449q0 173 73.5 312t207.5 217.5t303 78.5q211 0 330 -127t119 -348q0 -62 -13 -138h-708q0 -32 5 -60.5t18.5 -58.5t35.5 -51.5t59.5 -35t85.5 -13.5q62 0 120 37t95 107l248 -154q-78 -117 -207.5 -181.5t-287.5 -64.5q-222 0 -353 128.5t-131 351.5zM352 1485h365 l129 -311h-234zM440 645h383q0 79 -44.5 124.5t-119.5 45.5q-84 0 -140 -44t-79 -126z" />
<glyph unicode="&#xe9;" horiz-adv-x="1126" d="M100 449q0 173 73.5 312t207.5 217.5t303 78.5q211 0 330 -127t119 -348q0 -62 -13 -138h-708q0 -32 5 -60.5t18.5 -58.5t35.5 -51.5t59.5 -35t85.5 -13.5q62 0 120 37t95 107l248 -154q-78 -117 -207.5 -181.5t-287.5 -64.5q-222 0 -353 128.5t-131 351.5zM440 645h383 q0 79 -44.5 124.5t-119.5 45.5q-84 0 -140 -44t-79 -126zM555 1174l225 311h377l-356 -311h-246z" />
<glyph unicode="&#xea;" horiz-adv-x="1126" d="M100 449q0 173 73.5 312t207.5 217.5t303 78.5q211 0 330 -127t119 -348q0 -62 -13 -138h-708q0 -32 5 -60.5t18.5 -58.5t35.5 -51.5t59.5 -35t85.5 -13.5q62 0 120 37t95 107l248 -154q-78 -117 -207.5 -181.5t-287.5 -64.5q-222 0 -353 128.5t-131 351.5zM369 1174 l252 311h276l127 -311h-231l-54 167l-118 -167h-252zM440 645h383q0 79 -44.5 124.5t-119.5 45.5q-84 0 -140 -44t-79 -126z" />
<glyph unicode="&#xeb;" horiz-adv-x="1126" d="M100 449q0 173 73.5 312t207.5 217.5t303 78.5q211 0 330 -127t119 -348q0 -62 -13 -138h-708q0 -32 5 -60.5t18.5 -58.5t35.5 -51.5t59.5 -35t85.5 -13.5q62 0 120 37t95 107l248 -154q-78 -117 -207.5 -181.5t-287.5 -64.5q-222 0 -353 128.5t-131 351.5zM324 1198 l55 252h264l-57 -252h-262zM440 645h383q0 79 -44.5 124.5t-119.5 45.5q-84 0 -140 -44t-79 -126zM778 1198l56 252h266l-56 -252h-266z" />
<glyph unicode="&#xec;" d="M35 0l227 1024h318l-230 -1024h-315zM96 1485h365l129 -311h-234z" />
<glyph unicode="&#xed;" d="M35 0l227 1024h318l-230 -1024h-315zM270 1174l226 311h376l-356 -311h-246z" />
<glyph unicode="&#xee;" d="M35 0l227 1024h318l-230 -1024h-315zM100 1174l252 311h277l127 -311h-232l-53 167l-119 -167h-252z" />
<glyph unicode="&#xef;" d="M35 0l227 1024h318l-230 -1024h-315zM80 1198l55 252h264l-57 -252h-262zM535 1198l55 252h266l-55 -252h-266z" />
<glyph unicode="&#xf0;" horiz-adv-x="1181" d="M100 446q0 249 150 410.5t377 161.5q53 0 89.5 -9t82.5 -34q-32 97 -86 176l-353 -88l-36 139l315 80q-70 92 -139 158l233 106q102 -91 172 -186l242 65l39 -141l-193 -53q174 -275 174 -633q0 -184 -69 -326t-202.5 -223.5t-313.5 -81.5q-225 0 -353.5 129t-128.5 350z M414 457q0 -106 49 -169t135 -63q80 0 139.5 48t88 125.5t28.5 172.5q0 113 -42.5 171.5t-137.5 58.5q-111 0 -185.5 -100.5t-74.5 -243.5z" />
<glyph unicode="&#xf1;" horiz-adv-x="1159" d="M35 0l227 1024h303l-37 -166q62 87 154.5 135.5t200.5 48.5q129 0 197.5 -66t68.5 -190q0 -67 -35 -219l-127 -567h-315l110 504q25 116 25 153q0 55 -29.5 84t-85.5 29q-91 0 -153 -74q-27 -32 -44.5 -81t-39.5 -148l-105 -467h-315zM365 1245q74 117 124.5 162 t124.5 45q40 0 91 -25l51 -26q60 -29 84 -29q37 0 67 20.5t62 67.5l141 -92q-66 -111 -118 -158t-120 -47q-56 0 -112 33l-47 25q-49 24 -82 24q-79 0 -127 -92z" />
<glyph unicode="&#xf2;" horiz-adv-x="1179" d="M100 444q0 240 142 412q79 96 196 148.5t258 52.5q224 0 348.5 -121.5t124.5 -341.5q0 -258 -147 -432q-78 -92 -189 -142.5t-245 -50.5q-230 0 -359 125.5t-129 349.5zM362 1485h365l129 -311h-233zM414 451q0 -104 51 -165t139 -61q122 0 193 117q59 97 59 242 q0 106 -45 161.5t-131 55.5q-122 0 -195 -105q-71 -101 -71 -245z" />
<glyph unicode="&#xf3;" horiz-adv-x="1179" d="M100 444q0 240 142 412q79 96 196 148.5t258 52.5q224 0 348.5 -121.5t124.5 -341.5q0 -258 -147 -432q-78 -92 -189 -142.5t-245 -50.5q-230 0 -359 125.5t-129 349.5zM414 451q0 -104 51 -165t139 -61q122 0 193 117q59 97 59 242q0 106 -45 161.5t-131 55.5 q-122 0 -195 -105q-71 -101 -71 -245zM543 1174l225 311h377l-357 -311h-245z" />
<glyph unicode="&#xf4;" horiz-adv-x="1179" d="M100 444q0 240 142 412q79 96 196 148.5t258 52.5q224 0 348.5 -121.5t124.5 -341.5q0 -258 -147 -432q-78 -92 -189 -142.5t-245 -50.5q-230 0 -359 125.5t-129 349.5zM373 1174l252 311h276l127 -311h-231l-54 167l-118 -167h-252zM414 451q0 -104 51 -165t139 -61 q122 0 193 117q59 97 59 242q0 106 -45 161.5t-131 55.5q-122 0 -195 -105q-71 -101 -71 -245z" />
<glyph unicode="&#xf5;" horiz-adv-x="1179" d="M100 444q0 240 142 412q79 96 196 148.5t258 52.5q224 0 348.5 -121.5t124.5 -341.5q0 -258 -147 -432q-78 -92 -189 -142.5t-245 -50.5q-230 0 -359 125.5t-129 349.5zM332 1245q74 117 125 162t125 45q39 0 90 -25l51 -26q60 -29 84 -29q37 0 67 20.5t62 67.5l141 -92 q-66 -111 -117.5 -158t-119.5 -47q-57 0 -113 33l-47 25q-49 24 -82 24q-79 0 -127 -92zM414 451q0 -104 51 -165t139 -61q122 0 193 117q59 97 59 242q0 106 -45 161.5t-131 55.5q-122 0 -195 -105q-71 -101 -71 -245z" />
<glyph unicode="&#xf6;" horiz-adv-x="1179" d="M100 444q0 240 142 412q79 96 196 148.5t258 52.5q224 0 348.5 -121.5t124.5 -341.5q0 -258 -147 -432q-78 -92 -189 -142.5t-245 -50.5q-230 0 -359 125.5t-129 349.5zM344 1198l55 252h265l-58 -252h-262zM414 451q0 -104 51 -165t139 -61q122 0 193 117q59 97 59 242 q0 106 -45 161.5t-131 55.5q-122 0 -195 -105q-71 -101 -71 -245zM799 1198l55 252h266l-55 -252h-266z" />
<glyph unicode="&#xf7;" horiz-adv-x="1566" d="M254 485l68 293h1140l-67 -293h-1141zM584 63l73 310h283l-74 -310h-282zM782 891l74 309h283l-74 -309h-283z" />
<glyph unicode="&#xf8;" horiz-adv-x="1179" d="M-27 41l181 154q-54 108 -54 249q0 240 142 412q79 96 196 148.5t258 52.5q210 0 336 -111l168 146l86 -105l-172 -147q55 -101 55 -246q0 -258 -147 -432q-78 -92 -189 -142.5t-245 -50.5q-224 0 -352 119l-179 -154zM412 453q0 -23 2 -37l393 338q-48 51 -127 51 q-125 0 -199 -107q-69 -98 -69 -245zM461 281q24 -27 62.5 -43.5t80.5 -16.5q61 0 112 31.5t85 87.5q59 97 59 246q0 18 -2 32z" />
<glyph unicode="&#xf9;" horiz-adv-x="1155" d="M98 236q0 67 35 219l127 569h315l-110 -506q-25 -116 -25 -153q0 -55 29.5 -84t85.5 -29q92 0 154 74q27 32 44.5 81t39.5 148l104 469h315l-227 -1026h-303l37 166q-62 -87 -154 -135.5t-200 -48.5q-129 0 -198 66t-69 190zM395 1485h365l129 -311h-234z" />
<glyph unicode="&#xfa;" horiz-adv-x="1155" d="M98 236q0 67 35 219l127 569h315l-110 -506q-25 -116 -25 -153q0 -55 29.5 -84t85.5 -29q92 0 154 74q27 32 44.5 81t39.5 148l104 469h315l-227 -1026h-303l37 166q-62 -87 -154 -135.5t-200 -48.5q-129 0 -198 66t-69 190zM596 1174l225 311h377l-356 -311h-246z" />
<glyph unicode="&#xfb;" horiz-adv-x="1155" d="M98 236q0 67 35 219l127 569h315l-110 -506q-25 -116 -25 -153q0 -55 29.5 -84t85.5 -29q92 0 154 74q27 32 44.5 81t39.5 148l104 469h315l-227 -1026h-303l37 166q-62 -87 -154 -135.5t-200 -48.5q-129 0 -198 66t-69 190zM420 1174l252 311h276l127 -311h-231l-53 167 l-119 -167h-252z" />
<glyph unicode="&#xfc;" horiz-adv-x="1155" d="M98 236q0 67 35 219l127 569h315l-110 -506q-25 -116 -25 -153q0 -55 29.5 -84t85.5 -29q92 0 154 74q27 32 44.5 81t39.5 148l104 469h315l-227 -1026h-303l37 166q-62 -87 -154 -135.5t-200 -48.5q-129 0 -198 66t-69 190zM395 1198l56 252h264l-58 -252h-262z M850 1198l55 252h266l-55 -252h-266z" />
<glyph unicode="&#xfd;" horiz-adv-x="1046" d="M-59 -393l57 254q48 -25 100 -25q34 0 56 3t50.5 14.5t51.5 38t43 69.5l12 27l-149 1036h323q30 -316 54 -735q130 316 321 735h348l-497 -952q-52 -99 -79.5 -149.5t-65.5 -108t-72 -93.5q-71 -77 -158 -109t-209 -32q-101 0 -186 27zM541 1174l225 311h377l-357 -311 h-245z" />
<glyph unicode="&#xfe;" horiz-adv-x="1202" d="M-53 -397l407 1843h318l-131 -561q115 164 321 164q162 0 251 -109t89 -309q0 -97 -19.5 -190t-61 -177.5t-100.5 -148t-144.5 -101t-186.5 -37.5q-109 0 -187 42.5t-116 127.5l-123 -544h-317zM444 428q0 -87 45 -141t121 -54q111 0 178.5 102.5t67.5 258.5 q0 105 -41 156t-117 51q-109 0 -181.5 -104.5t-72.5 -268.5z" />
<glyph unicode="&#xff;" horiz-adv-x="1046" d="M-59 -393l57 254q48 -25 100 -25q34 0 56 3t50.5 14.5t51.5 38t43 69.5l12 27l-149 1036h323q30 -316 54 -735q130 316 321 735h348l-497 -952q-52 -99 -79.5 -149.5t-65.5 -108t-72 -93.5q-71 -77 -158 -109t-209 -32q-101 0 -186 27zM324 1198l55 252h264l-57 -252 h-262zM778 1198l56 252h266l-56 -252h-266z" />
<glyph unicode="&#x152;" horiz-adv-x="2250" d="M143 592q0 179 54.5 340t152 281.5t241 191t312.5 70.5q327 0 424 -228l43 199h1010l-58 -283h-657l-63 -278h618l-63 -285h-617l-70 -315h721l-63 -285h-1061l41 160q-82 -101 -180.5 -145t-243.5 -44q-117 0 -215 40t-171 116.5t-114 195.5t-41 269zM508 612 q0 -166 78 -253t217 -87q87 0 159.5 32.5t121.5 87t82.5 127t49 151t15.5 161.5q0 165 -74.5 254t-214.5 89q-189 0 -311.5 -160.5t-122.5 -401.5z" />
<glyph unicode="&#x153;" horiz-adv-x="1855" d="M100 444q0 240 142 412q79 96 196 148.5t258 52.5q221 0 334 -156q70 74 169 115t214 41q211 0 330 -127t119 -348q0 -62 -13 -138h-708q0 -32 5 -60.5t19 -58.5t36 -51.5t59.5 -35t85.5 -13.5q62 0 120 37t95 107l247 -154q-78 -118 -202 -182t-275 -64q-251 0 -377 160 q-64 -80 -159.5 -120t-206.5 -40q-230 0 -359 125.5t-129 349.5zM414 451q0 -104 51 -165t139 -61q122 0 193 117q59 97 59 242q0 106 -45 161.5t-131 55.5q-122 0 -195 -105q-71 -101 -71 -245zM1169 645h383q0 79 -44 124.5t-119 45.5q-84 0 -140.5 -44t-79.5 -126z" />
<glyph unicode="&#x178;" horiz-adv-x="1386" d="M248 1446h377q99 -273 204 -594q254 372 424 594h381l-692 -893l-121 -553h-346l129 590zM551 1563l55 254h277l-56 -254h-276zM1032 1563l55 254h277l-55 -254h-277z" />
<glyph unicode="&#x2c6;" d="M-66 1174l252 311h277l127 -311h-232l-53 167l-119 -167h-252z" />
<glyph unicode="&#x2dc;" d="M-111 1245q74 117 125 162t125 45q39 0 90 -25l52 -26q60 -29 84 -29q37 0 67 20.5t62 67.5l141 -92q-66 -111 -118 -158t-120 -47q-56 0 -112 33l-47 25q-50 24 -82 24q-79 0 -127 -92z" />
<glyph unicode="&#x2000;" horiz-adv-x="945" />
<glyph unicode="&#x2001;" horiz-adv-x="1890" />
<glyph unicode="&#x2002;" horiz-adv-x="945" />
<glyph unicode="&#x2003;" horiz-adv-x="1890" />
<glyph unicode="&#x2004;" horiz-adv-x="630" />
<glyph unicode="&#x2005;" horiz-adv-x="472" />
<glyph unicode="&#x2006;" horiz-adv-x="315" />
<glyph unicode="&#x2007;" horiz-adv-x="315" />
<glyph unicode="&#x2008;" horiz-adv-x="236" />
<glyph unicode="&#x2009;" horiz-adv-x="378" />
<glyph unicode="&#x200a;" horiz-adv-x="105" />
<glyph unicode="&#x2010;" horiz-adv-x="786" d="M125 514l53 238h623l-53 -238h-623z" />
<glyph unicode="&#x2011;" horiz-adv-x="786" d="M125 514l53 238h623l-53 -238h-623z" />
<glyph unicode="&#x2012;" horiz-adv-x="786" d="M125 514l53 238h623l-53 -238h-623z" />
<glyph unicode="&#x2013;" horiz-adv-x="1228" d="M125 514l53 238h1065l-53 -238h-1065z" />
<glyph unicode="&#x2014;" horiz-adv-x="1515" d="M125 514l53 238h1352l-51 -238h-1354z" />
<glyph unicode="&#x2018;" horiz-adv-x="507" d="M211 784l74 328q30 130 80 207.5t163 163.5l123 -121q-68 -51 -96 -96.5t-55 -139.5h100l-76 -342h-313z" />
<glyph unicode="&#x2019;" horiz-adv-x="507" d="M211 868q65 50 95 96t56 138h-98l76 344h311l-73 -330q-27 -126 -76.5 -204t-165.5 -164z" />
<glyph unicode="&#x201a;" horiz-adv-x="507" d="M-29 -233q65 50 95.5 96t56.5 137h-98l75 344h312l-74 -330q-27 -126 -76.5 -204t-165.5 -164z" />
<glyph unicode="&#x201c;" horiz-adv-x="948" d="M211 784l74 328q30 130 80 207.5t163 163.5l123 -121q-68 -51 -96 -96.5t-55 -139.5h100l-76 -342h-313zM651 784l74 328q30 131 79.5 208t164.5 163l123 -121q-68 -52 -97 -96.5t-55 -139.5h100l-77 -342h-312z" />
<glyph unicode="&#x201d;" horiz-adv-x="948" d="M211 868q65 50 95 96t56 138h-98l76 344h311l-73 -330q-27 -126 -76.5 -204t-165.5 -164zM651 868q67 48 97.5 96.5t54.5 137.5h-98l75 344h312l-74 -330q-29 -130 -77.5 -206t-166.5 -162z" />
<glyph unicode="&#x201e;" horiz-adv-x="948" d="M-29 -233q65 50 95.5 96t56.5 137h-98l75 344h312l-74 -330q-27 -126 -76.5 -204t-165.5 -164zM412 -233q66 48 96.5 96t54.5 137h-98l76 344h311l-74 -330q-29 -130 -77 -206.5t-166 -161.5z" />
<glyph unicode="&#x2022;" horiz-adv-x="604" d="M66 346l104 492h481l-104 -492h-481z" />
<glyph unicode="&#x2026;" horiz-adv-x="2168" d="M143 0l76 344h307l-75 -344h-308zM866 0l76 344h307l-78 -344h-305zM1589 0l76 344h307l-78 -344h-305z" />
<glyph unicode="&#x202f;" horiz-adv-x="378" />
<glyph unicode="&#x2039;" horiz-adv-x="647" d="M131 571l408 453l145 -143l-272 -318l147 -338l-199 -116z" />
<glyph unicode="&#x203a;" horiz-adv-x="647" d="M76 248l272 317l-147 338l198 117l230 -463l-408 -453z" />
<glyph unicode="&#x205f;" horiz-adv-x="472" />
<glyph unicode="&#x20ac;" horiz-adv-x="1390" d="M152 494l36 149h144q13 115 22 150h-141l39 149h145q42 120 98.5 204.5t141.5 151.5q97 75 208 110.5t255 35.5q131 0 245 -49.5t197 -139.5l-194 -239q-48 74 -122.5 110.5t-154.5 36.5q-129 0 -214 -51t-134 -170h555l-35 -149h-565q-16 -71 -25 -150h555l-32 -149 h-527q5 -118 73 -180t198 -62q96 0 164 32.5t147 106.5l162 -246q-98 -86 -235.5 -133t-293.5 -47q-248 0 -388 141.5t-148 387.5h-176z" />
<glyph unicode="&#x2122;" horiz-adv-x="1746" d="M276 1270l39 176h564l-39 -176h-176l-117 -539h-209l117 539h-179zM815 731l156 715h319l-2 -500q13 37 35.5 89.5t78.5 180t101 230.5h320l-156 -715h-199q40 179 121 524q-58 -134 -239 -524h-217q-11 334 -11 526q-30 -175 -108 -526h-199z" />
<glyph unicode="&#x25fc;" horiz-adv-x="1024" d="M0 0v1024h1024v-1024h-1024z" />
</font>
</defs>
</svg>
