<?xml version="1.0" standalone="no"?>
<!DOCTYPE svg PUBLIC "-//W3C//DTD SVG 1.1//EN" "http://www.w3.org/Graphics/SVG/1.1/DTD/svg11.dtd" >
<svg xmlns="http://www.w3.org/2000/svg">
<metadata></metadata>
<defs>
<font id="akzidenz-grotesk_nextbold" horiz-adv-x="536" >
<font-face units-per-em="2048" ascent="1536" descent="-512" />
<missing-glyph horiz-adv-x="500" />
<glyph unicode="&#xfb01;" horiz-adv-x="1241" d="M16 784v248h158v107q0 170 88.5 248.5t245.5 78.5q102 0 182 -22v-254q-42 22 -94 22q-56 0 -80 -27.5t-24 -90.5v-62h196v-248h-196v-784h-318v784h-158zM813 1178v268h320v-268h-320zM815 0v1032h318v-1032h-318z" />
<glyph unicode="&#xfb02;" horiz-adv-x="1241" d="M16 784v248h158v107q0 170 88.5 248.5t245.5 78.5q102 0 182 -22v-254q-42 22 -94 22q-56 0 -80 -27.5t-24 -90.5v-62h196v-248h-196v-784h-318v784h-158zM815 0v1446h318v-1446h-318z" />
<glyph horiz-adv-x="0" />
<glyph horiz-adv-x="682" />
<glyph unicode=" " />
<glyph unicode="!" horiz-adv-x="602" d="M154 1446h370l-30 -494q-13 -213 -43 -458h-222q-35 284 -45 456zM184 0v344h310v-344h-310z" />
<glyph unicode="&#x22;" horiz-adv-x="860" d="M80 1446h287l-88 -645h-115zM494 1446h286l-88 -645h-114z" />
<glyph unicode="#" horiz-adv-x="1376" d="M94 434v197h279l28 207h-256v198h283l59 410h197l-57 -410h215l57 410h201l-58 -410h240v-198h-268l-29 -207h250v-197h-277l-61 -434h-201l64 434h-215l-62 -434h-196l59 434h-252zM571 631h215l29 207h-215z" />
<glyph unicode="$" horiz-adv-x="1275" d="M82 242l229 202q38 -67 108.5 -106.5t151.5 -52.5v309l-141 53q-154 58 -225.5 144t-71.5 235q0 169 121.5 282.5t316.5 133.5v207h146v-205q273 -20 459 -230l-240 -198q-80 124 -219 151v-299l94 -32q192 -65 278.5 -155.5t86.5 -242.5q0 -177 -121 -296.5t-338 -139.5 v-203h-146v203q-147 11 -277 72.5t-212 167.5zM449 1063q0 -45 25.5 -79t96.5 -64v256q-60 -7 -91 -38t-31 -75zM717 283q133 17 133 116q0 47 -26.5 75t-106.5 63v-254z" />
<glyph unicode="%" horiz-adv-x="1968" d="M61 979q0 220 99.5 336.5t283.5 116.5q93 0 164 -36t114 -99.5t65 -146t22 -179.5q0 -219 -96 -339t-273 -120q-180 0 -279.5 120t-99.5 347zM287 979q0 -148 38.5 -214.5t114.5 -66.5q150 0 150 269q0 276 -152 276q-151 0 -151 -264zM596 0l569 1411h207l-571 -1411 h-205zM1159 453q0 220 99.5 336t283.5 116q93 0 164 -36t114 -99.5t65 -146t22 -179.5q0 -219 -96 -338.5t-273 -119.5q-180 0 -279.5 120t-99.5 347zM1384 453q0 -148 39 -214.5t115 -66.5q150 0 150 268q0 277 -152 277t-152 -264z" />
<glyph unicode="&#x26;" horiz-adv-x="1417" d="M59 410q0 135 75.5 236t244.5 183q-100 143 -100 295q0 142 118 238t308 96q163 0 267.5 -91.5t104.5 -227.5q0 -121 -63 -217.5t-203 -173.5l195 -244q71 84 116 227l254 -133q-55 -169 -188 -299q21 -23 47 -34.5t43 -13t47 -1.5q25 0 57 4v-254q-79 -14 -139 -14 q-100 0 -154.5 19.5t-121.5 84.5q-158 -115 -414 -115q-223 0 -358.5 117.5t-135.5 317.5zM389 401q0 -77 55 -121t146 -44q114 0 198 61l-251 317q-87 -51 -117.5 -102.5t-30.5 -110.5zM586 1110q0 -71 80 -166q143 77 143 168q0 43 -30 71.5t-79 28.5q-53 0 -83.5 -28 t-30.5 -74z" />
<glyph unicode="'" horiz-adv-x="446" d="M80 1446h287l-88 -645h-115z" />
<glyph unicode="(" horiz-adv-x="786" d="M125 610q0 301 128.5 543t383.5 438l111 -127q-164 -163 -243 -383t-79 -469q0 -263 78 -492t246 -388l-111 -125q-252 167 -383 427t-131 576z" />
<glyph unicode=")" horiz-adv-x="786" d="M37 1468l110 125q252 -167 383.5 -427t131.5 -576q0 -301 -128.5 -543t-383.5 -438l-111 127q164 162 242.5 382.5t78.5 469.5q0 263 -77.5 492t-245.5 388z" />
<glyph unicode="*" horiz-adv-x="790" d="M57 1159l58 174l200 -78l-8 222h191l-9 -213l195 86l64 -172l-218 -76l148 -174l-150 -115l-127 180l-114 -180l-158 109l137 172z" />
<glyph unicode="+" horiz-adv-x="1566" d="M213 485v293h418v426h305v-426h418v-293h-418v-426h-305v426h-418z" />
<glyph unicode="," horiz-adv-x="503" d="M92 0v344h311v-330q0 -122 -34 -206t-127 -162l-150 118q53 48 75.5 98t25.5 138h-101z" />
<glyph unicode="-" horiz-adv-x="786" d="M82 514v238h623v-238h-623z" />
<glyph unicode="." horiz-adv-x="509" d="M100 0v344h308v-344h-308z" />
<glyph unicode="/" horiz-adv-x="950" d="M23 -369l606 1925h262l-606 -1925h-262z" />
<glyph unicode="0" horiz-adv-x="1228" d="M57 713q0 355 144.5 543t416.5 188q261 0 407 -196t146 -548q0 -353 -144 -542t-413 -189q-267 0 -412 194t-145 550zM379 707q0 -237 59 -341t178 -104q118 0 177 97.5t59 322.5q0 238 -62 353.5t-174 115.5q-114 0 -175.5 -109t-61.5 -335z" />
<glyph unicode="1" horiz-adv-x="1228" d="M215 922v292q136 11 214.5 59t107.5 144h284v-1417h-332v987q-93 -56 -274 -65z" />
<glyph unicode="2" horiz-adv-x="1228" d="M80 977q0 205 148 336t397 131q242 0 380 -121.5t138 -333.5q0 -261 -238 -477q-84 -76 -330 -240q110 7 562 7v-279h-1041v215l350 270q144 111 223.5 195t107.5 148.5t28 140.5q0 83 -50.5 131.5t-148.5 48.5t-151.5 -62.5t-53.5 -154.5q0 -51 21 -137l-332 41 q-10 56 -10 141z" />
<glyph unicode="3" horiz-adv-x="1228" d="M43 379l309 131q14 -124 78.5 -188t157.5 -64q97 0 154 45.5t57 118.5q0 85 -63.5 128.5t-209.5 43.5q-34 0 -84 -4v264q23 -2 78 -2q132 0 195 37.5t63 124.5q0 68 -48 106.5t-138 38.5q-78 0 -134 -49.5t-67 -157.5l-307 99q35 184 177.5 288.5t354.5 104.5 q233 0 362.5 -103.5t129.5 -289.5q0 -118 -66.5 -197t-187.5 -115q142 -25 218.5 -110t76.5 -223q0 -202 -145 -319.5t-390 -117.5q-229 0 -375.5 104t-195.5 306z" />
<glyph unicode="4" horiz-adv-x="1228" d="M53 268v262l570 881h362v-870h193v-273h-193v-268h-321v268h-611zM358 541h306q0 237 6 526q-52 -97 -312 -526z" />
<glyph unicode="5" horiz-adv-x="1228" d="M68 338l301 121q20 -103 77.5 -152t155.5 -49q93 0 153 61t60 164q0 108 -60 165t-149 57q-135 0 -186 -115l-283 37l56 784h858v-278h-609l-24 -269q104 115 305 115q190 0 304 -131t114 -348q0 -248 -146.5 -389.5t-404.5 -141.5q-193 0 -335 96.5t-187 272.5z" />
<glyph unicode="6" horiz-adv-x="1228" d="M74 684q0 364 159 563t449 199q352 0 446 -297l-292 -125q-28 75 -68 106t-109 31q-130 0 -198.5 -95t-73.5 -267q57 72 148 110.5t204 38.5q195 0 311.5 -131.5t116.5 -351.5t-146 -358t-382 -138q-281 0 -423 187.5t-142 527.5zM412 487q0 -118 59 -176.5t160 -58.5 q92 0 150.5 60.5t58.5 152.5q0 112 -56.5 172.5t-152.5 60.5t-157.5 -58.5t-61.5 -152.5z" />
<glyph unicode="7" horiz-adv-x="1228" d="M90 1133v278h1047v-260q-197 -265 -307.5 -526.5t-153.5 -624.5h-344q10 109 42.5 241.5t88.5 286t148.5 314t207.5 291.5h-729z" />
<glyph unicode="8" horiz-adv-x="1228" d="M72 391q0 119 72 214.5t208 135.5q-124 48 -181.5 124.5t-57.5 195.5q0 178 137.5 280.5t374.5 102.5q229 0 358 -101.5t129 -281.5q0 -232 -233 -311q139 -34 211.5 -130t72.5 -233q0 -188 -149.5 -303t-407.5 -115q-249 0 -391.5 113.5t-142.5 308.5zM401 424 q0 -81 59 -127.5t158 -46.5q96 0 153.5 47.5t57.5 130.5q0 84 -57.5 130t-155.5 46q-99 0 -157 -47.5t-58 -132.5zM420 1024q0 -73 48.5 -114.5t139.5 -41.5q88 0 137.5 40t49.5 110q0 69 -51 112.5t-134 43.5q-85 0 -137.5 -42.5t-52.5 -107.5z" />
<glyph unicode="9" horiz-adv-x="1228" d="M66 950q0 218 146 357t378 139q286 0 425.5 -185.5t139.5 -529.5q0 -379 -151 -571.5t-443 -192.5q-183 0 -305 80.5t-166 218.5l293 125q27 -73 74 -105t118 -32q134 0 198 90.5t69 271.5q-115 -145 -353 -145q-192 0 -307.5 130t-115.5 349zM389 950q0 -111 56.5 -170 t152.5 -59q97 0 158 56.5t61 150.5q0 118 -59 176.5t-160 58.5q-92 0 -150.5 -60.5t-58.5 -152.5z" />
<glyph unicode=":" horiz-adv-x="591" d="M182 0v344h307v-344h-307zM182 690v342h307v-342h-307z" />
<glyph unicode=";" horiz-adv-x="585" d="M176 0v344h309v-330q0 -106 -20 -174q-11 -35 -47 -94q-35 -50 -92 -100l-150 118q50 47 64 76q29 51 34 160h-98zM178 690v342h307v-342h-307z" />
<glyph unicode="&#x3c;" horiz-adv-x="1566" d="M258 492v278l1006 455v-310l-672 -282l674 -285v-323z" />
<glyph unicode="=" horiz-adv-x="1566" d="M213 236v292h1141v-292h-1141zM213 737v293h1141v-293h-1141z" />
<glyph unicode="&#x3e;" horiz-adv-x="1566" d="M301 901v324l1008 -467v-279l-1006 -454v309l672 282z" />
<glyph unicode="?" horiz-adv-x="1193" d="M106 985q0 239 139 366.5t392 127.5q220 0 346.5 -99.5t126.5 -273.5q0 -73 -24 -130.5t-76 -114.5t-156 -144q-90 -76 -109.5 -110t-19.5 -113h-291v55q0 69 16.5 111t57 82t135.5 110q83 61 114 106.5t31 104.5q0 77 -50 116.5t-138 39.5t-136 -60t-48 -149 q0 -40 4 -72zM428 0v344h307v-344h-307z" />
<glyph unicode="@" horiz-adv-x="1882" d="M119 588q0 203 66.5 375t185 292t288.5 187t371 67q191 0 328 -52.5t233 -164.5q172 -196 172 -499q0 -165 -57 -297.5t-159 -207.5t-228 -75q-57 0 -96.5 10t-73.5 41t-53 84q-57 -70 -114.5 -102.5t-139.5 -32.5q-141 0 -224 98t-83 264q0 220 122.5 371.5t303.5 151.5 q122 0 184 -99l14 80h199q-80 -488 -80 -544q0 -69 18.5 -97t59.5 -28q77 0 126.5 112t49.5 285q0 138 -41.5 241t-115 162.5t-162.5 88t-195 28.5q-154 0 -281.5 -59.5t-210 -160.5t-127.5 -231.5t-45 -275.5q0 -289 173.5 -461t457.5 -172q178 0 303.5 46.5t257.5 154.5 l111 -168q-297 -229 -672 -229q-184 0 -343.5 58.5t-275 163.5t-181.5 258.5t-66 336.5zM754 584q0 -75 31.5 -130t95.5 -55q101 0 160 90.5t59 245.5q0 86 -33 135.5t-98 49.5q-95 0 -155 -95.5t-60 -240.5z" />
<glyph unicode="A" horiz-adv-x="1443" d="M0 0l539 1446h389l516 -1446h-371l-94 287h-512l-96 -287h-371zM537 545h368q-126 376 -180 567q-45 -149 -188 -567z" />
<glyph unicode="B" horiz-adv-x="1394" d="M115 0v1446h641q254 0 356 -51q80 -40 125 -123.5t45 -192.5q0 -113 -62.5 -194.5t-183.5 -122.5q145 -28 220 -118t75 -232q0 -106 -47.5 -194.5t-130.5 -141.5q-68 -42 -165 -59t-257 -17h-616zM459 283h262q134 0 191 39t57 118q0 40 -10.5 68t-36 50t-72.5 33 t-117 11h-274v-319zM459 879h266q209 0 209 145q0 71 -45.5 107t-167.5 36h-262v-288z" />
<glyph unicode="C" horiz-adv-x="1404" d="M74 735q0 350 191 548t521 198q225 0 368 -109t206 -291l-342 -127q-22 100 -83 162t-159 62q-173 0 -258.5 -117t-85.5 -320q0 -218 88.5 -345.5t257.5 -127.5q103 0 171.5 63.5t90.5 170.5l326 -121q-65 -196 -220.5 -306t-373.5 -110q-327 0 -512.5 204.5 t-185.5 565.5z" />
<glyph unicode="D" horiz-adv-x="1460" d="M115 0v1446h508q196 0 295.5 -15t181.5 -59q132 -70 209 -243t77 -396q0 -172 -49.5 -317t-144.5 -244q-96 -102 -228.5 -137t-363.5 -35h-485zM459 289h151q138 0 204.5 20t117.5 78q43 49 67.5 140t24.5 212q0 124 -32 221.5t-89 139.5q-76 59 -229 59h-215v-870z" />
<glyph unicode="E" horiz-adv-x="1296" d="M115 0v1446h1059v-287h-715v-274h667v-287h-667v-309h751v-289h-1095z" />
<glyph unicode="F" horiz-adv-x="1200" d="M115 0v1446h1040v-287h-696v-311h639v-287h-639v-561h-344z" />
<glyph unicode="G" horiz-adv-x="1556" d="M74 705q0 353 204 565.5t560 212.5q135 0 245.5 -38t203 -127.5t147.5 -225.5l-342 -131q-28 105 -99.5 161t-179.5 56q-182 0 -281.5 -122t-99.5 -329q0 -226 105 -343.5t276 -117.5q131 0 215 69t88 210h-342v286h662v-831h-308v141q-76 -87 -172.5 -129.5 t-234.5 -42.5q-135 0 -253.5 52t-205.5 146t-137.5 233t-50.5 305z" />
<glyph unicode="H" horiz-adv-x="1472" d="M115 0v1446h344v-541h555v541h344v-1446h-344v602h-555v-602h-344z" />
<glyph unicode="I" horiz-adv-x="585" d="M115 0v1446h356v-1446h-356z" />
<glyph unicode="J" horiz-adv-x="884" d="M0 29l57 297q74 -54 172 -54q64 0 101 15.5t59.5 61.5t29.5 114.5t7 189.5v793h344v-848q0 -216 -23 -318t-85 -174q-114 -133 -371 -133q-165 0 -291 56z" />
<glyph unicode="K" horiz-adv-x="1435" d="M115 0v1446h344v-606l518 606h416l-490 -563l533 -883h-416l-354 618l-207 -235v-383h-344z" />
<glyph unicode="L" horiz-adv-x="1130" d="M115 0v1446h344v-1157h624v-289h-968z" />
<glyph unicode="M" horiz-adv-x="1824" d="M115 0v1446h497q155 -477 213 -670t93 -340q36 159 93 357t203 653h496v-1446h-336q0 824 8 1061q-43 -155 -317 -1061h-305q-253 837 -314 1063q5 -223 5 -1063h-336z" />
<glyph unicode="N" horiz-adv-x="1443" d="M115 0v1446h370q276 -482 369.5 -651t144.5 -277q-9 119 -11.5 290t-2.5 638h345v-1446h-372q-346 599 -507 913q8 -200 8 -913h-344z" />
<glyph unicode="O" horiz-adv-x="1562" d="M74 729q0 347 199.5 550.5t535.5 203.5q144 0 268 -52t215.5 -148t144 -241t52.5 -321q0 -180 -50.5 -323.5t-141.5 -238.5t-218 -145.5t-280 -50.5q-338 0 -531.5 200.5t-193.5 565.5zM432 731q0 -218 96.5 -340.5t262.5 -122.5q154 0 246.5 113.5t92.5 349.5 q-7 216 -98.5 331.5t-245.5 115.5q-166 0 -260 -117t-94 -330z" />
<glyph unicode="P" horiz-adv-x="1368" d="M115 0v1446h622q315 0 449 -125q129 -121 129 -354q0 -227 -146 -361q-138 -129 -421 -129h-289v-477h-344zM459 764h221q166 0 227 55q49 46 49 139q0 104 -63 154q-62 47 -207 47h-227v-395z" />
<glyph unicode="Q" horiz-adv-x="1562" d="M74 729q0 347 199.5 550.5t535.5 203.5q144 0 268 -52t215.5 -148t144 -241t52.5 -321q0 -302 -139 -496l270 -221l-211 -246l-299 269q-144 -64 -311 -64q-338 0 -531.5 200.5t-193.5 565.5zM432 731q0 -218 96.5 -340.5t262.5 -122.5q154 0 246.5 113.5t92.5 349.5 q-7 216 -98.5 331.5t-245.5 115.5q-166 0 -260 -117t-94 -330z" />
<glyph unicode="R" horiz-adv-x="1370" d="M115 0v1446h663q303 0 434 -158q91 -110 91 -280q0 -168 -88 -268.5t-240 -141.5l383 -598h-397l-322 543h-180v-543h-344zM459 809h250q127 0 182 43q55 42 55 129q0 102 -53 143q-55 43 -193 43h-241v-358z" />
<glyph unicode="S" horiz-adv-x="1275" d="M16 236l267 231q71 -100 171.5 -151.5t192.5 -51.5q110 0 160.5 34t50.5 85q0 52 -45.5 81t-206.5 91l-182 70q-171 65 -251.5 161.5t-80.5 253.5q0 195 157.5 318t401.5 123q355 0 580 -269l-258 -219q-93 108 -182.5 151.5t-194.5 43.5q-68 0 -109 -30t-41 -79 q0 -50 36 -84t139 -69l206 -72q204 -71 299 -171t95 -259q0 -203 -154 -332t-428 -129q-178 0 -346.5 72t-276.5 201z" />
<glyph unicode="T" horiz-adv-x="1200" d="M39 1159v287h1124v-287h-385v-1159h-356v1159h-383z" />
<glyph unicode="U" horiz-adv-x="1445" d="M115 627v819h344v-840q0 -96 18.5 -163.5t55 -105t81.5 -53.5t105 -16q136 0 202 76t66 264v838h344v-823q0 -338 -150.5 -498t-467.5 -160q-321 0 -459.5 162t-138.5 500z" />
<glyph unicode="V" horiz-adv-x="1349" d="M0 1446h375q223 -708 311 -1051q112 470 295 1051h369l-486 -1446h-372z" />
<glyph unicode="W" horiz-adv-x="1974" d="M0 1446h377q113 -531 207 -1014q59 304 231 1014h350q124 -504 240 -1014q40 244 201 1014h368l-381 -1446h-368q-152 609 -236 991q-90 -387 -264 -991h-369z" />
<glyph unicode="X" horiz-adv-x="1433" d="M0 0l481 754l-440 692h414q202 -342 266 -455q66 117 274 455h400l-447 -696l486 -750h-406q-35 56 -101.5 162.5t-120 192.5t-97.5 163q-72 -128 -306 -518h-403z" />
<glyph unicode="Y" horiz-adv-x="1386" d="M0 1446h389q244 -437 311 -561q33 64 71 135t66 120.5t84.5 147.5t90.5 158h374l-514 -881v-565h-348v565z" />
<glyph unicode="Z" horiz-adv-x="1300" d="M61 0v250l723 909h-684v287h1125v-260l-713 -897h723v-289h-1174z" />
<glyph unicode="[" horiz-adv-x="802" d="M190 -360v1912h521v-188h-250v-1540h250v-184h-521z" />
<glyph unicode="\" horiz-adv-x="950" d="M59 1556h263l606 -1925h-262z" />
<glyph unicode="]" horiz-adv-x="802" d="M92 -172h250v1540h-250v184h520v-1912h-520v188z" />
<glyph unicode="^" horiz-adv-x="1566" d="M233 598l400 848h297l403 -844h-319l-238 516l-223 -520h-320zM233 598l400 848h297l403 -844h-319l-238 516l-223 -520h-320z" />
<glyph unicode="_" horiz-adv-x="1415" d="M0 -295h1415v-192h-1415v192z" />
<glyph unicode="`" d="M-8 1485h375l180 -311h-244z" />
<glyph unicode="a" horiz-adv-x="1110" d="M57 293q0 187 185 276q142 65 460 84v54q0 114 -149 114q-130 0 -147 -141l-300 20q14 174 136.5 269.5t339.5 95.5q214 0 329 -100q53 -45 74 -116t21 -198v-342q0 -249 26 -309h-305q-16 78 -16 119q-64 -72 -144.5 -105.5t-187.5 -33.5q-149 0 -235.5 84t-86.5 229z M360 305q0 -37 28.5 -65.5t94.5 -28.5q100 0 159.5 56t59.5 145v41q-200 -13 -282 -56q-60 -32 -60 -92z" />
<glyph unicode="b" horiz-adv-x="1196" d="M109 0v1446h317v-535q123 142 305 142q183 0 293.5 -144.5t110.5 -394.5q0 -252 -116.5 -394.5t-313.5 -142.5q-100 0 -170.5 37.5t-122.5 114.5v-129h-303zM416 526q0 -135 52 -210.5t148 -75.5q86 0 137.5 69t51.5 203q0 128 -47 205.5t-133 77.5q-93 0 -151 -73 t-58 -196z" />
<glyph unicode="c" horiz-adv-x="1048" d="M61 516q0 256 141 402.5t382 146.5q178 0 287.5 -91.5t148.5 -232.5l-275 -94q-17 84 -58 121t-107 37q-82 0 -139.5 -68.5t-57.5 -210.5q0 -149 51.5 -223t145.5 -74q132 0 170 142l278 -99q-49 -139 -166 -221t-291 -82q-239 0 -374.5 146t-135.5 401z" />
<glyph unicode="d" horiz-adv-x="1185" d="M61 522q0 124 34 225t92.5 167.5t137.5 102.5t169 36q186 0 278 -119v512h305v-1446h-305v137q-42 -71 -115 -114t-170 -43q-90 0 -165.5 31.5t-134.5 95t-92.5 170t-33.5 245.5zM383 528q0 -130 50 -210t140 -80q91 0 145 70.5t54 219.5q0 117 -51 193t-133 76 q-90 0 -147.5 -68.5t-57.5 -200.5z" />
<glyph unicode="e" horiz-adv-x="1112" d="M61 522q0 251 140.5 397t376.5 146q487 0 487 -645h-686q12 -97 67 -144t144 -47q138 0 188 123l279 -98q-143 -289 -469 -289q-252 0 -389.5 148t-137.5 409zM381 635h364q0 82 -46.5 136t-129.5 54t-132.5 -51t-55.5 -139z" />
<glyph unicode="f" horiz-adv-x="704" d="M16 784v248h158v107q0 170 88.5 248.5t245.5 78.5q102 0 182 -22v-254q-42 22 -94 22q-56 0 -80 -27.5t-24 -90.5v-62h196v-248h-196v-784h-318v784h-158z" />
<glyph unicode="g" horiz-adv-x="1204" d="M61 535q0 238 118 378t313 140q208 0 290 -144v123h314v-926q0 -151 -32.5 -254t-100.5 -164t-162.5 -87t-229.5 -27q-205 0 -331 83.5t-158 250.5l334 49q23 -131 157 -131q100 0 146.5 54t46.5 161v84q-105 -102 -285 -102q-193 0 -306.5 136t-113.5 376zM391 532 q0 -129 52 -196.5t143 -67.5q194 0 194 254q0 130 -48 200.5t-136 70.5q-96 0 -150.5 -68t-54.5 -193z" />
<glyph unicode="h" horiz-adv-x="1167" d="M109 0v1446h311v-557q131 164 336 164q160 0 241 -97q72 -86 72 -290v-666h-315v569q0 114 -33 158q-32 43 -109 43q-46 0 -85 -22t-60 -56q-23 -37 -32 -78t-9 -112v-502h-317z" />
<glyph unicode="i" d="M109 1178v268h319v-268h-319zM111 0v1032h317v-1032h-317z" />
<glyph unicode="j" horiz-adv-x="557" d="M-76 -158q33 -8 70 -8q83 0 110 52t27 177v969h318v-1020q0 -230 -97 -334t-289 -104q-73 0 -139 12v256zM129 1178v268h320v-268h-320z" />
<glyph unicode="k" horiz-adv-x="1153" d="M109 0v1446h319v-776l320 362h380l-360 -387l385 -645h-365l-243 426l-117 -123v-303h-319z" />
<glyph unicode="l" d="M111 0v1446h317v-1446h-317z" />
<glyph unicode="m" horiz-adv-x="1785" d="M109 0v1032h311v-143q131 164 323 164q217 0 281 -168q155 168 350 168q185 0 258 -117q56 -88 56 -270v-666h-316v569q0 101 -22 146q-27 55 -111 55q-45 0 -82.5 -22t-58.5 -56q-23 -37 -32 -78t-9 -112v-502h-316v569q0 103 -20 144q-28 57 -113 57q-45 0 -82.5 -22 t-58.5 -56q-23 -37 -32 -78t-9 -112v-502h-317z" />
<glyph unicode="n" horiz-adv-x="1167" d="M109 0v1032h311v-143q131 164 336 164q171 0 248 -105q65 -88 65 -282v-666h-315v569q0 114 -35 160q-33 41 -107 41q-46 0 -85 -22t-60 -56q-23 -37 -32 -78t-9 -112v-502h-317z" />
<glyph unicode="o" horiz-adv-x="1181" d="M61 514q0 261 145.5 406t397.5 145q243 0 379.5 -147t136.5 -414q0 -131 -39.5 -234t-111 -168.5t-168 -99t-213.5 -33.5q-251 0 -389 141.5t-138 403.5zM383 518q0 -149 57.5 -219t153.5 -70q95 0 153 67.5t58 219.5q0 149 -55.5 219t-151.5 70q-93 0 -154 -73.5 t-61 -213.5z" />
<glyph unicode="p" horiz-adv-x="1185" d="M109 -397v1429h305v-137q42 71 118.5 114.5t172.5 43.5q90 0 164.5 -31.5t132 -95.5t90 -170t32.5 -246q0 -246 -122.5 -388t-309.5 -142t-278 118v-495h-305zM414 504q0 -117 51 -192.5t133 -75.5q90 0 147.5 68t57.5 200q0 130 -50.5 210.5t-140.5 80.5t-144 -71 t-54 -220z" />
<glyph unicode="q" horiz-adv-x="1198" d="M61 518q0 253 115.5 395t312.5 142q100 0 169.5 -37.5t125.5 -114.5v129h303v-1429h-317v518q-123 -141 -303 -141q-184 0 -295 144.5t-111 393.5zM391 520q0 -128 47 -205t133 -77q93 0 151 72.5t58 195.5q0 135 -52 211t-148 76q-86 0 -137.5 -69.5t-51.5 -203.5z" />
<glyph unicode="r" horiz-adv-x="786" d="M109 0v1032h303v-151q50 84 112 125t166 41q39 0 86 -13v-309q-59 29 -121 29q-98 0 -163 -72q-66 -74 -66 -229v-453h-317z" />
<glyph unicode="s" horiz-adv-x="968" d="M23 160l221 176q49 -61 117.5 -95t140.5 -34q57 0 83.5 19.5t26.5 49.5q0 34 -33 58t-133 55l-108 33q-262 78 -262 307q0 65 27.5 124.5t79 107t134.5 76t185 28.5q125 0 236.5 -45t191.5 -131l-207 -174q-107 116 -227 116q-101 0 -101 -65q0 -32 25.5 -51.5 t109.5 -46.5l121 -37q144 -45 210.5 -121.5t66.5 -192.5q0 -153 -121 -250.5t-328 -97.5q-136 0 -252.5 50.5t-203.5 140.5z" />
<glyph unicode="t" horiz-adv-x="698" d="M20 784v248h148v332h313v-332h197v-248h-197v-432q0 -69 22.5 -96t71.5 -27q61 0 107 19v-244q-102 -24 -217 -24q-76 0 -131.5 17.5t-87.5 45.5t-51 71.5t-25 86t-6 98.5v485h-144z" />
<glyph unicode="u" horiz-adv-x="1167" d="M109 354v678h315v-571q0 -108 31.5 -154.5t109.5 -46.5q46 0 85.5 22t60.5 56q23 37 32 78t9 112v504h317v-1032h-311v143q-116 -166 -316 -166q-169 0 -251 85.5t-82 291.5z" />
<glyph unicode="v" horiz-adv-x="1095" d="M0 1032h352q139 -447 209 -719q75 317 203 719h332l-351 -1032h-387z" />
<glyph unicode="w" horiz-adv-x="1632" d="M0 1032h348q133 -559 162 -708q61 361 147 708h342q110 -515 146 -708q48 253 164 708h323l-303 -1032h-371q-108 562 -131 705q-42 -222 -153 -705h-371z" />
<glyph unicode="x" horiz-adv-x="1079" d="M8 0l316 535l-295 497h358q98 -187 154 -301q35 71 155 301h344l-286 -493l317 -539h-354q-164 283 -187 326q-51 -97 -176 -326h-346z" />
<glyph unicode="y" horiz-adv-x="1095" d="M2 1032h352q130 -366 224 -659q120 435 188 659h330l-312 -926q-54 -161 -100 -258t-107 -161.5t-134 -88.5t-181 -24q-64 0 -133 16v267q53 -17 92 -17q81 0 120 34t69 126z" />
<glyph unicode="z" horiz-adv-x="952" d="M47 0v209l461 575h-438v248h829v-209l-459 -571h478v-252h-871z" />
<glyph unicode="{" horiz-adv-x="835" d="M80 526v150q75 17 117.5 49t66 97.5t23.5 174.5v174q0 94 22 163t60 113.5t99.5 73.5t131 42t164.5 18v-133q-119 -26 -165 -96t-46 -224v-131q0 -190 -42 -273.5t-155 -123.5q114 -36 155.5 -122t41.5 -275v-137q0 -157 47 -228.5t164 -91.5v-133q-240 6 -358.5 102.5 t-118.5 307.5v182q0 162 -49.5 232.5t-157.5 88.5z" />
<glyph unicode="|" horiz-adv-x="653" d="M190 -369v1928h271v-1928h-271z" />
<glyph unicode="}" horiz-adv-x="835" d="M72 -250q119 26 165 96t46 224v131q0 190 41.5 273.5t154.5 123.5q-114 36 -155 122t-41 275v138q0 157 -47 228t-164 91v133q240 -6 358.5 -102t118.5 -307v-183q0 -162 49.5 -232.5t157.5 -88.5v-150q-75 -17 -117.5 -49t-66 -97.5t-23.5 -174.5v-174q0 -92 -21.5 -161 t-60 -114t-100 -74t-131.5 -42.5t-164 -18.5v133z" />
<glyph unicode="~" horiz-adv-x="1574" d="M121 635q112 120 204.5 176.5t198.5 56.5q70 0 126.5 -17.5t193.5 -88.5q68 -35 108 -48.5t80 -13.5q59 0 109.5 32t128.5 126l184 -229q-204 -236 -399 -236q-63 0 -116.5 14.5t-135.5 57.5q-94 50 -152 72t-102 22q-67 0 -124.5 -35.5t-119.5 -117.5z" />
<glyph unicode="&#xa0;" />
<glyph unicode="&#xa1;" horiz-adv-x="602" d="M78 0l31 494q13 213 43 458h221q35 -284 45 -456l31 -496h-371zM109 1102v344h309v-344h-309z" />
<glyph unicode="&#xa2;" horiz-adv-x="1130" d="M106 545q0 231 117.5 374t321.5 168v191h139v-186q148 -11 237 -83.5t140 -199.5l-266 -109q-32 114 -111 136v-584q45 12 74.5 45.5t40.5 81.5l268 -103q-48 -108 -145 -183t-238 -91v-203h-139v201q-207 22 -323 166t-116 379zM408 555q0 -248 137 -299v573 q-137 -50 -137 -274z" />
<glyph unicode="&#xa3;" horiz-adv-x="1419" d="M80 236q0 104 72 176.5t188 72.5q108 0 197 -36q-22 80 -72 157h-283v189h195q-60 147 -60 260q0 183 134 288t350 105q193 0 321.5 -87.5t177.5 -256.5l-311 -125q-21 97 -58 141.5t-120 44.5q-80 0 -124 -45t-44 -123q0 -77 57 -202h363v-189h-281q27 -94 27 -155 q0 -48 -14 -103q126 -78 186 -78q51 0 79 32.5t40 113.5l282 -90q-72 -351 -356 -351q-79 0 -159 34.5t-185 113.5q-133 -133 -315 -133q-137 0 -212 68.5t-75 177.5zM307 231q0 -31 23 -51t65 -20q80 0 127 80q-72 59 -131 59q-37 0 -60.5 -18.5t-23.5 -49.5z" />
<glyph unicode="&#xa4;" horiz-adv-x="1392" d="M80 252l156 156q-84 120 -84 286q0 157 84 289l-156 156l174 172l154 -154q122 84 290 84q166 0 291 -84l154 154l172 -172l-154 -156q84 -124 84 -289q0 -158 -84 -286l154 -156l-172 -172l-154 153q-124 -83 -291 -83q-172 0 -290 83l-154 -155zM393 698 q0 -137 86.5 -227t218.5 -90q129 0 216 90.5t87 222.5q0 134 -87 224t-216 90t-217 -89.5t-88 -220.5z" />
<glyph unicode="&#xa5;" horiz-adv-x="1441" d="M43 1413h369l174 -291q39 -65 143 -286q85 182 143 284l168 293h359l-346 -567h219v-150h-311l-66 -104v-45h377v-150h-377v-397h-340v397h-387v150h387v45l-59 104h-328v150h229z" />
<glyph unicode="&#xa6;" horiz-adv-x="653" d="M190 -369v820h271v-820h-271zM190 739v820h271v-820h-271z" />
<glyph unicode="&#xa7;" horiz-adv-x="1257" d="M82 666q0 95 56 171.5t167 125.5q-57 37 -87 102t-30 141q0 142 124.5 236t330.5 94q291 0 455 -215l-244 -188q-24 70 -85.5 114.5t-129.5 44.5q-72 0 -104.5 -23.5t-32.5 -58.5q0 -38 26.5 -65t106.5 -62l262 -116q154 -68 220.5 -151.5t66.5 -201.5q0 -186 -176 -295 q110 -78 110 -249q0 -161 -130.5 -262t-369.5 -101q-162 0 -303.5 69t-203.5 169l227 192q45 -93 121 -139.5t159 -46.5q95 0 137 27.5t42 64.5q0 41 -26 67.5t-101 59.5l-291 129q-151 68 -224 157.5t-73 209.5zM369 715q0 -43 34.5 -80t122.5 -76l279 -125q41 9 65.5 38.5 t24.5 62.5q0 54 -27 90t-108 73l-297 138q-94 -45 -94 -121z" />
<glyph unicode="&#xa8;" d="M-92 1198v252h266v-252h-266zM365 1198v252h266v-252h-266z" />
<glyph unicode="&#xa9;" horiz-adv-x="1689" d="M88 727q0 155 59.5 294.5t161.5 239.5t243.5 159t299.5 59q154 0 293.5 -58.5t240.5 -157.5t160.5 -236.5t59.5 -289.5q0 -160 -57.5 -302.5t-156 -244.5t-236 -161.5t-292.5 -59.5q-215 0 -393 100.5t-280.5 274.5t-102.5 383zM213 727q0 -176 86 -325t234.5 -235.5 t324.5 -86.5q171 0 314.5 85t226 232t82.5 322q0 184 -81 333.5t-225 234.5t-321 85q-133 0 -252.5 -50.5t-204.5 -136.5t-134.5 -205.5t-49.5 -252.5zM418 725q0 203 126.5 330t325.5 127q145 0 230.5 -54t130.5 -159l-197 -111q-25 67 -61.5 99t-100.5 32q-93 0 -155 -70 t-62 -192q0 -126 62 -195t155 -69q138 0 179 137l188 -123q-121 -211 -379 -211q-202 0 -322 124t-120 335z" />
<glyph unicode="&#xaa;" horiz-adv-x="890" d="M43 844q0 84 38 138t116 89q108 47 366 70v39q0 100 -119 100t-137 -117l-225 17q29 286 371 286q195 0 280 -82q42 -39 59 -94t17 -153v-324q0 -138 20 -201h-243q-13 70 -13 103q-54 -61 -115.5 -91t-148.5 -30q-118 0 -192 70.5t-74 179.5zM287 850q0 -33 28.5 -56.5 t71.5 -23.5q80 0 128 49.5t48 138.5v25q-156 -13 -216 -44t-60 -89z" />
<glyph unicode="&#xab;" horiz-adv-x="1105" d="M66 565l325 455l189 -139l-220 -316l222 -334l-191 -127zM512 565l326 455l188 -139l-219 -316l221 -334l-190 -127z" />
<glyph unicode="&#xac;" horiz-adv-x="1566" d="M186 485v293h1141v-719h-305v426h-836z" />
<glyph unicode="&#xad;" horiz-adv-x="786" d="M82 514v238h623v-238h-623z" />
<glyph unicode="&#xae;" horiz-adv-x="1689" d="M88 727q0 155 59.5 294.5t161.5 239.5t243.5 159t299.5 59q154 0 293.5 -58.5t240.5 -157.5t160.5 -236.5t59.5 -289.5q0 -160 -57.5 -302.5t-156 -244.5t-236 -161.5t-292.5 -59.5q-215 0 -393 100.5t-280.5 274.5t-102.5 383zM213 727q0 -176 86 -325t234.5 -235.5 t324.5 -86.5q171 0 314.5 85t226 232t82.5 322q0 184 -81 333.5t-225 234.5t-321 85q-133 0 -252.5 -50.5t-204.5 -136.5t-134.5 -205.5t-49.5 -252.5zM530 309v858h334q361 0 361 -262q0 -96 -49 -166.5t-140 -93.5l230 -336h-238l-190 305h-107v-305h-201zM735 788h131 q84 0 117 24.5t33 78.5q0 53 -32 75.5t-124 22.5h-125v-201z" />
<glyph unicode="&#xaf;" d="M-39 1196v197h614v-197h-614z" />
<glyph unicode="&#xb0;" horiz-adv-x="864" d="M76 1128q0 146 102.5 245.5t253.5 99.5q155 0 254.5 -97.5t99.5 -249.5q0 -151 -100 -249.5t-252 -98.5q-151 0 -254.5 101t-103.5 249zM252 1126q0 -74 52.5 -127t125.5 -53q74 0 126 52.5t52 127.5q0 72 -52 125.5t-124 53.5q-75 0 -127.5 -52.5t-52.5 -126.5z" />
<glyph unicode="&#xb1;" horiz-adv-x="1566" d="M213 0v293h1141v-293h-1141zM213 813v293h418v399h305v-399h418v-293h-418v-399h-305v399h-418z" />
<glyph unicode="&#xb2;" horiz-adv-x="870" d="M78 1503q0 138 93 217.5t263 79.5q166 0 256 -76.5t90 -207.5q0 -123 -86 -222q-94 -103 -284 -207q92 3 372 3v-189h-696v164q95 63 264 182q106 74 148.5 133.5t42.5 124.5q0 48 -31.5 78.5t-91.5 30.5t-94.5 -35t-34.5 -92q0 -46 10 -80l-215 29q-6 48 -6 67z" />
<glyph unicode="&#xb3;" horiz-adv-x="870" d="M59 1141l203 67q12 -72 54.5 -109.5t105.5 -37.5q62 0 103.5 25t41.5 75q0 109 -186 109q-46 0 -62 -2v164q18 -2 58 -2q71 0 120.5 24t49.5 80q0 43 -32.5 67.5t-88.5 24.5q-133 0 -150 -147l-200 57q69 264 364 264q160 0 248 -66t88 -184q0 -70 -40.5 -119.5 t-119.5 -70.5q85 -18 136 -74t51 -139q0 -122 -98.5 -194t-270.5 -72q-156 0 -249 63.5t-126 196.5z" />
<glyph unicode="&#xb4;" d="M-14 1174l192 311h375l-324 -311h-243z" />
<glyph unicode="&#xb5;" horiz-adv-x="1165" d="M102 -371v1403h318v-500q0 -150 33 -206t112 -56q46 0 85.5 22t62.5 62q19 33 25.5 81.5t6.5 144.5v452h318v-1032h-303v166q-34 -93 -84.5 -135.5t-126.5 -42.5q-108 0 -150 96v-455h-297z" />
<glyph unicode="&#xb6;" horiz-adv-x="1202" d="M66 1001q0 94 28 172.5t86 140.5t155 97t226 35h576v-125h-123v-1616h-150v1616h-293v-1616h-147v866q-180 31 -269 144t-89 286z" />
<glyph unicode="&#xb7;" horiz-adv-x="509" d="M100 420v344h308v-344h-308z" />
<glyph unicode="&#xb8;" d="M35 -418l82 105q50 -58 127 -58q42 0 66 23t24 57q0 39 -25 63.5t-73 24.5q-44 0 -89 -26l-45 61l115 176h135l-55 -102q95 -3 149 -54t54 -145t-67.5 -151.5t-176.5 -57.5q-134 0 -221 84z" />
<glyph unicode="&#xb9;" horiz-adv-x="870" d="M174 1483v182q94 2 146.5 32t64.5 95h193v-891h-222v615q-70 -33 -182 -33z" />
<glyph unicode="&#xba;" horiz-adv-x="980" d="M59 1026q0 207 116.5 324.5t322.5 117.5q200 0 313 -119.5t113 -330.5q0 -201 -117.5 -315.5t-323.5 -114.5q-203 0 -313.5 114.5t-110.5 323.5zM319 1036q0 -119 45.5 -177t127.5 -58q81 0 125.5 54.5t44.5 166.5q0 118 -43.5 175.5t-122.5 57.5q-84 0 -130.5 -54.5 t-46.5 -164.5z" />
<glyph unicode="&#xbb;" horiz-adv-x="1105" d="M78 893l190 127l326 -461l-326 -455l-188 140l219 315zM524 893l191 127l325 -461l-325 -455l-189 140l219 315z" />
<glyph unicode="&#xbc;" horiz-adv-x="1968" d="M193 1114v182q94 2 146 32t64 95h193v-891h-221v615q-70 -33 -182 -33zM549 0l569 1411h207l-571 -1411h-205zM1063 174v168l383 537h240v-529h135v-176h-135v-174h-213v174h-410zM1262 350h211q0 186 2 301q-67 -107 -213 -301z" />
<glyph unicode="&#xbd;" horiz-adv-x="1968" d="M156 1114v182q94 2 146.5 32t64.5 95h192v-891h-221v615q-70 -33 -182 -33zM500 0l569 1411h207l-571 -1411h-205zM1118 602q0 138 93.5 217.5t263.5 79.5q166 0 256 -77t90 -208q0 -122 -86 -221q-93 -102 -285 -207q61 2 373 2v-188h-697v164q111 74 265 182 q106 74 148 133.5t42 124.5q0 48 -31.5 78.5t-91.5 30.5t-94.5 -35t-34.5 -92q0 -46 10 -80l-215 29q-6 48 -6 67z" />
<glyph unicode="&#xbe;" horiz-adv-x="1968" d="M45 772l203 68q12 -72 54.5 -110t105.5 -38q62 0 103.5 25.5t41.5 75.5q0 108 -186 108q-46 0 -62 -2v164q18 -2 57 -2q71 0 120.5 24t49.5 80q0 43 -32 67.5t-88 24.5q-133 0 -150 -147l-201 57q69 265 365 265q160 0 248 -66t88 -184q0 -70 -41 -120t-119 -71 q85 -18 135.5 -74t50.5 -139q0 -122 -98 -194t-270 -72q-156 0 -249 63.5t-126 196.5zM616 0l570 1411h207l-572 -1411h-205zM1112 174v168l383 537h240v-529h135v-176h-135v-174h-213v174h-410zM1311 350h211q0 186 2 301q-67 -107 -213 -301z" />
<glyph unicode="&#xbf;" horiz-adv-x="1193" d="M84 340q0 73 24 130.5t76 114.5t156 144q90 76 109.5 110t19.5 113h291v-55q0 -69 -16.5 -111t-57 -82t-135.5 -110q-83 -61 -114 -106.5t-31 -104.5q0 -77 50 -116.5t138 -39.5t136 60t48 149q0 40 -4 72l313 -47q0 -240 -138.5 -367t-391.5 -127q-220 0 -346.5 99.5 t-126.5 273.5zM459 1102v344h307v-344h-307z" />
<glyph unicode="&#xc0;" horiz-adv-x="1443" d="M0 0l539 1446h389l516 -1446h-371l-94 287h-512l-96 -287h-371zM317 1833h385l250 -270h-256zM537 545h368q-126 376 -180 567q-45 -149 -188 -567z" />
<glyph unicode="&#xc1;" horiz-adv-x="1443" d="M0 0l539 1446h389l516 -1446h-371l-94 287h-512l-96 -287h-371zM483 1563l262 270h385l-389 -270h-258zM537 545h368q-126 376 -180 567q-45 -149 -188 -567z" />
<glyph unicode="&#xc2;" horiz-adv-x="1443" d="M0 0l539 1446h389l516 -1446h-371l-94 287h-512l-96 -287h-371zM371 1563l192 270h332l199 -270h-256l-111 133l-111 -133h-245zM537 545h368q-126 376 -180 567q-45 -149 -188 -567z" />
<glyph unicode="&#xc3;" horiz-adv-x="1443" d="M0 0l539 1446h389l516 -1446h-371l-94 287h-512l-96 -287h-371zM334 1636q59 116 110 162.5t136 46.5q50 0 106 -26l59 -27q67 -29 95 -29q39 0 64 20t52 70l168 -94q-55 -110 -107.5 -158.5t-129.5 -48.5q-65 0 -131 35l-54 25q-55 24 -88 24q-41 0 -67.5 -22t-46.5 -72 zM537 545h368q-126 376 -180 567q-45 -149 -188 -567z" />
<glyph unicode="&#xc4;" horiz-adv-x="1443" d="M0 0l539 1446h389l516 -1446h-371l-94 287h-512l-96 -287h-371zM352 1563v254h277v-254h-277zM537 545h368q-126 376 -180 567q-45 -149 -188 -567zM834 1563v254h276v-254h-276z" />
<glyph unicode="&#xc5;" horiz-adv-x="1443" d="M0 0l539 1446h389l516 -1446h-371l-94 287h-512l-96 -287h-371zM516 1692q0 87 57.5 142.5t147.5 55.5q96 0 156.5 -55.5t60.5 -144.5t-58.5 -146t-150.5 -57q-94 0 -153.5 57t-59.5 148zM537 545h368q-126 376 -180 567q-45 -149 -188 -567zM625 1690q0 -44 30 -74.5 t74 -30.5q43 0 72.5 30t29.5 73q0 45 -29 74.5t-71 29.5q-46 0 -76 -29t-30 -73z" />
<glyph unicode="&#xc6;" horiz-adv-x="2146" d="M0 0l762 1446h1261v-287h-714v-274h667v-287h-667v-309h751v-289h-1087v330h-416l-166 -330h-391zM702 598h271v582q-65 -155 -271 -582z" />
<glyph unicode="&#xc7;" horiz-adv-x="1404" d="M74 735q0 350 191 548t521 198q225 0 368 -109t206 -291l-342 -127q-22 100 -83 162t-159 62q-173 0 -258.5 -117t-85.5 -320q0 -218 88.5 -345.5t257.5 -127.5q103 0 171.5 63.5t90.5 170.5l326 -121q-62 -185 -204 -293.5t-341 -120.5l-33 -63q96 -3 150.5 -56 t54.5 -149q0 -98 -68 -157.5t-177 -59.5q-132 0 -224 86l84 108q50 -59 129 -59q41 0 64.5 24.5t23.5 59.5q0 39 -24.5 64.5t-71.5 25.5q-42 0 -90 -29l-45 66l90 141q-288 26 -449 228t-161 538z" />
<glyph unicode="&#xc8;" horiz-adv-x="1296" d="M115 0v1446h1059v-287h-715v-274h667v-287h-667v-309h751v-289h-1095zM215 1833h385l250 -270h-256z" />
<glyph unicode="&#xc9;" horiz-adv-x="1296" d="M115 0v1446h1059v-287h-715v-274h667v-287h-667v-309h751v-289h-1095zM426 1563l262 270h385l-389 -270h-258z" />
<glyph unicode="&#xca;" horiz-adv-x="1296" d="M115 0v1446h1059v-287h-715v-274h667v-287h-667v-309h751v-289h-1095zM274 1563l193 270h332l198 -270h-256l-110 133l-111 -133h-246z" />
<glyph unicode="&#xcb;" horiz-adv-x="1296" d="M115 0v1446h1059v-287h-715v-274h667v-287h-667v-309h751v-289h-1095zM260 1563v254h277v-254h-277zM741 1563v254h277v-254h-277z" />
<glyph unicode="&#xcc;" horiz-adv-x="585" d="M-109 1833h385l250 -270h-256zM115 0v1446h356v-1446h-356z" />
<glyph unicode="&#xcd;" horiz-adv-x="585" d="M61 1563l263 270h385l-390 -270h-258zM115 0v1446h356v-1446h-356z" />
<glyph unicode="&#xce;" horiz-adv-x="585" d="M-66 1563l193 270h332l198 -270h-256l-110 133l-111 -133h-246zM115 0v1446h356v-1446h-356z" />
<glyph unicode="&#xcf;" horiz-adv-x="585" d="M-88 1563v254h276v-254h-276zM115 0v1446h356v-1446h-356zM393 1563v254h277v-254h-277z" />
<glyph unicode="&#xd0;" horiz-adv-x="1460" d="M4 623v247h111v576h508q196 0 295.5 -15t181.5 -59q132 -70 209 -243t77 -396q0 -172 -49.5 -317t-144.5 -244q-96 -102 -228.5 -137t-363.5 -35h-485v623h-111zM459 289h151q138 0 204.5 20t117.5 78q43 49 67.5 140t24.5 212q0 124 -32 221.5t-89 139.5q-76 59 -229 59 h-215v-289h354v-247h-354v-334z" />
<glyph unicode="&#xd1;" horiz-adv-x="1443" d="M115 0v1446h370q276 -482 369.5 -651t144.5 -277q-9 119 -11.5 290t-2.5 638h344v-1446h-371q-346 599 -507 913q8 -200 8 -913h-344zM334 1636q59 116 110 162.5t136 46.5q50 0 106 -26l59 -27q67 -29 95 -29q39 0 64 20t52 70l168 -94q-55 -110 -107.5 -158.5 t-129.5 -48.5q-65 0 -131 35l-54 25q-55 24 -88 24q-41 0 -67.5 -22t-46.5 -72z" />
<glyph unicode="&#xd2;" horiz-adv-x="1562" d="M74 729q0 347 199.5 550.5t535.5 203.5q144 0 268 -52t215.5 -148t144 -241t52.5 -321q0 -180 -50.5 -323.5t-141.5 -238.5t-218 -145.5t-280 -50.5q-338 0 -531.5 200.5t-193.5 565.5zM391 1833h385l250 -270h-256zM432 731q0 -218 96.5 -340.5t262.5 -122.5 q154 0 246.5 113.5t92.5 349.5q-7 216 -98.5 331.5t-245.5 115.5q-166 0 -260 -117t-94 -330z" />
<glyph unicode="&#xd3;" horiz-adv-x="1562" d="M74 729q0 347 199.5 550.5t535.5 203.5q144 0 268 -52t215.5 -148t144 -241t52.5 -321q0 -180 -50.5 -323.5t-141.5 -238.5t-218 -145.5t-280 -50.5q-338 0 -531.5 200.5t-193.5 565.5zM432 731q0 -218 96.5 -340.5t262.5 -122.5q154 0 246.5 113.5t92.5 349.5 q-7 216 -98.5 331.5t-245.5 115.5q-166 0 -260 -117t-94 -330zM569 1563l262 270h386l-390 -270h-258z" />
<glyph unicode="&#xd4;" horiz-adv-x="1562" d="M74 729q0 347 199.5 550.5t535.5 203.5q144 0 268 -52t215.5 -148t144 -241t52.5 -321q0 -180 -50.5 -323.5t-141.5 -238.5t-218 -145.5t-280 -50.5q-338 0 -531.5 200.5t-193.5 565.5zM424 1563l192 270h332l199 -270h-256l-111 133l-110 -133h-246zM432 731 q0 -218 96.5 -340.5t262.5 -122.5q154 0 246.5 113.5t92.5 349.5q-7 216 -98.5 331.5t-245.5 115.5q-166 0 -260 -117t-94 -330z" />
<glyph unicode="&#xd5;" horiz-adv-x="1562" d="M74 729q0 347 199.5 550.5t535.5 203.5q144 0 268 -52t215.5 -148t144 -241t52.5 -321q0 -180 -50.5 -323.5t-141.5 -238.5t-218 -145.5t-280 -50.5q-338 0 -531.5 200.5t-193.5 565.5zM391 1636q59 116 110 162.5t136 46.5q50 0 106 -26l60 -27q67 -29 94 -29 q39 0 64.5 20t52.5 70l168 -94q-55 -110 -108 -158.5t-130 -48.5q-65 0 -131 35l-53 25q-55 24 -88 24q-41 0 -68 -22t-47 -72zM432 731q0 -218 96.5 -340.5t262.5 -122.5q154 0 246.5 113.5t92.5 349.5q-7 216 -98.5 331.5t-245.5 115.5q-166 0 -260 -117t-94 -330z" />
<glyph unicode="&#xd6;" horiz-adv-x="1562" d="M74 729q0 347 199.5 550.5t535.5 203.5q144 0 268 -52t215.5 -148t144 -241t52.5 -321q0 -180 -50.5 -323.5t-141.5 -238.5t-218 -145.5t-280 -50.5q-338 0 -531.5 200.5t-193.5 565.5zM420 1563v254h276v-254h-276zM432 731q0 -218 96.5 -340.5t262.5 -122.5 q154 0 246.5 113.5t92.5 349.5q-7 216 -98.5 331.5t-245.5 115.5q-166 0 -260 -117t-94 -330zM901 1563v254h277v-254h-277z" />
<glyph unicode="&#xd7;" horiz-adv-x="1566" d="M266 932l213 219l305 -297l291 301l211 -205l-291 -299l305 -297l-213 -219l-305 297l-290 -301l-211 205l290 299z" />
<glyph unicode="&#xd8;" horiz-adv-x="1562" d="M39 72l164 172q-129 189 -129 485q0 347 199.5 550.5t535.5 203.5q251 0 432 -152l158 166l133 -127l-170 -178q127 -195 127 -471q0 -180 -50.5 -323.5t-141.5 -238.5t-218 -145.5t-280 -50.5q-288 0 -475 148l-158 -164zM432 731q0 -120 31 -215l545 571 q-88 91 -222 91q-166 0 -260 -117t-94 -330zM559 356q91 -88 232 -88q154 0 246.5 113.5t92.5 349.5q0 95 -28 191z" />
<glyph unicode="&#xd9;" horiz-adv-x="1445" d="M115 627v819h344v-840q0 -96 18.5 -163.5t55 -105t81.5 -53.5t105 -16q136 0 202 76t66 264v838h344v-823q0 -338 -150.5 -498t-467.5 -160q-321 0 -459.5 162t-138.5 500zM317 1833h385l250 -270h-256z" />
<glyph unicode="&#xda;" horiz-adv-x="1445" d="M115 627v819h344v-840q0 -96 18.5 -163.5t55 -105t81.5 -53.5t105 -16q136 0 202 76t66 264v838h344v-823q0 -338 -150.5 -498t-467.5 -160q-321 0 -459.5 162t-138.5 500zM487 1563l263 270h385l-390 -270h-258z" />
<glyph unicode="&#xdb;" horiz-adv-x="1445" d="M115 627v819h344v-840q0 -96 18.5 -163.5t55 -105t81.5 -53.5t105 -16q136 0 202 76t66 264v838h344v-823q0 -338 -150.5 -498t-467.5 -160q-321 0 -459.5 162t-138.5 500zM358 1563l193 270h332l198 -270h-256l-110 133l-111 -133h-246z" />
<glyph unicode="&#xdc;" horiz-adv-x="1445" d="M115 627v819h344v-840q0 -96 18.5 -163.5t55 -105t81.5 -53.5t105 -16q136 0 202 76t66 264v838h344v-823q0 -338 -150.5 -498t-467.5 -160q-321 0 -459.5 162t-138.5 500zM344 1563v254h277v-254h-277zM825 1563v254h277v-254h-277z" />
<glyph unicode="&#xdd;" horiz-adv-x="1386" d="M0 1446h389q244 -437 311 -561q33 64 71 135t66 120.5t84.5 147.5t90.5 158h374l-514 -881v-565h-348v565zM461 1563l262 270h385l-389 -270h-258z" />
<glyph unicode="&#xde;" horiz-adv-x="1368" d="M115 0v1446h344v-205h278q103 0 187.5 -14.5t143.5 -39t103.5 -61t71.5 -76.5t43.5 -90t22.5 -96.5t6 -101.5q0 -102 -31.5 -188.5t-95.5 -155t-172.5 -107.5t-251.5 -39h-305v-272h-344zM459 559h221q153 0 214.5 46.5t61.5 148.5q0 97 -59.5 148.5t-210.5 51.5h-227 v-395z" />
<glyph unicode="&#xdf;" horiz-adv-x="1185" d="M111 0v922q0 286 117.5 420.5t367.5 134.5q217 0 335 -95t118 -270q0 -118 -64 -208.5t-192 -125.5q169 -23 258.5 -108.5t89.5 -259.5q0 -192 -117.5 -308t-321.5 -116q-75 0 -180 18v264q54 -22 113 -22q86 0 138 47t52 139q0 100 -62.5 145.5t-184.5 45.5 q-31 0 -60 -2v268q20 -2 62 -2q73 0 117 47.5t44 124.5q0 79 -40.5 118.5t-110.5 39.5q-79 0 -121.5 -53t-42.5 -183v-981h-315z" />
<glyph unicode="&#xe0;" horiz-adv-x="1110" d="M57 293q0 187 185 276q142 65 460 84v54q0 114 -149 114q-130 0 -147 -141l-300 20q14 174 136.5 269.5t339.5 95.5q214 0 329 -100q53 -45 74 -116t21 -198v-342q0 -249 26 -309h-305q-16 78 -16 119q-64 -72 -144.5 -105.5t-187.5 -33.5q-149 0 -235.5 84t-86.5 229z M193 1485h374l181 -311h-244zM360 305q0 -37 28.5 -65.5t94.5 -28.5q100 0 159.5 56t59.5 145v41q-200 -13 -282 -56q-60 -32 -60 -92z" />
<glyph unicode="&#xe1;" horiz-adv-x="1110" d="M57 293q0 187 185 276q142 65 460 84v54q0 114 -149 114q-130 0 -147 -141l-300 20q14 174 136.5 269.5t339.5 95.5q214 0 329 -100q53 -45 74 -116t21 -198v-342q0 -249 26 -309h-305q-16 78 -16 119q-64 -72 -144.5 -105.5t-187.5 -33.5q-149 0 -235.5 84t-86.5 229z M360 305q0 -37 28.5 -65.5t94.5 -28.5q100 0 159.5 56t59.5 145v41q-200 -13 -282 -56q-60 -32 -60 -92zM387 1174l193 311h374l-323 -311h-244z" />
<glyph unicode="&#xe2;" horiz-adv-x="1110" d="M57 293q0 187 185 276q142 65 460 84v54q0 114 -149 114q-130 0 -147 -141l-300 20q14 174 136.5 269.5t339.5 95.5q214 0 329 -100q53 -45 74 -116t21 -198v-342q0 -249 26 -309h-305q-16 78 -16 119q-64 -72 -144.5 -105.5t-187.5 -33.5q-149 0 -235.5 84t-86.5 229z M219 1174l176 311h322l180 -311h-246l-98 167l-100 -167h-234zM360 305q0 -37 28.5 -65.5t94.5 -28.5q100 0 159.5 56t59.5 145v41q-200 -13 -282 -56q-60 -32 -60 -92z" />
<glyph unicode="&#xe3;" horiz-adv-x="1110" d="M57 293q0 187 185 276q142 65 460 84v54q0 114 -149 114q-130 0 -147 -141l-300 20q14 174 136.5 269.5t339.5 95.5q214 0 329 -100q53 -45 74 -116t21 -198v-342q0 -249 26 -309h-305q-16 78 -16 119q-64 -72 -144.5 -105.5t-187.5 -33.5q-149 0 -235.5 84t-86.5 229z M182 1245q54 115 101 161t127 46q44 0 98 -25l55 -26q63 -29 88 -29q36 0 58.5 19.5t48.5 68.5l155 -92q-49 -110 -97.5 -157.5t-119.5 -47.5q-61 0 -123 33l-49 25q-53 24 -82 24q-38 0 -62.5 -22t-43.5 -70zM360 305q0 -37 28.5 -65.5t94.5 -28.5q100 0 159.5 56t59.5 145 v41q-200 -13 -282 -56q-60 -32 -60 -92z" />
<glyph unicode="&#xe4;" horiz-adv-x="1110" d="M57 293q0 187 185 276q142 65 460 84v54q0 114 -149 114q-130 0 -147 -141l-300 20q14 174 136.5 269.5t339.5 95.5q214 0 329 -100q53 -45 74 -116t21 -198v-342q0 -249 26 -309h-305q-16 78 -16 119q-64 -72 -144.5 -105.5t-187.5 -33.5q-149 0 -235.5 84t-86.5 229z M195 1198v252h266v-252h-266zM360 305q0 -37 28.5 -65.5t94.5 -28.5q100 0 159.5 56t59.5 145v41q-200 -13 -282 -56q-60 -32 -60 -92zM651 1198v252h267v-252h-267z" />
<glyph unicode="&#xe5;" horiz-adv-x="1110" d="M57 293q0 187 185 276q142 65 460 84v54q0 114 -149 114q-130 0 -147 -141l-300 20q14 174 136.5 269.5t339.5 95.5q214 0 329 -100q53 -45 74 -116t21 -198v-342q0 -249 26 -309h-305q-16 78 -16 119q-64 -72 -144.5 -105.5t-187.5 -33.5q-149 0 -235.5 84t-86.5 229z M344 1364q0 87 57.5 143t147.5 56q96 0 156.5 -56t60.5 -145t-58.5 -146t-150.5 -57q-94 0 -153.5 57t-59.5 148zM360 305q0 -37 28.5 -65.5t94.5 -28.5q100 0 159.5 56t59.5 145v41q-200 -13 -282 -56q-60 -32 -60 -92zM455 1362q0 -44 29 -73t73 -29q43 0 71.5 28.5 t28.5 71.5q0 45 -28 73.5t-70 28.5q-46 0 -75 -28t-29 -72z" />
<glyph unicode="&#xe6;" horiz-adv-x="1726" d="M57 293q0 187 185 276q75 35 203 56t251 28v54q0 114 -143 114q-130 0 -147 -141l-300 20q14 174 136.5 269.5t339.5 95.5q111 0 184.5 -22.5t132.5 -81.5q110 104 293 104q487 0 487 -645h-678q23 -191 203 -191q140 0 189 123l278 -98q-141 -285 -469 -285 q-271 0 -381 181q-30 -30 -39.5 -39t-39.5 -34.5t-47.5 -35.5t-51 -27.5t-63.5 -24.5t-72.5 -13.5t-89.5 -6.5q-159 0 -260 90t-101 234zM360 305q0 -37 28.5 -67.5t94.5 -30.5q99 0 156 57.5t57 147.5v41q-191 -11 -276 -56q-34 -18 -47 -39.5t-13 -52.5zM1004 635h356 q0 89 -45.5 139.5t-130.5 50.5q-82 0 -128 -50.5t-52 -139.5z" />
<glyph unicode="&#xe7;" horiz-adv-x="1048" d="M61 516q0 256 141 402.5t382 146.5q178 0 287.5 -91.5t148.5 -232.5l-275 -94q-17 84 -58 121t-107 37q-82 0 -139.5 -68.5t-57.5 -210.5q0 -149 51.5 -223t145.5 -74q132 0 170 142l278 -99q-44 -125 -143 -203.5t-246 -95.5l-35 -67q95 -3 149 -54t54 -145 t-67.5 -151.5t-176.5 -57.5q-134 0 -221 84l82 105q50 -58 127 -58q42 0 66 23t24 57q0 39 -25 63.5t-73 24.5q-40 0 -88 -26l-45 61l92 141q-209 20 -325 163t-116 380z" />
<glyph unicode="&#xe8;" horiz-adv-x="1112" d="M61 522q0 251 140.5 397t376.5 146q487 0 487 -645h-686q12 -97 67 -144t144 -47q138 0 188 123l279 -98q-143 -289 -469 -289q-252 0 -389.5 148t-137.5 409zM195 1485h374l181 -311h-244zM381 635h364q0 82 -46.5 136t-129.5 54t-132.5 -51t-55.5 -139z" />
<glyph unicode="&#xe9;" horiz-adv-x="1112" d="M61 522q0 251 140.5 397t376.5 146q487 0 487 -645h-686q12 -97 67 -144t144 -47q138 0 188 123l279 -98q-143 -289 -469 -289q-252 0 -389.5 148t-137.5 409zM381 635h364q0 82 -46.5 136t-129.5 54t-132.5 -51t-55.5 -139zM381 1174l192 311h375l-323 -311h-244z" />
<glyph unicode="&#xea;" horiz-adv-x="1112" d="M61 522q0 251 140.5 397t376.5 146q487 0 487 -645h-686q12 -97 67 -144t144 -47q138 0 188 123l279 -98q-143 -289 -469 -289q-252 0 -389.5 148t-137.5 409zM229 1174l177 311h321l180 -311h-245l-99 167l-100 -167h-234zM381 635h364q0 82 -46.5 136t-129.5 54 t-132.5 -51t-55.5 -139z" />
<glyph unicode="&#xeb;" horiz-adv-x="1112" d="M61 522q0 251 140.5 397t376.5 146q487 0 487 -645h-686q12 -97 67 -144t144 -47q138 0 188 123l279 -98q-143 -289 -469 -289q-252 0 -389.5 148t-137.5 409zM201 1198v252h266v-252h-266zM381 635h364q0 82 -46.5 136t-129.5 54t-132.5 -51t-55.5 -139zM657 1198v252 h267v-252h-267z" />
<glyph unicode="&#xec;" d="M-84 1485h375l180 -311h-244zM111 0v1032h317v-1032h-317z" />
<glyph unicode="&#xed;" d="M68 1174l192 311h375l-324 -311h-243zM111 0v1032h317v-1032h-317z" />
<glyph unicode="&#xee;" d="M-70 1174l176 311h322l180 -311h-246l-98 167l-100 -167h-234zM111 0v1032h317v-1032h-317z" />
<glyph unicode="&#xef;" d="M-92 1198v252h266v-252h-266zM111 0v1032h317v-1032h-317zM365 1198v252h266v-252h-266z" />
<glyph unicode="&#xf0;" horiz-adv-x="1181" d="M59 502q0 233 128.5 373.5t342.5 140.5q80 0 144 -29q-50 84 -115 152l-336 -107l-57 150l274 88q-60 65 -147 129l205 143q100 -70 217 -182l246 78l59 -146l-189 -59q287 -307 287 -721q0 -255 -142 -399t-394 -144q-247 0 -385 145t-138 388zM381 504 q0 -129 56.5 -202t154.5 -73q97 0 154 68.5t57 189.5q0 139 -55 213t-150 74q-99 0 -158 -71t-59 -199z" />
<glyph unicode="&#xf1;" horiz-adv-x="1167" d="M109 0v1032h311v-143q131 164 336 164q171 0 248 -105q65 -88 65 -282v-666h-315v569q0 114 -35 160q-33 41 -107 41q-46 0 -85 -22t-60 -56q-23 -37 -32 -78t-9 -112v-502h-317zM219 1245q54 116 101 161.5t126 45.5q45 0 99 -25l55 -26q63 -29 88 -29q36 0 58.5 19.5 t48.5 68.5l155 -92q-49 -110 -97.5 -157.5t-119.5 -47.5q-61 0 -123 33l-49 25q-52 24 -82 24q-38 0 -62.5 -22t-43.5 -70z" />
<glyph unicode="&#xf2;" horiz-adv-x="1181" d="M61 514q0 261 145.5 406t397.5 145q243 0 379.5 -147t136.5 -414q0 -131 -39.5 -234t-111 -168.5t-168 -99t-213.5 -33.5q-251 0 -389 141.5t-138 403.5zM215 1485h375l180 -311h-244zM383 518q0 -149 57.5 -219t153.5 -70q95 0 153 67.5t58 219.5q0 149 -55.5 219 t-151.5 70q-93 0 -154 -73.5t-61 -213.5z" />
<glyph unicode="&#xf3;" horiz-adv-x="1181" d="M61 514q0 261 145.5 406t397.5 145q243 0 379.5 -147t136.5 -414q0 -131 -39.5 -234t-111 -168.5t-168 -99t-213.5 -33.5q-251 0 -389 141.5t-138 403.5zM383 518q0 -149 57.5 -219t153.5 -70q95 0 153 67.5t58 219.5q0 149 -55.5 219t-151.5 70q-93 0 -154 -73.5 t-61 -213.5zM395 1174l193 311h375l-324 -311h-244z" />
<glyph unicode="&#xf4;" horiz-adv-x="1181" d="M61 514q0 261 145.5 406t397.5 145q243 0 379.5 -147t136.5 -414q0 -131 -39.5 -234t-111 -168.5t-168 -99t-213.5 -33.5q-251 0 -389 141.5t-138 403.5zM258 1174l176 311h322l180 -311h-246l-98 167l-100 -167h-234zM383 518q0 -149 57.5 -219t153.5 -70q95 0 153 67.5 t58 219.5q0 149 -55.5 219t-151.5 70q-93 0 -154 -73.5t-61 -213.5z" />
<glyph unicode="&#xf5;" horiz-adv-x="1181" d="M61 514q0 261 145.5 406t397.5 145q243 0 379.5 -147t136.5 -414q0 -131 -39.5 -234t-111 -168.5t-168 -99t-213.5 -33.5q-251 0 -389 141.5t-138 403.5zM225 1245q54 115 101 161t127 46q44 0 98 -25l55 -26q63 -29 88 -29q36 0 58.5 19.5t48.5 68.5l155 -92 q-49 -110 -97.5 -157.5t-119.5 -47.5q-61 0 -123 33l-49 25q-53 24 -82 24q-38 0 -62.5 -22t-43.5 -70zM383 518q0 -149 57.5 -219t153.5 -70q95 0 153 67.5t58 219.5q0 149 -55.5 219t-151.5 70q-93 0 -154 -73.5t-61 -213.5z" />
<glyph unicode="&#xf6;" horiz-adv-x="1181" d="M61 514q0 261 145.5 406t397.5 145q243 0 379.5 -147t136.5 -414q0 -131 -39.5 -234t-111 -168.5t-168 -99t-213.5 -33.5q-251 0 -389 141.5t-138 403.5zM233 1198v252h267v-252h-267zM383 518q0 -149 57.5 -219t153.5 -70q95 0 153 67.5t58 219.5q0 149 -55.5 219 t-151.5 70q-93 0 -154 -73.5t-61 -213.5zM690 1198v252h266v-252h-266z" />
<glyph unicode="&#xf7;" horiz-adv-x="1566" d="M213 485v293h1141v-293h-1141zM639 63v310h283v-310h-283zM639 891v309h283v-309h-283z" />
<glyph unicode="&#xf8;" horiz-adv-x="1181" d="M20 43l127 131q-86 130 -86 340q0 261 145.5 406t397.5 145q191 0 320 -94l127 131l112 -103l-135 -139q92 -140 92 -356q0 -131 -39.5 -234t-111 -168.5t-168 -99t-213.5 -33.5q-203 0 -336 94l-127 -129zM379 518q0 -61 8 -100l338 348q-49 43 -127 43q-95 0 -157 -75 t-62 -216zM457 274q52 -49 137 -49q97 0 156 68t59 223q0 57 -10 109z" />
<glyph unicode="&#xf9;" horiz-adv-x="1167" d="M109 354v678h315v-571q0 -108 31.5 -154.5t109.5 -46.5q46 0 85.5 22t60.5 56q23 37 32 78t9 112v504h317v-1032h-311v143q-116 -166 -316 -166q-169 0 -251 85.5t-82 291.5zM231 1485h375l180 -311h-243z" />
<glyph unicode="&#xfa;" horiz-adv-x="1167" d="M109 354v678h315v-571q0 -108 31.5 -154.5t109.5 -46.5q46 0 85.5 22t60.5 56q23 37 32 78t9 112v504h317v-1032h-311v143q-116 -166 -316 -166q-169 0 -251 85.5t-82 291.5zM395 1174l193 311h375l-324 -311h-244z" />
<glyph unicode="&#xfb;" horiz-adv-x="1167" d="M109 354v678h315v-571q0 -108 31.5 -154.5t109.5 -46.5q46 0 85.5 22t60.5 56q23 37 32 78t9 112v504h317v-1032h-311v143q-116 -166 -316 -166q-169 0 -251 85.5t-82 291.5zM252 1174l176 311h322l180 -311h-246l-98 167l-101 -167h-233z" />
<glyph unicode="&#xfc;" horiz-adv-x="1167" d="M109 354v678h315v-571q0 -108 31.5 -154.5t109.5 -46.5q46 0 85.5 22t60.5 56q23 37 32 78t9 112v504h317v-1032h-311v143q-116 -166 -316 -166q-169 0 -251 85.5t-82 291.5zM221 1198v252h266v-252h-266zM678 1198v252h266v-252h-266z" />
<glyph unicode="&#xfd;" horiz-adv-x="1095" d="M2 1032h352q130 -366 224 -659q120 435 188 659h330l-312 -926q-54 -161 -100 -258t-107 -161.5t-134 -88.5t-181 -24q-64 0 -133 16v267q53 -17 92 -17q81 0 120 34t69 126zM381 1174l192 311h375l-323 -311h-244z" />
<glyph unicode="&#xfe;" horiz-adv-x="1185" d="M109 -397v1843h305v-551q42 71 118.5 114.5t172.5 43.5q90 0 164.5 -31.5t132 -95.5t90 -170t32.5 -246q0 -246 -122.5 -388t-309.5 -142t-278 118v-495h-305zM414 504q0 -117 51 -192.5t133 -75.5q90 0 147.5 68t57.5 200q0 130 -50.5 210.5t-140.5 80.5t-144 -71 t-54 -220z" />
<glyph unicode="&#xff;" horiz-adv-x="1095" d="M2 1032h352q130 -366 224 -659q120 435 188 659h330l-312 -926q-54 -161 -100 -258t-107 -161.5t-134 -88.5t-181 -24q-64 0 -133 16v267q53 -17 92 -17q81 0 120 34t69 126zM188 1198v252h267v-252h-267zM645 1198v252h266v-252h-266z" />
<glyph unicode="&#x152;" horiz-adv-x="2316" d="M74 729q0 169 55 313t147.5 239t212 148.5t248.5 53.5q130 0 234.5 -40t163.5 -122v125h1058v-287h-714v-274h667v-287h-667v-309h751v-289h-1095v131q-75 -81 -175 -124.5t-249 -43.5q-89 0 -176 26t-171 85t-148 145.5t-103 218t-39 291.5zM432 731q0 -220 93.5 -341.5 t260.5 -121.5q155 0 249.5 114t94.5 349q-7 216 -98.5 331.5t-245.5 115.5q-168 0 -261 -116.5t-93 -330.5z" />
<glyph unicode="&#x153;" horiz-adv-x="1847" d="M61 514q0 261 145.5 406t397.5 145q126 0 208.5 -37.5t143.5 -120.5q116 158 357 158q487 0 487 -645h-686q12 -97 67 -144t144 -47q139 0 188 123l279 -98q-141 -285 -469 -285q-247 0 -369 156q-70 -81 -152.5 -118.5t-213.5 -37.5q-251 0 -389 141.5t-138 403.5z M383 518q0 -149 57.5 -219t153.5 -70q95 0 153 67.5t58 219.5q0 149 -55.5 219t-151.5 70q-93 0 -154 -73.5t-61 -213.5zM1116 635h365q0 82 -46.5 136t-129.5 54t-133 -51t-56 -139z" />
<glyph unicode="&#x178;" horiz-adv-x="1386" d="M0 1446h389q244 -437 311 -561q33 64 71 135t66 120.5t84.5 147.5t90.5 158h374l-514 -881v-565h-348v565zM317 1563v254h277v-254h-277zM799 1563v254h276v-254h-276z" />
<glyph unicode="&#x2c6;" d="M-70 1174l176 311h322l180 -311h-246l-98 167l-100 -167h-234z" />
<glyph unicode="&#x2dc;" d="M-96 1245q54 116 101 161.5t126 45.5q44 0 98 -25l56 -26q63 -29 88 -29q36 0 58 19.5t48 68.5l156 -92q-49 -110 -97.5 -157.5t-119.5 -47.5q-61 0 -123 33l-49 25q-52 24 -82 24q-38 0 -63 -22t-44 -70z" />
<glyph unicode="&#x2000;" horiz-adv-x="945" />
<glyph unicode="&#x2001;" horiz-adv-x="1890" />
<glyph unicode="&#x2002;" horiz-adv-x="945" />
<glyph unicode="&#x2003;" horiz-adv-x="1890" />
<glyph unicode="&#x2004;" horiz-adv-x="630" />
<glyph unicode="&#x2005;" horiz-adv-x="472" />
<glyph unicode="&#x2006;" horiz-adv-x="315" />
<glyph unicode="&#x2007;" horiz-adv-x="315" />
<glyph unicode="&#x2008;" horiz-adv-x="236" />
<glyph unicode="&#x2009;" horiz-adv-x="378" />
<glyph unicode="&#x200a;" horiz-adv-x="105" />
<glyph unicode="&#x2010;" horiz-adv-x="786" d="M82 514v238h623v-238h-623z" />
<glyph unicode="&#x2011;" horiz-adv-x="786" d="M82 514v238h623v-238h-623z" />
<glyph unicode="&#x2012;" horiz-adv-x="786" d="M82 514v238h623v-238h-623z" />
<glyph unicode="&#x2013;" horiz-adv-x="1228" d="M82 514v238h1065v-238h-1065z" />
<glyph unicode="&#x2014;" horiz-adv-x="1517" d="M82 514v238h1354v-238h-1354z" />
<glyph unicode="&#x2018;" horiz-adv-x="503" d="M100 784v328q0 129 35.5 210t126.5 161l150 -121q-55 -49 -75 -95.5t-26 -140.5h101v-342h-312z" />
<glyph unicode="&#x2019;" horiz-adv-x="503" d="M92 868q56 50 75.5 95.5t25.5 138.5h-101v344h311v-330q0 -124 -35.5 -207t-125.5 -161z" />
<glyph unicode="&#x201a;" horiz-adv-x="503" d="M92 0v344h311v-330q0 -124 -35.5 -207t-125.5 -161l-150 121q56 50 75.5 95t25.5 138h-101z" />
<glyph unicode="&#x201c;" horiz-adv-x="944" d="M100 784v328q0 129 35.5 210t126.5 161l150 -121q-55 -49 -75 -95.5t-26 -140.5h101v-342h-312zM541 784v328q0 129 35 210.5t126 160.5l150 -121q-55 -51 -74.5 -96.5t-25.5 -139.5h100v-342h-311z" />
<glyph unicode="&#x201d;" horiz-adv-x="944" d="M92 868q56 50 75.5 95.5t25.5 138.5h-101v344h311v-330q0 -124 -35.5 -207t-125.5 -161zM532 868q56 50 75.5 95.5t25.5 138.5h-101v344h312v-330q0 -124 -35.5 -207t-126.5 -161z" />
<glyph unicode="&#x201e;" horiz-adv-x="944" d="M92 0v344h311v-330q0 -124 -35.5 -207t-125.5 -161l-150 121q56 50 75.5 95t25.5 138h-101zM532 0v344h312v-330q0 -124 -35.5 -207t-126.5 -161l-150 121q56 50 75.5 95t25.5 138h-101z" />
<glyph unicode="&#x2022;" horiz-adv-x="604" d="M61 346v492h482v-492h-482z" />
<glyph unicode="&#x2026;" horiz-adv-x="2168" d="M209 0v344h305v-344h-305zM930 0v344h307v-344h-307zM1653 0v344h307v-344h-307z" />
<glyph unicode="&#x202f;" horiz-adv-x="378" />
<glyph unicode="&#x2039;" horiz-adv-x="659" d="M66 565l325 455l189 -139l-220 -316l222 -334l-191 -127z" />
<glyph unicode="&#x203a;" horiz-adv-x="659" d="M78 893l190 127l326 -461l-326 -455l-188 140l219 315z" />
<glyph unicode="&#x205f;" horiz-adv-x="472" />
<glyph unicode="&#x20ac;" horiz-adv-x="1425" d="M123 492v149h131q0 115 4 150h-135v149h158q55 238 216.5 371t411.5 133q289 0 457 -191l-211 -215q-48 70 -106.5 99.5t-137.5 29.5q-111 0 -190.5 -49.5t-116.5 -177.5h447v-149h-469q-4 -41 -4 -150h473v-149h-451q29 -114 106.5 -173t215.5 -59q85 0 143.5 33.5 t126.5 112.5l194 -209q-203 -228 -495 -228q-110 0 -208 30t-182.5 91.5t-145 164t-85.5 237.5h-147z" />
<glyph unicode="&#x2122;" horiz-adv-x="1748" d="M72 1270v176h563v-176h-176v-539h-209v539h-178zM727 731v715h324l65 -291q30 -136 43 -209q9 57 41 209l64 291h315v-715h-199v260q0 158 4 264q-32 -143 -57 -254l-65 -270h-218l-63 260q-8 32 -27.5 124t-31.5 142q4 -94 4 -266v-260h-199z" />
<glyph unicode="&#x25fc;" horiz-adv-x="1034" d="M0 0v1034h1034v-1034h-1034z" />
</font>
</defs>
</svg>
