<?xml version="1.0" standalone="no"?>
<!DOCTYPE svg PUBLIC "-//W3C//DTD SVG 1.1//EN" "http://www.w3.org/Graphics/SVG/1.1/DTD/svg11.dtd" >
<svg xmlns="http://www.w3.org/2000/svg">
<metadata></metadata>
<defs>
<font id="akzidenz-grotesk_nextXBdIt" horiz-adv-x="1265" >
<font-face units-per-em="2048" ascent="1536" descent="-512" />
<missing-glyph horiz-adv-x="565" />
<glyph unicode="&#xfb01;" horiz-adv-x="1296" d="M74 0l168 756h-152l62 280h151l23 97q41 181 140.5 260.5t281.5 79.5q100 0 208 -31l-71 -279q-36 19 -68 19q-47 0 -76 -23t-43 -82l-10 -41h170l-61 -280h-168l-168 -756h-387zM745 0l230 1036h383l-230 -1036h-383zM1008 1182l59 264h381l-59 -264h-381z" />
<glyph unicode="&#xfb02;" horiz-adv-x="1296" d="M74 0l168 756h-152l62 280h151l23 97q41 181 140.5 260.5t281.5 79.5q100 0 208 -31l-71 -279q-36 19 -68 19q-47 0 -76 -23t-43 -82l-10 -41h170l-61 -280h-168l-168 -756h-387zM745 0l320 1446h385l-322 -1446h-383z" />
<glyph horiz-adv-x="0" />
<glyph horiz-adv-x="682" />
<glyph unicode=" "  horiz-adv-x="565" />
<glyph unicode="&#x09;" horiz-adv-x="565" />
<glyph unicode="&#xa0;" horiz-adv-x="565" />
<glyph unicode="!" horiz-adv-x="638" d="M100 0l86 383h367l-86 -383h-367zM254 504q37 350 121 942h446q-226 -730 -299 -942h-268z" />
<glyph unicode="&#x22;" horiz-adv-x="905" d="M262 782l45 664h332l-256 -664h-121zM696 782l45 664h330l-256 -664h-119z" />
<glyph unicode="#" horiz-adv-x="1378" d="M115 406l49 229h258l47 194h-258l49 232h262l96 385h230l-94 -385h204l95 383h231l-94 -383h242l-52 -232h-245l-48 -194h250l-49 -229h-256l-102 -406h-232l101 406h-203l-100 -406h-230l99 406h-250zM651 635h205l47 194h-205z" />
<glyph unicode="$" horiz-adv-x="1327" d="M39 307l334 174q30 -76 75.5 -119t116.5 -69l60 276q-196 67 -297 168.5t-101 247.5q0 192 151.5 316t409.5 124h21l43 203h186l-47 -217q117 -21 228 -89t174 -179l-314 -174q-39 118 -153 155l-60 -268q232 -85 320 -175.5t88 -234.5q0 -200 -161.5 -327t-416.5 -127 h-14l-43 -209h-188l47 219q-315 49 -459 305zM598 1032q0 -38 22.5 -66.5t79.5 -50.5l52 228q-81 0 -117.5 -32.5t-36.5 -78.5zM739 276q83 4 123.5 38t40.5 81q0 45 -24.5 73.5t-83.5 51.5z" />
<glyph unicode="%" horiz-adv-x="2074" d="M164 858q0 150 65 289q130 287 420 287q163 0 248.5 -86.5t85.5 -249.5q0 -86 -26.5 -186t-69.5 -177q-63 -115 -156.5 -170t-224.5 -55q-167 0 -254.5 88.5t-87.5 259.5zM428 834q0 -111 96 -111q44 0 75.5 28t55.5 93q62 161 62 272q0 57 -22 80t-68 23q-84 0 -129 -95 q-26 -53 -48 -142.5t-22 -147.5zM530 0l906 1411h254l-908 -1411h-252zM1235 326q0 149 65 288q130 287 420 287q163 0 248.5 -86.5t85.5 -249.5q0 -86 -26.5 -185.5t-69.5 -176.5q-123 -226 -381 -226q-166 0 -254 89t-88 260zM1499 301q0 -111 96 -111q44 0 75.5 28 t55.5 93q62 161 62 273q0 56 -22 79t-68 23q-85 0 -129 -94q-26 -53 -48 -143t-22 -148z" />
<glyph unicode="&#x26;" horiz-adv-x="1409" d="M49 381q0 170 107 283q53 55 125.5 98.5t181.5 89.5q-72 129 -72 244q0 166 131.5 266t333.5 100q178 0 279.5 -82t101.5 -225q0 -127 -79 -224.5t-267 -187.5l117 -213q47 48 77.5 97.5t59.5 124.5l262 -177q-90 -153 -225 -266q39 -39 106 -39q39 0 62 6l-62 -278 q-71 -10 -131 -10q-86 0 -144 19t-104 73q-106 -60 -197.5 -83.5t-203.5 -23.5q-206 0 -332.5 112.5t-126.5 295.5zM428 414q0 -69 43.5 -109.5t112.5 -40.5q96 0 157 53l-157 285q-84 -38 -120 -82t-36 -106zM727 1108q0 -57 39 -123q83 36 116 70.5t33 79.5q0 32 -22 52.5 t-59 20.5q-50 0 -78.5 -25.5t-28.5 -74.5z" />
<glyph unicode="'" horiz-adv-x="471" d="M262 782l45 664h332l-256 -664h-121z" />
<glyph unicode="(" horiz-adv-x="874" d="M156 356q0 135 25 266t83 268.5t146.5 260t223 239.5t304.5 209l98 -180q-264 -200 -402 -485t-138 -623q0 -342 166 -596l-164 -118q-160 143 -251 345t-91 414z" />
<glyph unicode=")" horiz-adv-x="874" d="M-68 -223q264 200 402.5 485t138.5 623q0 342 -166 596l164 118q160 -143 251 -345t91 -414q0 -135 -24.5 -265.5t-82.5 -268t-146.5 -260t-222.5 -240t-304 -209.5z" />
<glyph unicode="*" horiz-adv-x="837" d="M199 1165l100 205l207 -108l29 219h225l-53 -221l223 75l43 -213l-248 -55l137 -184l-192 -131l-115 194l-168 -182l-162 145l191 176z" />
<glyph unicode="+" horiz-adv-x="1566" d="M240 469l73 326h402l92 409h338l-92 -409h401l-74 -326h-399l-92 -410h-338l92 410h-403z" />
<glyph unicode="," horiz-adv-x="544" d="M-27 -238q71 55 101 98.5t59 139.5h-115l86 383h369l-82 -365q-31 -137 -88 -225.5t-182 -173.5z" />
<glyph unicode="-" horiz-adv-x="802" d="M106 502l66 284h647l-65 -284h-648z" />
<glyph unicode="." horiz-adv-x="559" d="M23 0l86 383h364l-84 -383h-366z" />
<glyph unicode="/" horiz-adv-x="976" d="M-154 -373l1006 1932h319l-1001 -1932h-324z" />
<glyph unicode="0" d="M111 516q0 236 88 463q92 231 250.5 350t373.5 119q234 0 358 -138t124 -399q0 -287 -119 -553q-88 -197 -235 -296t-341 -99q-245 0 -372 141t-127 412zM489 496q0 -104 37.5 -157.5t106.5 -53.5q75 0 129 53t92 178q68 227 68 397q0 113 -31.5 162t-97.5 49 q-73 0 -128 -50t-96 -165q-34 -95 -57 -208t-23 -205z" />
<glyph unicode="1" d="M324 901l69 318q143 0 242 44.5t147 151.5h346l-315 -1415h-401l213 954q-115 -53 -301 -53z" />
<glyph unicode="2" d="M20 0l64 281q226 134 461 284q78 49 134 91.5t110.5 96t83 113t28.5 121.5q0 63 -37.5 100t-103.5 37q-95 0 -147 -60.5t-52 -166.5q0 -30 2 -59l-373 47q12 269 174 416t443 147q234 0 368 -110.5t134 -299.5q0 -236 -199 -420q-159 -149 -432 -307q289 8 502 8 l-74 -319h-1086z" />
<glyph unicode="3" d="M35 354l356 125q18 -102 78 -152.5t135 -50.5q87 0 142 41t55 113q0 154 -281 154h-20l59 276q66 -4 86 -4q124 0 189 38.5t65 125.5q0 53 -41 89t-117 36q-166 0 -219 -182l-332 129q168 356 582 356q241 0 378.5 -102t137.5 -275q0 -139 -78.5 -229.5t-226.5 -122.5 q108 -33 166.5 -111.5t58.5 -185.5q0 -210 -162.5 -333.5t-427.5 -123.5q-484 0 -583 389z" />
<glyph unicode="4" d="M33 279l63 278l725 854h473l-188 -850h176l-63 -282h-177l-61 -279h-389l61 279h-620zM461 561h256l123 496q-341 -448 -379 -496z" />
<glyph unicode="5" d="M41 342l360 129q11 -96 70 -145.5t135 -49.5q99 0 159 61t60 171q0 75 -39.5 122.5t-111.5 47.5q-108 0 -166 -96l-324 69l193 760h936l-80 -319h-586l-59 -224q112 86 268 86q181 0 283 -108.5t102 -300.5q0 -122 -43.5 -228.5t-122.5 -185.5t-197 -124.5t-260 -45.5 q-232 0 -376.5 99.5t-200.5 281.5z" />
<glyph unicode="6" d="M141 535q0 183 51.5 356.5t145.5 296.5q102 133 239 196.5t326 63.5q169 0 286.5 -77.5t158.5 -215.5l-349 -133q-27 119 -147 119q-112 0 -183 -78t-112 -252q124 137 332 137q175 0 277 -106.5t102 -288.5q0 -266 -162 -428t-430 -162q-259 0 -397 146.5t-138 425.5z M518 428q0 -74 44 -122t114 -48q87 0 145 63t58 168q0 83 -42.5 128t-113.5 45q-90 0 -147.5 -63.5t-57.5 -170.5z" />
<glyph unicode="7" d="M217 0q84 296 264 581.5t428 510.5h-692l74 319h1089l-61 -274q-236 -221 -414 -519t-262 -618h-426z" />
<glyph unicode="8" d="M84 369q0 143 86.5 250.5t257.5 142.5q-180 89 -180 272q0 189 152 301.5t407 112.5q234 0 374 -98t140 -265q0 -127 -71 -219t-214 -127q96 -30 156.5 -114t60.5 -195q0 -214 -162.5 -340.5t-459.5 -126.5q-255 0 -401 108.5t-146 297.5zM483 408q0 -74 46 -117t122 -43 q83 0 137 56t54 142q0 74 -42 116t-116 42q-89 0 -145 -54t-56 -142zM627 1012q0 -59 38 -95t99 -36q78 0 125 48.5t47 123.5q0 56 -39 91.5t-100 35.5q-74 0 -122 -47.5t-48 -120.5z" />
<glyph unicode="9" d="M61 256l355 133q34 -119 151 -119q114 0 184.5 78.5t108.5 251.5q-124 -137 -332 -137q-169 0 -273.5 110.5t-104.5 288.5q0 265 162 425.5t431 160.5q258 0 395.5 -146t137.5 -425q0 -188 -48.5 -363t-140.5 -297q-101 -132 -238.5 -193t-330.5 -61q-171 0 -293.5 78 t-163.5 215zM539 922q0 -82 42.5 -127t112.5 -45q90 0 147.5 63t57.5 170q0 74 -44 122t-114 48q-87 0 -144.5 -63t-57.5 -168z" />
<glyph unicode=":" horiz-adv-x="622" d="M98 0l86 383h367l-86 -383h-367zM244 657l84 383h366l-84 -383h-366z" />
<glyph unicode=";" horiz-adv-x="622" d="M49 -238q73 55 103 98.5t59 139.5h-115l86 383h369l-82 -365q-31 -137 -88 -225.5t-182 -173.5zM244 657l86 383h364l-84 -383h-366z" />
<glyph unicode="&#x3c;" horiz-adv-x="1572" d="M297 481l72 305l1108 435l-84 -371l-680 -242l575 -241l-76 -330z" />
<glyph unicode="=" horiz-adv-x="1566" d="M184 217l74 322h1141l-74 -322h-1141zM297 729l74 322h1140l-73 -322h-1141z" />
<glyph unicode="&#x3e;" horiz-adv-x="1572" d="M238 37l84 371l679 241l-573 242l74 330l913 -445l-69 -305z" />
<glyph unicode="?" horiz-adv-x="1187" d="M215 1026q35 233 187 346t421 113q223 0 353.5 -97t130.5 -268q0 -121 -64.5 -213.5t-238.5 -204.5q-53 -34 -77 -51t-53 -44t-42.5 -54.5t-18.5 -63.5h-344q20 133 66.5 201t175.5 152q94 62 136 114.5t42 108.5q0 106 -133 106q-165 0 -172 -237zM354 0l84 379h367 l-84 -379h-367z" />
<glyph unicode="@" horiz-adv-x="1878" d="M170 518q0 218 76.5 404.5t210.5 315.5t320 202t401 73q315 0 496 -175.5t181 -471.5q0 -181 -65.5 -331.5t-182.5 -239t-261 -88.5q-183 0 -213 143q-58 -72 -123 -107.5t-150 -35.5q-134 0 -210.5 86.5t-76.5 236.5q0 157 66.5 290t176.5 208.5t237 75.5 q139 0 196 -111l23 92h205q-138 -542 -138 -598q0 -79 70 -79q99 0 160 130.5t61 327.5q0 228 -133.5 347.5t-349.5 119.5q-212 0 -383.5 -105.5t-267 -286t-95.5 -398.5q0 -262 161.5 -419t430.5 -157q179 0 312 44t272 149l100 -170q-313 -219 -698 -219q-177 0 -326.5 53 t-256 149t-166.5 236t-60 309zM803 565q0 -74 30.5 -119t90.5 -45q111 0 181.5 106.5t70.5 262.5q0 70 -32 110t-93 40q-98 0 -173 -104.5t-75 -250.5z" />
<glyph unicode="A" horiz-adv-x="1517" d="M-80 0l811 1446h504l205 -1446h-441l-24 248h-467l-127 -248h-461zM647 551h309q-34 432 -41 543q-111 -236 -268 -543z" />
<glyph unicode="B" horiz-adv-x="1439" d="M20 0l320 1446h674q255 0 356 -64q56 -34 90.5 -99t34.5 -142q0 -146 -79.5 -247t-237.5 -140q115 -26 173 -103.5t58 -199.5q0 -126 -70.5 -231.5t-189.5 -156.5q-80 -35 -178.5 -49t-270.5 -14h-680zM508 324h215q121 0 172 20q80 36 80 133q0 68 -53 92 q-37 19 -121 19h-234zM635 893h223q82 0 131 18q74 28 74 117q0 64 -51 86q-32 14 -103 14h-221z" />
<glyph unicode="C" horiz-adv-x="1454" d="M133 616q0 186 61 351t173 280q112 113 260.5 175.5t324.5 62.5q254 0 406 -121q121 -97 178 -248l-389 -170q-44 178 -211 178q-153 0 -250 -127q-53 -67 -85 -165t-32 -201q0 -153 69.5 -231t188.5 -78q177 0 258 188l365 -186q-107 -182 -269 -272.5t-393 -90.5 q-300 0 -477.5 175t-177.5 480z" />
<glyph unicode="D" horiz-adv-x="1472" d="M20 0l320 1446h483q308 0 453 -86q103 -63 162 -183t59 -280q0 -165 -47 -327.5t-135 -284.5q-136 -187 -357 -250q-82 -22 -176.5 -28.5t-281.5 -6.5h-480zM514 340h102q142 2 221.5 31.5t135.5 122.5q90 153 90 356q0 156 -82 215q-64 43 -190 43h-105z" />
<glyph unicode="E" horiz-adv-x="1282" d="M20 0l320 1446h1073l-67 -328h-658l-49 -215h623l-72 -328h-623l-55 -247h717l-70 -328h-1139z" />
<glyph unicode="F" horiz-adv-x="1206" d="M20 0l320 1446h1053l-70 -326h-633l-57 -252h600l-72 -319h-598l-121 -549h-422z" />
<glyph unicode="G" horiz-adv-x="1572" d="M133 594q0 202 66 376.5t194 295.5q226 217 584 217q220 0 374 -93.5t228 -281.5l-397 -158q-27 93 -86.5 133.5t-163.5 40.5q-70 0 -134 -33.5t-112 -93.5q-117 -149 -117 -385q0 -144 70.5 -221.5t183.5 -77.5q96 0 173 46.5t108 152.5h-258l72 315h667l-184 -827h-346 l32 131q-73 -86 -164 -124t-218 -38q-254 0 -413 168.5t-159 456.5z" />
<glyph unicode="H" horiz-adv-x="1503" d="M20 0l320 1446h424l-117 -518h453l117 518h421l-319 -1446h-424l127 578h-451l-129 -578h-422z" />
<glyph unicode="I" horiz-adv-x="630" d="M20 0l320 1446h428l-319 -1446h-429z" />
<glyph unicode="J" horiz-adv-x="942" d="M-72 45q28 68 83.5 196.5t64.5 149.5q72 -67 162 -67q48 0 81.5 12t63.5 47q51 57 109 315l165 748h426l-184 -842q-54 -249 -111 -366q-64 -137 -184.5 -207t-314.5 -70q-209 0 -361 84z" />
<glyph unicode="K" horiz-adv-x="1480" d="M20 0l320 1446h422l-125 -555l551 555h502l-613 -608l338 -838h-461l-209 549l-229 -205l-76 -344h-420z" />
<glyph unicode="L" horiz-adv-x="1134" d="M20 0l322 1446h418l-248 -1118h582l-74 -328h-1000z" />
<glyph unicode="M" horiz-adv-x="1890" d="M20 0l320 1446h604q19 -661 25 -938q61 135 126.5 271t159 325.5t166.5 341.5h607l-322 -1446h-408q132 592 242 1038q-175 -366 -510 -1038h-338q-11 283 -47 1036q-86 -448 -221 -1036h-404z" />
<glyph unicode="N" horiz-adv-x="1538" d="M20 0l320 1446h483q143 -477 256 -928q43 242 193 928h403l-321 -1446h-486q-44 154 -129 441t-129 452q-68 -362 -186 -893h-404z" />
<glyph unicode="O" horiz-adv-x="1609" d="M135 608q0 180 55 339t154 274q109 127 263.5 195.5t342.5 68.5q316 0 498 -169.5t182 -471.5q0 -181 -59.5 -352t-169.5 -293q-212 -238 -584 -238q-312 0 -497 169.5t-185 477.5zM571 621q0 -143 67.5 -221t199.5 -78q166 0 262 149q94 147 94 356q0 146 -65 221.5 t-181 75.5q-168 0 -270 -139q-48 -70 -77.5 -165t-29.5 -199z" />
<glyph unicode="P" horiz-adv-x="1417" d="M20 0l320 1446h592q294 0 418 -82q77 -48 121.5 -131.5t44.5 -185.5q0 -156 -60 -287t-174 -201q-158 -100 -494 -100h-243l-103 -459h-422zM614 782h152q151 0 215 25q48 21 73 67t25 101q0 84 -59 117q-44 26 -184 26h-146z" />
<glyph unicode="Q" horiz-adv-x="1609" d="M135 606q0 181 55 339.5t154 273.5q109 127 263.5 195.5t342.5 68.5q316 0 498 -168.5t182 -470.5q0 -156 -46 -308t-130 -270q-37 -53 -74 -90l265 -227l-252 -232l-291 287q-128 -43 -287 -43q-153 0 -278.5 42.5t-214.5 123.5t-138 203t-49 276zM569 621 q0 -143 68.5 -222.5t200.5 -79.5q167 0 262 152q94 143 94 356q0 147 -65 222t-183 75q-171 0 -268 -139q-49 -69 -79 -164t-30 -200z" />
<glyph unicode="R" horiz-adv-x="1396" d="M20 0l320 1446h553q289 0 418 -72q82 -46 133 -130.5t51 -188.5q0 -186 -108 -309t-293 -164l225 -582h-451l-168 520h-147l-117 -520h-416zM621 825h184q136 0 188 29q76 43 76 139q0 75 -55 105q-29 16 -66 21t-106 5h-154z" />
<glyph unicode="S" horiz-adv-x="1347" d="M14 250l340 239q138 -186 338 -186q94 0 139.5 27.5t45.5 72.5q0 41 -30 68.5t-116 60.5l-186 74q-170 65 -253 167t-83 249q0 207 173.5 335t457.5 128q400 0 602 -266l-324 -226q-108 154 -309 154q-81 0 -123.5 -27.5t-42.5 -66.5q0 -36 30.5 -62.5t112.5 -56.5 l203 -72q180 -65 258 -163.5t78 -237.5q0 -230 -176 -365t-483 -135q-188 0 -359 71.5t-293 217.5z" />
<glyph unicode="T" horiz-adv-x="1216" d="M197 1118l71 328h1157l-73 -328h-351l-247 -1118h-430l247 1118h-374z" />
<glyph unicode="U" horiz-adv-x="1470" d="M131 410q0 105 45 301l162 735h424l-172 -778q-33 -147 -33 -201q0 -75 48 -114.5t128 -39.5q149 0 203 105q34 70 65 221l179 807h428l-197 -883q-57 -258 -154 -385q-163 -217 -559 -217q-276 0 -421.5 115t-145.5 334z" />
<glyph unicode="V" horiz-adv-x="1425" d="M233 1446h445q9 -131 24.5 -335t25.5 -352t17 -298q51 120 110.5 251.5t97 211t124.5 261t125 261.5h461l-774 -1446h-471z" />
<glyph unicode="W" horiz-adv-x="2062" d="M238 1446h430q-2 -196 -21 -997q46 125 105 273t144 359t146 365h461q-9 -498 -26 -1000q131 342 401 1000h422l-664 -1446h-469q8 659 25 1051q-30 -81 -74 -191.5t-85 -211t-121.5 -295t-145.5 -353.5h-477z" />
<glyph unicode="X" horiz-adv-x="1421" d="M-92 0l622 745l-294 701h475q36 -107 81 -246t64 -196q118 169 322 442h471l-602 -746l307 -700h-465q-108 267 -168 434q-1 -1 -111.5 -149.5t-214.5 -284.5h-487z" />
<glyph unicode="Y" horiz-adv-x="1458" d="M236 1446h458q104 -317 170 -537q252 370 373 537h469l-705 -905l-118 -541h-424l129 586z" />
<glyph unicode="Z" horiz-adv-x="1359" d="M4 0l66 297l825 821h-645l65 328h1178l-66 -299l-815 -819h678l-71 -328h-1215z" />
<glyph unicode="[" horiz-adv-x="854" d="M43 -360l422 1902h573l-49 -219h-248l-327 -1468h250l-48 -215h-573z" />
<glyph unicode="\" horiz-adv-x="976" d="M344 1559h305l162 -1932h-305z" />
<glyph unicode="]" horiz-adv-x="854" d="M-86 -367l49 220h250l326 1478h-248l47 217h573l-424 -1915h-573z" />
<glyph unicode="^" horiz-adv-x="1572" d="M291 598l579 848h324l203 -844h-316l-104 485l-311 -489h-375z" />
<glyph unicode="_" horiz-adv-x="1427" d="M-164 -514l51 223h1426l-49 -223h-1428z" />
<glyph unicode="`" horiz-adv-x="555" d="M23 1495h383l126 -315h-249z" />
<glyph unicode="a" horiz-adv-x="1163" d="M33 268q0 101 47 171.5t141 121.5q141 73 533 96q8 39 8 70q0 37 -27 59.5t-80 22.5q-114 0 -137 -115l-354 39q46 170 175.5 253t356.5 83q437 0 437 -301q0 -59 -21 -158q-2 -10 -16.5 -73t-21 -94t-19 -92.5t-18.5 -101.5t-11.5 -86.5t-5.5 -78.5q0 -43 10 -84h-375 q-2 20 -2 47q0 41 6 74q-69 -76 -142.5 -107.5t-174.5 -31.5q-141 0 -225 77t-84 209zM403 315q0 -36 25.5 -59t67.5 -23q75 0 130 49.5t72 133.5l9 35q-167 -10 -235.5 -41.5t-68.5 -94.5z" />
<glyph unicode="b" horiz-adv-x="1241" d="M12 0l320 1446h385l-119 -514q124 127 297 127q161 0 249.5 -109.5t88.5 -314.5q0 -101 -20 -196t-62 -179.5t-102 -147.5t-145 -100t-185 -37q-225 0 -305 170l-33 -145h-369zM496 444q0 -81 36.5 -126.5t98.5 -45.5q94 0 148.5 92t54.5 234q0 85 -32 130.5t-95 45.5 q-91 0 -151 -93t-60 -237z" />
<glyph unicode="c" horiz-adv-x="1097" d="M86 446q0 280 168 452.5t440 172.5q332 0 447 -291l-342 -135q-12 71 -42 102t-83 31q-93 0 -149 -95t-56 -234q0 -91 38 -139t105 -48q107 0 162 131l313 -160q-84 -129 -203.5 -198.5t-297.5 -69.5q-144 0 -256 55.5t-178 165.5t-66 260z" />
<glyph unicode="d" horiz-adv-x="1241" d="M82 397q0 127 34 244.5t97.5 212.5t165 152t225.5 57q220 0 295 -160l117 543h377l-320 -1446h-375l33 127q-107 -147 -313 -147q-155 0 -245.5 107.5t-90.5 309.5zM481 449q0 -85 32 -132t97 -47q94 0 151.5 91.5t57.5 240.5q0 79 -35.5 124.5t-97.5 45.5 q-89 0 -147 -91.5t-58 -231.5z" />
<glyph unicode="e" horiz-adv-x="1159" d="M84 457q0 270 170.5 442t437.5 172q225 0 348 -131.5t123 -359.5q0 -64 -12 -142h-696q0 -184 161 -184q52 0 100.5 31.5t78.5 97.5l305 -168q-181 -250 -510 -250q-230 0 -368 133t-138 359zM487 655h320q0 69 -35 110.5t-100 41.5q-71 0 -118.5 -40t-66.5 -112z" />
<glyph unicode="f" horiz-adv-x="731" d="M74 0l168 756h-152l62 280h151l23 97q41 181 140.5 260.5t281.5 79.5q100 0 208 -31l-71 -279q-32 19 -68 19q-47 0 -76 -23t-43 -82l-10 -41h170l-61 -280h-168l-168 -756h-387z" />
<glyph unicode="g" horiz-adv-x="1239" d="M-23 -84l371 66q10 -62 51 -91.5t97 -29.5q114 0 163 80q37 58 60 174l10 51q-61 -77 -134 -106t-171 -29q-155 0 -247.5 101.5t-92.5 289.5q0 94 21 185t64 173.5t104 144.5t147 99t186 37q231 0 307 -164l27 139h363l-203 -919q-39 -180 -85 -270.5t-126 -155.5 q-141 -115 -408 -115q-201 0 -334.5 86.5t-169.5 253.5zM477 461q0 -80 36 -121t97 -41q92 0 153.5 87.5t61.5 219.5q0 79 -34.5 122.5t-98.5 43.5q-93 0 -154 -88t-61 -223z" />
<glyph unicode="h" horiz-adv-x="1210" d="M12 0l322 1446h377l-129 -563q132 170 350 170q131 0 200.5 -66t69.5 -190q0 -78 -35 -224l-127 -573h-385l111 502q20 87 20 131q0 46 -25 70t-71 24q-72 0 -119 -59q-21 -25 -35 -65t-32 -120l-107 -483h-385z" />
<glyph unicode="i" horiz-adv-x="565" d="M12 0l230 1036h385l-230 -1036h-385zM274 1182l60 264h383l-60 -264h-383z" />
<glyph unicode="j" horiz-adv-x="589" d="M-246 -391l60 289q44 -23 77 -23q45 0 71 15t49 63.5t44 146.5l209 936h385l-205 -927q-44 -191 -61 -242q-51 -156 -152 -220.5t-272 -64.5q-116 0 -205 27zM297 1180l59 266h385l-59 -266h-385z" />
<glyph unicode="k" horiz-adv-x="1189" d="M12 0l322 1446h381l-164 -731l323 321h451l-444 -418l245 -618h-417l-138 391l-112 -90l-66 -301h-381z" />
<glyph unicode="l" horiz-adv-x="565" d="M12 0l320 1446h385l-320 -1446h-385z" />
<glyph unicode="m" horiz-adv-x="1824" d="M12 0l230 1036h368l-35 -162q143 179 347 179q108 0 173.5 -49t84.5 -144q67 93 164.5 143t207.5 50q128 0 197.5 -64t69.5 -184q0 -67 -37 -236l-127 -569h-385l114 512q21 88 21 123q0 92 -86 92q-70 0 -117 -55q-26 -31 -39 -70t-30 -119l-107 -483h-385l113 512 q18 78 18 123q0 92 -84 92q-74 0 -119 -61q-35 -45 -63 -177l-109 -489h-385z" />
<glyph unicode="n" horiz-adv-x="1210" d="M12 0l230 1036h368l-37 -164q63 86 157.5 133.5t201.5 47.5q131 0 200.5 -66t69.5 -190q0 -78 -35 -224l-127 -573h-385l111 502q20 87 20 131q0 46 -25 70t-71 24q-72 0 -119 -59q-21 -25 -35 -65t-32 -120l-107 -483h-385z" />
<glyph unicode="o" horiz-adv-x="1230" d="M86 457q0 129 42.5 241t119.5 193q168 180 461 180q236 0 369.5 -126.5t133.5 -352.5q0 -273 -155 -442q-80 -89 -197 -137t-256 -48q-243 0 -380.5 131t-137.5 361zM467 455q0 -91 41.5 -142t114.5 -51q89 0 145 86q61 89 61 244q0 186 -139 186q-95 0 -155 -84 q-31 -42 -49.5 -106.5t-18.5 -132.5z" />
<glyph unicode="p" horiz-adv-x="1241" d="M-74 -389l316 1425h372l-28 -112q124 135 305 135q162 0 252 -109.5t90 -314.5q0 -101 -20 -196t-62 -179.5t-102 -147.5t-145 -100t-185 -37q-209 0 -295 152l-115 -516h-383zM496 444q0 -81 36.5 -126.5t98.5 -45.5q94 0 148.5 92t54.5 234q0 85 -32 130.5t-95 45.5 q-91 0 -151 -93t-60 -237z" />
<glyph unicode="q" horiz-adv-x="1241" d="M82 397q0 127 34 244.5t97.5 212.5t165 152t225.5 57q225 0 305 -158l29 131h365l-316 -1425h-385l123 512q-108 -143 -307 -143q-155 0 -245.5 107.5t-90.5 309.5zM481 449q0 -85 32 -132t97 -47q93 0 151 93t58 239q0 79 -35.5 124.5t-97.5 45.5q-89 0 -147 -91.5 t-58 -231.5z" />
<glyph unicode="r" horiz-adv-x="825" d="M12 0l230 1036h374l-45 -188q62 111 124.5 159t148.5 48q56 0 112 -21l-77 -332q-66 27 -125 27q-102 0 -160 -61q-59 -61 -98 -228l-97 -440h-387z" />
<glyph unicode="s" horiz-adv-x="1005" d="M-27 174l263 199q47 -66 113.5 -99.5t123.5 -33.5q113 0 113 59q0 24 -16.5 40.5t-59.5 33.5l-162 63q-219 88 -219 291q0 154 128 249t343 95q293 0 459 -190l-244 -191q-78 121 -207 121q-52 0 -78 -16.5t-26 -42.5q0 -23 20.5 -37.5t69.5 -34.5l123 -49 q124 -51 188 -119t64 -172q0 -169 -137.5 -272t-366.5 -103q-316 0 -492 209z" />
<glyph unicode="t" horiz-adv-x="727" d="M90 756l64 280h143l76 330h379l-74 -330h172l-64 -280h-168l-69 -320q-12 -58 -12 -84q0 -78 86 -78q37 0 84 17l-64 -291q-93 -20 -205 -20q-153 0 -232 63.5t-79 187.5q0 47 23 150l83 375h-143z" />
<glyph unicode="u" horiz-adv-x="1208" d="M76 240q0 66 35 221l127 575h385l-111 -504q-20 -87 -20 -131q0 -46 25 -70t71 -24q70 0 121 60q19 25 33 65t32 119l107 485h385l-230 -1036h-368l37 162q-63 -86 -157 -133t-202 -47q-130 0 -200 66.5t-70 191.5z" />
<glyph unicode="v" horiz-adv-x="1118" d="M158 1036h389q2 -112 6.5 -337t5.5 -363q129 325 305 700h402l-559 -1036h-435z" />
<glyph unicode="w" horiz-adv-x="1656" d="M156 1036h387q-3 -311 -15 -678q118 312 265 678h374q-3 -384 -10 -678q98 267 262 678h381l-475 -1036h-424q0 463 4 662q-130 -332 -274 -662h-424z" />
<glyph unicode="x" horiz-adv-x="1091" d="M-74 0l422 557l-184 479h395q26 -82 86 -286q169 270 180 286h396l-404 -547l203 -489h-399q-79 224 -101 295q-70 -112 -188 -295h-406z" />
<glyph unicode="y" horiz-adv-x="1105" d="M-49 -391l57 289q61 -23 115 -23q66 0 102.5 18.5t63.5 81.5l8 19l-141 1042h391q4 -107 13 -347.5t11 -354.5q29 79 281 702h401l-481 -960q-79 -156 -140 -248t-132.5 -149.5t-147.5 -77t-188 -19.5q-124 0 -213 27z" />
<glyph unicode="z" horiz-adv-x="1038" d="M-20 0l49 217l565 535h-438l63 284h903l-47 -227l-538 -524h452l-63 -285h-946z" />
<glyph unicode="{" horiz-adv-x="870" d="M129 524l39 178q109 20 158.5 85t85.5 227l34 160q40 189 140 276q70 63 177.5 93.5t307.5 37.5l-33 -154q-58 -12 -94 -24.5t-68.5 -33t-53 -52.5t-37.5 -77.5t-31 -113.5l-29 -129q-31 -147 -68.5 -226.5t-89.5 -116.5t-145 -60q149 -65 149 -242q0 -45 -24 -159 l-29 -130q-16 -72 -16 -126q0 -82 39 -125t127 -56l-35 -151q-232 6 -342.5 80t-110.5 233q0 50 27 174l26 119q21 93 21 139q0 70 -27 108t-98 66z" />
<glyph unicode="|" horiz-adv-x="708" d="M31 -367l424 1915h323l-424 -1915h-323z" />
<glyph unicode="}" horiz-adv-x="870" d="M-96 -395l33 153q58 12 94 24.5t68.5 33t53 52.5t37.5 77.5t31 113.5l29 129q23 112 47.5 181t61.5 114.5t80.5 68.5t113.5 40q-150 66 -150 242q0 40 25 159l29 129q16 72 16 127q0 82 -39 125t-127 56l35 151q232 -6 342.5 -80t110.5 -233q0 -50 -27 -174l-27 -119 q-20 -88 -20 -139q0 -70 27 -108t98 -66l-39 -179q-109 -20 -158.5 -84.5t-85.5 -226.5l-35 -160q-41 -190 -139 -276q-70 -63 -177.5 -93.5t-307.5 -37.5z" />
<glyph unicode="~" horiz-adv-x="1566" d="M170 651q245 230 446 230q56 0 112.5 -19.5t158.5 -77.5q113 -65 215 -65q58 0 110.5 32.5t143.5 120.5l174 -260q-226 -229 -447 -229q-60 0 -112.5 17t-128.5 61q-148 84 -226 84q-71 0 -131.5 -36t-144.5 -118z" />
<glyph unicode="&#xa1;" horiz-adv-x="638" d="M-25 0q226 730 299 942h271q-43 -383 -123 -942h-447zM244 1063l86 383h366l-86 -383h-366z" />
<glyph unicode="&#xa2;" horiz-adv-x="1243" d="M160 446q0 273 164.5 446.5t453.5 182.5l43 199h176l-47 -213q225 -39 320 -256l-297 -156q-26 92 -90 113l-109 -492q91 7 152 119l268 -176q-90 -122 -206 -182.5t-279 -61.5l-43 -198h-179l48 206q-170 33 -272.5 155.5t-102.5 313.5zM516 477q0 -137 90 -186l105 481 q-85 -10 -140 -95t-55 -200z" />
<glyph unicode="&#xa3;" horiz-adv-x="1411" d="M23 219q0 126 81.5 202.5t219.5 76.5q103 0 206 -45q2 10 2 22q0 58 -34 141h-271l45 207h162q-24 99 -24 181q0 210 146 326t407 116q201 0 331.5 -85t182.5 -241l-342 -143q-18 92 -61.5 132t-121.5 40q-74 0 -120 -48t-46 -140q0 -58 23 -138h362l-45 -207h-270 q12 -74 12 -120q0 -80 -37 -156q77 -41 130 -41q58 0 90.5 35t54.5 117l319 -121q-135 -355 -434 -355q-101 0 -178.5 25t-153.5 90q-85 -67 -162.5 -94t-174.5 -27q-136 0 -217.5 70t-81.5 180zM274 227q0 -30 21.5 -48.5t58.5 -18.5q81 0 144 86q-65 59 -131 59 q-93 0 -93 -78z" />
<glyph unicode="&#xa4;" horiz-adv-x="1447" d="M127 299l174 158q-61 108 -61 233q0 181 92 301l-146 168l228 197l143 -166q106 57 236 57q173 0 303 -98l176 156l188 -215l-176 -156q62 -110 62 -236q0 -173 -93 -297l148 -170l-225 -200l-148 170q-110 -58 -235 -58q-169 0 -304 97l-176 -154zM524 698 q0 -123 75.5 -202.5t191.5 -79.5q115 0 192.5 81t77.5 201q0 117 -76.5 196t-189.5 79q-114 0 -192.5 -79.5t-78.5 -195.5z" />
<glyph unicode="&#xa5;" horiz-adv-x="1499" d="M143 379l39 178h414l10 37l-37 92h-360l43 178h240l-224 549h430q85 -272 160 -539q188 272 385 539h445l-451 -549h233l-40 -178h-345l-77 -94l-9 -35h402l-37 -178h-403l-84 -379h-404l84 379h-414z" />
<glyph unicode="&#xa6;" horiz-adv-x="708" d="M31 -367l180 820h324l-181 -820h-323zM274 729l181 819h323l-180 -819h-324z" />
<glyph unicode="&#xa7;" horiz-adv-x="1320" d="M6 -55l277 202q46 -87 129 -137.5t170 -50.5q75 0 108 26.5t33 61.5t-21.5 59t-87.5 58l-227 121q-129 68 -192.5 146.5t-63.5 186.5q0 263 307 361q-80 80 -80 197q0 166 139 264t375 98q346 0 500 -231l-278 -185q-82 154 -240 154q-67 0 -95 -24.5t-28 -59.5 q0 -32 22 -56.5t81 -56.5l235 -133q129 -72 184.5 -145t55.5 -164q0 -116 -59 -201.5t-203 -156.5q42 -43 58.5 -86.5t16.5 -100.5q0 -177 -156 -289t-405 -112q-177 0 -320 62t-235 192zM481 696q0 -42 32 -73.5t110 -75.5l235 -133q103 42 103 125q0 49 -30 78.5 t-116 78.5l-227 131q-107 -46 -107 -131z" />
<glyph unicode="&#xa8;" horiz-adv-x="555" d="M-143 1192l61 278h309l-63 -278h-307zM326 1192l61 278h311l-61 -278h-311z" />
<glyph unicode="&#xa9;" horiz-adv-x="1691" d="M164 729q0 156 60 296.5t162.5 241.5t244.5 160.5t301 59.5q155 0 295 -59t241 -158.5t160.5 -238.5t59.5 -292q0 -217 -98 -395t-268.5 -279.5t-377.5 -101.5q-129 0 -249 38t-215.5 108t-167 164t-110 211.5t-38.5 244.5zM305 727q0 -128 50 -245t134.5 -201.5 t201.5 -134.5t245 -50q166 0 306 83t221 226.5t81 313.5q0 134 -47 252t-128 202.5t-195 133.5t-242 49q-129 0 -245 -49t-200 -133t-133 -200.5t-49 -246.5zM498 676q0 220 131 360t340 140q133 0 223.5 -56t144.5 -172l-227 -114q-16 66 -51 92t-92 26q-89 0 -145 -75.5 t-56 -198.5q0 -79 43.5 -129.5t114.5 -50.5q55 0 93 25t64 79l197 -156q-136 -170 -360 -170q-192 0 -306 109t-114 291z" />
<glyph unicode="&#xaa;" horiz-adv-x="937" d="M158 815q0 151 129 227q127 74 440 93q12 41 12 63q0 25 -20 40t-60 15q-48 0 -73.5 -21.5t-38.5 -66.5l-279 37q34 135 137.5 200.5t284.5 65.5q348 0 348 -245q0 -68 -16 -140l-61 -278q-17 -79 -17 -141q0 -32 6 -66h-299q-2 16 -2 37q0 27 6 65q-55 -63 -112 -89.5 t-137 -26.5q-111 0 -179.5 62.5t-68.5 168.5zM453 856q0 -29 19.5 -46t51.5 -17q60 0 102.5 39.5t57.5 109.5l4 19q-127 -6 -182 -33q-53 -23 -53 -72z" />
<glyph unicode="&#xab;" horiz-adv-x="1146" d="M123 578l424 473l174 -166l-277 -312l150 -342l-234 -137zM590 578l422 473l174 -166l-275 -312l148 -342l-232 -137z" />
<glyph unicode="&#xac;" horiz-adv-x="1566" d="M211 469l74 326h1140l-163 -736h-340l92 410h-803z" />
<glyph unicode="&#xad;" horiz-adv-x="802" d="M106 502l66 284h647l-65 -284h-648z" />
<glyph unicode="&#xae;" horiz-adv-x="1691" d="M164 729q0 156 60 296.5t162 241.5t244 160.5t300 59.5q155 0 295 -59t241 -158.5t160.5 -238.5t59.5 -292q0 -217 -97.5 -395t-268 -279.5t-378.5 -101.5q-161 0 -305 59.5t-248 161.5t-164.5 244t-60.5 301zM305 727q0 -128 50 -245t134.5 -201.5t201.5 -134.5t245 -50 q165 0 305 83t221.5 226.5t81.5 313.5q0 134 -47 252t-128 202.5t-195 133.5t-242 49q-129 0 -245 -49t-200 -133t-133 -200.5t-49 -246.5zM520 322l185 839h309q153 0 223 -43q46 -28 74 -80t28 -114q0 -101 -58.5 -178.5t-162.5 -98.5l146 -325h-248l-113 296h-80 l-65 -296h-238zM872 799h93q135 0 135 100q0 43 -24.5 60.5t-84.5 17.5h-78z" />
<glyph unicode="&#xaf;" horiz-adv-x="555" d="M-74 1208l45 209h658l-49 -209h-654z" />
<glyph unicode="&#xb0;" horiz-adv-x="909" d="M240 1112q0 155 108 261t268 106q166 0 271.5 -101.5t105.5 -267.5q0 -158 -105.5 -262.5t-266.5 -104.5q-163 0 -272 106t-109 263zM449 1112q0 -72 47.5 -121t117.5 -49t118 49t48 119q0 71 -47 119.5t-117 48.5t-118.5 -48.5t-48.5 -117.5z" />
<glyph unicode="&#xb1;" horiz-adv-x="1566" d="M139 0l72 324h1141l-72 -324h-1141zM309 809l74 326h401l88 393h338l-88 -393h402l-74 -326h-399l-86 -383h-338l86 383h-404z" />
<glyph unicode="&#xb2;" horiz-adv-x="917" d="M199 901l43 184q236 135 383 226q79 47 121 92.5t42 107.5q0 35 -25 57.5t-67 22.5q-59 0 -94 -35.5t-35 -103.5q0 -14 4 -43l-264 31q4 172 115.5 267t306.5 95q163 0 256.5 -70.5t93.5 -189.5q0 -125 -94 -219q-109 -106 -319 -209q137 4 329 4q-26 -117 -51 -217h-745 z" />
<glyph unicode="&#xb3;" horiz-adv-x="917" d="M205 1135l252 79q11 -66 47.5 -97.5t89.5 -31.5q55 0 90 23t35 63q0 84 -178 84h-27l41 189q20 -2 66 -2q167 0 167 94q0 30 -27 49t-75 19q-107 0 -141 -113l-238 88q122 223 400 223q168 0 263 -63t95 -176q0 -82 -51.5 -138.5t-143.5 -76.5q65 -22 103.5 -71 t38.5 -112q0 -132 -112.5 -209t-295.5 -77q-331 0 -399 256z" />
<glyph unicode="&#xb4;" horiz-adv-x="555" d="M-37 1180l232 315h399l-367 -315h-264z" />
<glyph unicode="&#xb5;" horiz-adv-x="1200" d="M-66 -377l314 1413h377l-115 -518q-18 -80 -18 -123q0 -47 25 -73.5t71 -26.5q74 0 127 72q20 29 34 69t31 119l107 481h377l-230 -1036h-352l37 162q-39 -92 -89.5 -133t-119.5 -41q-100 0 -123 88l-98 -453h-355z" />
<glyph unicode="&#xb6;" horiz-adv-x="1214" d="M205 975q0 99 36.5 187.5t104.5 150.5q84 76 190.5 104.5t278.5 28.5h592l-33 -150h-114l-355 -1593h-160l355 1593h-299l-355 -1593h-157l203 913q-138 39 -212.5 134.5t-74.5 224.5z" />
<glyph unicode="&#xb7;" horiz-adv-x="544" d="M98 399l84 385h367l-84 -385h-367z" />
<glyph unicode="&#xb8;" horiz-adv-x="555" d="M25 -410l104 105q48 -62 117 -62q50 0 77 23t27 59q0 33 -23 53.5t-63 20.5q-48 0 -88 -22l-43 69l158 176h174l-103 -116q77 -11 122.5 -58.5t45.5 -122.5q0 -96 -79.5 -158.5t-204.5 -62.5q-134 0 -221 96z" />
<glyph unicode="&#xb9;" horiz-adv-x="917" d="M389 1444l51 219q192 0 256 129h248l-199 -891h-280l127 569q-68 -26 -203 -26z" />
<glyph unicode="&#xba;" horiz-adv-x="1038" d="M211 965q0 225 137 364t359 139q192 0 296.5 -104t104.5 -293q0 -225 -131 -362.5t-350 -137.5q-196 0 -306 104t-110 290zM506 975q0 -79 33.5 -122.5t93.5 -43.5q76 0 123 72.5t47 199.5q0 73 -31.5 109.5t-85.5 36.5q-78 0 -129 -69t-51 -183z" />
<glyph unicode="&#xbb;" horiz-adv-x="1146" d="M61 258l275 311l-148 342l234 138l237 -484l-423 -473zM528 258l275 311l-148 342l232 138l237 -484l-422 -473z" />
<glyph unicode="&#xbc;" horiz-adv-x="2074" d="M270 1075l52 219q192 0 256 129h247l-198 -891h-281l127 570q-70 -27 -203 -27zM444 0l906 1411h254l-908 -1411h-252zM1051 168l45 188l483 523h330l-117 -525h119l-43 -186h-119l-37 -168h-270l37 168h-428zM1350 354h170q49 200 71 283q-87 -105 -241 -283z" />
<glyph unicode="&#xbd;" horiz-adv-x="2074" d="M223 1075l51 219q192 0 256 129h248l-198 -891h-281l127 570q-70 -27 -203 -27zM408 0l905 1411h254l-908 -1411h-251zM1092 0l43 184q236 135 383 226q79 47 121 92.5t42 107.5q0 35 -25 57.5t-67 22.5q-59 0 -94 -35.5t-35 -103.5q0 -14 4 -43l-264 31q4 172 115.5 267 t306.5 95q163 0 256.5 -70.5t93.5 -189.5q0 -125 -94 -219q-109 -106 -319 -209q137 4 329 4q-26 -117 -51 -217h-745z" />
<glyph unicode="&#xbe;" horiz-adv-x="2074" d="M131 766l252 80q11 -66 47.5 -97.5t89.5 -31.5q55 0 90 23t35 63q0 84 -178 84h-27l41 188q20 -2 66 -2q168 0 168 94q0 30 -27.5 49t-75.5 19q-107 0 -141 -113l-238 88q122 224 400 224q168 0 263 -63t95 -177q0 -83 -51 -139t-143 -76q65 -22 103 -70.5t38 -111.5 q0 -132 -113 -209.5t-295 -77.5q-331 0 -399 256zM584 0l905 1411h254l-907 -1411h-252zM1169 168l45 188l484 523h330l-117 -525h119l-43 -186h-119l-37 -168h-270l36 168h-428zM1468 354h170q38 153 72 283q-67 -81 -242 -283z" />
<glyph unicode="&#xbf;" horiz-adv-x="1187" d="M43 326q0 121 65 213t240 204q42 28 62 41.5t48 36t40.5 40t23.5 42t15 53.5h346q-18 -125 -66 -197t-176 -155q-94 -62 -136 -114t-42 -109q0 -107 133 -107q165 0 172 238l369 -92q-69 -459 -609 -459q-223 0 -354 97.5t-131 267.5zM547 1067l84 379h366l-84 -379h-366 z" />
<glyph unicode="&#xc0;" horiz-adv-x="1517" d="M-80 0l811 1446h504l205 -1446h-441l-24 248h-467l-127 -248h-461zM639 1847h399l138 -288h-269zM647 551h309q-34 432 -41 543q-111 -236 -268 -543z" />
<glyph unicode="&#xc1;" horiz-adv-x="1517" d="M-80 0l811 1446h504l205 -1446h-441l-24 248h-467l-127 -248h-461zM647 551h309q-34 432 -41 543q-111 -236 -268 -543zM805 1559l227 288h406l-361 -288h-272z" />
<glyph unicode="&#xc2;" horiz-adv-x="1517" d="M-80 0l811 1446h504l205 -1446h-441l-24 248h-467l-127 -248h-461zM592 1559l254 288h393l133 -288h-289l-59 135l-117 -135h-315zM647 551h309q-34 432 -41 543q-111 -236 -268 -543z" />
<glyph unicode="&#xc3;" horiz-adv-x="1517" d="M-80 0l811 1446h504l205 -1446h-441l-24 248h-467l-127 -248h-461zM567 1649q76 109 141 159t150 50q43 0 107 -27l75 -29q52 -22 88 -22q86 0 138 86l178 -113q-65 -103 -130 -156t-145 -53q-51 0 -125 31l-69 29q-46 18 -86 18q-92 0 -144 -88zM647 551h309 q-34 432 -41 543q-111 -236 -268 -543z" />
<glyph unicode="&#xc4;" horiz-adv-x="1517" d="M-80 0l811 1446h504l205 -1446h-441l-24 248h-467l-127 -248h-461zM565 1559l62 278h323l-61 -278h-324zM647 551h309q-34 432 -41 543q-111 -236 -268 -543zM1081 1559l62 278h323l-61 -278h-324z" />
<glyph unicode="&#xc5;" horiz-adv-x="1517" d="M-80 0l811 1446h504l205 -1446h-441l-24 248h-467l-127 -248h-461zM647 551h309q-34 432 -41 543q-111 -236 -268 -543zM768 1698q0 104 69.5 171.5t176.5 67.5q100 0 158.5 -55.5t58.5 -150.5q0 -103 -70.5 -170.5t-177.5 -67.5q-98 0 -156.5 55.5t-58.5 149.5z M903 1706q0 -41 24.5 -65.5t63.5 -24.5q47 0 76 31t29 79q0 40 -24.5 64.5t-65.5 24.5q-45 0 -74 -32t-29 -77z" />
<glyph unicode="&#xc6;" horiz-adv-x="2183" d="M-80 0l1057 1446h1337l-73 -328h-625l-47 -215h592l-74 -325h-590l-57 -250h690l-72 -328h-1108l56 250h-420l-174 -250h-492zM786 553h287l144 631q-228 -340 -431 -631z" />
<glyph unicode="&#xc7;" horiz-adv-x="1454" d="M133 616q0 186 61 351t173 280q112 113 260.5 175.5t324.5 62.5q254 0 406 -121q121 -97 178 -248l-389 -170q-44 178 -211 178q-153 0 -250 -127q-53 -67 -85 -165t-32 -201q0 -153 69.5 -231t188.5 -78q177 0 258 188l365 -186q-194 -333 -588 -359l-63 -76 q80 -11 129 -60.5t49 -127.5q0 -100 -84 -165.5t-215 -65.5q-147 0 -236 102l113 109q48 -64 121 -64q53 0 81.5 22.5t28.5 61.5q0 35 -24 56.5t-66 21.5q-49 0 -92 -25l-47 72l129 141q-257 31 -405 201.5t-148 447.5z" />
<glyph unicode="&#xc8;" horiz-adv-x="1282" d="M20 0l320 1446h1073l-67 -328h-658l-49 -215h623l-72 -328h-623l-55 -247h717l-70 -328h-1139zM514 1847h399l138 -288h-269z" />
<glyph unicode="&#xc9;" horiz-adv-x="1282" d="M20 0l320 1446h1073l-67 -328h-658l-49 -215h623l-72 -328h-623l-55 -247h717l-70 -328h-1139zM664 1559l227 288h405l-360 -288h-272z" />
<glyph unicode="&#xca;" horiz-adv-x="1282" d="M20 0l320 1446h1073l-67 -328h-658l-49 -215h623l-72 -328h-623l-55 -247h717l-70 -328h-1139zM485 1559l254 288h394l133 -288h-289l-59 135l-117 -135h-316z" />
<glyph unicode="&#xcb;" horiz-adv-x="1282" d="M20 0l320 1446h1073l-67 -328h-658l-49 -215h623l-72 -328h-623l-55 -247h717l-70 -328h-1139zM461 1559l61 278h324l-62 -278h-323zM977 1559l61 278h324l-62 -278h-323z" />
<glyph unicode="&#xcc;" horiz-adv-x="630" d="M20 0l320 1446h428l-319 -1446h-429zM207 1847h399l137 -288h-268z" />
<glyph unicode="&#xcd;" horiz-adv-x="630" d="M20 0l320 1446h428l-319 -1446h-429zM381 1559l227 288h406l-361 -288h-272z" />
<glyph unicode="&#xce;" horiz-adv-x="630" d="M20 0l320 1446h428l-319 -1446h-429zM162 1559l254 288h393l133 -288h-289l-59 135l-117 -135h-315z" />
<glyph unicode="&#xcf;" horiz-adv-x="630" d="M20 0l320 1446h428l-319 -1446h-429zM150 1559l61 278h324l-62 -278h-323zM666 1559l61 278h324l-62 -278h-323z" />
<glyph unicode="&#xd0;" horiz-adv-x="1472" d="M20 0l134 602h-119l61 279h119l125 565h483q308 0 453 -86q103 -63 162 -183t59 -280q0 -165 -47 -327.5t-135 -284.5q-136 -187 -357 -250q-82 -22 -176.5 -28.5t-281.5 -6.5h-480zM514 340h102q142 2 221.5 31.5t135.5 122.5q90 153 90 356q0 156 -82 215 q-64 43 -190 43h-105l-51 -227h297l-62 -279h-299z" />
<glyph unicode="&#xd1;" horiz-adv-x="1538" d="M20 0l320 1446h483q143 -477 256 -928q43 242 193 928h403l-321 -1446h-486q-44 154 -129 441t-129 452q-68 -362 -186 -893h-404zM588 1649q76 109 141 159t150 50q42 0 106 -27l76 -29q52 -22 88 -22q85 0 137 86l178 -113q-65 -103 -129.5 -156t-144.5 -53 q-51 0 -125 31l-70 29q-47 18 -86 18q-91 0 -143 -88z" />
<glyph unicode="&#xd2;" horiz-adv-x="1609" d="M135 608q0 180 55 339t154 274q109 127 263.5 195.5t342.5 68.5q316 0 498 -169.5t182 -471.5q0 -181 -59.5 -352t-169.5 -293q-212 -238 -584 -238q-312 0 -497 169.5t-185 477.5zM571 621q0 -143 67.5 -221t199.5 -78q166 0 262 149q94 147 94 356q0 146 -65 221.5 t-181 75.5q-168 0 -270 -139q-48 -70 -77.5 -165t-29.5 -199zM618 1847h400l137 -288h-268z" />
<glyph unicode="&#xd3;" horiz-adv-x="1609" d="M135 608q0 180 55 339t154 274q109 127 263.5 195.5t342.5 68.5q316 0 498 -169.5t182 -471.5q0 -181 -59.5 -352t-169.5 -293q-212 -238 -584 -238q-312 0 -497 169.5t-185 477.5zM571 621q0 -143 67.5 -221t199.5 -78q166 0 262 149q94 147 94 356q0 146 -65 221.5 t-181 75.5q-168 0 -270 -139q-48 -70 -77.5 -165t-29.5 -199zM756 1559l227 288h406l-361 -288h-272z" />
<glyph unicode="&#xd4;" horiz-adv-x="1609" d="M135 608q0 180 55 339t154 274q109 127 263.5 195.5t342.5 68.5q316 0 498 -169.5t182 -471.5q0 -181 -59.5 -352t-169.5 -293q-212 -238 -584 -238q-312 0 -497 169.5t-185 477.5zM571 621q0 -143 67.5 -221t199.5 -78q166 0 262 149q94 147 94 356q0 146 -65 221.5 t-181 75.5q-168 0 -270 -139q-48 -70 -77.5 -165t-29.5 -199zM586 1559l254 288h393l133 -288h-289l-59 135l-117 -135h-315z" />
<glyph unicode="&#xd5;" horiz-adv-x="1609" d="M135 608q0 180 55 339t154 274q109 127 263.5 195.5t342.5 68.5q316 0 498 -169.5t182 -471.5q0 -181 -59.5 -352t-169.5 -293q-212 -238 -584 -238q-312 0 -497 169.5t-185 477.5zM551 1649q76 109 141 159t150 50q42 0 106 -27l76 -29q52 -22 88 -22q85 0 137 86 l178 -113q-65 -103 -129.5 -156t-144.5 -53q-51 0 -125 31l-70 29q-47 18 -86 18q-91 0 -143 -88zM571 621q0 -143 67.5 -221t199.5 -78q166 0 262 149q94 147 94 356q0 146 -65 221.5t-181 75.5q-168 0 -270 -139q-48 -70 -77.5 -165t-29.5 -199z" />
<glyph unicode="&#xd6;" horiz-adv-x="1609" d="M135 608q0 180 55 339t154 274q109 127 263.5 195.5t342.5 68.5q316 0 498 -169.5t182 -471.5q0 -181 -59.5 -352t-169.5 -293q-212 -238 -584 -238q-312 0 -497 169.5t-185 477.5zM557 1559l61 278h324l-61 -278h-324zM571 621q0 -143 67.5 -221t199.5 -78 q166 0 262 149q94 147 94 356q0 146 -65 221.5t-181 75.5q-168 0 -270 -139q-48 -70 -77.5 -165t-29.5 -199zM1073 1559l62 278h323l-61 -278h-324z" />
<glyph unicode="&#xd7;" horiz-adv-x="1566" d="M270 346l346 303l-268 309l248 220l270 -308l348 308l209 -238l-350 -307l268 -305l-249 -219l-267 305l-346 -305z" />
<glyph unicode="&#xd8;" horiz-adv-x="1609" d="M-10 94l217 187q-72 138 -72 327q0 180 55 339t154 274q109 127 263.5 195.5t342.5 68.5q305 0 490 -162l215 182l123 -147l-222 -187q74 -145 74 -327q0 -181 -59.5 -352t-169.5 -293q-212 -238 -584 -238q-312 0 -495 168l-211 -178zM563 623q0 -25 2 -41l565 477 q-65 71 -180 71q-175 0 -276 -141q-111 -159 -111 -366zM633 391q70 -76 205 -76q169 0 268 152q96 153 96 362q0 25 -2 41z" />
<glyph unicode="&#xd9;" horiz-adv-x="1470" d="M131 410q0 105 45 301l162 735h424l-172 -778q-33 -147 -33 -201q0 -75 48 -114.5t128 -39.5q149 0 203 105q34 70 65 221l179 807h428l-197 -883q-57 -258 -154 -385q-163 -217 -559 -217q-276 0 -421.5 115t-145.5 334zM608 1847h400l137 -288h-268z" />
<glyph unicode="&#xda;" horiz-adv-x="1470" d="M131 410q0 105 45 301l162 735h424l-172 -778q-33 -147 -33 -201q0 -75 48 -114.5t128 -39.5q149 0 203 105q34 70 65 221l179 807h428l-197 -883q-57 -258 -154 -385q-163 -217 -559 -217q-276 0 -421.5 115t-145.5 334zM782 1559l228 288h405l-360 -288h-273z" />
<glyph unicode="&#xdb;" horiz-adv-x="1470" d="M131 410q0 105 45 301l162 735h424l-172 -778q-33 -147 -33 -201q0 -75 48 -114.5t128 -39.5q149 0 203 105q34 70 65 221l179 807h428l-197 -883q-57 -258 -154 -385q-163 -217 -559 -217q-276 0 -421.5 115t-145.5 334zM573 1559l254 288h394l133 -288h-289l-59 135 l-117 -135h-316z" />
<glyph unicode="&#xdc;" horiz-adv-x="1470" d="M131 410q0 105 45 301l162 735h424l-172 -778q-33 -147 -33 -201q0 -75 48 -114.5t128 -39.5q149 0 203 105q34 70 65 221l179 807h428l-197 -883q-57 -258 -154 -385q-163 -217 -559 -217q-276 0 -421.5 115t-145.5 334zM555 1559l61 278h324l-61 -278h-324zM1071 1559 l62 278h323l-61 -278h-324z" />
<glyph unicode="&#xdd;" horiz-adv-x="1458" d="M236 1446h458q104 -317 170 -537q252 370 373 537h469l-705 -905l-118 -541h-424l129 586zM795 1559l227 288h405l-360 -288h-272z" />
<glyph unicode="&#xde;" horiz-adv-x="1417" d="M20 0l320 1446h422l-43 -195h164q300 0 424 -80q76 -49 121 -132t45 -185q0 -155 -60.5 -285t-173.5 -202q-160 -101 -494 -101h-243l-60 -266h-422zM571 588h152q157 0 215 26q47 19 72.5 67t25.5 101q0 83 -59 115q-46 27 -184 27h-146z" />
<glyph unicode="&#xdf;" horiz-adv-x="1247" d="M12 0l205 924q54 240 123 342q146 215 485 215q214 0 333.5 -89t119.5 -245q0 -289 -303 -363q132 -27 194 -103t62 -204q0 -224 -144 -360.5t-376 -136.5q-121 0 -209 26l57 277q56 -23 105 -23q194 0 194 203q0 167 -217 170l51 254h23q95 0 149 48.5t54 139.5 q0 59 -31.5 92t-89.5 33q-76 0 -119 -53t-70 -174l-217 -973h-379z" />
<glyph unicode="&#xe0;" horiz-adv-x="1163" d="M33 268q0 101 47 171.5t141 121.5q141 73 533 96q8 39 8 70q0 37 -27 59.5t-80 22.5q-114 0 -137 -115l-354 39q46 170 175.5 253t356.5 83q437 0 437 -301q0 -59 -21 -158q-2 -10 -16.5 -73t-21 -94t-19 -92.5t-18.5 -101.5t-11.5 -86.5t-5.5 -78.5q0 -43 10 -84h-375 q-2 20 -2 47q0 41 6 74q-69 -76 -142.5 -107.5t-174.5 -31.5q-141 0 -225 77t-84 209zM354 1495h383l127 -315h-250zM403 315q0 -36 25.5 -59t67.5 -23q75 0 130 49.5t72 133.5l9 35q-167 -10 -235.5 -41.5t-68.5 -94.5z" />
<glyph unicode="&#xe1;" horiz-adv-x="1163" d="M33 268q0 101 47 171.5t141 121.5q141 73 533 96q8 39 8 70q0 37 -27 59.5t-80 22.5q-114 0 -137 -115l-354 39q46 170 175.5 253t356.5 83q437 0 437 -301q0 -59 -21 -158q-2 -10 -16.5 -73t-21 -94t-19 -92.5t-18.5 -101.5t-11.5 -86.5t-5.5 -78.5q0 -43 10 -84h-375 q-2 20 -2 47q0 41 6 74q-69 -76 -142.5 -107.5t-174.5 -31.5q-141 0 -225 77t-84 209zM403 315q0 -36 25.5 -59t67.5 -23q75 0 130 49.5t72 133.5l9 35q-167 -10 -235.5 -41.5t-68.5 -94.5zM526 1180l232 315h399l-366 -315h-265z" />
<glyph unicode="&#xe2;" horiz-adv-x="1163" d="M33 268q0 101 47 171.5t141 121.5q141 73 533 96q8 39 8 70q0 37 -27 59.5t-80 22.5q-114 0 -137 -115l-354 39q46 170 175.5 253t356.5 83q437 0 437 -301q0 -59 -21 -158q-2 -10 -16.5 -73t-21 -94t-19 -92.5t-18.5 -101.5t-11.5 -86.5t-5.5 -78.5q0 -43 10 -84h-375 q-2 20 -2 47q0 41 6 74q-69 -76 -142.5 -107.5t-174.5 -31.5q-141 0 -225 77t-84 209zM358 1180l256 315h328l123 -315h-274l-39 153l-103 -153h-291zM403 315q0 -36 25.5 -59t67.5 -23q75 0 130 49.5t72 133.5l9 35q-167 -10 -235.5 -41.5t-68.5 -94.5z" />
<glyph unicode="&#xe3;" horiz-adv-x="1163" d="M33 268q0 101 47 171.5t141 121.5q141 73 533 96q8 39 8 70q0 37 -27 59.5t-80 22.5q-114 0 -137 -115l-354 39q46 170 175.5 253t356.5 83q437 0 437 -301q0 -59 -21 -158q-2 -10 -16.5 -73t-21 -94t-19 -92.5t-18.5 -101.5t-11.5 -86.5t-5.5 -78.5q0 -43 10 -84h-375 q-2 20 -2 47q0 41 6 74q-69 -76 -142.5 -107.5t-174.5 -31.5q-141 0 -225 77t-84 209zM307 1270q73 110 134 159.5t141 49.5q40 0 104 -27l70 -29q49 -22 82 -22q39 0 68 20t57 66l172 -111q-63 -103 -123.5 -155t-134.5 -52q-47 0 -119 29l-68 29q-52 20 -82 20 q-81 0 -131 -90zM403 315q0 -36 25.5 -59t67.5 -23q75 0 130 49.5t72 133.5l9 35q-167 -10 -235.5 -41.5t-68.5 -94.5z" />
<glyph unicode="&#xe4;" horiz-adv-x="1163" d="M33 268q0 101 47 171.5t141 121.5q141 73 533 96q8 39 8 70q0 37 -27 59.5t-80 22.5q-114 0 -137 -115l-354 39q46 170 175.5 253t356.5 83q437 0 437 -301q0 -59 -21 -158q-2 -10 -16.5 -73t-21 -94t-19 -92.5t-18.5 -101.5t-11.5 -86.5t-5.5 -78.5q0 -43 10 -84h-375 q-2 20 -2 47q0 41 6 74q-69 -76 -142.5 -107.5t-174.5 -31.5q-141 0 -225 77t-84 209zM324 1192l61 278h309l-63 -278h-307zM403 315q0 -36 25.5 -59t67.5 -23q75 0 130 49.5t72 133.5l9 35q-167 -10 -235.5 -41.5t-68.5 -94.5zM793 1192l61 278h311l-61 -278h-311z" />
<glyph unicode="&#xe5;" horiz-adv-x="1163" d="M33 268q0 101 47 171.5t141 121.5q141 73 533 96q8 39 8 70q0 37 -27 59.5t-80 22.5q-114 0 -137 -115l-354 39q46 170 175.5 253t356.5 83q437 0 437 -301q0 -59 -21 -158q-2 -10 -16.5 -73t-21 -94t-19 -92.5t-18.5 -101.5t-11.5 -86.5t-5.5 -78.5q0 -43 10 -84h-375 q-2 20 -2 47q0 41 6 74q-69 -76 -142.5 -107.5t-174.5 -31.5q-141 0 -225 77t-84 209zM403 315q0 -36 25.5 -59t67.5 -23q75 0 130 49.5t72 133.5l9 35q-167 -10 -235.5 -41.5t-68.5 -94.5zM510 1364q0 101 67 166t171 65q98 0 155.5 -54t57.5 -146q0 -100 -68 -165 t-172 -65q-97 0 -154 54t-57 145zM639 1372q0 -39 24.5 -63.5t63.5 -24.5q44 0 73 30.5t29 76.5q0 40 -24.5 63t-65.5 23q-43 0 -71.5 -30.5t-28.5 -74.5z" />
<glyph unicode="&#xe6;" horiz-adv-x="1777" d="M33 266q0 231 229 314q151 58 492 75q8 39 8 74q0 37 -26.5 58.5t-80.5 21.5q-58 0 -91 -26.5t-46 -88.5l-354 39q46 170 175.5 253t356.5 83q211 0 303 -106q129 108 312 108q224 0 347.5 -132t123.5 -359q0 -58 -13 -142h-696q0 -184 162 -184q120 0 178 127l307 -168 q-182 -246 -510 -246q-135 0 -239 48t-156 135q-80 -91 -179 -135t-255 -44q-153 0 -250.5 80.5t-97.5 214.5zM403 311q0 -36 25.5 -59t67.5 -23q84 0 141 60q45 45 61 125l9 35q-172 -13 -240 -46q-64 -27 -64 -92zM1106 653h319q0 72 -35 113t-100 41q-71 0 -118 -40.5 t-66 -113.5z" />
<glyph unicode="&#xe7;" horiz-adv-x="1097" d="M86 446q0 280 168 452.5t440 172.5q332 0 447 -291l-342 -135q-12 71 -42 102t-83 31q-93 0 -149 -95t-56 -234q0 -91 38 -139t105 -48q107 0 162 131l313 -160q-75 -115 -175.5 -181.5t-245.5 -80.5l-64 -75q75 -11 120.5 -58.5t45.5 -122.5q0 -96 -79.5 -158.5 t-203.5 -62.5q-136 0 -223 96l105 105q48 -62 116 -62q50 0 77.5 23t27.5 59q0 33 -23 53.5t-63 20.5q-45 0 -88 -22l-43 69l121 137q-184 25 -295 149t-111 324z" />
<glyph unicode="&#xe8;" horiz-adv-x="1159" d="M84 457q0 270 170.5 442t437.5 172q225 0 348 -131.5t123 -359.5q0 -64 -12 -142h-696q0 -184 161 -184q52 0 100.5 31.5t78.5 97.5l305 -168q-181 -250 -510 -250q-230 0 -368 133t-138 359zM352 1495h383l127 -315h-250zM487 655h320q0 69 -35 110.5t-100 41.5 q-71 0 -118.5 -40t-66.5 -112z" />
<glyph unicode="&#xe9;" horiz-adv-x="1159" d="M84 457q0 270 170.5 442t437.5 172q225 0 348 -131.5t123 -359.5q0 -64 -12 -142h-696q0 -184 161 -184q52 0 100.5 31.5t78.5 97.5l305 -168q-181 -250 -510 -250q-230 0 -368 133t-138 359zM487 655h320q0 69 -35 110.5t-100 41.5q-71 0 -118.5 -40t-66.5 -112z M541 1180l231 315h399l-366 -315h-264z" />
<glyph unicode="&#xea;" horiz-adv-x="1159" d="M84 457q0 270 170.5 442t437.5 172q225 0 348 -131.5t123 -359.5q0 -64 -12 -142h-696q0 -184 161 -184q52 0 100.5 31.5t78.5 97.5l305 -168q-181 -250 -510 -250q-230 0 -368 133t-138 359zM338 1180l256 315h328l122 -315h-274l-39 153l-102 -153h-291zM487 655h320 q0 69 -35 110.5t-100 41.5q-71 0 -118.5 -40t-66.5 -112z" />
<glyph unicode="&#xeb;" horiz-adv-x="1159" d="M84 457q0 270 170.5 442t437.5 172q225 0 348 -131.5t123 -359.5q0 -64 -12 -142h-696q0 -184 161 -184q52 0 100.5 31.5t78.5 97.5l305 -168q-181 -250 -510 -250q-230 0 -368 133t-138 359zM309 1192l62 278h309l-64 -278h-307zM487 655h320q0 69 -35 110.5t-100 41.5 q-71 0 -118.5 -40t-66.5 -112zM778 1192l62 278h311l-61 -278h-312z" />
<glyph unicode="&#xec;" horiz-adv-x="565" d="M12 0l230 1036h385l-230 -1036h-385zM96 1495h383l127 -315h-250z" />
<glyph unicode="&#xed;" horiz-adv-x="565" d="M12 0l230 1036h385l-230 -1036h-385zM289 1180l231 315h400l-367 -315h-264z" />
<glyph unicode="&#xee;" horiz-adv-x="565" d="M12 0l230 1036h385l-230 -1036h-385zM90 1180l256 315h328l123 -315h-275l-39 153l-102 -153h-291z" />
<glyph unicode="&#xef;" horiz-adv-x="565" d="M12 0l230 1036h385l-230 -1036h-385zM66 1192l61 278h309l-63 -278h-307zM510 1192l61 278h312l-62 -278h-311z" />
<glyph unicode="&#xf0;" horiz-adv-x="1216" d="M86 461q0 243 151.5 401t385.5 158q80 0 153 -37q-28 84 -78 162l-354 -94l-47 161l315 84q-65 87 -135 152l289 123q100 -87 174 -182l234 63l49 -162l-189 -51q176 -276 176 -614q0 -308 -162.5 -484t-453.5 -176q-237 0 -372.5 132.5t-135.5 363.5zM467 453 q0 -92 41.5 -141.5t112.5 -49.5q97 0 151.5 90t54.5 213q0 197 -143 197q-94 0 -155.5 -88.5t-61.5 -220.5z" />
<glyph unicode="&#xf1;" horiz-adv-x="1210" d="M12 0l230 1036h368l-37 -164q63 86 157.5 133.5t201.5 47.5q131 0 200.5 -66t69.5 -190q0 -78 -35 -224l-127 -573h-385l111 502q20 87 20 131q0 46 -25 70t-71 24q-72 0 -119 -59q-21 -25 -35 -65t-32 -120l-107 -483h-385zM340 1270q73 110 133.5 159.5t140.5 49.5 q41 0 105 -27l69 -29q49 -22 82 -22q39 0 68 20t57 66l172 -111q-63 -103 -123.5 -155t-134.5 -52q-45 0 -118 29l-68 29q-52 20 -82 20q-81 0 -131 -90z" />
<glyph unicode="&#xf2;" horiz-adv-x="1230" d="M86 457q0 129 42.5 241t119.5 193q168 180 461 180q236 0 369.5 -126.5t133.5 -352.5q0 -273 -155 -442q-80 -89 -197 -137t-256 -48q-243 0 -380.5 131t-137.5 361zM360 1495h383l127 -315h-249zM467 455q0 -91 41.5 -142t114.5 -51q89 0 145 86q61 89 61 244 q0 186 -139 186q-95 0 -155 -84q-31 -42 -49.5 -106.5t-18.5 -132.5z" />
<glyph unicode="&#xf3;" horiz-adv-x="1230" d="M86 457q0 129 42.5 241t119.5 193q168 180 461 180q236 0 369.5 -126.5t133.5 -352.5q0 -273 -155 -442q-80 -89 -197 -137t-256 -48q-243 0 -380.5 131t-137.5 361zM467 455q0 -91 41.5 -142t114.5 -51q89 0 145 86q61 89 61 244q0 186 -139 186q-95 0 -155 -84 q-31 -42 -49.5 -106.5t-18.5 -132.5zM555 1180l231 315h400l-367 -315h-264z" />
<glyph unicode="&#xf4;" horiz-adv-x="1230" d="M86 457q0 129 42.5 241t119.5 193q168 180 461 180q236 0 369.5 -126.5t133.5 -352.5q0 -273 -155 -442q-80 -89 -197 -137t-256 -48q-243 0 -380.5 131t-137.5 361zM365 1180l256 315h327l123 -315h-274l-39 153l-103 -153h-290zM467 455q0 -91 41.5 -142t114.5 -51 q89 0 145 86q61 89 61 244q0 186 -139 186q-95 0 -155 -84q-31 -42 -49.5 -106.5t-18.5 -132.5z" />
<glyph unicode="&#xf5;" horiz-adv-x="1230" d="M86 457q0 129 42.5 241t119.5 193q168 180 461 180q236 0 369.5 -126.5t133.5 -352.5q0 -273 -155 -442q-80 -89 -197 -137t-256 -48q-243 0 -380.5 131t-137.5 361zM305 1270q73 110 134 159.5t141 49.5q40 0 104 -27l70 -29q49 -22 82 -22q39 0 68 20t57 66l172 -111 q-63 -103 -124 -155t-135 -52q-46 0 -118 29l-68 29q-52 20 -82 20q-81 0 -131 -90zM467 455q0 -91 41.5 -142t114.5 -51q89 0 145 86q61 89 61 244q0 186 -139 186q-95 0 -155 -84q-31 -42 -49.5 -106.5t-18.5 -132.5z" />
<glyph unicode="&#xf6;" horiz-adv-x="1230" d="M86 457q0 129 42.5 241t119.5 193q168 180 461 180q236 0 369.5 -126.5t133.5 -352.5q0 -273 -155 -442q-80 -89 -197 -137t-256 -48q-243 0 -380.5 131t-137.5 361zM324 1192l61 278h309l-63 -278h-307zM467 455q0 -91 41.5 -142t114.5 -51q89 0 145 86q61 89 61 244 q0 186 -139 186q-95 0 -155 -84q-31 -42 -49.5 -106.5t-18.5 -132.5zM793 1192l61 278h311l-61 -278h-311z" />
<glyph unicode="&#xf7;" horiz-adv-x="1566" d="M242 469l73 326h1141l-74 -326h-1140zM547 33l78 338h329l-75 -338h-332zM745 895l78 336h330l-76 -336h-332z" />
<glyph unicode="&#xf8;" horiz-adv-x="1230" d="M-43 49l184 154q-55 104 -55 254q0 128 42.5 239.5t119.5 192.5q168 180 459 180q219 0 352 -111l178 150l96 -119l-178 -147q55 -104 55 -250q0 -272 -153 -442q-79 -89 -196.5 -136t-258.5 -47q-230 0 -366 115l-185 -152zM459 463l338 280q-39 45 -107 45 q-98 0 -164 -88q-64 -96 -67 -237zM502 301q40 -49 119 -49q78 0 135 63q75 90 82 267z" />
<glyph unicode="&#xf9;" horiz-adv-x="1208" d="M76 240q0 66 35 221l127 575h385l-111 -504q-20 -87 -20 -131q0 -46 25 -70t71 -24q70 0 121 60q19 25 33 65t32 119l107 485h385l-230 -1036h-368l37 162q-63 -86 -157 -133t-202 -47q-130 0 -200 66.5t-70 191.5zM403 1495h383l127 -315h-249z" />
<glyph unicode="&#xfa;" horiz-adv-x="1208" d="M76 240q0 66 35 221l127 575h385l-111 -504q-20 -87 -20 -131q0 -46 25 -70t71 -24q70 0 121 60q19 25 33 65t32 119l107 485h385l-230 -1036h-368l37 162q-63 -86 -157 -133t-202 -47q-130 0 -200 66.5t-70 191.5zM608 1180l232 315h399l-367 -315h-264z" />
<glyph unicode="&#xfb;" horiz-adv-x="1208" d="M76 240q0 66 35 221l127 575h385l-111 -504q-20 -87 -20 -131q0 -46 25 -70t71 -24q70 0 121 60q19 25 33 65t32 119l107 485h385l-230 -1036h-368l37 162q-63 -86 -157 -133t-202 -47q-130 0 -200 66.5t-70 191.5zM410 1180l256 315h327l123 -315h-274l-39 153 l-103 -153h-290z" />
<glyph unicode="&#xfc;" horiz-adv-x="1208" d="M76 240q0 66 35 221l127 575h385l-111 -504q-20 -87 -20 -131q0 -46 25 -70t71 -24q70 0 121 60q19 25 33 65t32 119l107 485h385l-230 -1036h-368l37 162q-63 -86 -157 -133t-202 -47q-130 0 -200 66.5t-70 191.5zM381 1192l61 278h310l-64 -278h-307zM850 1192l61 278 h312l-62 -278h-311z" />
<glyph unicode="&#xfd;" horiz-adv-x="1105" d="M-49 -391l57 289q61 -23 115 -23q66 0 102.5 18.5t63.5 81.5l8 19l-141 1042h391q4 -107 13 -347.5t11 -354.5q29 79 281 702h401l-481 -960q-79 -156 -140 -248t-132.5 -149.5t-147.5 -77t-188 -19.5q-124 0 -213 27zM555 1180l231 315h400l-367 -315h-264z" />
<glyph unicode="&#xfe;" horiz-adv-x="1241" d="M-74 -389l406 1837h385l-121 -518q120 129 295 129q162 0 252 -109.5t90 -314.5q0 -101 -20 -196t-62 -179.5t-102 -147.5t-145 -100t-185 -37q-209 0 -295 152l-115 -516h-383zM496 444q0 -81 36.5 -126.5t98.5 -45.5q94 0 148.5 92t54.5 234q0 85 -32 130.5t-95 45.5 q-91 0 -151 -93t-60 -237z" />
<glyph unicode="&#xff;" horiz-adv-x="1105" d="M-49 -391l57 289q61 -23 115 -23q66 0 102.5 18.5t63.5 81.5l8 19l-141 1042h391q4 -107 13 -347.5t11 -354.5q29 79 281 702h401l-481 -960q-79 -156 -140 -248t-132.5 -149.5t-147.5 -77t-188 -19.5q-124 0 -213 27zM315 1192l62 278h309l-63 -278h-308zM784 1192 l62 278h311l-61 -278h-312z" />
<glyph unicode="&#x152;" horiz-adv-x="2281" d="M133 608q0 174 53 330.5t150 276.5t244 191t323 71q296 0 406 -185l34 154h1070l-70 -328h-647l-47 -215h610l-72 -328h-610l-55 -247h706l-71 -328h-1113l37 133q-81 -89 -172.5 -126.5t-224.5 -37.5q-251 0 -401 170t-150 469zM571 629q0 -152 68 -227.5t188 -75.5 q90 0 161 40t115 108.5t66.5 156.5t22.5 188q0 148 -63 224.5t-185 76.5q-164 0 -268.5 -138.5t-104.5 -352.5z" />
<glyph unicode="&#x153;" horiz-adv-x="1878" d="M86 457q0 129 42.5 241t119.5 193q168 180 454 180q229 0 342 -139q145 139 367 139q225 0 348 -131.5t123 -359.5q0 -64 -12 -142h-696q0 -184 161 -184q119 0 178 129l308 -170q-183 -248 -502 -248q-226 0 -350 141q-135 -141 -365 -141q-243 0 -380.5 131t-137.5 361 zM467 455q0 -91 41.5 -142t114.5 -51q89 0 145 86q61 89 61 244q0 186 -139 186q-95 0 -155 -84q-31 -42 -49.5 -106.5t-18.5 -132.5zM1206 655h320q0 69 -36 110.5t-99 41.5q-71 0 -118.5 -40t-66.5 -112z" />
<glyph unicode="&#x178;" horiz-adv-x="1458" d="M236 1446h458q104 -317 170 -537q252 370 373 537h469l-705 -905l-118 -541h-424l129 586zM539 1559l61 278h324l-62 -278h-323zM1055 1559l61 278h324l-62 -278h-323z" />
<glyph unicode="&#x2c6;" horiz-adv-x="555" d="M-76 1180l256 315h328l123 -315h-275l-39 153l-102 -153h-291z" />
<glyph unicode="&#x2dc;" horiz-adv-x="555" d="M-135 1270q73 110 133.5 159.5t140.5 49.5q41 0 105 -27l69 -29q49 -22 82 -22q39 0 68 20t57 66l172 -111q-63 -103 -123.5 -155t-134.5 -52q-46 0 -119 29l-67 29q-52 20 -82 20q-81 0 -131 -90z" />
<glyph unicode="&#x2000;" horiz-adv-x="968" />
<glyph unicode="&#x2001;" horiz-adv-x="1937" />
<glyph unicode="&#x2002;" horiz-adv-x="968" />
<glyph unicode="&#x2003;" horiz-adv-x="1937" />
<glyph unicode="&#x2004;" horiz-adv-x="645" />
<glyph unicode="&#x2005;" horiz-adv-x="484" />
<glyph unicode="&#x2006;" horiz-adv-x="322" />
<glyph unicode="&#x2007;" horiz-adv-x="322" />
<glyph unicode="&#x2008;" horiz-adv-x="242" />
<glyph unicode="&#x2009;" horiz-adv-x="387" />
<glyph unicode="&#x200a;" horiz-adv-x="107" />
<glyph unicode="&#x2010;" horiz-adv-x="802" d="M106 502l66 284h647l-65 -284h-648z" />
<glyph unicode="&#x2011;" horiz-adv-x="802" d="M106 502l66 284h647l-65 -284h-648z" />
<glyph unicode="&#x2012;" horiz-adv-x="802" d="M106 502l66 284h647l-65 -284h-648z" />
<glyph unicode="&#x2013;" horiz-adv-x="1257" d="M106 502l66 284h1102l-64 -284h-1104z" />
<glyph unicode="&#x2014;" horiz-adv-x="1564" d="M106 502l66 284h1409l-63 -284h-1412z" />
<glyph unicode="&#x2018;" horiz-adv-x="542" d="M172 727l80 360q29 133 85.5 219t186.5 181l150 -144q-72 -55 -104 -103t-56 -136h113l-84 -377h-371z" />
<glyph unicode="&#x2019;" horiz-adv-x="542" d="M188 829q71 54 104 103t56 135h-110l84 379h368l-80 -361q-30 -133 -85 -219t-185 -178z" />
<glyph unicode="&#x201a;" horiz-adv-x="542" d="M-43 -238q72 54 105.5 103t56.5 135h-113l84 379h371l-80 -361q-29 -134 -84.5 -219.5t-185.5 -179.5z" />
<glyph unicode="&#x201c;" horiz-adv-x="1030" d="M172 727l80 360q29 133 85.5 219t186.5 181l150 -144q-72 -55 -104 -103t-56 -136h113l-84 -377h-371zM659 727l80 360q31 136 86 221t185 179l151 -144q-74 -56 -106 -104t-54 -135h111l-84 -377h-369z" />
<glyph unicode="&#x201d;" horiz-adv-x="1030" d="M188 829q71 54 104 103t56 135h-110l84 379h368l-80 -361q-30 -134 -84.5 -219.5t-185.5 -177.5zM676 829q71 52 104.5 102.5t55.5 135.5h-111l84 379h369l-80 -361q-29 -134 -85 -219.5t-188 -177.5z" />
<glyph unicode="&#x201e;" horiz-adv-x="1030" d="M-43 -238q72 54 105.5 103t56.5 135h-113l84 379h371l-80 -361q-29 -134 -84.5 -219.5t-185.5 -179.5zM444 -238q72 53 105.5 104t54.5 134h-110l84 379h368l-80 -361q-30 -136 -84 -220.5t-186 -178.5z" />
<glyph unicode="&#x2022;" horiz-adv-x="653" d="M49 319l119 545h532l-118 -545h-533z" />
<glyph unicode="&#x2026;" horiz-adv-x="2168" d="M106 0l84 379h359l-82 -379h-361zM829 0l84 379h359l-84 -379h-359zM1552 0l84 379h359l-84 -379h-359z" />
<glyph unicode="&#x202f;" horiz-adv-x="387" />
<glyph unicode="&#x2039;" horiz-adv-x="681" d="M123 578l424 473l174 -166l-277 -312l150 -342l-234 -137z" />
<glyph unicode="&#x203a;" horiz-adv-x="681" d="M61 258l275 311l-148 342l234 138l237 -484l-423 -473z" />
<glyph unicode="&#x205f;" horiz-adv-x="484" />
<glyph unicode="&#x20ac;" horiz-adv-x="1417" d="M129 471l43 184h139q8 74 21 123h-142l43 183h146q83 224 237 346q184 139 480 139q123 0 245.5 -46t204.5 -130l-213 -269q-46 66 -116 103t-148 37q-111 0 -186 -39.5t-123 -140.5h491l-41 -183h-505q-15 -66 -23 -123h500l-39 -184h-463q7 -95 71 -146t175 -51 q84 0 153.5 29t139.5 96l178 -264q-220 -170 -535 -170q-250 0 -395.5 137t-157.5 369h-180z" />
<glyph unicode="&#x2122;" horiz-adv-x="1812" d="M248 1260l41 186h620l-43 -186h-186l-127 -582h-246l129 582h-188zM817 678l168 768h346q0 -149 1 -317.5t1 -184.5q54 138 217 502h355l-168 -768h-230q34 155 127 536q-66 -146 -252 -536h-215q-10 322 -10 539q-54 -274 -113 -539h-227z" />
<glyph unicode="&#x25fc;" horiz-adv-x="1034" d="M0 0v1034h1034v-1034h-1034z" />
</font>
</defs>
</svg>
