<?xml version="1.0" standalone="no"?>
<!DOCTYPE svg PUBLIC "-//W3C//DTD SVG 1.1//EN" "http://www.w3.org/Graphics/SVG/1.1/DTD/svg11.dtd" >
<svg xmlns="http://www.w3.org/2000/svg">
<metadata></metadata>
<defs>
<font id="akzidenz-grotesk_nextMdIt" horiz-adv-x="477" >
<font-face units-per-em="2048" ascent="1536" descent="-512" />
<missing-glyph horiz-adv-x="500" />
<glyph unicode="&#xfb01;" horiz-adv-x="1122" d="M96 0l185 827h-172l41 187h172l26 112q43 177 121 258q86 86 229 86q86 0 162 -26l-51 -193q-41 21 -78 21q-58 0 -91.5 -34.5t-57.5 -133.5l-21 -90h197l-41 -187h-197l-184 -827h-240zM678 0l225 1014h240l-228 -1014h-237zM948 1231l49 215h238l-49 -215h-238z" />
<glyph unicode="&#xfb02;" horiz-adv-x="1122" d="M96 0l185 827h-172l41 187h172l26 112q43 177 121 258q86 86 229 86q86 0 162 -26l-51 -193q-41 21 -78 21q-58 0 -91.5 -34.5t-57.5 -133.5l-21 -90h197l-41 -187h-197l-184 -827h-240zM678 0l319 1446h240l-322 -1446h-237z" />
<glyph horiz-adv-x="0" />
<glyph horiz-adv-x="682" />
<glyph unicode=" " />
<glyph unicode="!" horiz-adv-x="557" d="M113 0l65 297h240l-66 -297h-239zM242 444q66 446 164 1002h282q-205 -761 -280 -1002h-166z" />
<glyph unicode="&#x22;" horiz-adv-x="802" d="M252 825l61 621h242l-217 -621h-86zM639 825l63 621h240l-215 -621h-88z" />
<glyph unicode="#" horiz-adv-x="1374" d="M141 471l35 156h287l51 221h-283l35 156h285l111 442h155l-108 -442h229l109 442h157l-108 -442h268l-35 -156h-270l-53 -221h270l-33 -156h-274l-117 -471h-160l119 471h-229l-117 -471h-156l115 471h-283zM618 627h228l55 221h-229z" />
<glyph unicode="$" horiz-adv-x="1236" d="M49 324l221 116q23 -101 74 -155.5t143 -81.5l95 426q-182 70 -265.5 161t-83.5 226q0 179 135.5 290t360.5 111h27l41 180h147l-41 -192q251 -42 367 -279l-209 -112q-53 152 -201 192l-88 -389q207 -77 290 -165.5t83 -235.5q0 -187 -149.5 -304.5t-383.5 -117.5h-22 l-45 -205h-150l47 213q-139 26 -239.5 109t-153.5 213zM467 1047q0 -62 38 -106t128 -81l82 359q-110 0 -179 -46t-69 -126zM633 193q133 5 204.5 56t71.5 144q0 68 -41.5 109t-146.5 84z" />
<glyph unicode="%" horiz-adv-x="1972" d="M184 844q0 167 80 327q128 259 381 259q303 0 303 -322q0 -98 -32.5 -213t-84.5 -193q-63 -96 -142 -142t-189 -46q-154 0 -235 83t-81 247zM373 831q0 -153 135 -153q101 0 164 115q40 73 63 162.5t23 166.5q0 144 -131 144q-110 0 -174 -119q-33 -58 -56.5 -149.5 t-23.5 -166.5zM526 0l875 1411h176l-877 -1411h-174zM1155 311q0 168 80 328q127 258 381 258q303 0 303 -322q0 -98 -32.5 -212t-84.5 -193q-63 -96 -142.5 -142t-189.5 -46q-154 0 -234.5 82.5t-80.5 246.5zM1343 299q0 -154 136 -154q100 0 163 115q40 73 63.5 163 t23.5 167q0 143 -132 143q-110 0 -174 -119q-33 -58 -56.5 -149t-23.5 -166z" />
<glyph unicode="&#x26;" horiz-adv-x="1335" d="M55 377q0 168 111 282q56 59 130.5 103.5t192.5 91.5q-71 136 -71 256q0 154 109 248t280 94q151 0 240.5 -73t89.5 -199q0 -131 -80.5 -226.5t-270.5 -185.5l168 -330q91 103 148 246l190 -123q-84 -168 -223 -301q29 -41 57 -58.5t72 -17.5q21 0 37 2l-41 -192 q-27 -4 -70 -4q-87 0 -138.5 25t-96.5 94q-180 -129 -400 -129q-198 0 -316 110t-118 287zM307 387q0 -90 59 -147.5t169 -57.5q140 0 245 94l-207 398q-143 -57 -204.5 -123t-61.5 -164zM645 1112q0 -41 12 -78.5t43 -99.5q117 52 166 103.5t49 119.5q0 44 -31 75.5 t-83 31.5q-73 0 -114.5 -39.5t-41.5 -112.5z" />
<glyph unicode="'" horiz-adv-x="415" d="M252 825l61 621h242l-217 -621h-86z" />
<glyph unicode="(" horiz-adv-x="825" d="M174 311q0 372 168 695q188 363 561 579l64 -117q-214 -151 -357 -393q-106 -175 -161.5 -381.5t-55.5 -419.5q0 -183 43 -324.5t135 -266.5l-98 -78q-149 129 -224 309.5t-75 396.5z" />
<glyph unicode=")" horiz-adv-x="825" d="M-63 -279q206 148 354 394q107 176 163 382t56 418q0 184 -43.5 326.5t-136.5 265.5l98 78q150 -128 224.5 -309t74.5 -397q0 -376 -166 -695q-191 -364 -563 -577z" />
<glyph unicode="*" horiz-adv-x="727" d="M215 1221l68 139l198 -100l37 215h154l-56 -222l218 64l24 -139l-233 -56l116 -190l-131 -82l-102 194l-164 -176l-113 97l187 176z" />
<glyph unicode="+" horiz-adv-x="1542" d="M225 516l51 227h453l102 459h236l-102 -459h452l-51 -227h-453l-100 -457h-235l100 457h-453z" />
<glyph unicode="," horiz-adv-x="458" d="M-37 -231q64 53 90.5 99.5t48.5 131.5h-86l66 297h250l-64 -287q-27 -120 -72.5 -195t-134.5 -137z" />
<glyph unicode="-" horiz-adv-x="768" d="M115 522l43 193h592l-43 -193h-592z" />
<glyph unicode="." horiz-adv-x="460" d="M25 0l65 297h242l-66 -297h-241z" />
<glyph unicode="/" horiz-adv-x="915" d="M-154 -365l1049 1919h211l-1051 -1919h-209z" />
<glyph unicode="0" horiz-adv-x="1181" d="M109 498q0 257 96 499q88 218 232.5 331.5t332.5 113.5q211 0 318.5 -132t107.5 -390q0 -299 -111 -558q-82 -192 -218 -293.5t-310 -101.5q-217 0 -332.5 133t-115.5 398zM356 489q0 -144 56.5 -223.5t156.5 -79.5q82 0 143 47t113 152q58 117 90.5 255.5t32.5 270.5 q0 163 -48 237.5t-148 74.5q-202 0 -314 -293q-82 -216 -82 -441z" />
<glyph unicode="1" horiz-adv-x="1181" d="M362 1004l46 210q273 6 356 205h217l-315 -1419h-252l237 1073q-118 -69 -289 -69z" />
<glyph unicode="2" horiz-adv-x="1181" d="M16 0l45 193q43 27 180 111t230.5 145t165.5 116q148 114 230.5 223.5t82.5 225.5q0 96 -58 151.5t-163 55.5q-134 0 -206 -80t-72 -215q0 -37 4 -72l-248 35q0 36 4 72q17 221 163.5 351t383.5 130q209 0 326.5 -108t117.5 -292q0 -263 -217 -458q-94 -85 -207 -167 t-336 -216q289 10 617 10l-51 -211h-992z" />
<glyph unicode="3" horiz-adv-x="1181" d="M45 342l231 88q22 -122 93.5 -183t175.5 -61q126 0 203 62t77 174q0 104 -83.5 156.5t-272.5 52.5h-18l41 190q35 -4 81 -4q172 0 260.5 61t88.5 177q0 77 -54 124.5t-155 47.5q-202 0 -275 -211l-219 94q141 332 516 332q200 0 314 -95.5t114 -252.5 q0 -150 -87.5 -247.5t-260.5 -127.5q124 -21 193 -104t69 -199q0 -204 -145 -325.5t-381 -121.5q-208 0 -337 97t-169 276z" />
<glyph unicode="4" horiz-adv-x="1181" d="M49 309l41 189l758 913h309l-201 -901h211l-43 -201h-211l-69 -309h-244l70 309h-621zM352 510h361q76 324 161 666q-27 -35 -208.5 -267t-313.5 -399z" />
<glyph unicode="5" horiz-adv-x="1181" d="M61 330l232 86q19 -116 89.5 -173t172.5 -57q136 0 221.5 90t85.5 250q0 112 -56.5 175t-160.5 63q-160 0 -246 -137l-198 51l188 733h807l-49 -211h-588l-92 -340q129 105 291 105q173 0 267.5 -109t94.5 -305q0 -166 -67.5 -297.5t-194.5 -208t-293 -76.5 q-195 0 -328 95t-176 266z" />
<glyph unicode="6" horiz-adv-x="1181" d="M152 496q0 202 61.5 403.5t175.5 335.5q172 205 451 205q157 0 259.5 -75.5t139.5 -215.5l-223 -90q-20 89 -71 128.5t-132 39.5q-292 0 -391 -447q135 154 354 154q172 0 272.5 -108t100.5 -294q0 -249 -149 -406t-386 -157q-221 0 -341.5 137t-120.5 390zM389 428 q0 -108 60.5 -179t164.5 -71q125 0 207 88.5t82 233.5q0 112 -59 174.5t-162 62.5q-126 0 -209.5 -87t-83.5 -222z" />
<glyph unicode="7" horiz-adv-x="1181" d="M236 1198l47 213h989l-43 -199q-268 -271 -444 -568.5t-271 -643.5h-276q103 349 283.5 642.5t434.5 555.5h-720z" />
<glyph unicode="8" horiz-adv-x="1181" d="M96 367q0 147 97 255.5t266 135.5q-197 84 -197 284q0 181 137.5 290.5t356.5 109.5q209 0 329.5 -95.5t120.5 -259.5q0 -137 -78.5 -227t-228.5 -125q107 -39 165 -121.5t58 -199.5q0 -202 -147.5 -324.5t-390.5 -122.5q-228 0 -358 107.5t-130 292.5zM352 387 q0 -97 66.5 -155t179.5 -58q117 0 191.5 73.5t74.5 184.5q0 99 -62.5 154t-170.5 55q-127 0 -203 -68t-76 -186zM508 1024q0 -83 57 -132.5t150 -49.5q103 0 170 61.5t67 159.5q0 83 -55 129.5t-149 46.5q-107 0 -173.5 -59t-66.5 -156z" />
<glyph unicode="9" horiz-adv-x="1181" d="M66 260l225 90q37 -168 209 -168q147 0 242 105t143 342q-63 -74 -155 -114t-200 -40q-166 0 -268 110.5t-102 291.5q0 250 147.5 406.5t386.5 156.5q222 0 342.5 -137t120.5 -390q0 -203 -58.5 -407t-170.5 -336q-168 -201 -453 -201q-158 0 -266 76.5t-143 214.5z M406 909q0 -112 58.5 -174.5t160.5 -62.5q127 0 210 86.5t83 222.5q0 108 -60.5 179t-165.5 71q-125 0 -205.5 -88t-80.5 -234z" />
<glyph unicode=":" horiz-adv-x="548" d="M113 0l65 297h242l-66 -297h-241zM272 721l66 299h242l-66 -299h-242z" />
<glyph unicode=";" horiz-adv-x="548" d="M53 -231q63 53 90 99.5t50 131.5h-89l66 297h252l-66 -287q-27 -120 -72 -195.5t-132 -136.5zM272 721l66 299h242l-66 -299h-242z" />
<glyph unicode="&#x3c;" horiz-adv-x="1548" d="M268 510l51 223l1106 473l-61 -270l-817 -334l670 -332l-52 -239z" />
<glyph unicode="=" horiz-adv-x="1542" d="M180 295l53 227h1141l-53 -227h-1141zM279 737l51 228h1140l-51 -228h-1140z" />
<glyph unicode="&#x3e;" horiz-adv-x="1548" d="M219 31l62 270l817 336l-670 330l53 239l895 -479l-51 -223z" />
<glyph unicode="?" horiz-adv-x="1136" d="M246 1022q9 82 16 111q41 166 176 255t348 89q195 0 306.5 -90t111.5 -252q0 -119 -60.5 -213t-203.5 -201l-88 -64q-80 -60 -111 -102t-45 -123h-221q20 126 57 190t132 136l73 55q114 86 160.5 155.5t46.5 141.5q0 78 -52 119t-147 41q-113 0 -180 -60.5t-76 -167.5 q-4 -46 -4 -84zM381 0l63 291h240l-66 -291h-237z" />
<glyph unicode="@" horiz-adv-x="1884" d="M178 526q0 214 77.5 400t209.5 314.5t312 202t380 73.5q317 0 500.5 -173.5t183.5 -474.5q0 -138 -40.5 -262t-107.5 -210t-156 -136.5t-183 -50.5q-176 0 -203 153q-118 -153 -279 -153q-132 0 -206 83t-74 228q0 157 69 291.5t181 211.5t237 77q127 0 176 -96l21 79 h172q-131 -521 -131 -614q0 -50 17.5 -73t56.5 -23q112 0 191 145t79 348q0 161 -68.5 274.5t-184 167.5t-267.5 54q-169 0 -315 -66.5t-244.5 -179t-154.5 -262t-56 -313.5q0 -274 164 -438t450 -164q180 0 326 52t284 163l86 -144q-305 -237 -718 -237 q-356 0 -570.5 207.5t-214.5 545.5zM776 545q0 -81 34 -129.5t101 -48.5q82 0 148.5 62t101.5 157.5t35 201.5q0 75 -32 117.5t-97 42.5q-73 0 -140 -55t-109 -148.5t-42 -199.5z" />
<glyph unicode="A" horiz-adv-x="1347" d="M-92 0l837 1446h299l211 -1446h-272l-43 344h-553l-192 -344h-287zM483 543h443q-38 296 -76 676q-94 -184 -367 -676z" />
<glyph unicode="B" horiz-adv-x="1353" d="M43 0l319 1446h562q234 0 338 -70q49 -35 81.5 -99t32.5 -136q0 -317 -332 -387q250 -47 250 -289q0 -129 -71 -234t-191 -163q-82 -39 -181.5 -53.5t-256.5 -14.5h-551zM346 213h272q162 0 250 31q74 28 113 85.5t39 137.5q0 123 -100 160q-51 20 -185 20h-293zM489 852 h283q128 0 213 29q123 46 123 192q0 101 -72 135q-59 29 -188 29h-275z" />
<glyph unicode="C" horiz-adv-x="1396" d="M139 602q0 177 57 339.5t160 279.5q106 122 251 190t311 68q216 0 350 -93q127 -88 190 -262l-250 -108q-58 235 -290 235q-220 0 -355 -172q-69 -88 -110 -214t-41 -249q0 -205 93.5 -312t268.5 -107q116 0 207.5 61.5t146.5 179.5l222 -131q-95 -168 -251 -254 t-358 -86q-283 0 -442.5 164.5t-159.5 470.5z" />
<glyph unicode="D" horiz-adv-x="1425" d="M43 0l319 1446h422q302 0 437 -78q98 -56 153.5 -173t55.5 -275q0 -116 -22 -230.5t-65.5 -222.5t-117 -201t-168.5 -153q-114 -72 -242 -92.5t-342 -20.5h-430zM348 219h180q162 0 264.5 26.5t186.5 110.5q89 92 134.5 237.5t45.5 295.5q0 199 -108 280q-83 60 -283 60 h-195z" />
<glyph unicode="E" horiz-adv-x="1230" d="M43 0l319 1446h957l-45 -217h-701l-81 -373h659l-49 -219h-660l-92 -418h772l-47 -219h-1032z" />
<glyph unicode="F" horiz-adv-x="1159" d="M43 0l319 1446h955l-47 -217h-699l-84 -381h658l-47 -215h-658l-139 -633h-258z" />
<glyph unicode="G" horiz-adv-x="1515" d="M139 575q0 371 193 615q106 137 260 213t336 76q441 0 563 -361l-254 -106q-55 239 -326 239q-94 0 -175.5 -36t-140.5 -98.5t-101 -146t-63 -180t-21 -198.5q0 -186 93 -291.5t261 -105.5q174 0 285 116q46 50 75 108.5t50 149.5h-375l49 219h633l-174 -788h-230l43 168 q-84 -100 -185 -148.5t-239 -48.5q-252 0 -404.5 161.5t-152.5 442.5z" />
<glyph unicode="H" horiz-adv-x="1447" d="M43 0l319 1446h261l-129 -580h659l131 580h258l-319 -1446h-260l141 639h-662l-141 -639h-258z" />
<glyph unicode="I" horiz-adv-x="528" d="M43 0l319 1446h263l-320 -1446h-262z" />
<glyph unicode="J" horiz-adv-x="866" d="M-86 53l102 230q80 -88 199 -88q59 0 102 16.5t78 58.5q58 68 94 224l216 952h262l-222 -993q-44 -186 -110 -287q-68 -104 -159 -151.5t-234 -47.5q-195 0 -328 86z" />
<glyph unicode="K" horiz-adv-x="1372" d="M43 0l319 1446h261l-156 -698l758 698h317l-627 -588l365 -858h-293l-276 678l-320 -275l-90 -403h-258z" />
<glyph unicode="L" horiz-adv-x="1120" d="M43 0l322 1446h258l-273 -1227h688l-49 -219h-946z" />
<glyph unicode="M" horiz-adv-x="1746" d="M43 0l319 1446h373q17 -140 34 -291.5t27.5 -250t29 -280t28.5 -272.5q48 92 102.5 193t94 173t106.5 190.5t96 169t109 190.5t102 178h377l-321 -1446h-254q200 875 276 1184q-32 -59 -251.5 -450t-407.5 -734h-203q-113 852 -135 1188q-127 -626 -254 -1188h-248z" />
<glyph unicode="N" horiz-adv-x="1480" d="M43 0l319 1446h291q272 -646 439 -1110q55 290 235 1110h248l-322 -1446h-282q-198 460 -284 674t-159 422q-39 -190 -237 -1096h-248z" />
<glyph unicode="O" horiz-adv-x="1525" d="M139 580q0 152 44 297.5t122 263.5q110 165 267.5 251.5t355.5 86.5q282 0 438 -162t156 -455q0 -143 -42.5 -286.5t-117.5 -264.5q-214 -344 -623 -344q-285 0 -442.5 158t-157.5 455zM410 590q0 -195 90 -294t258 -99q102 0 191 45.5t147 128.5q69 99 109 224.5 t40 252.5q0 188 -82.5 295.5t-242.5 107.5q-105 0 -195 -43t-154 -125q-75 -94 -118 -223.5t-43 -269.5z" />
<glyph unicode="P" horiz-adv-x="1337" d="M43 0l319 1446h474q244 0 372 -49q99 -37 154 -120t55 -198q0 -150 -68 -273t-192 -183q-152 -74 -467 -74h-268l-121 -549h-258zM471 766h211q191 0 283 27q83 26 128.5 89.5t45.5 151.5q0 128 -105 168q-67 27 -246 27h-215z" />
<glyph unicode="Q" horiz-adv-x="1525" d="M139 580q0 152 44 297.5t122 263.5q110 165 267.5 251.5t355.5 86.5q282 0 438 -162t156 -455q0 -143 -42.5 -285.5t-117.5 -265.5q-55 -88 -119 -149l279 -238l-166 -157l-289 272q-147 -72 -328 -72q-285 0 -442.5 158t-157.5 455zM410 590q0 -195 90 -294t258 -99 q102 0 191 45.5t147 128.5q69 99 109 224.5t40 252.5q0 188 -82.5 295.5t-242.5 107.5q-105 0 -195 -43t-154 -125q-75 -94 -118 -223.5t-43 -269.5z" />
<glyph unicode="R" horiz-adv-x="1320" d="M41 0l321 1446h439q250 0 366 -45q95 -36 153 -123t58 -201q0 -221 -155 -348q-107 -86 -283 -115q154 -366 260 -614h-289l-223 582h-260l-129 -582h-258zM473 786h262q107 0 172 13t109 47q94 73 94 196q0 154 -164 181q-54 10 -172 10h-203z" />
<glyph unicode="S" horiz-adv-x="1259" d="M35 305l241 139q44 -118 140 -184.5t207 -66.5q141 0 216.5 53t75.5 141q0 74 -48 121t-152 90l-193 80q-286 114 -286 379q0 186 154 304t396 118q189 0 320 -72.5t219 -224.5l-231 -133q-93 206 -324 206q-124 0 -193 -50t-69 -124q0 -66 43.5 -110.5t140.5 -83.5 l189 -76q165 -67 240 -159.5t75 -223.5q0 -208 -156 -334.5t-430 -126.5q-87 0 -168 19.5t-156 59.5t-140 106t-111 153z" />
<glyph unicode="T" horiz-adv-x="1146" d="M215 1229l47 217h1081l-47 -217h-401l-272 -1229h-267l273 1229h-414z" />
<glyph unicode="U" horiz-adv-x="1413" d="M145 391q0 106 43 297l168 758h260l-163 -739q-47 -206 -47 -283q0 -114 66.5 -175t195.5 -61q237 0 311 166q46 99 90 295l178 797h262l-186 -848q-33 -152 -67 -248.5t-85 -167.5q-84 -116 -215 -165.5t-315 -49.5q-236 0 -366 110t-130 314z" />
<glyph unicode="V" horiz-adv-x="1275" d="M229 1446h277q106 -996 119 -1145q161 329 596 1145h282l-798 -1446h-281z" />
<glyph unicode="W" horiz-adv-x="1878" d="M227 1446h267q20 -759 26 -1141q85 197 516 1141h273q31 -975 34 -1141q172 415 502 1141h260l-680 -1446h-280q-33 739 -37 1137q-184 -417 -524 -1137h-283z" />
<glyph unicode="X" horiz-adv-x="1300" d="M-94 0l651 758l-307 688h297q150 -383 209 -528q249 321 420 528h305l-609 -725l336 -721h-290q-179 401 -244 555q-59 -73 -204 -248.5t-251 -306.5h-313z" />
<glyph unicode="Y" horiz-adv-x="1306" d="M229 1446h285q178 -472 238 -651q204 285 489 651h295l-700 -881l-125 -565h-260l131 596z" />
<glyph unicode="Z" horiz-adv-x="1253" d="M-20 0l45 195l991 1034h-752l43 217h1082l-43 -199l-979 -1028h782l-47 -219h-1122z" />
<glyph unicode="[" horiz-adv-x="735" d="M31 -358l424 1906h458l-34 -147h-240l-358 -1614h241l-33 -145h-458z" />
<glyph unicode="\" horiz-adv-x="915" d="M330 1554h200l230 -1919h-201z" />
<glyph unicode="]" horiz-adv-x="735" d="M-98 -367l35 150h241l359 1624h-242l33 149h458l-426 -1923h-458z" />
<glyph unicode="^" horiz-adv-x="1548" d="M281 592l608 854h244l219 -852h-238l-145 598l-412 -600h-276z" />
<glyph unicode="_" horiz-adv-x="1400" d="M-156 -453l35 154h1399l-35 -154h-1399z" />
<glyph unicode="`" d="M41 1475h274l121 -308h-172z" />
<glyph unicode="a" horiz-adv-x="1044" d="M33 254q0 116 60.5 193t166.5 116q144 53 490 76q10 53 10 102q0 55 -39.5 87t-116.5 32q-86 0 -136 -36.5t-71 -121.5l-223 35q46 152 154 228.5t305 76.5q358 0 358 -274q0 -52 -20 -150l-82 -413q-10 -51 -10 -109q0 -44 14 -96h-236q-4 29 -4 78q0 32 4 61 q-64 -84 -142 -120.5t-187 -36.5q-133 0 -214 73.5t-81 198.5zM262 279q0 -57 38.5 -89t102.5 -32q108 0 183 69q46 41 72 88.5t44 116.5l11 51q-224 -12 -338 -57q-113 -42 -113 -147z" />
<glyph unicode="b" horiz-adv-x="1144" d="M33 0l319 1446h240l-129 -561q125 151 317 151q158 0 244 -103.5t86 -295.5q0 -125 -35 -243t-97.5 -211t-159.5 -149.5t-212 -56.5q-230 0 -307 187l-37 -164h-229zM365 403q0 -104 49 -165.5t139 -61.5q134 0 218.5 128t84.5 308q0 232 -186 232q-127 0 -216 -126 t-89 -315z" />
<glyph unicode="c" horiz-adv-x="1026" d="M92 426q0 273 158 445.5t403 172.5q287 0 387 -243l-211 -111q-44 158 -184 158q-141 0 -228 -116.5t-87 -301.5q0 -122 60.5 -192t166.5 -70q148 0 244 166l188 -117q-164 -246 -457 -246q-202 0 -321 120.5t-119 334.5z" />
<glyph unicode="d" horiz-adv-x="1148" d="M88 371q0 129 37 249t103 212.5t165 148t215 55.5q229 0 293 -188l131 598h232l-320 -1446h-239l38 150q-112 -170 -319 -170q-160 0 -248 102.5t-88 288.5zM342 399q0 -227 184 -227q129 0 218.5 129.5t89.5 325.5q0 101 -48 158t-135 57q-133 0 -221 -129.5t-88 -313.5 z" />
<glyph unicode="e" horiz-adv-x="1083" d="M90 432q0 264 158 437t399 173q107 0 186.5 -34t128 -96.5t72 -146.5t23.5 -190q0 -55 -10 -110h-719q0 -65 4 -90q29 -209 231 -209q75 0 141.5 42t106.5 120l190 -119q-155 -236 -460 -236q-211 0 -331 120t-120 339zM352 627h467q2 14 2 30q0 86 -48 142.5t-142 56.5 q-103 0 -175.5 -60.5t-103.5 -168.5z" />
<glyph unicode="f" horiz-adv-x="645" d="M96 0l185 827h-172l41 187h172l26 112q43 177 121 258q86 86 229 86q86 0 162 -26l-51 -193q-41 21 -78 21q-58 0 -91.5 -34.5t-57.5 -133.5l-21 -90h197l-41 -187h-197l-184 -827h-240z" />
<glyph unicode="g" horiz-adv-x="1146" d="M0 -113l242 43q4 -83 55.5 -127.5t136.5 -44.5q133 0 197 82q30 38 50.5 89.5t43.5 150.5l16 70q-60 -78 -135 -114t-178 -36q-158 0 -248 102.5t-90 280.5q0 102 23 198.5t68 179t106.5 144.5t144.5 97.5t176 35.5q242 0 299 -192l35 168h225l-206 -942 q-32 -148 -70 -234.5t-105 -148.5q-127 -121 -366 -121q-180 0 -291.5 81t-128.5 238zM342 406q0 -106 51 -159.5t137 -53.5q127 0 214 122.5t87 298.5q0 106 -45 167t-135 61q-132 0 -220.5 -124t-88.5 -312z" />
<glyph unicode="h" horiz-adv-x="1114" d="M33 0l319 1446h232l-131 -588q131 172 348 172q128 0 196 -64.5t68 -187.5q0 -69 -35 -227l-123 -551h-237l110 506q31 140 31 182q0 67 -36 101t-103 34q-112 0 -195 -96q-37 -41 -58 -97t-42 -151l-107 -479h-237z" />
<glyph unicode="i" d="M33 0l225 1014h240l-228 -1014h-237zM303 1231l49 215h238l-49 -215h-238z" />
<glyph unicode="j" horiz-adv-x="497" d="M-268 -399l47 192q50 -26 90 -26q45 0 72 14t51 53q33 55 63 199l221 981h240l-237 -1049q-27 -120 -51 -184.5t-70 -110.5q-53 -53 -114 -75.5t-142 -22.5q-85 0 -170 29zM319 1229l50 217h239l-47 -217h-242z" />
<glyph unicode="k" horiz-adv-x="1067" d="M33 0l319 1446h238l-193 -866l467 434h291l-440 -402l268 -612h-262l-199 463l-184 -156l-70 -307h-235z" />
<glyph unicode="l" horiz-adv-x="475" d="M33 0l319 1446h240l-322 -1446h-237z" />
<glyph unicode="m" horiz-adv-x="1703" d="M33 0l225 1014h229l-34 -154q75 85 153 127.5t176 42.5q216 0 254 -188q143 188 363 188q125 0 191.5 -62t66.5 -180q0 -73 -39 -243l-121 -545h-237l114 516q29 128 29 174q0 133 -127 133q-103 0 -184 -90q-41 -49 -60 -99t-37 -136l-110 -498h-240l115 516 q28 126 28 174q0 133 -126 133q-109 0 -187 -96q-35 -40 -54 -94t-42 -150l-109 -483h-237z" />
<glyph unicode="n" horiz-adv-x="1114" d="M33 0l225 1014h229l-34 -156q131 172 348 172q128 0 196 -64.5t68 -187.5q0 -69 -35 -227l-123 -551h-237l110 506q31 140 31 182q0 135 -139 135q-112 0 -195 -96q-37 -41 -58 -97t-42 -151l-107 -479h-237z" />
<glyph unicode="o" horiz-adv-x="1134" d="M92 430q0 248 141 418q76 93 186 144.5t240 51.5q206 0 320.5 -116.5t114.5 -331.5q0 -241 -123 -408q-73 -103 -182.5 -160t-245.5 -57q-212 0 -331.5 121t-119.5 338zM330 432q0 -126 59 -195t166 -69q155 0 240 151q61 109 61 265q0 126 -52.5 195t-158.5 69 q-141 0 -227 -119q-88 -118 -88 -297z" />
<glyph unicode="p" horiz-adv-x="1144" d="M-57 -406l315 1420h234l-29 -127q127 151 317 151q158 0 244 -104.5t86 -296.5q0 -125 -35 -243t-97.5 -211t-159.5 -149.5t-212 -56.5q-219 0 -303 175l-123 -558h-237zM365 403q0 -104 49 -165.5t139 -61.5q89 0 159.5 61t107 160.5t36.5 216.5q0 232 -186 232 q-127 0 -216 -127t-89 -316z" />
<glyph unicode="q" horiz-adv-x="1148" d="M90 379q0 100 22 196t66 180t104.5 148t142 100.5t173.5 36.5q228 0 307 -182l35 156h225l-315 -1420h-238l125 539q-127 -151 -315 -151q-159 0 -245.5 103t-86.5 294zM344 406q0 -232 186 -232q128 0 217 126t89 316q0 103 -49.5 165.5t-139.5 62.5q-87 0 -157.5 -61 t-108 -160.5t-37.5 -216.5z" />
<glyph unicode="r" horiz-adv-x="724" d="M33 0l225 1014h234l-43 -172q62 102 126 145t146 43q64 0 119 -24l-56 -220q-57 29 -118 29q-112 0 -195 -110q-58 -78 -98 -259l-101 -446h-239z" />
<glyph unicode="s" horiz-adv-x="942" d="M4 205l195 127q38 -81 106 -125.5t141 -44.5q84 0 129.5 31.5t45.5 82.5q0 42 -27 70.5t-92 54.5l-142 60q-204 85 -204 270q0 138 112 225.5t291 87.5q139 0 234.5 -50t160.5 -154l-182 -119q-71 137 -215 137q-76 0 -119 -27.5t-43 -76.5q0 -39 30.5 -67.5t102.5 -59.5 l99 -41q127 -53 183 -121t56 -162q0 -150 -117.5 -241t-308.5 -91q-296 0 -436 234z" />
<glyph unicode="t" horiz-adv-x="643" d="M104 827l41 187h166l76 338h236l-76 -338h194l-43 -187h-190l-96 -430q-19 -83 -19 -123q0 -90 94 -90q39 0 95 21l-45 -203q-65 -16 -156 -16q-123 0 -183.5 51t-60.5 156q0 55 21 147l112 487h-166z" />
<glyph unicode="u" horiz-adv-x="1112" d="M96 238q0 71 35 229l121 547h237l-110 -506q-31 -143 -31 -184q0 -66 35.5 -100t103.5 -34q112 0 195 95q37 42 58 98.5t42 151.5l107 479h237l-225 -1014h-229l35 156q-64 -85 -154 -129.5t-195 -44.5q-127 0 -194.5 66.5t-67.5 189.5z" />
<glyph unicode="v" horiz-adv-x="960" d="M137 1014h246q53 -622 66 -781q208 448 382 781h265l-557 -1014h-271z" />
<glyph unicode="w" horiz-adv-x="1482" d="M137 1014h240q5 -124 18.5 -378t16.5 -403q125 305 344 781h243q4 -113 10 -275t9.5 -281t5.5 -225q120 290 346 781h250l-500 -1014h-260q-5 117 -13 282.5t-12 273.5t-6 210q-74 -168 -354 -766h-258z" />
<glyph unicode="x" horiz-adv-x="956" d="M-78 0l438 537l-206 477h254q117 -310 135 -355q155 216 262 355h260l-416 -516l230 -498h-254q-8 20 -68.5 159t-89.5 212q-137 -183 -279 -371h-266z" />
<glyph unicode="y" horiz-adv-x="968" d="M-98 -401l45 194q54 -26 100 -26q34 0 55.5 4.5t50.5 21t57.5 54.5t61.5 100l19 35l-154 1032h246q35 -308 80 -797q147 324 381 797h264l-559 -1039q-116 -214 -182 -282q-63 -67 -134.5 -94t-171.5 -27q-83 0 -159 27z" />
<glyph unicode="z" horiz-adv-x="929" d="M-27 0l35 150l633 677h-471l41 187h778l-33 -154l-626 -674h510l-41 -186h-826z" />
<glyph unicode="{" horiz-adv-x="776" d="M129 553l25 115q76 19 116 49.5t68 92t55 183.5l39 183q36 160 91.5 243.5t154.5 121t276 42.5l-24 -113q-73 -14 -114.5 -30.5t-77 -52.5t-56.5 -92t-41 -152l-35 -162q-44 -201 -96.5 -280t-173.5 -107q59 -28 91 -82.5t32 -128.5q0 -64 -29 -188l-31 -138 q-22 -99 -22 -161q0 -78 38 -119t122 -60l-25 -108q-171 11 -261.5 77t-90.5 201q0 66 16 138l45 188q25 114 25 168q0 66 -27 105t-90 67z" />
<glyph unicode="|" horiz-adv-x="589" d="M10 -367l426 1923h215l-426 -1923h-215z" />
<glyph unicode="}" horiz-adv-x="776" d="M-96 -391l24 115q97 19 145 46t81.5 90t62.5 191l35 160q44 201 96.5 280t173.5 107q-123 62 -123 213q0 64 29 188l31 138q22 99 22 161q0 78 -38 118.5t-121 58.5l24 108q352 -19 352 -278q0 -64 -16 -136l-45 -188q-25 -117 -25 -168q0 -66 27 -106t90 -66l-24 -117 q-76 -18 -116.5 -48t-68.5 -92t-55 -185l-39 -181q-27 -121 -62 -195t-96 -122t-145.5 -67.5t-218.5 -24.5z" />
<glyph unicode="~" horiz-adv-x="1515" d="M160 606q111 113 207 168t198 55q65 0 120 -19.5t163 -82.5q69 -41 110 -56.5t82 -15.5q68 0 131 38t148 126l133 -184q-210 -219 -401 -219q-61 0 -115 17t-133 65q-81 48 -133.5 70t-96.5 22q-143 0 -284 -164z" />
<glyph unicode="&#xa0;" />
<glyph unicode="&#xa1;" horiz-adv-x="557" d="M14 0q173 650 279 1001h168q-65 -441 -166 -1001h-281zM285 1147l65 299h238l-66 -299h-237z" />
<glyph unicode="&#xa2;" horiz-adv-x="1124" d="M137 422q0 268 160.5 442t417.5 183l39 176h145l-43 -185q203 -34 293 -227l-197 -109q-42 117 -139 138l-149 -666q149 8 231 141l174 -133q-86 -105 -190.5 -158t-241.5 -53h-16l-41 -188h-148l45 199q-151 27 -245.5 144.5t-94.5 295.5zM373 436q0 -194 149 -248 l148 658q-135 -12 -216 -129.5t-81 -280.5z" />
<glyph unicode="&#xa3;" horiz-adv-x="1288" d="M16 180q0 105 64 166.5t176 61.5q98 0 225 -62q19 53 19 123q0 61 -27 152h-262l35 155h190q-26 133 -26 203q0 221 133.5 342t367.5 121q170 0 279.5 -81t155.5 -226l-226 -101q-41 191 -213 191q-121 0 -185.5 -65t-64.5 -193q0 -50 25 -191h391l-33 -155h-331 q10 -64 10 -148q0 -111 -57 -203q131 -71 215 -71q74 0 116.5 41.5t67.5 136.5l215 -74q-52 -152 -150 -236.5t-233 -84.5q-89 0 -167.5 27t-166.5 91q-70 -69 -142 -96t-163 -27q-111 0 -174.5 57t-63.5 146zM193 184q0 -28 22 -46.5t64 -18.5q87 0 151 82q-78 57 -154 57 q-40 0 -61.5 -19.5t-21.5 -54.5z" />
<glyph unicode="&#xa4;" horiz-adv-x="1411" d="M145 274l164 146q-82 124 -82 272q0 198 119 334l-137 160l147 129l138 -158q120 78 276 78q199 0 336 -119l164 146l123 -144l-162 -145q80 -121 80 -275q0 -192 -117 -329l139 -162l-149 -133l-137 162q-119 -78 -279 -78q-194 0 -336 118l-164 -143zM416 700 q0 -157 100 -259.5t254 -102.5q151 0 251.5 103t100.5 257q0 152 -100.5 254.5t-251.5 102.5q-149 0 -251.5 -98.5t-102.5 -256.5z" />
<glyph unicode="&#xa5;" horiz-adv-x="1353" d="M139 418l29 131h414l10 45l-43 108h-348l30 134h265l-232 577h268q163 -461 222 -643q190 259 503 643h279l-485 -577h256l-31 -134h-336l-96 -114l-8 -39h405l-29 -131h-407l-92 -418h-254l94 418h-414z" />
<glyph unicode="&#xa6;" horiz-adv-x="587" d="M10 -367l180 816h218l-183 -816h-215zM254 741l182 815h215l-180 -815h-217z" />
<glyph unicode="&#xa7;" horiz-adv-x="1208" d="M16 -16l201 133q41 -98 120.5 -147.5t174.5 -49.5q113 0 169 38t56 99q0 47 -27.5 82.5t-97.5 71.5l-227 119q-242 127 -242 323q0 261 316 344q-99 89 -99 211q0 145 120 233.5t319 88.5q302 0 436 -232l-201 -120q-70 161 -248 161q-96 0 -140 -36t-44 -86 q0 -42 25.5 -73.5t99.5 -72.5l211 -119q123 -68 177 -137t54 -162q0 -118 -66.5 -206t-221.5 -154q59 -49 82.5 -98.5t23.5 -110.5q0 -159 -133.5 -259.5t-347.5 -100.5q-333 0 -490 260zM369 694q0 -55 37 -95t131 -91l215 -115q188 64 188 205q0 61 -32.5 96.5 t-133.5 91.5l-190 107q-114 -33 -164.5 -78.5t-50.5 -120.5z" />
<glyph unicode="&#xa8;" d="M-106 1208l47 219h206l-49 -219h-204zM330 1208l49 219h207l-49 -219h-207z" />
<glyph unicode="&#xa9;" horiz-adv-x="1691" d="M158 729q0 155 60 294.5t162 240.5t244 160t300 59q155 0 294.5 -59t240 -158.5t159.5 -237.5t59 -291q0 -215 -97 -391.5t-267 -277.5t-377 -101q-161 0 -305 59.5t-248 160.5t-164.5 242.5t-60.5 299.5zM266 725q0 -178 89 -329t241.5 -238.5t333.5 -87.5 q174 0 321 86.5t232.5 236t85.5 326.5q0 139 -49 262t-134.5 210.5t-204.5 138t-255 50.5t-258.5 -51t-210.5 -138.5t-139.5 -209t-51.5 -256.5zM485 659q0 231 137.5 381t352.5 150q251 0 348 -205l-154 -88q-24 73 -71 106t-121 33q-136 0 -222.5 -104t-86.5 -270 q0 -111 63 -183.5t172 -72.5q146 0 230 137l127 -113q-140 -176 -363 -176q-189 0 -300.5 110t-111.5 295z" />
<glyph unicode="&#xaa;" horiz-adv-x="876" d="M160 825q0 130 98 201q59 43 166.5 67.5t308.5 39.5q15 64 15 94q0 41 -33 64.5t-90 23.5q-70 0 -108 -30t-58 -101l-189 30q35 126 128 188t249 62q291 0 291 -229q0 -45 -18 -133l-46 -203q-22 -107 -22 -194q0 -45 12 -91h-196q-9 37 -9 64q0 26 5 55 q-61 -70 -123 -99.5t-146 -29.5q-106 0 -170.5 60t-64.5 161zM350 848q0 -49 29.5 -73.5t83.5 -24.5q83 0 146 60t89 163q4 21 9 33q-192 -12 -274.5 -48.5t-82.5 -109.5z" />
<glyph unicode="&#xab;" horiz-adv-x="1015" d="M119 565l389 426l115 -112l-289 -324l158 -338l-154 -90zM522 565l391 426l115 -112l-289 -324l158 -338l-156 -90z" />
<glyph unicode="&#xac;" horiz-adv-x="1542" d="M199 516l51 227h1141l-152 -684h-235l100 457h-905z" />
<glyph unicode="&#xad;" horiz-adv-x="768" d="M115 522l43 193h592l-43 -193h-592z" />
<glyph unicode="&#xae;" horiz-adv-x="1691" d="M156 727q0 208 101.5 381t277.5 273t387 100q155 0 294.5 -58.5t240 -158t159.5 -237t59 -290.5q0 -215 -97 -391.5t-267 -277.5t-377 -101q-215 0 -393.5 100.5t-281.5 275t-103 384.5zM264 725q0 -178 89 -329.5t242 -239.5t333 -88q174 0 321 86.5t232.5 236 t85.5 326.5q0 140 -49 263t-134.5 211t-204.5 138.5t-255 50.5t-258.5 -51t-210.5 -138.5t-139.5 -209t-51.5 -256.5zM532 299l193 875h270q160 0 236 -48q43 -28 67.5 -76.5t24.5 -107.5q0 -128 -84 -209q-62 -62 -172 -80l174 -354h-184l-156 338h-127l-72 -338h-170z M809 778h133q103 0 156 33.5t53 108.5q0 73 -64 98q-32 12 -120 12h-103z" />
<glyph unicode="&#xaf;" d="M-61 1208l36 166h564l-39 -166h-561z" />
<glyph unicode="&#xb0;" horiz-adv-x="804" d="M229 1145q0 136 97 232t235 96q147 0 240.5 -92.5t93.5 -235.5q0 -139 -95 -233.5t-235 -94.5q-142 0 -239 95t-97 233zM371 1145q0 -82 55 -137.5t137 -55.5q78 0 134.5 57t56.5 136q0 78 -55.5 135t-133.5 57q-81 0 -137.5 -56t-56.5 -136z" />
<glyph unicode="&#xb1;" horiz-adv-x="1542" d="M117 0l53 227h1141l-54 -227h-1140zM297 805l51 225h453l96 432h236l-97 -432h453l-51 -225h-453l-94 -432h-236l95 432h-453z" />
<glyph unicode="&#xb2;" horiz-adv-x="874" d="M186 901l33 141q55 31 159 93t152 90q63 36 99.5 59t76 53t59.5 56t33 59t13 70q0 53 -35 82.5t-98 29.5q-86 0 -134 -45t-48 -127q0 -18 6 -45l-191 25q0 165 100.5 260.5t286.5 95.5q153 0 238.5 -68t85.5 -186q0 -132 -110 -239t-396 -244q164 6 414 6l-39 -166h-705z " />
<glyph unicode="&#xb3;" horiz-adv-x="874" d="M205 1130l178 66q32 -154 176 -154q77 0 125.5 32.5t48.5 90.5q0 59 -53.5 86t-171.5 27h-29l31 147q23 -2 61 -2q230 0 230 129q0 43 -36 68t-97 25q-137 0 -181 -134l-168 72q105 215 361 215q148 0 232.5 -60t84.5 -167q0 -88 -57.5 -146t-161.5 -77q76 -17 118 -66.5 t42 -120.5q0 -126 -104.5 -202t-268.5 -76q-297 0 -360 247z" />
<glyph unicode="&#xb4;" d="M-14 1167l213 308h293l-320 -308h-186z" />
<glyph unicode="&#xb5;" horiz-adv-x="1116" d="M-45 -369l307 1383h240l-115 -514q-25 -116 -25 -168q0 -70 38.5 -109t107.5 -39q60 0 116.5 36.5t92.5 96.5q24 40 41 89t39 151l102 457h238l-224 -1014h-229l35 156q-54 -90 -114.5 -131t-145.5 -41q-140 0 -174 120l-105 -473h-225z" />
<glyph unicode="&#xb6;" horiz-adv-x="1191" d="M221 1004q0 106 47.5 198.5t130.5 151.5q72 52 156 72t238 20h553l-25 -119h-123l-358 -1620h-125l360 1620h-317l-359 -1620h-125l211 948q-130 39 -197 129t-67 220z" />
<glyph unicode="&#xb7;" horiz-adv-x="460" d="M115 442l65 299h244l-66 -299h-243z" />
<glyph unicode="&#xb8;" d="M14 -399l86 94q44 -57 113 -57q50 0 77 21.5t27 57.5q0 38 -23.5 60t-62.5 22q-45 0 -84 -20l-30 55l147 180h121l-94 -123q82 -4 127 -47.5t45 -117.5q0 -96 -69 -150.5t-183 -54.5q-123 0 -197 80z" />
<glyph unicode="&#xb9;" horiz-adv-x="874" d="M416 1495l37 164q185 7 243 133h176l-204 -891h-199l147 627q-76 -33 -200 -33z" />
<glyph unicode="&#xba;" horiz-adv-x="968" d="M205 969q0 220 127.5 358.5t331.5 138.5q171 0 262.5 -95t91.5 -273q0 -220 -122 -360t-323 -140q-175 0 -271.5 97t-96.5 274zM401 977q0 -104 46 -161.5t131 -57.5q106 0 173.5 95t67.5 253q0 93 -44 147t-122 54q-109 0 -180.5 -92.5t-71.5 -237.5z" />
<glyph unicode="&#xbb;" horiz-adv-x="1015" d="M57 229l289 328l-156 334l156 92l219 -436l-391 -428zM463 229l289 328l-156 334l156 92l219 -436l-391 -428z" />
<glyph unicode="&#xbc;" horiz-adv-x="1972" d="M289 1126l37 164q185 7 243 133h176l-204 -891h-199l147 627q-76 -33 -200 -33zM420 0l874 1411h176l-876 -1411h-174zM963 184l34 148l514 547h236l-127 -549h143l-32 -146h-142l-43 -184h-192l43 184h-434zM1184 330h246q64 253 94 362q-96 -121 -340 -362z" />
<glyph unicode="&#xbd;" horiz-adv-x="1972" d="M285 1126l37 164q185 7 243 133h176l-204 -891h-199l147 627q-76 -33 -200 -33zM418 0l874 1411h176l-876 -1411h-174zM1016 0l33 141q55 31 159 93t152 90q63 36 99.5 59t75.5 53t59 56t33 59t13 70q0 53 -35 82.5t-98 29.5q-86 0 -134 -45t-48 -127q0 -18 6 -45 l-190 25q0 165 100.5 260.5t286.5 95.5q153 0 238 -68t85 -186q0 -132 -109.5 -239t-395.5 -244q164 6 413 6l-39 -166h-704z" />
<glyph unicode="&#xbe;" horiz-adv-x="1972" d="M129 762l178 65q32 -153 176 -153q77 0 125.5 32.5t48.5 90.5q0 59 -53.5 85.5t-171.5 26.5h-29l31 148q23 -2 62 -2q229 0 229 129q0 43 -35.5 67.5t-97.5 24.5q-136 0 -180 -133l-168 71q106 216 360 216q148 0 233 -60.5t85 -167.5q0 -88 -58 -146t-162 -77 q76 -17 118 -66t42 -120q0 -126 -105 -202.5t-268 -76.5q-297 0 -360 248zM535 0l874 1411h176l-876 -1411h-174zM1055 184l35 148l514 547h235l-127 -549h143l-32 -146h-142l-43 -184h-192l43 184h-434zM1276 330h246q64 253 94 362q-96 -121 -340 -362z" />
<glyph unicode="&#xbf;" horiz-adv-x="1136" d="M74 311q0 119 61 213t203 201l88 63q80 60 111 102t45 124h221q-20 -126 -57 -190t-132 -136l-73 -55q-114 -86 -160.5 -155.5t-46.5 -141.5q0 -79 51.5 -119.5t146.5 -40.5q113 0 180 60t76 167q5 57 5 84l239 -63q-9 -82 -16 -111q-41 -166 -176 -255t-348 -89 q-195 0 -306.5 90t-111.5 252zM594 1155l65 291h238l-63 -291h-240z" />
<glyph unicode="&#xc0;" horiz-adv-x="1347" d="M-92 0l837 1446h299l211 -1446h-272l-43 344h-553l-192 -344h-287zM483 543h443q-38 296 -76 676q-94 -184 -367 -676zM590 1827h293l168 -258h-189z" />
<glyph unicode="&#xc1;" horiz-adv-x="1347" d="M-92 0l837 1446h299l211 -1446h-272l-43 344h-553l-192 -344h-287zM483 543h443q-38 296 -76 676q-94 -184 -367 -676zM758 1569l256 258h303l-356 -258h-203z" />
<glyph unicode="&#xc2;" horiz-adv-x="1347" d="M-92 0l837 1446h299l211 -1446h-272l-43 344h-553l-192 -344h-287zM483 543h443q-38 296 -76 676q-94 -184 -367 -676zM578 1569l241 258h248l162 -258h-195l-106 135l-154 -135h-196z" />
<glyph unicode="&#xc3;" horiz-adv-x="1347" d="M-92 0l837 1446h299l211 -1446h-272l-43 344h-553l-192 -344h-287zM483 543h443q-38 296 -76 676q-94 -184 -367 -676zM559 1636q71 98 124.5 138.5t119.5 40.5q34 0 90 -27l47 -27q54 -28 82 -28q37 0 67.5 19.5t65.5 66.5l115 -82q-60 -87 -116 -130.5t-118 -43.5 q-50 0 -106 32l-49 27q-42 20 -74 20q-76 0 -133 -88z" />
<glyph unicode="&#xc4;" horiz-adv-x="1347" d="M-92 0l837 1446h299l211 -1446h-272l-43 344h-553l-192 -344h-287zM483 543h443q-38 296 -76 676q-94 -184 -367 -676zM551 1569l47 221h215l-47 -221h-215zM1036 1569l47 221h215l-47 -221h-215z" />
<glyph unicode="&#xc5;" horiz-adv-x="1347" d="M-92 0l837 1446h299l211 -1446h-272l-43 344h-553l-192 -344h-287zM483 543h443q-38 296 -76 676q-94 -184 -367 -676zM707 1671q0 87 59 144t149 57q85 0 137 -48.5t52 -129.5q0 -86 -59 -143.5t-150 -57.5q-86 0 -137 48t-51 130zM809 1675q0 -42 24.5 -68t65.5 -26 q46 0 75.5 31.5t29.5 79.5q0 41 -26.5 66.5t-66.5 25.5q-44 0 -73 -32t-29 -77z" />
<glyph unicode="&#xc6;" horiz-adv-x="2056" d="M-92 0l1118 1446h1112l-49 -217h-682l-82 -373h641l-47 -217h-641l-94 -420h755l-47 -219h-1018l74 336h-475l-256 -336h-309zM614 537h377l166 739q-240 -335 -543 -739z" />
<glyph unicode="&#xc7;" horiz-adv-x="1396" d="M139 602q0 177 57 339.5t160 279.5q106 122 251 190t311 68q216 0 350 -93q127 -88 190 -262l-250 -108q-58 235 -290 235q-220 0 -355 -172q-69 -88 -110 -214t-41 -249q0 -205 93.5 -312t268.5 -107q116 0 207.5 61.5t146.5 179.5l222 -131q-90 -160 -235.5 -245 t-334.5 -93l-61 -82q85 -5 132.5 -50.5t47.5 -121.5q0 -97 -72 -153t-190 -56q-129 0 -205 82l90 99q46 -62 117 -62q51 0 80 23t29 61t-25.5 61t-65.5 23q-47 0 -86 -20l-32 55l118 143q-245 24 -381.5 186.5t-136.5 444.5z" />
<glyph unicode="&#xc8;" horiz-adv-x="1230" d="M43 0l319 1446h957l-45 -217h-701l-81 -373h659l-49 -219h-660l-92 -418h772l-47 -219h-1032zM537 1827h292l168 -258h-188z" />
<glyph unicode="&#xc9;" horiz-adv-x="1230" d="M43 0l319 1446h957l-45 -217h-701l-81 -373h659l-49 -219h-660l-92 -418h772l-47 -219h-1032zM680 1569l256 258h303l-356 -258h-203z" />
<glyph unicode="&#xca;" horiz-adv-x="1230" d="M43 0l319 1446h957l-45 -217h-701l-81 -373h659l-49 -219h-660l-92 -418h772l-47 -219h-1032zM518 1569l242 258h248l161 -258h-194l-107 135l-153 -135h-197z" />
<glyph unicode="&#xcb;" horiz-adv-x="1230" d="M43 0l319 1446h957l-45 -217h-701l-81 -373h659l-49 -219h-660l-92 -418h772l-47 -219h-1032zM504 1569l47 221h215l-47 -221h-215zM989 1569l47 221h215l-47 -221h-215z" />
<glyph unicode="&#xcc;" horiz-adv-x="528" d="M43 0l319 1446h263l-320 -1446h-262zM201 1827h293l168 -258h-189z" />
<glyph unicode="&#xcd;" horiz-adv-x="528" d="M43 0l319 1446h263l-320 -1446h-262zM362 1569l256 258h304l-357 -258h-203z" />
<glyph unicode="&#xce;" horiz-adv-x="528" d="M43 0l319 1446h263l-320 -1446h-262zM178 1569l242 258h248l161 -258h-194l-107 135l-153 -135h-197z" />
<glyph unicode="&#xcf;" horiz-adv-x="528" d="M43 0l319 1446h263l-320 -1446h-262zM176 1569l47 221h215l-47 -221h-215zM641 1569l47 221h215l-47 -221h-215z" />
<glyph unicode="&#xd0;" horiz-adv-x="1425" d="M43 0l145 662h-135l41 184h135l133 600h422q302 0 437 -78q98 -56 153.5 -173t55.5 -275q0 -116 -22 -230.5t-65.5 -222.5t-117 -201t-168.5 -153q-114 -72 -242 -92.5t-342 -20.5h-430zM348 219h180q162 0 264.5 26.5t186.5 110.5q89 92 134.5 237.5t45.5 295.5 q0 199 -108 280q-83 60 -283 60h-195l-86 -383h424l-41 -184h-424z" />
<glyph unicode="&#xd1;" horiz-adv-x="1480" d="M43 0l319 1446h291q272 -646 439 -1110q55 290 235 1110h248l-322 -1446h-282q-198 460 -284 674t-159 422q-39 -190 -237 -1096h-248zM637 1636q71 98 124.5 138.5t119.5 40.5q34 0 90 -27l47 -27q54 -28 82 -28q37 0 67.5 19.5t65.5 66.5l115 -82q-60 -87 -116 -130.5 t-118 -43.5q-50 0 -106 32l-50 27q-42 20 -73 20q-76 0 -133 -88z" />
<glyph unicode="&#xd2;" horiz-adv-x="1525" d="M139 580q0 152 44 297.5t122 263.5q110 165 267.5 251.5t355.5 86.5q282 0 438 -162t156 -455q0 -143 -42.5 -286.5t-117.5 -264.5q-214 -344 -623 -344q-285 0 -442.5 158t-157.5 455zM410 590q0 -195 90 -294t258 -99q102 0 191 45.5t147 128.5q69 99 109 224.5 t40 252.5q0 188 -82.5 295.5t-242.5 107.5q-105 0 -195 -43t-154 -125q-75 -94 -118 -223.5t-43 -269.5zM631 1827h293l168 -258h-189z" />
<glyph unicode="&#xd3;" horiz-adv-x="1525" d="M139 580q0 152 44 297.5t122 263.5q110 165 267.5 251.5t355.5 86.5q282 0 438 -162t156 -455q0 -143 -42.5 -286.5t-117.5 -264.5q-214 -344 -623 -344q-285 0 -442.5 158t-157.5 455zM410 590q0 -195 90 -294t258 -99q102 0 191 45.5t147 128.5q69 99 109 224.5 t40 252.5q0 188 -82.5 295.5t-242.5 107.5q-105 0 -195 -43t-154 -125q-75 -94 -118 -223.5t-43 -269.5zM780 1569l256 258h303l-356 -258h-203z" />
<glyph unicode="&#xd4;" horiz-adv-x="1525" d="M139 580q0 152 44 297.5t122 263.5q110 165 267.5 251.5t355.5 86.5q282 0 438 -162t156 -455q0 -143 -42.5 -286.5t-117.5 -264.5q-214 -344 -623 -344q-285 0 -442.5 158t-157.5 455zM410 590q0 -195 90 -294t258 -99q102 0 191 45.5t147 128.5q69 99 109 224.5 t40 252.5q0 188 -82.5 295.5t-242.5 107.5q-105 0 -195 -43t-154 -125q-75 -94 -118 -223.5t-43 -269.5zM633 1569l241 258h248l162 -258h-194l-107 135l-154 -135h-196z" />
<glyph unicode="&#xd5;" horiz-adv-x="1525" d="M139 580q0 152 44 297.5t122 263.5q110 165 267.5 251.5t355.5 86.5q282 0 438 -162t156 -455q0 -143 -42.5 -286.5t-117.5 -264.5q-214 -344 -623 -344q-285 0 -442.5 158t-157.5 455zM410 590q0 -195 90 -294t258 -99q102 0 191 45.5t147 128.5q69 99 109 224.5 t40 252.5q0 188 -82.5 295.5t-242.5 107.5q-105 0 -195 -43t-154 -125q-75 -94 -118 -223.5t-43 -269.5zM610 1636q71 98 124.5 138.5t119.5 40.5q34 0 90 -27l47 -27q54 -28 82 -28q37 0 67.5 19.5t65.5 66.5l115 -82q-60 -87 -116 -130.5t-118 -43.5q-50 0 -106 32l-49 27 q-42 20 -74 20q-76 0 -133 -88z" />
<glyph unicode="&#xd6;" horiz-adv-x="1525" d="M139 580q0 152 44 297.5t122 263.5q110 165 267.5 251.5t355.5 86.5q282 0 438 -162t156 -455q0 -143 -42.5 -286.5t-117.5 -264.5q-214 -344 -623 -344q-285 0 -442.5 158t-157.5 455zM410 590q0 -195 90 -294t258 -99q102 0 191 45.5t147 128.5q69 99 109 224.5 t40 252.5q0 188 -82.5 295.5t-242.5 107.5q-105 0 -195 -43t-154 -125q-75 -94 -118 -223.5t-43 -269.5zM606 1569l47 221h215l-47 -221h-215zM1092 1569l47 221h215l-47 -221h-215z" />
<glyph unicode="&#xd7;" horiz-adv-x="1542" d="M281 315l372 328l-284 330l178 153l284 -329l377 329l142 -165l-375 -330l285 -328l-179 -153l-284 327l-373 -327z" />
<glyph unicode="&#xd8;" horiz-adv-x="1525" d="M2 68l203 184q-66 138 -66 328q0 152 44 297.5t122 263.5q110 165 267.5 251.5t355.5 86.5q288 0 444 -170l189 172l88 -105l-199 -180q72 -141 72 -334q0 -143 -42.5 -286.5t-117.5 -264.5q-214 -344 -623 -344q-303 0 -456 172l-193 -174zM410 590q0 -75 16 -141 l745 681q-84 121 -251 121q-105 0 -195 -43t-154 -125q-75 -94 -118 -223.5t-43 -269.5zM481 317q86 -120 277 -120q102 0 191 45.5t147 128.5q69 99 109 224.5t40 252.5q0 89 -16 149z" />
<glyph unicode="&#xd9;" horiz-adv-x="1413" d="M145 391q0 106 43 297l168 758h260l-163 -739q-47 -206 -47 -283q0 -114 66.5 -175t195.5 -61q237 0 311 166q46 99 90 295l178 797h262l-186 -848q-33 -152 -67 -248.5t-85 -167.5q-84 -116 -215 -165.5t-315 -49.5q-236 0 -366 110t-130 314zM604 1827h293l168 -258 h-188z" />
<glyph unicode="&#xda;" horiz-adv-x="1413" d="M145 391q0 106 43 297l168 758h260l-163 -739q-47 -206 -47 -283q0 -114 66.5 -175t195.5 -61q237 0 311 166q46 99 90 295l178 797h262l-186 -848q-33 -152 -67 -248.5t-85 -167.5q-84 -116 -215 -165.5t-315 -49.5q-236 0 -366 110t-130 314zM778 1569l256 258h303 l-356 -258h-203z" />
<glyph unicode="&#xdb;" horiz-adv-x="1413" d="M145 391q0 106 43 297l168 758h260l-163 -739q-47 -206 -47 -283q0 -114 66.5 -175t195.5 -61q237 0 311 166q46 99 90 295l178 797h262l-186 -848q-33 -152 -67 -248.5t-85 -167.5q-84 -116 -215 -165.5t-315 -49.5q-236 0 -366 110t-130 314zM610 1569l242 258h248 l162 -258h-195l-106 135l-154 -135h-197z" />
<glyph unicode="&#xdc;" horiz-adv-x="1413" d="M145 391q0 106 43 297l168 758h260l-163 -739q-47 -206 -47 -283q0 -114 66.5 -175t195.5 -61q237 0 311 166q46 99 90 295l178 797h262l-186 -848q-33 -152 -67 -248.5t-85 -167.5q-84 -116 -215 -165.5t-315 -49.5q-236 0 -366 110t-130 314zM584 1569l47 221h215 l-47 -221h-215zM1069 1569l47 221h215l-47 -221h-215z" />
<glyph unicode="&#xdd;" horiz-adv-x="1306" d="M229 1446h285q178 -472 238 -651q204 285 489 651h295l-700 -881l-125 -565h-260l131 596zM739 1569l256 258h303l-356 -258h-203z" />
<glyph unicode="&#xde;" horiz-adv-x="1337" d="M43 0l319 1446h263l-56 -242h213q249 0 371 -47q100 -38 155.5 -121.5t55.5 -193.5q0 -154 -66 -275t-188 -182q-146 -76 -473 -76h-268l-68 -309h-258zM418 526h207q215 0 295 27q80 26 123.5 89.5t43.5 148.5q0 133 -108 172q-68 24 -234 24h-225z" />
<glyph unicode="&#xdf;" horiz-adv-x="1138" d="M33 0l205 922q26 121 48 196t54 131q65 119 168.5 173.5t255.5 54.5q175 0 275 -83.5t100 -228.5q0 -312 -318 -385q264 -49 264 -313q0 -214 -134 -349.5t-355 -135.5q-121 0 -211 32l45 201q71 -39 141 -39q125 0 200 79t75 218q0 217 -277 217h-26l39 180h28 q139 0 220 64t81 182q0 78 -43.5 122t-122.5 44q-129 0 -190 -113q-38 -67 -74 -221l-211 -948h-237z" />
<glyph unicode="&#xe0;" horiz-adv-x="1044" d="M33 254q0 116 60.5 193t166.5 116q144 53 490 76q10 53 10 102q0 55 -39.5 87t-116.5 32q-86 0 -136 -36.5t-71 -121.5l-223 35q46 152 154 228.5t305 76.5q358 0 358 -274q0 -52 -20 -150l-82 -413q-10 -51 -10 -109q0 -44 14 -96h-236q-4 29 -4 78q0 32 4 61 q-64 -84 -142 -120.5t-187 -36.5q-133 0 -214 73.5t-81 198.5zM262 279q0 -57 38.5 -89t102.5 -32q108 0 183 69q46 41 72 88.5t44 116.5l11 51q-224 -12 -338 -57q-113 -42 -113 -147zM381 1475h274l121 -308h-172z" />
<glyph unicode="&#xe1;" horiz-adv-x="1044" d="M33 254q0 116 60.5 193t166.5 116q144 53 490 76q10 53 10 102q0 55 -39.5 87t-116.5 32q-86 0 -136 -36.5t-71 -121.5l-223 35q46 152 154 228.5t305 76.5q358 0 358 -274q0 -52 -20 -150l-82 -413q-10 -51 -10 -109q0 -44 14 -96h-236q-4 29 -4 78q0 32 4 61 q-64 -84 -142 -120.5t-187 -36.5q-133 0 -214 73.5t-81 198.5zM262 279q0 -57 38.5 -89t102.5 -32q108 0 183 69q46 41 72 88.5t44 116.5l11 51q-224 -12 -338 -57q-113 -42 -113 -147zM528 1167l213 308h293l-319 -308h-187z" />
<glyph unicode="&#xe2;" horiz-adv-x="1044" d="M33 254q0 116 60.5 193t166.5 116q144 53 490 76q10 53 10 102q0 55 -39.5 87t-116.5 32q-86 0 -136 -36.5t-71 -121.5l-223 35q46 152 154 228.5t305 76.5q358 0 358 -274q0 -52 -20 -150l-82 -413q-10 -51 -10 -109q0 -44 14 -96h-236q-4 29 -4 78q0 32 4 61 q-64 -84 -142 -120.5t-187 -36.5q-133 0 -214 73.5t-81 198.5zM262 279q0 -57 38.5 -89t102.5 -32q108 0 183 69q46 41 72 88.5t44 116.5l11 51q-224 -12 -338 -57q-113 -42 -113 -147zM346 1167l246 308h219l129 -308h-176l-76 179l-145 -179h-197z" />
<glyph unicode="&#xe3;" horiz-adv-x="1044" d="M33 254q0 116 60.5 193t166.5 116q144 53 490 76q10 53 10 102q0 55 -39.5 87t-116.5 32q-86 0 -136 -36.5t-71 -121.5l-223 35q46 152 154 228.5t305 76.5q358 0 358 -274q0 -52 -20 -150l-82 -413q-10 -51 -10 -109q0 -44 14 -96h-236q-4 29 -4 78q0 32 4 61 q-64 -84 -142 -120.5t-187 -36.5q-133 0 -214 73.5t-81 198.5zM262 279q0 -57 38.5 -89t102.5 -32q108 0 183 69q46 41 72 88.5t44 116.5l11 51q-224 -12 -338 -57q-113 -42 -113 -147zM317 1251q64 99 113 139t113 40q42 0 94 -25l47 -27q58 -28 80 -28q34 0 61.5 19 t61.5 65l114 -80q-55 -89 -106.5 -132.5t-112.5 -43.5q-49 0 -108 32l-49 27q-45 20 -74 20q-70 0 -121 -86z" />
<glyph unicode="&#xe4;" horiz-adv-x="1044" d="M33 254q0 116 60.5 193t166.5 116q144 53 490 76q10 53 10 102q0 55 -39.5 87t-116.5 32q-86 0 -136 -36.5t-71 -121.5l-223 35q46 152 154 228.5t305 76.5q358 0 358 -274q0 -52 -20 -150l-82 -413q-10 -51 -10 -109q0 -44 14 -96h-236q-4 29 -4 78q0 32 4 61 q-64 -84 -142 -120.5t-187 -36.5q-133 0 -214 73.5t-81 198.5zM262 279q0 -57 38.5 -89t102.5 -32q108 0 183 69q46 41 72 88.5t44 116.5l11 51q-224 -12 -338 -57q-113 -42 -113 -147zM324 1208l47 219h207l-50 -219h-204zM760 1208l49 219h207l-49 -219h-207z" />
<glyph unicode="&#xe5;" horiz-adv-x="1044" d="M33 254q0 116 60.5 193t166.5 116q144 53 490 76q10 53 10 102q0 55 -39.5 87t-116.5 32q-86 0 -136 -36.5t-71 -121.5l-223 35q46 152 154 228.5t305 76.5q358 0 358 -274q0 -52 -20 -150l-82 -413q-10 -51 -10 -109q0 -44 14 -96h-236q-4 29 -4 78q0 32 4 61 q-64 -84 -142 -120.5t-187 -36.5q-133 0 -214 73.5t-81 198.5zM262 279q0 -57 38.5 -89t102.5 -32q108 0 183 69q46 41 72 88.5t44 116.5l11 51q-224 -12 -338 -57q-113 -42 -113 -147zM465 1315q0 91 61.5 150t155.5 59q88 0 139 -49t51 -134q0 -91 -60.5 -148.5 t-154.5 -57.5q-88 0 -140 48.5t-52 131.5zM563 1321q0 -45 26.5 -72.5t69.5 -27.5q49 0 81 33.5t32 84.5q0 44 -25.5 71.5t-68.5 27.5q-49 0 -82 -33.5t-33 -83.5z" />
<glyph unicode="&#xe6;" horiz-adv-x="1695" d="M33 256q0 168 125 254q85 59 213 82.5t379 44.5q12 78 12 106q0 54 -40 87.5t-118 33.5q-84 0 -134.5 -40t-72.5 -126l-223 35q46 153 154.5 231t304.5 78q117 0 186.5 -35t106.5 -108q137 143 334 143q209 0 309 -124t100 -343q0 -50 -10 -112h-721q0 -61 4 -86 q18 -105 72.5 -157t161.5 -52q75 0 141 42t106 120l191 -121q-157 -236 -461 -236q-277 0 -377 217q-36 -49 -73 -84.5t-87.5 -65.5t-117.5 -45t-150 -15q-138 0 -226.5 76t-88.5 200zM262 279q0 -55 41 -89t103 -34q114 0 186 67q46 42 71 90.5t39 118.5l11 51 q-215 -11 -338 -57q-113 -42 -113 -147zM965 625h467q2 14 2 30q0 86 -49 143.5t-142 57.5q-103 0 -174.5 -58.5t-103.5 -172.5z" />
<glyph unicode="&#xe7;" horiz-adv-x="1026" d="M92 426q0 273 158 445.5t403 172.5q287 0 387 -243l-211 -111q-44 158 -182 158q-141 0 -229 -116.5t-88 -301.5q0 -122 60.5 -192t166.5 -70q148 0 244 166l188 -117q-146 -222 -401 -242l-64 -84q82 -4 127 -47.5t45 -117.5q0 -96 -69 -150.5t-183 -54.5 q-122 0 -196 80l86 94q44 -57 112 -57q50 0 77.5 21.5t27.5 57.5q0 38 -23.5 60t-62.5 22q-45 0 -84 -20l-31 55l115 141q-174 21 -273.5 138.5t-99.5 312.5z" />
<glyph unicode="&#xe8;" horiz-adv-x="1083" d="M90 432q0 264 158 437t399 173q107 0 186.5 -34t128 -96.5t72 -146.5t23.5 -190q0 -55 -10 -110h-719q0 -65 4 -90q29 -209 231 -209q75 0 141.5 42t106.5 120l190 -119q-155 -236 -460 -236q-211 0 -331 120t-120 339zM352 627h467q2 14 2 30q0 86 -48 142.5t-142 56.5 q-103 0 -175.5 -60.5t-103.5 -168.5zM383 1475h274l121 -308h-172z" />
<glyph unicode="&#xe9;" horiz-adv-x="1083" d="M90 432q0 264 158 437t399 173q107 0 186.5 -34t128 -96.5t72 -146.5t23.5 -190q0 -55 -10 -110h-719q0 -65 4 -90q29 -209 231 -209q75 0 141.5 42t106.5 120l190 -119q-155 -236 -460 -236q-211 0 -331 120t-120 339zM352 627h467q2 14 2 30q0 86 -48 142.5t-142 56.5 q-103 0 -175.5 -60.5t-103.5 -168.5zM545 1167l213 308h293l-320 -308h-186z" />
<glyph unicode="&#xea;" horiz-adv-x="1083" d="M90 432q0 264 158 437t399 173q107 0 186.5 -34t128 -96.5t72 -146.5t23.5 -190q0 -55 -10 -110h-719q0 -65 4 -90q29 -209 231 -209q75 0 141.5 42t106.5 120l190 -119q-155 -236 -460 -236q-211 0 -331 120t-120 339zM352 627h467q2 14 2 30q0 86 -48 142.5t-142 56.5 q-103 0 -175.5 -60.5t-103.5 -168.5zM369 1167l245 308h220l129 -308h-177l-75 179l-146 -179h-196z" />
<glyph unicode="&#xeb;" horiz-adv-x="1083" d="M90 432q0 264 158 437t399 173q107 0 186.5 -34t128 -96.5t72 -146.5t23.5 -190q0 -55 -10 -110h-719q0 -65 4 -90q29 -209 231 -209q75 0 141.5 42t106.5 120l190 -119q-155 -236 -460 -236q-211 0 -331 120t-120 339zM342 1208l47 219h207l-49 -219h-205zM352 627h467 q2 14 2 30q0 86 -48 142.5t-142 56.5q-103 0 -175.5 -60.5t-103.5 -168.5zM778 1208l49 219h207l-49 -219h-207z" />
<glyph unicode="&#xec;" d="M33 0l225 1014h240l-228 -1014h-237zM117 1475h274l121 -308h-172z" />
<glyph unicode="&#xed;" d="M33 0l225 1014h240l-228 -1014h-237zM285 1167l213 308h293l-320 -308h-186z" />
<glyph unicode="&#xee;" d="M33 0l225 1014h240l-228 -1014h-237zM90 1167l246 308h219l129 -308h-176l-76 179l-145 -179h-197z" />
<glyph unicode="&#xef;" d="M33 0l225 1014h240l-228 -1014h-237zM92 1208l47 219h207l-49 -219h-205zM510 1208l49 219h207l-49 -219h-207z" />
<glyph unicode="&#xf0;" horiz-adv-x="1136" d="M92 432q0 165 67.5 299t186 209.5t264.5 75.5q111 0 193 -58q-43 116 -98 201l-345 -88l-34 125l311 80q-58 79 -135 156l176 86q107 -101 164 -183l243 64l33 -125l-198 -51q87 -135 129.5 -296.5t42.5 -324.5q0 -284 -150 -457.5t-403 -173.5q-209 0 -328 123t-119 338 zM330 434q0 -126 58.5 -196t164.5 -70q135 0 218 113t83 290q0 271 -211 271q-137 0 -225 -117t-88 -291z" />
<glyph unicode="&#xf1;" horiz-adv-x="1114" d="M33 0l225 1014h229l-34 -156q131 172 348 172q128 0 196 -64.5t68 -187.5q0 -69 -35 -227l-123 -551h-237l110 506q31 140 31 182q0 135 -139 135q-112 0 -195 -96q-37 -41 -58 -97t-42 -151l-107 -479h-237zM362 1251q64 99 113 139t113 40q42 0 94 -25l47 -27 q58 -28 80 -28q34 0 61.5 19t61.5 65l115 -80q-55 -89 -107 -132.5t-113 -43.5q-49 0 -108 32l-49 27q-45 20 -74 20q-70 0 -121 -86z" />
<glyph unicode="&#xf2;" horiz-adv-x="1134" d="M92 430q0 248 141 418q76 93 186 144.5t240 51.5q206 0 320.5 -116.5t114.5 -331.5q0 -241 -123 -408q-73 -103 -182.5 -160t-245.5 -57q-212 0 -331.5 121t-119.5 338zM330 432q0 -126 59 -195t166 -69q155 0 240 151q61 109 61 265q0 126 -52.5 195t-158.5 69 q-141 0 -227 -119q-88 -118 -88 -297zM397 1475h275l121 -308h-172z" />
<glyph unicode="&#xf3;" horiz-adv-x="1134" d="M92 430q0 248 141 418q76 93 186 144.5t240 51.5q206 0 320.5 -116.5t114.5 -331.5q0 -241 -123 -408q-73 -103 -182.5 -160t-245.5 -57q-212 0 -331.5 121t-119.5 338zM330 432q0 -126 59 -195t166 -69q155 0 240 151q61 109 61 265q0 126 -52.5 195t-158.5 69 q-141 0 -227 -119q-88 -118 -88 -297zM559 1167l213 308h293l-320 -308h-186z" />
<glyph unicode="&#xf4;" horiz-adv-x="1134" d="M92 430q0 248 141 418q76 93 186 144.5t240 51.5q206 0 320.5 -116.5t114.5 -331.5q0 -241 -123 -408q-73 -103 -182.5 -160t-245.5 -57q-212 0 -331.5 121t-119.5 338zM330 432q0 -126 59 -195t166 -69q155 0 240 151q61 109 61 265q0 126 -52.5 195t-158.5 69 q-141 0 -227 -119q-88 -118 -88 -297zM377 1167l246 308h219l129 -308h-176l-76 179l-146 -179h-196z" />
<glyph unicode="&#xf5;" horiz-adv-x="1134" d="M92 430q0 248 141 418q76 93 186 144.5t240 51.5q206 0 320.5 -116.5t114.5 -331.5q0 -241 -123 -408q-73 -103 -182.5 -160t-245.5 -57q-212 0 -331.5 121t-119.5 338zM330 432q0 -126 59 -195t166 -69q155 0 240 151q61 109 61 265q0 126 -52.5 195t-158.5 69 q-141 0 -227 -119q-88 -118 -88 -297zM342 1251q64 99 112.5 139t112.5 40q43 0 95 -25l47 -27q58 -28 79 -28q34 0 61.5 19t61.5 65l115 -80q-55 -89 -106.5 -132.5t-112.5 -43.5q-50 0 -109 32l-49 27q-45 20 -74 20q-69 0 -120 -86z" />
<glyph unicode="&#xf6;" horiz-adv-x="1134" d="M92 430q0 248 141 418q76 93 186 144.5t240 51.5q206 0 320.5 -116.5t114.5 -331.5q0 -241 -123 -408q-73 -103 -182.5 -160t-245.5 -57q-212 0 -331.5 121t-119.5 338zM330 432q0 -126 59 -195t166 -69q155 0 240 151q61 109 61 265q0 126 -52.5 195t-158.5 69 q-141 0 -227 -119q-88 -118 -88 -297zM360 1208l48 219h206l-49 -219h-205zM797 1208l49 219h207l-49 -219h-207z" />
<glyph unicode="&#xf7;" horiz-adv-x="1542" d="M225 514l54 227h1140l-53 -227h-1141zM590 115l61 264h230l-62 -264h-229zM768 879l61 264h228l-62 -264h-227z" />
<glyph unicode="&#xf8;" horiz-adv-x="1134" d="M-23 29l170 151q-55 104 -55 250q0 248 141 418q76 93 186 144.5t240 51.5q204 0 318 -114l156 141l71 -84l-164 -147q54 -102 54 -244q0 -241 -123 -408q-73 -103 -182.5 -160t-245.5 -57q-211 0 -332 121l-162 -147zM326 432q0 -44 6 -84l477 430q-55 74 -164 74 q-144 0 -229 -121q-90 -121 -90 -299zM379 242q60 -78 176 -78q77 0 139.5 40t102.5 113q63 113 63 267q0 50 -8 86z" />
<glyph unicode="&#xf9;" horiz-adv-x="1112" d="M96 238q0 71 35 229l121 547h237l-110 -506q-31 -143 -31 -184q0 -66 35.5 -100t103.5 -34q112 0 195 95q37 42 58 98.5t42 151.5l107 479h237l-225 -1014h-229l35 156q-64 -85 -154 -129.5t-195 -44.5q-127 0 -194.5 66.5t-67.5 189.5zM412 1475h274l121 -308h-172z" />
<glyph unicode="&#xfa;" horiz-adv-x="1112" d="M96 238q0 71 35 229l121 547h237l-110 -506q-31 -143 -31 -184q0 -66 35.5 -100t103.5 -34q112 0 195 95q37 42 58 98.5t42 151.5l107 479h237l-225 -1014h-229l35 156q-64 -85 -154 -129.5t-195 -44.5q-127 0 -194.5 66.5t-67.5 189.5zM586 1167l213 308h293l-320 -308 h-186z" />
<glyph unicode="&#xfb;" horiz-adv-x="1112" d="M96 238q0 71 35 229l121 547h237l-110 -506q-31 -143 -31 -184q0 -66 35.5 -100t103.5 -34q112 0 195 95q37 42 58 98.5t42 151.5l107 479h237l-225 -1014h-229l35 156q-64 -85 -154 -129.5t-195 -44.5q-127 0 -194.5 66.5t-67.5 189.5zM412 1167l245 308h220l129 -308 h-177l-75 179l-146 -179h-196z" />
<glyph unicode="&#xfc;" horiz-adv-x="1112" d="M96 238q0 71 35 229l121 547h237l-110 -506q-31 -143 -31 -184q0 -66 35.5 -100t103.5 -34q112 0 195 95q37 42 58 98.5t42 151.5l107 479h237l-225 -1014h-229l35 156q-64 -85 -154 -129.5t-195 -44.5q-127 0 -194.5 66.5t-67.5 189.5zM395 1208l47 219h207l-49 -219 h-205zM831 1208l50 219h206l-49 -219h-207z" />
<glyph unicode="&#xfd;" horiz-adv-x="968" d="M-98 -401l45 194q54 -26 100 -26q34 0 55.5 4.5t50.5 21t57.5 54.5t61.5 100l19 35l-154 1032h246q35 -308 80 -797q147 324 381 797h264l-559 -1039q-116 -214 -182 -282q-63 -67 -134.5 -94t-171.5 -27q-83 0 -159 27zM512 1167l213 308h293l-320 -308h-186z" />
<glyph unicode="&#xfe;" horiz-adv-x="1144" d="M-57 -406l409 1852h240l-129 -559q126 149 317 149q157 0 243.5 -104t86.5 -295q0 -125 -35 -243t-97.5 -211t-159.5 -149.5t-212 -56.5q-219 0 -303 175l-123 -558h-237zM365 403q0 -104 49 -165.5t139 -61.5q134 0 218.5 128t84.5 308q0 232 -186 232q-127 0 -216 -126 t-89 -315z" />
<glyph unicode="&#xff;" horiz-adv-x="968" d="M-98 -401l45 194q54 -26 100 -26q34 0 55.5 4.5t50.5 21t57.5 54.5t61.5 100l19 35l-154 1032h246q35 -308 80 -797q147 324 381 797h264l-559 -1039q-116 -214 -182 -282q-63 -67 -134.5 -94t-171.5 -27q-83 0 -159 27zM315 1208l47 219h207l-49 -219h-205zM752 1208 l49 219h207l-50 -219h-206z" />
<glyph unicode="&#x152;" horiz-adv-x="2252" d="M137 578q0 276 117 493q100 190 266 296t369 106q352 0 446 -267l51 240h947l-45 -217h-680l-84 -373h639l-47 -219h-639l-95 -420h754l-47 -217h-1010l43 178q-77 -102 -184 -152.5t-260 -50.5q-116 0 -213.5 37.5t-171 110.5t-115 189.5t-41.5 265.5zM410 590 q0 -191 89 -289t253 -98q183 0 303 123q90 95 139 233.5t49 286.5q0 193 -84 297t-246 104q-111 0 -206 -52.5t-159.5 -141.5t-101 -209t-36.5 -254z" />
<glyph unicode="&#x153;" horiz-adv-x="1830" d="M90 428q0 249 148 428q76 90 183.5 138t237.5 48q243 0 334 -192q70 91 171 141.5t222 50.5q200 0 305 -122.5t105 -329.5q0 -65 -10 -127h-717q0 -61 4 -90q25 -207 232 -207q75 0 140 42t107 120l189 -119q-155 -236 -451 -236q-263 0 -368 191q-63 -92 -161.5 -141.5 t-217.5 -49.5q-214 0 -333.5 120t-119.5 335zM328 432q0 -126 60 -196t167 -70q76 0 137.5 40.5t102.5 112.5q61 109 61 265q0 126 -52.5 195t-158.5 69q-78 0 -142 -39t-106 -109q-69 -116 -69 -268zM1094 625h467q0 111 -47.5 171t-143.5 60q-103 0 -174 -60.5 t-102 -170.5z" />
<glyph unicode="&#x178;" horiz-adv-x="1306" d="M229 1446h285q178 -472 238 -651q204 285 489 651h295l-700 -881l-125 -565h-260l131 596zM535 1569l47 221h215l-47 -221h-215zM1020 1569l47 221h215l-47 -221h-215z" />
<glyph unicode="&#x2c6;" d="M-57 1167l245 308h220l129 -308h-177l-75 179l-146 -179h-196z" />
<glyph unicode="&#x2dc;" d="M-102 1251q64 99 112.5 139t112.5 40q42 0 94 -25l47 -27q58 -28 80 -28q34 0 61.5 19t61.5 65l115 -80q-55 -89 -107 -132.5t-113 -43.5q-49 0 -108 32l-49 27q-45 20 -74 20q-70 0 -121 -86z" />
<glyph unicode="&#x2000;" horiz-adv-x="936" />
<glyph unicode="&#x2001;" horiz-adv-x="1872" />
<glyph unicode="&#x2002;" horiz-adv-x="936" />
<glyph unicode="&#x2003;" horiz-adv-x="1872" />
<glyph unicode="&#x2004;" horiz-adv-x="624" />
<glyph unicode="&#x2005;" horiz-adv-x="468" />
<glyph unicode="&#x2006;" horiz-adv-x="312" />
<glyph unicode="&#x2007;" horiz-adv-x="312" />
<glyph unicode="&#x2008;" horiz-adv-x="234" />
<glyph unicode="&#x2009;" horiz-adv-x="374" />
<glyph unicode="&#x200a;" horiz-adv-x="104" />
<glyph unicode="&#x2010;" horiz-adv-x="768" d="M115 522l43 193h592l-43 -193h-592z" />
<glyph unicode="&#x2011;" horiz-adv-x="768" d="M115 522l43 193h592l-43 -193h-592z" />
<glyph unicode="&#x2012;" horiz-adv-x="768" d="M115 522l43 193h592l-43 -193h-592z" />
<glyph unicode="&#x2013;" horiz-adv-x="1181" d="M115 522l45 193h1003l-43 -193h-1005z" />
<glyph unicode="&#x2014;" horiz-adv-x="1505" d="M115 522l43 193h1329l-41 -193h-1331z" />
<glyph unicode="&#x2018;" horiz-adv-x="460" d="M217 858l64 287q25 117 69 189.5t137 144.5l97 -93q-61 -47 -88 -92t-52 -139h82l-65 -297h-244z" />
<glyph unicode="&#x2019;" horiz-adv-x="458" d="M213 918q60 45 87 91t52 140h-82l66 297h244l-64 -289q-24 -114 -68 -187.5t-137 -142.5z" />
<glyph unicode="&#x201a;" horiz-adv-x="458" d="M-41 -231q59 48 87 93.5t52 137.5h-82l66 297h244l-64 -287q-26 -117 -69.5 -190t-137.5 -142z" />
<glyph unicode="&#x201c;" horiz-adv-x="841" d="M217 858l64 287q25 117 69 189.5t137 144.5l97 -93q-61 -47 -88 -92t-52 -139h82l-65 -297h-244zM600 858l64 287q25 119 68.5 190.5t137.5 143.5l97 -93q-61 -47 -88 -92t-52 -139h82l-65 -297h-244z" />
<glyph unicode="&#x201d;" horiz-adv-x="841" d="M211 918q60 45 87 91t52 140h-82l66 297h244l-64 -289q-24 -114 -68 -187.5t-137 -142.5zM594 918q60 45 87.5 91.5t51.5 139.5h-82l66 297h244l-64 -289q-26 -118 -69 -189.5t-138 -140.5z" />
<glyph unicode="&#x201e;" horiz-adv-x="841" d="M-41 -231q59 48 87 93.5t52 137.5h-82l66 297h244l-64 -287q-26 -117 -69.5 -190t-137.5 -142zM342 -231q60 46 87.5 93t51.5 138h-82l66 297h244l-64 -287q-26 -118 -69.5 -190.5t-137.5 -141.5z" />
<glyph unicode="&#x2022;" horiz-adv-x="628" d="M84 410l100 467h467l-100 -467h-467z" />
<glyph unicode="&#x2026;" horiz-adv-x="2168" d="M162 0l63 283h236l-64 -283h-235zM885 0l63 283h236l-64 -283h-235zM1608 0l63 283h236l-64 -283h-235z" />
<glyph unicode="&#x202f;" horiz-adv-x="374" />
<glyph unicode="&#x2039;" horiz-adv-x="610" d="M119 565l389 426l115 -112l-289 -324l158 -338l-154 -90z" />
<glyph unicode="&#x203a;" horiz-adv-x="612" d="M57 229l289 328l-156 334l156 92l219 -436l-391 -428z" />
<glyph unicode="&#x205f;" horiz-adv-x="468" />
<glyph unicode="&#x20ac;" horiz-adv-x="1357" d="M131 510l31 131h143q8 77 25 156h-144l33 131h146q73 227 223 354q186 158 465 158q131 0 241.5 -46.5t186.5 -133.5l-148 -189q-49 77 -129 116.5t-170 39.5q-154 0 -259.5 -70t-164.5 -229h615l-29 -131h-623q-17 -67 -24 -156h612l-31 -131h-583q5 -156 84.5 -241 t236.5 -85q101 0 179 38t155 128l129 -186q-192 -195 -504 -195q-245 0 -383 142.5t-143 398.5h-170z" />
<glyph unicode="&#x2122;" horiz-adv-x="1679" d="M264 1303l33 143h551l-33 -143h-190l-125 -572h-166l125 572h-195zM782 731l160 715h244q8 -147 19.5 -324.5t13.5 -206.5q50 109 268 531h252l-160 -715h-164q60 264 133 559q-45 -85 -139.5 -267t-151.5 -292h-157q-34 387 -39 559q-40 -203 -119 -559h-160z" />
<glyph unicode="&#x25fc;" horiz-adv-x="1013" d="M0 0v1014h1014v-1014h-1014z" />
</font>
</defs>
</svg>
