<?xml version="1.0" standalone="no"?>
<!DOCTYPE svg PUBLIC "-//W3C//DTD SVG 1.1//EN" "http://www.w3.org/Graphics/SVG/1.1/DTD/svg11.dtd" >
<svg xmlns="http://www.w3.org/2000/svg">
<metadata></metadata>
<defs>
<font id="akzidenz-grotesk_next_regulIt" horiz-adv-x="432" >
<font-face units-per-em="2048" ascent="1536" descent="-512" />
<missing-glyph horiz-adv-x="500" />
<glyph unicode="&#xfb01;" horiz-adv-x="1026" d="M88 0l195 874h-179l29 130h178l29 118q44 176 84 236q71 115 227 115q65 0 135 -27l-38 -129q-40 22 -80 22q-62 0 -100.5 -41.5t-65.5 -164.5l-29 -129h209l-29 -130h-209l-194 -874h-162zM616 0l226 1004h159l-223 -1004h-162zM899 1264l41 182h160l-41 -182h-160z" />
<glyph unicode="&#xfb02;" horiz-adv-x="1019" d="M88 0l195 874h-179l29 130h178l29 118q44 176 84 236q71 115 227 115q65 0 135 -27l-38 -129q-40 22 -80 22q-62 0 -100.5 -41.5t-65.5 -164.5l-29 -129h209l-29 -130h-209l-194 -874h-162zM616 0l322 1446h160l-320 -1446h-162z" />
<glyph horiz-adv-x="0" />
<glyph horiz-adv-x="682" />
<glyph unicode=" " />
<glyph unicode="!" horiz-adv-x="509" d="M100 0l56 250h170l-56 -250h-170zM215 410q71 440 188 1036h193q-191 -768 -268 -1036h-113z" />
<glyph unicode="&#x22;" horiz-adv-x="745" d="M219 852l76 594h197l-191 -594h-82zM582 852l75 594h197l-190 -594h-82z" />
<glyph unicode="#" horiz-adv-x="1370" d="M135 510l25 113h303l55 235h-297l25 113h299l119 475h114l-116 -475h243l117 475h115l-117 -475h283l-25 -113h-285l-57 -235h283l-25 -113h-283l-127 -510h-116l127 510h-242l-129 -510h-113l125 510h-301zM578 623h241l60 235h-244z" />
<glyph unicode="$" horiz-adv-x="1183" d="M41 342l152 72q20 -116 76.5 -178t162.5 -89l115 519q-176 73 -252 159.5t-76 208.5q0 170 125 272.5t332 102.5h35l37 166h116l-37 -176q246 -42 344 -283l-143 -69q-56 175 -227 217l-109 -471q201 -81 284 -168t83 -226q0 -179 -143 -290t-371 -111h-29l-45 -205h-119 l47 213q-135 26 -226.5 113t-131.5 223zM381 1057q0 -77 48 -130.5t155 -101.5l100 449q-143 0 -223 -55.5t-80 -161.5zM549 133q164 3 256 69.5t92 190.5q0 85 -51.5 133t-188.5 105z" />
<glyph unicode="%" horiz-adv-x="1906" d="M158 836q0 193 90 362q125 229 354 229q281 0 281 -315q0 -115 -37 -238t-96 -202q-113 -156 -293 -156q-146 0 -222.5 80t-76.5 240zM293 829q0 -97 43 -145.5t123 -48.5q113 0 180 104q49 72 77.5 176.5t28.5 204.5q0 99 -39 145t-118 46q-62 0 -116.5 -36.5 t-92.5 -103.5t-62 -159.5t-24 -182.5zM496 0l860 1411h137l-860 -1411h-137zM1098 303q0 194 90 363q125 229 354 229q281 0 281 -315q0 -115 -37 -238.5t-96 -202.5q-112 -155 -293 -155q-146 0 -222.5 79.5t-76.5 239.5zM1233 297q0 -97 43.5 -146t122.5 -49 q112 0 180 105q49 73 78 177.5t29 203.5q0 98 -39.5 144t-118.5 46q-62 0 -116.5 -36t-92.5 -103t-62 -159.5t-24 -182.5z" />
<glyph unicode="&#x26;" horiz-adv-x="1302" d="M47 369q0 170 115 288q58 59 129.5 102t191.5 91q-73 145 -73 266q0 146 98.5 238t251.5 92q133 0 215 -69.5t82 -186.5q0 -125 -85.5 -219.5t-273.5 -179.5l213 -424q56 66 92 126.5t68 141.5l137 -82q-30 -70 -92.5 -163t-130.5 -159q32 -56 61.5 -79t77.5 -23 q17 0 27 2l-31 -141q-12 -2 -28 -2q-92 0 -139.5 28.5t-94.5 108.5q-172 -143 -395 -143q-193 0 -304.5 109.5t-111.5 277.5zM225 375q0 -102 69.5 -172t197.5 -70q162 0 296 115l-241 475q-174 -73 -248 -152t-74 -196zM571 1124q0 -49 13.5 -92t52.5 -125q134 56 196 121 t62 154q0 52 -37.5 90.5t-99.5 38.5q-88 0 -137.5 -49.5t-49.5 -137.5z" />
<glyph unicode="'" horiz-adv-x="382" d="M219 852l76 594h197l-191 -594h-82z" />
<glyph unicode="(" horiz-adv-x="798" d="M166 291q0 394 174 725q93 178 223.5 315t308.5 246l43 -80q-190 -130 -340 -360q-123 -187 -188 -414t-65 -459q0 -389 190 -600l-66 -55q-280 241 -280 682z" />
<glyph unicode=")" horiz-adv-x="796" d="M-92 -309q190 130 340 360q123 187 188.5 414.5t65.5 458.5q0 388 -191 600l66 55q280 -241 280 -682q0 -394 -174 -725q-93 -178 -223.5 -315t-308.5 -246z" />
<glyph unicode="*" horiz-adv-x="661" d="M201 1251l49 99l199 -97l40 217h115l-57 -227l217 55l16 -98l-227 -55l104 -199l-98 -53l-94 205l-170 -183l-82 70l190 182z" />
<glyph unicode="+" horiz-adv-x="1515" d="M188 547l37 160h488l108 491h166l-108 -491h487l-37 -160h-487l-107 -488h-166l107 488h-488z" />
<glyph unicode="," horiz-adv-x="409" d="M-61 -227q60 52 86.5 104.5t40.5 122.5h-74l55 250h189l-56 -246q-48 -209 -168 -293z" />
<glyph unicode="-" horiz-adv-x="747" d="M96 532l33 144h559l-31 -144h-561z" />
<glyph unicode="." horiz-adv-x="411" d="M2 0l55 250h179l-56 -250h-178z" />
<glyph unicode="/" horiz-adv-x="878" d="M-172 -360l1075 1910h146l-1078 -1910h-143z" />
<glyph unicode="0" horiz-adv-x="1134" d="M92 492q0 272 98 518q85 206 222.5 317t308.5 111q395 0 395 -516q0 -301 -104 -555q-76 -189 -207 -291.5t-295 -102.5q-197 0 -307.5 128.5t-110.5 390.5zM258 477q0 -167 68.5 -262.5t187.5 -95.5q81 0 143 34t115 111q82 121 129 296t47 368q0 188 -58 276t-177 88 q-109 0 -202 -79.5t-155 -221.5q-98 -223 -98 -514z" />
<glyph unicode="1" horiz-adv-x="1134" d="M362 1063l33 147q123 8 210 61.5t128 149.5h146l-316 -1421h-170l254 1147q-68 -45 -134.5 -64.5t-150.5 -19.5z" />
<glyph unicode="2" horiz-adv-x="1134" d="M-8 0l33 137q30 19 146 92.5t172 110.5t147.5 99t159.5 115.5t122 104.5q191 182 191 383q0 114 -72 182t-201 68q-157 0 -242.5 -92.5t-85.5 -259.5q0 -12 7 -80l-176 29q-3 30 -3 49q0 229 142 364.5t377 135.5q200 0 314 -106t114 -288q0 -243 -199 -434 q-58 -54 -88.5 -80.5t-105 -84.5t-187 -132t-276.5 -174q317 8 684 8l-35 -147h-938z" />
<glyph unicode="3" horiz-adv-x="1134" d="M33 338l160 59q24 -138 96 -208t200 -70q147 0 236.5 80t89.5 219q0 120 -92.5 182t-298.5 62h-21l29 135q62 -4 82 -4q190 0 294.5 78t104.5 214q0 96 -61.5 151.5t-175.5 55.5q-216 0 -307 -229l-152 76q136 299 477 299q179 0 279 -89t100 -235q0 -161 -95 -266 t-280 -125q132 -13 209.5 -100t77.5 -211q0 -199 -137 -319t-359 -120q-188 0 -305 96t-151 269z" />
<glyph unicode="4" horiz-adv-x="1134" d="M35 330l28 133l773 948h219l-211 -940h231l-28 -141h-232l-74 -330h-163l73 330h-616zM248 471h432q88 391 190 786q-92 -115 -179 -225.5t-210.5 -266.5t-232.5 -294z" />
<glyph unicode="5" horiz-adv-x="1134" d="M59 309l160 66q21 -128 96.5 -192t192.5 -64q160 0 259 113.5t99 304.5q0 137 -63.5 208.5t-181.5 71.5q-186 0 -289 -160l-133 39l184 715h733l-33 -147h-591l-113 -420q134 112 307 112q168 0 260 -108.5t92 -302.5q0 -252 -145 -412t-375 -160q-176 0 -295 85 t-164 251z" />
<glyph unicode="6" horiz-adv-x="1134" d="M139 463q0 202 60 416q74 266 228.5 412.5t363.5 146.5q293 0 366 -281l-151 -61q-22 110 -82 153t-150 43q-70 0 -132.5 -27.5t-122 -87t-108.5 -167.5t-79 -256q65 84 161.5 129t204.5 45q169 0 267 -106t98 -290q0 -243 -143 -401t-363 -158q-201 0 -309.5 128.5 t-108.5 361.5zM299 420q0 -133 68 -217t190 -84q145 0 242.5 109.5t97.5 285.5q0 135 -64 209t-182 74q-147 0 -249.5 -109t-102.5 -268z" />
<glyph unicode="7" horiz-adv-x="1134" d="M227 0q114 370 297.5 674.5t452.5 589.5h-748l33 147h932l-29 -133q-281 -306 -459.5 -614t-279.5 -664h-199z" />
<glyph unicode="8" horiz-adv-x="1134" d="M78 367q0 154 101 262t263 125q-95 39 -145.5 114t-50.5 181q0 175 129 282t327 107q197 0 309.5 -92.5t112.5 -255.5q0 -285 -315 -359q225 -84 225 -325q0 -196 -138 -314.5t-357 -118.5q-215 0 -338 106t-123 288zM244 365q0 -111 82 -179.5t219 -68.5q141 0 230 84.5 t89 212.5q0 119 -76.5 185.5t-209.5 66.5q-154 0 -244 -80t-90 -221zM406 1040q0 -105 72 -167t190 -62q129 0 211 74t82 196q0 102 -71 157.5t-192 55.5q-132 0 -212 -68t-80 -186z" />
<glyph unicode="9" horiz-adv-x="1134" d="M51 254l154 61q38 -196 237 -196q162 0 269.5 122t167.5 416q-65 -84 -161.5 -129t-205.5 -45q-169 0 -267 106t-98 290q0 243 143 401t363 158q201 0 309.5 -128.5t108.5 -361.5q0 -205 -59 -416q-155 -559 -584 -559q-147 0 -244 73.5t-133 207.5zM313 897 q0 -135 64 -209t182 -74q147 0 249.5 109t102.5 268q0 133 -68 217t-190 84q-145 0 -242.5 -109.5t-97.5 -285.5z" />
<glyph unicode=":" horiz-adv-x="505" d="M96 0l56 250h178l-56 -250h-178zM264 754l55 252h179l-56 -252h-178z" />
<glyph unicode=";" horiz-adv-x="505" d="M35 -227q60 52 86.5 104.5t40.5 122.5h-74l55 250h189l-56 -246q-48 -210 -167 -293zM264 754l55 252h179l-56 -252h-178z" />
<glyph unicode="&#x3c;" horiz-adv-x="1515" d="M219 522l37 174l1096 490l-45 -203l-893 -387l721 -379l-35 -178z" />
<glyph unicode="=" horiz-adv-x="1515" d="M154 352l36 160h1141l-37 -160h-1140zM238 737l36 160h1141l-37 -160h-1140z" />
<glyph unicode="&#x3e;" horiz-adv-x="1515" d="M207 39l45 203l893 387l-721 379l35 178l880 -484l-36 -174z" />
<glyph unicode="?" horiz-adv-x="1103" d="M266 1012q5 84 10 116q29 162 155 253.5t321 91.5q180 0 283.5 -83t103.5 -239q0 -120 -61 -217t-212 -217l-86 -68q-57 -46 -84 -74t-47.5 -69.5t-32.5 -106.5h-151q25 135 59 194t129 134l76 59q134 105 186 184t52 167q0 93 -62 140.5t-168 47.5q-144 0 -226.5 -76.5 t-82.5 -214.5q0 -32 4 -65zM381 0l53 248h172l-55 -248h-170z" />
<glyph unicode="@" horiz-adv-x="1888" d="M162 532q0 171 50.5 326.5t140.5 275.5t209 208.5t262.5 135t295.5 46.5q319 0 509 -176.5t190 -481.5q0 -139 -41.5 -264.5t-109 -211.5t-153 -136.5t-172.5 -50.5q-76 0 -130.5 43t-61.5 127q-48 -76 -130.5 -123t-160.5 -47q-136 0 -212.5 84.5t-76.5 232.5 q0 117 43 226.5t113 187t161.5 124t184.5 46.5q59 0 105 -24.5t71 -69.5l19 80h145q-131 -548 -131 -652q0 -53 18.5 -79.5t61.5 -26.5q78 0 151.5 69t121.5 192.5t48 266.5q0 252 -153 394.5t-414 142.5q-174 0 -325.5 -68t-256.5 -183.5t-165 -272.5t-60 -332 q0 -290 174 -460.5t486 -170.5q371 0 639 227l69 -110q-298 -250 -735 -250q-362 0 -571 207t-209 548zM721 535q0 -96 41.5 -148.5t118.5 -52.5q92 0 166.5 76t112.5 183t38 214q0 170 -143 170q-82 0 -159.5 -61.5t-126 -165t-48.5 -215.5z" />
<glyph unicode="A" horiz-adv-x="1261" d="M-119 0l854 1446h195l213 -1446h-182l-56 397h-600l-231 -397h-193zM379 541h512q-59 430 -92 747q-161 -297 -420 -747z" />
<glyph unicode="B" horiz-adv-x="1314" d="M35 0l321 1446h512q228 0 328 -74q46 -32 74 -94.5t28 -134.5q0 -162 -80 -258.5t-260 -130.5q131 -22 195 -91t64 -194q0 -106 -45 -202.5t-125 -157.5q-51 -38 -107.5 -61.5t-128 -33t-125 -12t-145.5 -2.5h-506zM242 152h305q199 0 297 34q90 32 140 104.5t50 168.5 q0 160 -131 203q-57 18 -233 18h-310zM393 825h316q166 0 264 37q76 29 112.5 92t36.5 144q0 122 -82 162q-69 34 -243 34h-303z" />
<glyph unicode="C" horiz-adv-x="1370" d="M125 600q0 174 53.5 331t149.5 275q102 128 241.5 198.5t304.5 70.5q200 0 324 -86q114 -77 176 -261l-157 -75q-65 270 -338 270q-249 0 -396 -184q-80 -98 -129 -242t-49 -289q0 -234 108.5 -357.5t311.5 -123.5q126 0 231.5 69t163.5 195l148 -86q-189 -334 -563 -334 q-272 0 -426 162t-154 467z" />
<glyph unicode="D" horiz-adv-x="1398" d="M35 0l321 1446h389q164 0 261.5 -16.5t164.5 -53.5q96 -54 149.5 -171t53.5 -271q0 -236 -88 -455.5t-264 -345.5q-52 -38 -114.5 -64t-115 -39.5t-126 -20.5t-119 -8t-123.5 -1h-389zM244 152h211q154 0 258.5 19t199.5 85q137 98 208 283t71 379q0 230 -125 317 q-50 32 -124 45.5t-206 13.5h-243z" />
<glyph unicode="E" horiz-adv-x="1210" d="M35 0l321 1446h895l-32 -152h-721l-105 -467h682l-35 -151h-682l-114 -524h807l-35 -152h-981z" />
<glyph unicode="F" horiz-adv-x="1132" d="M35 0l321 1446h901l-34 -152h-727l-103 -467h684l-35 -151h-684l-147 -676h-176z" />
<glyph unicode="G" horiz-adv-x="1486" d="M125 569q0 262 96.5 468.5t269.5 322t392 115.5q429 0 528 -361l-166 -76q-31 145 -127.5 215t-236.5 70q-115 0 -212 -43t-163 -114.5t-112 -167.5t-67.5 -200.5t-21.5 -213.5q0 -210 108.5 -333.5t305.5 -123.5q92 0 167.5 30.5t145.5 104.5q61 66 96 141t68 207h-451 l35 156h619l-166 -766h-164l49 190q-89 -112 -191 -164.5t-255 -52.5q-244 0 -395.5 162.5t-151.5 433.5z" />
<glyph unicode="H" horiz-adv-x="1421" d="M35 0l321 1446h174l-137 -619h768l139 619h175l-322 -1446h-174l149 676h-770l-149 -676h-174z" />
<glyph unicode="I" horiz-adv-x="479" d="M35 0l321 1446h176l-319 -1446h-178z" />
<glyph unicode="J" horiz-adv-x="827" d="M-115 59l74 164q81 -96 221 -96q132 0 207 96q31 40 58 107t38.5 111t30.5 128l195 877h174l-211 -952q-42 -188 -88 -283q-60 -122 -155 -181t-234 -59q-97 0 -170 20t-140 68z" />
<glyph unicode="K" horiz-adv-x="1308" d="M35 0l321 1446h174l-172 -776l865 776h225l-637 -576l381 -870h-197l-319 752l-371 -316l-94 -436h-176z" />
<glyph unicode="L" horiz-adv-x="1124" d="M35 0l321 1446h174l-286 -1294h743l-35 -152h-917z" />
<glyph unicode="M" horiz-adv-x="1679" d="M35 0l321 1446h252q75 -527 164 -1210q300 548 692 1210h265l-322 -1446h-176q149 673 299 1288q-234 -416 -739 -1288h-134q-140 923 -176 1298q-150 -741 -274 -1298h-172z" />
<glyph unicode="N" horiz-adv-x="1449" d="M35 0l321 1446h189q361 -805 528 -1215q67 343 262 1215h164l-319 -1446h-183q-308 685 -389 870.5t-141 341.5q-49 -239 -264 -1212h-168z" />
<glyph unicode="O" horiz-adv-x="1480" d="M123 571q0 264 117 492q104 202 269 307t376 105q265 0 409 -158.5t144 -444.5q0 -251 -117 -485q-208 -416 -639 -416q-270 0 -414.5 155.5t-144.5 444.5zM303 571q0 -217 100.5 -330.5t288.5 -113.5q106 0 203 42.5t160 123.5q90 117 143 267t53 300q0 213 -93.5 338 t-276.5 125q-236 0 -381 -174q-93 -110 -145 -262.5t-52 -315.5z" />
<glyph unicode="P" horiz-adv-x="1296" d="M35 0l321 1446h418q206 0 324 -23q116 -23 178.5 -106t62.5 -209q0 -141 -75.5 -257t-206.5 -171q-137 -59 -436 -59h-275l-135 -621h-176zM379 772h242q215 0 315 31q102 31 158.5 105t56.5 179q0 76 -38 124.5t-101 64.5q-76 18 -275 18h-241z" />
<glyph unicode="Q" horiz-adv-x="1480" d="M123 571q0 264 117 492q104 202 269 307t376 105q265 0 409 -158.5t144 -444.5q0 -251 -117 -485q-70 -139 -170 -235l276 -238l-118 -115l-279 260q-149 -88 -348 -88q-270 0 -414.5 155.5t-144.5 444.5zM303 571q0 -217 100.5 -330.5t288.5 -113.5q106 0 203 42.5 t160 123.5q90 117 143 267t53 300q0 213 -93.5 338t-276.5 125q-236 0 -381 -174q-93 -110 -145 -262.5t-52 -315.5z" />
<glyph unicode="R" horiz-adv-x="1273" d="M35 0l321 1446h389q148 0 225.5 -9t137.5 -32q91 -34 144 -118.5t53 -196.5q0 -95 -39.5 -180.5t-110.5 -145.5q-116 -100 -313 -129l274 -635h-196l-250 623h-324l-135 -623h-176zM379 772h309q118 0 187.5 14t123.5 52q121 86 121 233q0 91 -48.5 144t-137.5 67 q-74 12 -205 12h-233z" />
<glyph unicode="S" horiz-adv-x="1208" d="M16 336l170 84q32 -139 135.5 -216t233.5 -77q169 0 267 69t98 185q0 94 -63 154t-177 108l-174 74q-275 117 -275 360q0 174 140 286t366 112q185 0 305 -72.5t195 -228.5l-166 -84q-90 233 -338 233q-151 0 -237 -63.5t-86 -165.5q0 -86 53.5 -142t161.5 -102l172 -74 q160 -68 232.5 -155t72.5 -213q0 -192 -144 -314.5t-401 -122.5q-186 0 -330 93t-211 272z" />
<glyph unicode="T" horiz-adv-x="1105" d="M209 1294l33 152h1038l-33 -152h-428l-287 -1294h-178l289 1294h-434z" />
<glyph unicode="U" horiz-adv-x="1386" d="M133 381q0 90 49 317l166 748h174l-162 -727q-28 -130 -38.5 -191.5t-10.5 -115.5q0 -285 303 -285q278 0 371 199q59 127 94 299l187 821h174l-183 -830q-35 -158 -65.5 -252t-77.5 -165q-83 -125 -211.5 -176.5t-310.5 -51.5q-214 0 -336.5 106.5t-122.5 303.5z" />
<glyph unicode="V" horiz-adv-x="1200" d="M203 1446h188q95 -810 141 -1249q233 444 682 1249h189l-821 -1446h-185z" />
<glyph unicode="W" horiz-adv-x="1771" d="M201 1446h180q5 -112 17.5 -381.5t20.5 -463.5t13 -380q64 145 134 296t114.5 244t158 325.5t175.5 359.5h164q4 -87 26 -534t29 -691q117 271 563 1225h182l-696 -1446h-182q-7 137 -21 382.5t-23.5 444.5t-13.5 383q-94 -209 -182.5 -397t-153.5 -320.5t-243 -492.5 h-182z" />
<glyph unicode="X" horiz-adv-x="1230" d="M-119 0l668 764l-311 682h200q195 -462 242 -572q231 286 475 572h207l-602 -701l352 -745h-197q-226 491 -288 633q-105 -127 -303.5 -360.5t-231.5 -272.5h-211z" />
<glyph unicode="Y" horiz-adv-x="1224" d="M203 1446h192q238 -619 271 -709q121 163 555 709h206l-708 -866l-127 -580h-176l133 602z" />
<glyph unicode="Z" horiz-adv-x="1191" d="M-55 0l30 135l1100 1159h-825l31 152h1026l-29 -146l-1081 -1148h850l-33 -152h-1069z" />
<glyph unicode="[" horiz-adv-x="665" d="M8 -362l426 1914h395l-24 -106h-234l-376 -1702h235l-24 -106h-398z" />
<glyph unicode="\" horiz-adv-x="878" d="M322 1550h141l231 -1910h-139z" />
<glyph unicode="]" horiz-adv-x="665" d="M-127 -362l25 106h233l377 1702h-236l25 106h397l-426 -1914h-395z" />
<glyph unicode="^" horiz-adv-x="1515" d="M244 584l622 862h178l230 -860h-176l-174 682l-482 -684h-198z" />
<glyph unicode="_" horiz-adv-x="1384" d="M-170 -416l25 111h1382l-25 -111h-1382z" />
<glyph unicode="`" d="M66 1466h182l119 -303h-111z" />
<glyph unicode="a" horiz-adv-x="999" d="M23 248q0 78 31.5 143.5t86.5 102.5q80 53 207.5 81t388.5 48q17 91 17 137q0 67 -49.5 103t-139.5 36q-102 0 -162 -45t-86 -143l-153 30q37 143 136.5 216t289.5 73q160 0 239.5 -61.5t79.5 -194.5q0 -63 -22 -170l-72 -328q-10 -46 -10 -86q0 -37 18 -54t62 -17 q14 0 24 2l-22 -121q-66 -4 -84 -4q-72 0 -112 29.5t-40 85.5q0 31 2 43q-123 -172 -340 -172q-133 0 -211.5 72.5t-78.5 193.5zM180 254q0 -69 46.5 -106t125.5 -37q115 0 193 67q64 56 96 113t57 149l15 64q-260 -17 -394 -68q-139 -52 -139 -182z" />
<glyph unicode="b" horiz-adv-x="1087" d="M27 0l321 1446h158l-123 -559q134 137 313 137q153 0 236.5 -99.5t83.5 -281.5q0 -174 -63.5 -325.5t-179 -244.5t-255.5 -93q-209 0 -301 176l-35 -156h-155zM283 377q0 -120 53.5 -190t157.5 -70q105 0 188.5 74.5t127.5 191.5t44 250q0 256 -215 256q-146 0 -251 -148 t-105 -364z" />
<glyph unicode="c" horiz-adv-x="983" d="M74 414q0 269 152.5 442.5t383.5 173.5q271 0 355 -225l-144 -80q-57 172 -211 172q-166 0 -271.5 -134t-105.5 -345q0 -142 71 -225.5t194 -83.5q93 0 158 45.5t122 138.5l129 -86q-146 -232 -422 -232q-195 0 -303 115t-108 324z" />
<glyph unicode="d" horiz-adv-x="1091" d="M72 352q0 183 67.5 337.5t186.5 244.5t264 90q221 0 280 -182l136 604h157l-319 -1446h-162l37 156q-55 -87 -138 -131.5t-184 -44.5q-156 0 -240.5 99t-84.5 273zM233 365q0 -248 211 -248q149 0 254 155t105 383q0 114 -50 174t-147 60q-106 0 -192 -72.5t-133.5 -192 t-47.5 -259.5z" />
<glyph unicode="e" horiz-adv-x="1040" d="M74 418q0 264 151.5 438t376.5 174q181 0 277 -102.5t96 -298.5q0 -71 -12 -144h-727q-5 -46 -5 -73q0 -147 72.5 -225t200.5 -78q89 0 161.5 47t118.5 133l131 -86q-77 -118 -180.5 -173t-242.5 -55q-200 0 -309 113t-109 330zM258 608h551q2 14 2 51q0 111 -57.5 174.5 t-159.5 63.5q-123 0 -210 -76t-126 -213z" />
<glyph unicode="f" horiz-adv-x="595" d="M88 0l195 874h-179l29 130h178l29 118q44 176 84 236q71 115 227 115q65 0 135 -27l-38 -129q-40 22 -80 22q-62 0 -100.5 -41.5t-65.5 -164.5l-29 -129h201l-29 -130h-201l-194 -874h-162z" />
<glyph unicode="g" horiz-adv-x="1087" d="M-10 -125l164 29q0 -96 55 -151.5t170 -55.5q136 0 207 80q38 44 59.5 96.5t48.5 171.5l21 88q-63 -75 -135 -110t-174 -35q-155 0 -244.5 102.5t-89.5 280.5q0 179 68 329t187 238t263 88q226 0 282 -188l37 166h156l-213 -961q-34 -152 -61 -223.5t-86 -132.5 q-123 -123 -338 -123q-177 0 -275.5 81.5t-101.5 229.5zM233 371q0 -121 59 -183.5t161 -62.5q82 0 155 52.5t121 144.5q35 66 54.5 159.5t19.5 182.5q0 107 -51 167t-148 60q-156 0 -263.5 -149t-107.5 -371z" />
<glyph unicode="h" horiz-adv-x="1067" d="M27 0l321 1446h156l-131 -588q135 160 342 160q127 0 195.5 -63.5t68.5 -184.5q0 -76 -37 -238l-119 -532h-159l112 508q35 153 35 213q0 77 -42.5 116.5t-121.5 39.5q-131 0 -235 -117q-46 -52 -70 -113.5t-45 -154.5l-109 -492h-161z" />
<glyph unicode="i" d="M27 0l225 1004h160l-224 -1004h-161zM299 1257l43 189h164l-43 -189h-164z" />
<glyph unicode="j" horiz-adv-x="446" d="M-293 -410l35 136q50 -29 96 -29q72 0 109 45q50 59 86 223l233 1039h160l-238 -1059q-29 -126 -50 -181.5t-62 -107.5q-74 -92 -221 -92q-78 0 -148 26zM313 1257l43 189h164l-43 -189h-164z" />
<glyph unicode="k" horiz-adv-x="997" d="M27 0l321 1446h160l-211 -944l547 502h203l-437 -400l281 -604h-178l-230 504l-227 -195l-70 -309h-159z" />
<glyph unicode="l" horiz-adv-x="436" d="M27 0l321 1446h160l-320 -1446h-161z" />
<glyph unicode="m" horiz-adv-x="1632" d="M27 0l223 1004h156l-33 -146q140 160 309 160q203 0 250 -170q72 77 155 123.5t195 46.5q127 0 194.5 -63.5t67.5 -184.5q0 -76 -37 -238l-118 -532h-160l112 508q35 153 35 213q0 80 -34 118t-111 38q-118 0 -221 -115q-44 -51 -66 -105.5t-37 -124.5l-119 -532h-159 l112 508q35 153 35 213q0 80 -34 118t-111 38q-118 0 -221 -115q-45 -51 -68.5 -113.5t-44.5 -156.5l-109 -492h-161z" />
<glyph unicode="n" horiz-adv-x="1067" d="M27 0l223 1004h156l-33 -146q135 160 344 160q127 0 194.5 -63.5t67.5 -184.5q0 -76 -37 -238l-119 -532h-159l112 508q35 153 35 213q0 77 -41.5 116.5t-120.5 39.5q-133 0 -237 -117q-46 -52 -70 -113.5t-45 -154.5l-109 -492h-161z" />
<glyph unicode="o" horiz-adv-x="1089" d="M74 414q0 251 141 426q73 91 175.5 140.5t223.5 49.5q188 0 292 -111.5t104 -320.5q0 -215 -99 -381q-69 -115 -177.5 -178.5t-244.5 -63.5q-195 0 -305 116t-110 323zM236 414q0 -148 67.5 -226.5t194.5 -78.5q92 0 164.5 49t119.5 139q66 126 66 287q0 147 -59.5 230 t-186.5 83q-158 0 -262 -135q-104 -136 -104 -348z" />
<glyph unicode="p" horiz-adv-x="1087" d="M-63 -414l313 1418h158l-25 -115q134 137 313 137q153 0 236.5 -99.5t83.5 -281.5q0 -174 -63.5 -326t-179 -245.5t-255.5 -93.5q-209 0 -301 176l-125 -570h-155zM283 377q0 -120 53.5 -190t157.5 -70q105 0 188.5 75t127.5 192.5t44 250.5q0 256 -215 256 q-146 0 -251 -149t-105 -365z" />
<glyph unicode="q" horiz-adv-x="1091" d="M72 365q0 174 63 326t178.5 245.5t255.5 93.5q209 0 301 -176l33 150h156l-316 -1418h-157l119 535q-134 -137 -314 -137q-153 0 -236 99.5t-83 281.5zM233 375q0 -256 216 -256q146 0 251 149t105 365q0 120 -53.5 190t-157.5 70q-105 0 -189 -75t-128 -192.5 t-44 -250.5z" />
<glyph unicode="r" horiz-adv-x="673" d="M27 0l223 1004h158l-39 -166q113 176 270 176q63 0 121 -27l-41 -153q-48 28 -117 28q-61 0 -120 -40t-101 -107q-48 -74 -90 -256l-103 -459h-161z" />
<glyph unicode="s" horiz-adv-x="901" d="M6 229l137 78q25 -89 101.5 -143.5t163.5 -54.5q99 0 156 42t57 113q0 58 -36.5 93.5t-117.5 70.5l-109 45q-206 85 -206 266q0 130 101.5 210.5t260.5 80.5q129 0 212.5 -52.5t137.5 -160.5l-139 -76q-29 76 -85.5 116t-133.5 40q-88 0 -141.5 -35t-53.5 -100 q0 -54 33.5 -92.5t126.5 -77.5l80 -35q128 -53 180.5 -121.5t52.5 -159.5q0 -136 -104 -218.5t-272 -82.5q-136 0 -241.5 63.5t-160.5 190.5z" />
<glyph unicode="t" horiz-adv-x="600" d="M100 874l29 130h176l76 335h160l-76 -335h199l-29 -130h-199l-112 -509q-25 -116 -25 -146q0 -98 102 -98q44 0 97 20l-31 -141q-59 -12 -127 -12q-107 0 -160 43t-53 135q0 54 23 151l126 557h-176z" />
<glyph unicode="u" horiz-adv-x="1067" d="M90 240q0 86 35 239l117 525h159l-112 -508q-35 -153 -35 -213q0 -77 41.5 -116.5t120.5 -39.5q133 0 237 117q46 52 70 113.5t45 154.5l109 492h161l-223 -1004h-156l33 145q-134 -159 -344 -159q-125 0 -191.5 66t-66.5 188z" />
<glyph unicode="v" horiz-adv-x="872" d="M109 1004h167q26 -224 93 -830q204 416 432 830h180l-563 -1004h-172z" />
<glyph unicode="w" horiz-adv-x="1384" d="M109 1004h155q7 -95 23 -280.5t25 -311.5t14 -252q187 427 395 844h170q33 -708 37 -844q169 385 399 844h170l-514 -1004h-172q-31 553 -39 836q-138 -293 -403 -836h-172z" />
<glyph unicode="x" horiz-adv-x="884" d="M-92 0l446 528l-219 476h174q138 -327 166 -394q214 280 307 394h181l-414 -502l239 -502h-174q-178 388 -190 414q-64 -78 -173 -215.5t-159 -198.5h-184z" />
<glyph unicode="y" horiz-adv-x="888" d="M-141 -410l35 136q53 -29 98 -29q28 0 45 3t41 15t46 36.5t52 68.5t68 110l24 43l-157 1031h168q57 -455 104 -861q197 400 440 861h181l-619 -1125q-86 -153 -147 -217q-53 -56 -109.5 -77t-136.5 -21q-66 0 -133 26z" />
<glyph unicode="z" horiz-adv-x="866" d="M-45 0l27 115l684 759h-502l29 130h706l-25 -111l-679 -764h546l-28 -129h-758z" />
<glyph unicode="{" horiz-adv-x="722" d="M109 573l16 78q78 21 118.5 52.5t67.5 93t56 188.5l43 195q17 76 36.5 133t41.5 99.5t52 71.5t62 48.5t78.5 30.5t93 16t113.5 8l-21 -94q-74 -13 -115.5 -28.5t-77 -53t-57.5 -95.5t-45 -159l-41 -186q-21 -94 -39.5 -152.5t-47.5 -108.5t-70 -76.5t-99 -37.5 q51 -27 82 -80t31 -119q0 -84 -31 -207l-34 -143q-25 -106 -25 -182q0 -75 39 -115t121 -61l-21 -84q-62 3 -115 19t-96.5 46t-68.5 78.5t-25 110.5q0 83 21 168l45 186q28 116 28 186q0 123 -116 174z" />
<glyph unicode="|" horiz-adv-x="524" d="M-25 -362l424 1914h162l-424 -1914h-162z" />
<glyph unicode="}" horiz-adv-x="722" d="M-129 -395l20 94q74 13 115.5 28.5t77 53t57.5 95.5t45 159l41 186q21 94 39.5 152.5t47.5 108.5t70 76.5t99 37.5q-51 27 -81.5 80t-30.5 119q0 87 30 206l35 144q25 106 25 182q0 75 -39 115t-121 61l21 84q62 -3 115 -19t96.5 -46t68.5 -78.5t25 -110.5 q0 -83 -21 -168l-45 -186q-29 -121 -29 -186q0 -124 117 -175l-16 -77q-78 -21 -118.5 -52.5t-67.5 -93t-56 -188.5l-43 -195q-17 -76 -36.5 -133t-41.5 -99.5t-52 -71.5t-62 -48.5t-78.5 -30.5t-93 -16t-113.5 -8z" />
<glyph unicode="~" horiz-adv-x="1464" d="M139 565q189 223 369 223q70 0 122 -19.5t148 -78.5q78 -47 119 -64.5t80 -17.5q34 0 66 9.5t55 22t52.5 39t47.5 45.5t51 56l105 -116q-90 -105 -189 -164.5t-186 -59.5q-60 0 -116.5 18.5t-141.5 71.5q-83 52 -128 72.5t-89 20.5q-68 0 -129.5 -41t-132.5 -136z" />
<glyph unicode="&#xa0;" />
<glyph unicode="&#xa1;" horiz-adv-x="509" d="M14 -2q185 741 269 1036h112q-71 -440 -188 -1036h-193zM285 1194l55 250h170l-55 -250h-170z" />
<glyph unicode="&#xa2;" horiz-adv-x="1054" d="M121 412q0 174 72.5 314.5t196 219.5t274.5 84l34 158h117l-39 -164q194 -28 277 -211l-140 -78q-23 65 -60.5 102t-102.5 48l-172 -766q185 5 280 151l117 -98q-159 -197 -406 -197h-22l-39 -178h-119l43 187q-144 30 -227.5 142t-83.5 286zM283 416q0 -232 180 -285 l170 758q-83 -4 -151.5 -46.5t-111 -110t-65 -149t-22.5 -167.5z" />
<glyph unicode="&#xa3;" horiz-adv-x="1216" d="M-16 150q0 89 55 141.5t149 52.5q62 0 110 -15.5t126 -54.5q31 63 31 170q0 68 -23 181h-258l25 123h213q-33 172 -33 227q0 226 124.5 344.5t346.5 118.5q301 0 393 -285l-160 -74q-22 107 -78.5 160t-154.5 53q-150 0 -226.5 -79t-76.5 -228q0 -79 28 -237h412 l-24 -123h-369q10 -98 10 -168q0 -129 -63 -240q95 -50 151.5 -67t104.5 -17q83 0 133.5 49.5t75.5 157.5l149 -51q-40 -137 -125 -219t-219 -82q-83 0 -164 26t-180 88q-61 -68 -125 -94t-154 -26q-96 0 -150 47.5t-54 120.5zM119 152q0 -27 23.5 -45.5t64.5 -18.5 q90 0 160 76q-89 59 -168 59q-38 0 -59 -18.5t-21 -52.5z" />
<glyph unicode="&#xa4;" horiz-adv-x="1388" d="M137 260l158 139q-94 133 -94 295q0 204 137 350l-139 162l98 86l141 -159q131 94 299 94q201 0 348 -135l160 141l88 -100l-159 -142q51 -70 73.5 -139t22.5 -154q0 -202 -137 -348l141 -162l-100 -88l-140 160q-134 -94 -301 -94q-205 0 -350 133l-158 -137zM334 698 q0 -175 115 -291t288 -116q170 0 286 117t116 290q0 172 -116 288t-288 116q-167 0 -284 -113.5t-117 -290.5z" />
<glyph unicode="&#xa5;" horiz-adv-x="1271" d="M111 438l26 113h414l10 43l-45 117h-344l27 112h274l-235 588h180q168 -450 252 -694q204 259 573 694h187l-500 -588h264l-27 -112h-331l-107 -127l-8 -33h412l-27 -113h-412l-96 -438h-168l96 438h-415z" />
<glyph unicode="&#xa6;" horiz-adv-x="520" d="M-25 -362l179 808h163l-180 -808h-162zM219 743l180 809h162l-178 -809h-164z" />
<glyph unicode="&#xa7;" horiz-adv-x="1144" d="M6 -6l139 100q38 -104 119 -154.5t189 -50.5q129 0 199.5 50.5t70.5 128.5q0 54 -31 93.5t-102 76.5l-230 122q-233 124 -233 312q0 264 319 336q-59 49 -81.5 98.5t-22.5 114.5q0 134 107.5 218.5t283.5 84.5q276 0 406 -238l-146 -78q-38 89 -102 130.5t-162 41.5 q-115 0 -170 -42.5t-55 -104.5q0 -48 29.5 -86.5t109.5 -81.5l201 -111q116 -63 169.5 -132.5t53.5 -159.5q0 -117 -71 -207.5t-232 -153.5q70 -53 97.5 -104.5t27.5 -116.5q0 -148 -121 -242t-317 -94q-311 0 -445 250zM283 692q0 -62 40 -103.5t144 -96.5l205 -109 q235 74 235 246q0 70 -37 110t-147 99l-162 88q-146 -33 -212 -86.5t-66 -147.5z" />
<glyph unicode="&#xa8;" d="M-86 1219l41 186h145l-41 -186h-145zM332 1219l43 186h145l-41 -186h-147z" />
<glyph unicode="&#xa9;" horiz-adv-x="1689" d="M135 727q0 155 59.5 294.5t161.5 239.5t243.5 159t299.5 59q155 0 294.5 -58.5t240.5 -157.5t160 -236.5t59 -289.5q0 -215 -97.5 -391t-267.5 -276.5t-377 -100.5q-160 0 -304 59.5t-247.5 160.5t-164 241.5t-60.5 296.5zM225 725q0 -137 54 -261.5t145 -214.5t217 -143 t264 -53q135 0 256.5 52.5t209.5 141t140 211.5t52 259q0 191 -86.5 346.5t-238 243.5t-337.5 88q-140 0 -265 -52.5t-215.5 -141.5t-143 -213.5t-52.5 -262.5zM459 649q0 157 64 282.5t178 196t257 70.5q241 0 338 -192l-118 -76q-59 145 -217 145q-156 0 -255.5 -120 t-99.5 -310q0 -120 71 -201.5t193 -81.5q84 0 145.5 34.5t117.5 115.5l102 -92q-135 -180 -371 -180q-184 0 -294.5 111.5t-110.5 297.5z" />
<glyph unicode="&#xaa;" horiz-adv-x="854" d="M137 831q0 126 101 197q59 41 158 63t321 42q16 75 16 106q0 53 -39.5 82t-109.5 29q-84 0 -128.5 -31.5t-68.5 -112.5l-137 29q71 227 356 227q258 0 258 -217q0 -53 -16 -119l-51 -235q-17 -79 -17 -105q0 -29 15 -41t51 -12h22l-22 -100l-17 -2q-18 -2 -45 -2 q-77 0 -107 23.5t-32 64.5q0 19 4 39q-59 -74 -126.5 -107t-153.5 -33q-106 0 -169 58.5t-63 156.5zM276 844q0 -115 134 -115q96 0 170.5 72.5t105.5 191.5l10 43q-228 -22 -324 -61.5t-96 -130.5z" />
<glyph unicode="&#xab;" horiz-adv-x="944" d="M96 557l373 399l82 -79l-303 -330l166 -338l-109 -64zM465 557l373 399l84 -79l-304 -330l166 -338l-110 -64z" />
<glyph unicode="&#xac;" horiz-adv-x="1515" d="M162 547l37 160h1140l-143 -648h-166l107 488h-975z" />
<glyph unicode="&#xad;" horiz-adv-x="747" d="M96 532l33 144h559l-31 -144h-561z" />
<glyph unicode="&#xae;" horiz-adv-x="1689" d="M135 727q0 155 59.5 294.5t161.5 239.5t243.5 159t299.5 59q155 0 294.5 -58.5t240.5 -157.5t160 -236.5t59 -289.5q0 -215 -97.5 -391t-267.5 -276.5t-377 -100.5q-160 0 -304 59.5t-247.5 160.5t-164 241.5t-60.5 296.5zM225 725q0 -137 54 -261.5t145 -214.5t217 -143 t264 -53q135 0 256.5 52.5t209.5 141t140 211.5t52 259q0 191 -86.5 346.5t-238 243.5t-337.5 88q-140 0 -265 -52.5t-215.5 -141.5t-143 -213.5t-52.5 -262.5zM514 291l199 895h256q156 0 227 -39q47 -27 73.5 -74.5t26.5 -109.5q0 -130 -82 -209q-39 -38 -86 -56t-116 -28 l196 -379h-155l-181 366h-145l-80 -366h-133zM756 778h155q119 0 183.5 38t64.5 130q0 82 -76 111q-36 14 -151 14h-113z" />
<glyph unicode="&#xaf;" d="M-53 1221l30 133h508l-32 -133h-506z" />
<glyph unicode="&#xb0;" horiz-adv-x="745" d="M203 1165q0 127 90.5 217.5t216.5 90.5q133 0 223 -88.5t90 -219.5q0 -129 -89.5 -218t-219.5 -89q-129 0 -220 90t-91 217zM309 1165q0 -85 59.5 -144.5t145.5 -59.5q85 0 144 59.5t59 144.5q0 83 -59 143t-142 60q-86 0 -146.5 -59t-60.5 -144z" />
<glyph unicode="&#xb1;" horiz-adv-x="1515" d="M90 0l37 160h1141l-37 -160h-1141zM260 797l37 159h487l107 471h166l-107 -471h488l-37 -159h-488l-102 -469h-166l103 469h-488z" />
<glyph unicode="&#xb2;" horiz-adv-x="843" d="M176 901l25 98l321 189q164 97 235.5 172.5t71.5 175.5q0 64 -47.5 103.5t-124.5 39.5q-102 0 -159.5 -56t-57.5 -153q0 -18 6 -45l-139 21v20q0 148 97 239t268 91q144 0 224.5 -67t80.5 -183q0 -68 -23 -123t-84.5 -119t-174 -134.5t-287.5 -159.5q243 8 471 8 l-29 -117h-674z" />
<glyph unicode="&#xb3;" horiz-adv-x="843" d="M207 1128l125 52q21 -94 71.5 -136.5t133.5 -42.5q92 0 149 42.5t57 117.5q0 74 -60.5 105.5t-197.5 31.5h-28l24 109q23 -2 58 -2q272 0 272 164q0 55 -41.5 84.5t-114.5 29.5q-155 0 -206 -151l-119 55q93 209 332 209q135 0 211.5 -58t76.5 -161q0 -92 -61 -152 t-172 -75q84 -15 127 -64.5t43 -126.5q0 -122 -98 -198t-250 -76q-274 0 -332 243z" />
<glyph unicode="&#xb4;" d="M8 1163l209 303h207l-293 -303h-123z" />
<glyph unicode="&#xb5;" horiz-adv-x="1067" d="M-59 -365l305 1369h160l-115 -515q-27 -132 -27 -194q0 -84 45 -128t129 -44q78 0 153 53.5t114 132.5q21 41 36 90.5t39 159.5l101 445h159l-221 -1004h-155l34 145q-63 -84 -130 -123.5t-160 -39.5q-167 0 -207 141l-109 -488h-151z" />
<glyph unicode="&#xb6;" horiz-adv-x="1179" d="M209 1018q0 121 58.5 222t162.5 153q64 31 132 42t200 11h534l-22 -105h-123l-363 -1632h-108l364 1632h-321l-363 -1632h-108l213 971q-256 80 -256 338z" />
<glyph unicode="&#xb7;" horiz-adv-x="411" d="M102 467l56 252h178l-55 -252h-179z" />
<glyph unicode="&#xb8;" d="M6 -379l74 90q46 -63 113 -63q47 0 73.5 20.5t26.5 57.5q0 34 -22.5 54.5t-57.5 20.5q-42 0 -80 -16l-29 43l144 192h88l-88 -129q83 0 130.5 -42t47.5 -113q0 -96 -63.5 -143.5t-169.5 -47.5q-51 0 -102.5 20t-84.5 56z" />
<glyph unicode="&#xb9;" horiz-adv-x="843" d="M434 1542l27 115q182 13 235 135h123l-207 -891h-141l160 682q-74 -41 -197 -41z" />
<glyph unicode="&#xba;" horiz-adv-x="927" d="M180 971q0 217 121.5 355t316.5 138q158 0 243 -90.5t85 -261.5q0 -141 -51.5 -254t-149 -178.5t-223.5 -65.5q-163 0 -252.5 93t-89.5 264zM322 971q0 -116 52.5 -179t149.5 -63q121 0 202 109.5t81 279.5q0 106 -50 170t-143 64q-128 0 -210 -106.5t-82 -274.5z" />
<glyph unicode="&#xbb;" horiz-adv-x="944" d="M31 209l305 338l-164 330l111 69l209 -409l-373 -402zM401 209l304 338l-162 330l110 69l209 -409l-375 -402z" />
<glyph unicode="&#xbc;" horiz-adv-x="1906" d="M350 1174l27 114q182 13 235 135h123l-207 -891h-141l160 682q-73 -40 -197 -40zM465 0l860 1411h137l-860 -1411h-137zM985 199l27 110l534 570h172l-135 -574h160l-25 -106h-157l-48 -199h-137l47 199h-438zM1151 307h297q101 402 111 438q-77 -91 -408 -438z" />
<glyph unicode="&#xbd;" horiz-adv-x="1906" d="M338 1174l27 114q182 13 235 135h123l-207 -891h-141l160 682q-72 -40 -197 -40zM414 0l860 1411h137l-860 -1411h-137zM979 0l25 98l321 189q164 97 235.5 172.5t71.5 175.5q0 64 -47.5 103.5t-124.5 39.5q-102 0 -159.5 -56t-57.5 -153q0 -18 6 -45l-139 21v20 q0 148 97 239t268 91q144 0 224.5 -67t80.5 -183q0 -68 -23 -123t-85 -119t-174.5 -134.5t-287.5 -159.5q243 8 471 8l-28 -117h-674z" />
<glyph unicode="&#xbe;" horiz-adv-x="1906" d="M135 760l125 51q21 -94 71.5 -136t133.5 -42q92 0 149.5 42.5t57.5 117.5q0 74 -60.5 105.5t-197.5 31.5h-29l25 108q23 -2 57 -2q272 0 272 164q0 55 -41 85t-114 30q-156 0 -207 -152l-119 56q92 208 332 208q135 0 212 -58t77 -161q0 -92 -61 -152t-173 -75 q84 -15 127 -64t43 -126q0 -122 -98 -198.5t-250 -76.5q-274 0 -332 244zM524 0l860 1411h138l-860 -1411h-138zM1024 199l27 110l534 570h172l-135 -574h160l-25 -106h-158l-47 -199h-137l47 199h-438zM1190 307h297q13 50 34.5 139t40 162.5t35.5 136.5 q-85 -100 -407 -438z" />
<glyph unicode="&#xbf;" horiz-adv-x="1103" d="M57 295q0 120 61 217t212 217l86 68q57 46 84 74t47.5 69.5t32.5 106.5h151q-25 -135 -59 -194t-129 -134l-76 -60q-134 -105 -186 -183.5t-52 -166.5q0 -93 62 -140.5t168 -47.5q144 0 226.5 76.5t82.5 214.5q0 32 -4 65l166 -43q-5 -85 -10 -117q-29 -161 -155 -252.5 t-321 -91.5q-180 0 -283.5 83t-103.5 239zM590 1198l55 248h170l-53 -248h-172z" />
<glyph unicode="&#xc0;" horiz-adv-x="1261" d="M-119 0l854 1446h195l213 -1446h-182l-56 397h-600l-231 -397h-193zM379 541h512q-59 430 -92 747q-161 -297 -420 -747zM592 1819h209l145 -242h-131z" />
<glyph unicode="&#xc1;" horiz-adv-x="1261" d="M-119 0l854 1446h195l213 -1446h-182l-56 397h-600l-231 -397h-193zM379 541h512q-59 430 -92 747q-161 -297 -420 -747zM725 1577l229 242h220l-302 -242h-147z" />
<glyph unicode="&#xc2;" horiz-adv-x="1261" d="M-119 0l854 1446h195l213 -1446h-182l-56 397h-600l-231 -397h-193zM379 541h512q-59 430 -92 747q-161 -297 -420 -747zM551 1575l244 244h159l176 -244h-141l-129 137l-172 -137h-137z" />
<glyph unicode="&#xc3;" horiz-adv-x="1261" d="M-119 0l854 1446h195l213 -1446h-182l-56 397h-600l-231 -397h-193zM379 541h512q-59 430 -92 747q-161 -297 -420 -747zM545 1638q65 80 115 114t102 34q34 0 90 -29l41 -24q53 -29 72 -29q30 0 54.5 17t67.5 65l87 -70q-118 -143 -218 -143q-36 0 -96 33l-49 28 q-30 19 -61 19q-59 0 -121 -84z" />
<glyph unicode="&#xc4;" horiz-adv-x="1261" d="M-119 0l854 1446h195l213 -1446h-182l-56 397h-600l-231 -397h-193zM379 541h512q-59 430 -92 747q-161 -297 -420 -747zM520 1577l41 184h152l-41 -184h-152zM1010 1577l41 184h151l-41 -184h-151z" />
<glyph unicode="&#xc5;" horiz-adv-x="1261" d="M-119 0l854 1446h195l213 -1446h-182l-56 397h-600l-231 -397h-193zM379 541h512q-59 430 -92 747q-161 -297 -420 -747zM664 1667q0 80 54.5 133t137.5 53q80 0 129 -46t49 -121q0 -80 -55 -133.5t-139 -53.5q-79 0 -127.5 46.5t-48.5 121.5zM754 1669q0 -40 24 -65 t64 -25q43 0 72.5 30t29.5 74q0 41 -24 66t-62 25q-46 0 -75 -30t-29 -75z" />
<glyph unicode="&#xc6;" horiz-adv-x="2004" d="M-119 0l1153 1446h996l-33 -152h-705l-104 -467h661l-32 -151h-662l-117 -524h787l-33 -152h-963l84 381h-526l-301 -381h-205zM494 524h450l180 807q-572 -734 -630 -807z" />
<glyph unicode="&#xc7;" horiz-adv-x="1370" d="M125 600q0 174 53.5 331t149.5 275q102 128 241.5 198.5t304.5 70.5q200 0 324 -86q114 -77 176 -261l-157 -75q-65 270 -338 270q-249 0 -396 -184q-80 -98 -129 -242t-49 -289q0 -234 108.5 -357.5t311.5 -123.5q126 0 231.5 69t163.5 195l148 -86q-186 -328 -551 -334 l-58 -84q87 0 137 -43t50 -116q0 -98 -66 -146.5t-178 -48.5q-53 0 -106.5 20.5t-87.5 57.5l77 92q46 -65 117 -65q50 0 77.5 20.5t27.5 58.5q0 36 -24 57t-60 21q-44 0 -82 -16l-31 43l115 153q-236 22 -368 182t-132 443z" />
<glyph unicode="&#xc8;" horiz-adv-x="1210" d="M35 0l321 1446h895l-32 -152h-721l-105 -467h682l-35 -151h-682l-114 -524h807l-35 -152h-981zM555 1819h209l145 -242h-131z" />
<glyph unicode="&#xc9;" horiz-adv-x="1210" d="M35 0l321 1446h895l-32 -152h-721l-105 -467h682l-35 -151h-682l-114 -524h807l-35 -152h-981zM705 1577l229 242h219l-301 -242h-147z" />
<glyph unicode="&#xca;" horiz-adv-x="1210" d="M35 0l321 1446h895l-32 -152h-721l-105 -467h682l-35 -151h-682l-114 -524h807l-35 -152h-981zM516 1575l244 244h160l176 -244h-142l-129 137l-172 -137h-137z" />
<glyph unicode="&#xcb;" horiz-adv-x="1210" d="M35 0l321 1446h895l-32 -152h-721l-105 -467h682l-35 -151h-682l-114 -524h807l-35 -152h-981zM508 1577l41 184h151l-41 -184h-151zM997 1577l41 184h152l-41 -184h-152z" />
<glyph unicode="&#xcc;" horiz-adv-x="479" d="M35 0l321 1446h176l-319 -1446h-178zM217 1819h209l145 -242h-131z" />
<glyph unicode="&#xcd;" horiz-adv-x="479" d="M35 0l321 1446h176l-319 -1446h-178zM356 1577l230 242h219l-301 -242h-148z" />
<glyph unicode="&#xce;" horiz-adv-x="479" d="M35 0l321 1446h176l-319 -1446h-178zM170 1575l244 244h159l177 -244h-142l-129 137l-172 -137h-137z" />
<glyph unicode="&#xcf;" horiz-adv-x="479" d="M35 0l321 1446h176l-319 -1446h-178zM172 1577l41 184h152l-41 -184h-152zM621 1577l41 184h151l-41 -184h-151z" />
<glyph unicode="&#xd0;" horiz-adv-x="1398" d="M35 0l153 696h-145l29 131h147l137 619h389q164 0 261.5 -16.5t164.5 -53.5q96 -54 149.5 -171t53.5 -271q0 -153 -43.5 -314t-120.5 -282q-69 -111 -169.5 -188.5t-211.5 -110.5q-78 -22 -166.5 -30.5t-238.5 -8.5h-389zM244 152h211q220 0 327 38q168 60 269 218 q67 103 104 239.5t37 270.5q0 230 -125 317q-50 32 -124 45.5t-206 13.5h-243l-103 -467h488l-29 -131h-488z" />
<glyph unicode="&#xd1;" horiz-adv-x="1449" d="M35 0l321 1446h189q361 -805 528 -1215q67 343 262 1215h164l-319 -1446h-183q-308 685 -389 870.5t-141 341.5q-49 -239 -264 -1212h-168zM643 1638q65 80 115 114t102 34q34 0 90 -29l41 -24q53 -29 72 -29q30 0 55 17.5t68 64.5l86 -70q-118 -143 -217 -143 q-37 0 -97 33l-49 28q-30 19 -61 19q-59 0 -121 -84z" />
<glyph unicode="&#xd2;" horiz-adv-x="1480" d="M123 571q0 264 117 492q104 202 269 307t376 105q265 0 409 -158.5t144 -444.5q0 -251 -117 -485q-208 -416 -639 -416q-270 0 -414.5 155.5t-144.5 444.5zM303 571q0 -217 100.5 -330.5t288.5 -113.5q106 0 203 42.5t160 123.5q90 117 143 267t53 300q0 213 -93.5 338 t-276.5 125q-236 0 -381 -174q-93 -110 -145 -262.5t-52 -315.5zM649 1819h209l146 -242h-132z" />
<glyph unicode="&#xd3;" horiz-adv-x="1480" d="M123 571q0 264 117 492q104 202 269 307t376 105q265 0 409 -158.5t144 -444.5q0 -251 -117 -485q-208 -416 -639 -416q-270 0 -414.5 155.5t-144.5 444.5zM303 571q0 -217 100.5 -330.5t288.5 -113.5q106 0 203 42.5t160 123.5q90 117 143 267t53 300q0 213 -93.5 338 t-276.5 125q-236 0 -381 -174q-93 -110 -145 -262.5t-52 -315.5zM803 1577l229 242h219l-301 -242h-147z" />
<glyph unicode="&#xd4;" horiz-adv-x="1480" d="M123 571q0 264 117 492q104 202 269 307t376 105q265 0 409 -158.5t144 -444.5q0 -251 -117 -485q-208 -416 -639 -416q-270 0 -414.5 155.5t-144.5 444.5zM303 571q0 -217 100.5 -330.5t288.5 -113.5q106 0 203 42.5t160 123.5q90 117 143 267t53 300q0 213 -93.5 338 t-276.5 125q-236 0 -381 -174q-93 -110 -145 -262.5t-52 -315.5zM631 1575l243 244h160l176 -244h-141l-129 137l-172 -137h-137z" />
<glyph unicode="&#xd5;" horiz-adv-x="1480" d="M123 571q0 264 117 492q104 202 269 307t376 105q265 0 409 -158.5t144 -444.5q0 -251 -117 -485q-208 -416 -639 -416q-270 0 -414.5 155.5t-144.5 444.5zM303 571q0 -217 100.5 -330.5t288.5 -113.5q106 0 203 42.5t160 123.5q90 117 143 267t53 300q0 213 -93.5 338 t-276.5 125q-236 0 -381 -174q-93 -110 -145 -262.5t-52 -315.5zM627 1638q65 80 115 114t102 34q34 0 90 -29l41 -24q53 -29 72 -29q30 0 54.5 17t67.5 65l86 -70q-118 -143 -217 -143q-36 0 -96 33l-49 28q-30 19 -62 19q-58 0 -120 -84z" />
<glyph unicode="&#xd6;" horiz-adv-x="1480" d="M123 571q0 264 117 492q104 202 269 307t376 105q265 0 409 -158.5t144 -444.5q0 -251 -117 -485q-208 -416 -639 -416q-270 0 -414.5 155.5t-144.5 444.5zM303 571q0 -217 100.5 -330.5t288.5 -113.5q106 0 203 42.5t160 123.5q90 117 143 267t53 300q0 213 -93.5 338 t-276.5 125q-236 0 -381 -174q-93 -110 -145 -262.5t-52 -315.5zM596 1577l41 184h151l-40 -184h-152zM1085 1577l41 184h152l-41 -184h-152z" />
<glyph unicode="&#xd7;" horiz-adv-x="1515" d="M260 285l393 348l-297 348l125 106l299 -346l396 349l100 -119l-395 -348l301 -347l-125 -106l-301 346l-396 -348z" />
<glyph unicode="&#xd8;" horiz-adv-x="1480" d="M-6 51l196 187q-67 134 -67 333q0 264 117 492q104 202 269 307t376 105q280 0 426 -179l180 172l70 -79l-193 -183q70 -140 70 -334q0 -251 -117 -485q-208 -416 -639 -416q-290 0 -434 176l-185 -174zM303 571q0 -110 29 -202l844 800q-95 154 -295 154 q-236 0 -381 -174q-93 -110 -145 -262.5t-52 -315.5zM379 270q100 -143 313 -143q106 0 203 42.5t160 123.5q90 117 143 267t53 300q0 114 -28 209z" />
<glyph unicode="&#xd9;" horiz-adv-x="1386" d="M133 381q0 90 49 317l166 748h174l-162 -727q-28 -130 -38.5 -191.5t-10.5 -115.5q0 -285 303 -285q278 0 371 199q59 127 94 299l187 821h174l-183 -830q-35 -158 -65.5 -252t-77.5 -165q-83 -125 -211.5 -176.5t-310.5 -51.5q-214 0 -336.5 106.5t-122.5 303.5z M641 1819h209l145 -242h-131z" />
<glyph unicode="&#xda;" horiz-adv-x="1386" d="M133 381q0 90 49 317l166 748h174l-162 -727q-28 -130 -38.5 -191.5t-10.5 -115.5q0 -285 303 -285q278 0 371 199q59 127 94 299l187 821h174l-183 -830q-35 -158 -65.5 -252t-77.5 -165q-83 -125 -211.5 -176.5t-310.5 -51.5q-214 0 -336.5 106.5t-122.5 303.5z M784 1577l230 242h219l-301 -242h-148z" />
<glyph unicode="&#xdb;" horiz-adv-x="1386" d="M133 381q0 90 49 317l166 748h174l-162 -727q-28 -130 -38.5 -191.5t-10.5 -115.5q0 -285 303 -285q278 0 371 199q59 127 94 299l187 821h174l-183 -830q-35 -158 -65.5 -252t-77.5 -165q-83 -125 -211.5 -176.5t-310.5 -51.5q-214 0 -336.5 106.5t-122.5 303.5z M614 1575l244 244h160l176 -244h-141l-129 137l-172 -137h-138z" />
<glyph unicode="&#xdc;" horiz-adv-x="1386" d="M133 381q0 90 49 317l166 748h174l-162 -727q-28 -130 -38.5 -191.5t-10.5 -115.5q0 -285 303 -285q278 0 371 199q59 127 94 299l187 821h174l-183 -830q-35 -158 -65.5 -252t-77.5 -165q-83 -125 -211.5 -176.5t-310.5 -51.5q-214 0 -336.5 106.5t-122.5 303.5z M580 1577l41 184h151l-41 -184h-151zM1069 1577l41 184h152l-41 -184h-152z" />
<glyph unicode="&#xdd;" horiz-adv-x="1224" d="M203 1446h192q238 -619 271 -709q121 163 555 709h206l-708 -866l-127 -580h-176l133 602zM705 1577l229 242h219l-301 -242h-147z" />
<glyph unicode="&#xde;" horiz-adv-x="1296" d="M35 0l321 1446h174l-63 -279h246q208 0 321 -22q117 -26 180.5 -108.5t63.5 -205.5q0 -147 -71 -258t-197 -167q-146 -64 -449 -64h-276l-74 -342h-176zM317 494h236q241 0 338 30q199 63 199 277q0 158 -146 196q-75 19 -248 19h-262z" />
<glyph unicode="&#xdf;" horiz-adv-x="1077" d="M27 0l204 920q50 227 93 317q59 124 155 181t238 57q154 0 244 -77.5t90 -215.5q0 -314 -326 -394q123 -17 192.5 -101t69.5 -216q0 -208 -131.5 -347.5t-341.5 -139.5q-108 0 -209 39l35 143q87 -49 166 -49q140 0 228.5 99t88.5 259q0 126 -78 186t-241 60h-27l29 135 h33q162 0 259 80t97 219q0 92 -50.5 139t-142.5 47q-161 0 -229 -151q-37 -82 -82 -277l-203 -913h-161z" />
<glyph unicode="&#xe0;" horiz-adv-x="999" d="M23 248q0 78 31.5 143.5t86.5 102.5q80 53 207.5 81t388.5 48q17 91 17 137q0 67 -49.5 103t-139.5 36q-102 0 -162 -45t-86 -143l-153 30q37 143 136.5 216t289.5 73q160 0 239.5 -61.5t79.5 -194.5q0 -63 -22 -170l-72 -328q-10 -46 -10 -86q0 -37 18 -54t62 -17 q14 0 24 2l-22 -121q-66 -4 -84 -4q-72 0 -112 29.5t-40 85.5q0 31 2 43q-123 -172 -340 -172q-133 0 -211.5 72.5t-78.5 193.5zM180 254q0 -69 46.5 -106t125.5 -37q115 0 193 67q64 56 96 113t57 149l15 64q-260 -17 -394 -68q-139 -52 -139 -182zM387 1466h182l119 -303 h-110z" />
<glyph unicode="&#xe1;" horiz-adv-x="999" d="M23 248q0 78 31.5 143.5t86.5 102.5q80 53 207.5 81t388.5 48q17 91 17 137q0 67 -49.5 103t-139.5 36q-102 0 -162 -45t-86 -143l-153 30q37 143 136.5 216t289.5 73q160 0 239.5 -61.5t79.5 -194.5q0 -63 -22 -170l-72 -328q-10 -46 -10 -86q0 -37 18 -54t62 -17 q14 0 24 2l-22 -121q-66 -4 -84 -4q-72 0 -112 29.5t-40 85.5q0 31 2 43q-123 -172 -340 -172q-133 0 -211.5 72.5t-78.5 193.5zM180 254q0 -69 46.5 -106t125.5 -37q115 0 193 67q64 56 96 113t57 149l15 64q-260 -17 -394 -68q-139 -52 -139 -182zM514 1163l209 303h207 l-293 -303h-123z" />
<glyph unicode="&#xe2;" horiz-adv-x="999" d="M23 248q0 78 31.5 143.5t86.5 102.5q80 53 207.5 81t388.5 48q17 91 17 137q0 67 -49.5 103t-139.5 36q-102 0 -162 -45t-86 -143l-153 30q37 143 136.5 216t289.5 73q160 0 239.5 -61.5t79.5 -194.5q0 -63 -22 -170l-72 -328q-10 -46 -10 -86q0 -37 18 -54t62 -17 q14 0 24 2l-22 -121q-66 -4 -84 -4q-72 0 -112 29.5t-40 85.5q0 31 2 43q-123 -172 -340 -172q-133 0 -211.5 72.5t-78.5 193.5zM180 254q0 -69 46.5 -106t125.5 -37q115 0 193 67q64 56 96 113t57 149l15 64q-260 -17 -394 -68q-139 -52 -139 -182zM348 1163l240 303h160 l133 -303h-131l-95 187l-174 -187h-133z" />
<glyph unicode="&#xe3;" horiz-adv-x="999" d="M23 248q0 78 31.5 143.5t86.5 102.5q80 53 207.5 81t388.5 48q17 91 17 137q0 67 -49.5 103t-139.5 36q-102 0 -162 -45t-86 -143l-153 30q37 143 136.5 216t289.5 73q160 0 239.5 -61.5t79.5 -194.5q0 -63 -22 -170l-72 -328q-10 -46 -10 -86q0 -37 18 -54t62 -17 q14 0 24 2l-22 -121q-66 -4 -84 -4q-72 0 -112 29.5t-40 85.5q0 31 2 43q-123 -172 -340 -172q-133 0 -211.5 72.5t-78.5 193.5zM180 254q0 -69 46.5 -106t125.5 -37q115 0 193 67q64 56 96 113t57 149l15 64q-260 -17 -394 -68q-139 -52 -139 -182zM313 1260q54 79 100 113 t99 34q42 0 98 -27l45 -24q56 -29 76 -29q31 0 55.5 17t59.5 63l88 -70q-98 -143 -199 -143q-47 0 -104 31l-53 28q-34 19 -64 19q-64 0 -115 -82z" />
<glyph unicode="&#xe4;" horiz-adv-x="999" d="M23 248q0 78 31.5 143.5t86.5 102.5q80 53 207.5 81t388.5 48q17 91 17 137q0 67 -49.5 103t-139.5 36q-102 0 -162 -45t-86 -143l-153 30q37 143 136.5 216t289.5 73q160 0 239.5 -61.5t79.5 -194.5q0 -63 -22 -170l-72 -328q-10 -46 -10 -86q0 -37 18 -54t62 -17 q14 0 24 2l-22 -121q-66 -4 -84 -4q-72 0 -112 29.5t-40 85.5q0 31 2 43q-123 -172 -340 -172q-133 0 -211.5 72.5t-78.5 193.5zM180 254q0 -69 46.5 -106t125.5 -37q115 0 193 67q64 56 96 113t57 149l15 64q-260 -17 -394 -68q-139 -52 -139 -182zM338 1219l41 186h145 l-41 -186h-145zM756 1219l43 186h145l-41 -186h-147z" />
<glyph unicode="&#xe5;" horiz-adv-x="999" d="M23 248q0 78 31.5 143.5t86.5 102.5q80 53 207.5 81t388.5 48q17 91 17 137q0 67 -49.5 103t-139.5 36q-102 0 -162 -45t-86 -143l-153 30q37 143 136.5 216t289.5 73q160 0 239.5 -61.5t79.5 -194.5q0 -63 -22 -170l-72 -328q-10 -46 -10 -86q0 -37 18 -54t62 -17 q14 0 24 2l-22 -121q-66 -4 -84 -4q-72 0 -112 29.5t-40 85.5q0 31 2 43q-123 -172 -340 -172q-133 0 -211.5 72.5t-78.5 193.5zM180 254q0 -69 46.5 -106t125.5 -37q115 0 193 67q64 56 96 113t57 149l15 64q-260 -17 -394 -68q-139 -52 -139 -182zM442 1284q0 85 57.5 140 t145.5 55q82 0 129 -46t47 -124q0 -86 -55 -140.5t-143 -54.5q-82 0 -131.5 46t-49.5 124zM524 1288q0 -46 27 -73t72 -27q49 0 80.5 33t31.5 86q0 46 -25.5 73t-66.5 27q-52 0 -85.5 -34t-33.5 -85z" />
<glyph unicode="&#xe6;" horiz-adv-x="1667" d="M23 248q0 78 31.5 142.5t86.5 101.5q80 53 207.5 81t388.5 48l8 43q11 64 11 98q0 68 -50 107.5t-139 39.5q-195 0 -250 -207l-153 31q38 144 137.5 220.5t288.5 76.5q125 0 192.5 -41.5t94.5 -126.5q64 75 157 121.5t195 46.5q180 0 276.5 -104.5t96.5 -300.5 q0 -64 -13 -144h-727q-4 -37 -4 -69q0 -147 72 -224t200 -77q89 0 162 47t119 133l131 -86q-77 -118 -181 -173t-243 -55q-153 0 -243 62t-132 180q-139 -242 -417 -242q-134 0 -218.5 75.5t-84.5 195.5zM180 254q0 -65 50.5 -107.5t123.5 -42.5q118 0 197 68 q62 54 91.5 111t55.5 155l15 64q-260 -17 -394 -68q-139 -52 -139 -180zM885 604h551q2 14 2 51q0 111 -57.5 176.5t-159.5 65.5q-123 0 -210 -78t-126 -215z" />
<glyph unicode="&#xe7;" horiz-adv-x="983" d="M74 414q0 269 152 442.5t384 173.5q271 0 355 -225l-144 -80q-57 172 -209 172q-165 0 -272 -134.5t-107 -344.5q0 -142 71 -225.5t194 -83.5q93 0 158 45.5t122 138.5l129 -86q-140 -223 -401 -232l-57 -84q83 0 130.5 -42t47.5 -113q0 -96 -63.5 -143.5t-170.5 -47.5 q-51 0 -102 20t-84 56l74 90q46 -63 112 -63q47 0 74 20.5t27 57.5q0 34 -22.5 54.5t-57.5 20.5q-42 0 -80 -16l-29 43l113 152q-165 19 -254.5 131.5t-89.5 302.5z" />
<glyph unicode="&#xe8;" horiz-adv-x="1040" d="M74 418q0 264 151.5 438t376.5 174q181 0 277 -102.5t96 -298.5q0 -71 -12 -144h-727q-5 -46 -5 -73q0 -147 72.5 -225t200.5 -78q89 0 161.5 47t118.5 133l131 -86q-77 -118 -180.5 -173t-242.5 -55q-200 0 -309 113t-109 330zM258 608h551q2 14 2 51q0 111 -57.5 174.5 t-159.5 63.5q-123 0 -210 -76t-126 -213zM412 1466h182l119 -303h-111z" />
<glyph unicode="&#xe9;" horiz-adv-x="1040" d="M74 418q0 264 151.5 438t376.5 174q181 0 277 -102.5t96 -298.5q0 -71 -12 -144h-727q-5 -46 -5 -73q0 -147 72.5 -225t200.5 -78q89 0 161.5 47t118.5 133l131 -86q-77 -118 -180.5 -173t-242.5 -55q-200 0 -309 113t-109 330zM258 608h551q2 14 2 51q0 111 -57.5 174.5 t-159.5 63.5q-123 0 -210 -76t-126 -213zM528 1163l209 303h207l-293 -303h-123z" />
<glyph unicode="&#xea;" horiz-adv-x="1040" d="M74 418q0 264 151.5 438t376.5 174q181 0 277 -102.5t96 -298.5q0 -71 -12 -144h-727q-5 -46 -5 -73q0 -147 72.5 -225t200.5 -78q89 0 161.5 47t118.5 133l131 -86q-77 -118 -180.5 -173t-242.5 -55q-200 0 -309 113t-109 330zM258 608h551q2 14 2 51q0 111 -57.5 174.5 t-159.5 63.5q-123 0 -210 -76t-126 -213zM365 1163l239 303h160l133 -303h-131l-94 187l-174 -187h-133z" />
<glyph unicode="&#xeb;" horiz-adv-x="1040" d="M74 418q0 264 151.5 438t376.5 174q181 0 277 -102.5t96 -298.5q0 -71 -12 -144h-727q-5 -46 -5 -73q0 -147 72.5 -225t200.5 -78q89 0 161.5 47t118.5 133l131 -86q-77 -118 -180.5 -173t-242.5 -55q-200 0 -309 113t-109 330zM258 608h551q2 14 2 51q0 111 -57.5 174.5 t-159.5 63.5q-123 0 -210 -76t-126 -213zM344 1219l41 186h145l-41 -186h-145zM762 1219l43 186h145l-41 -186h-147z" />
<glyph unicode="&#xec;" d="M27 0l225 1004h160l-224 -1004h-161zM121 1466h182l119 -303h-111z" />
<glyph unicode="&#xed;" d="M27 0l225 1004h160l-224 -1004h-161zM281 1163l208 303h207l-293 -303h-122z" />
<glyph unicode="&#xee;" d="M27 0l225 1004h160l-224 -1004h-161zM88 1163l240 303h159l134 -303h-132l-94 187l-174 -187h-133z" />
<glyph unicode="&#xef;" d="M27 0l225 1004h160l-224 -1004h-161zM104 1219l41 186h146l-41 -186h-146zM481 1219l43 186h146l-41 -186h-148z" />
<glyph unicode="&#xf0;" horiz-adv-x="1089" d="M74 416q0 167 67 304t184 215.5t259 78.5q127 0 213 -72q-39 107 -111 227l-336 -88l-31 109l308 80q-41 59 -133 151l120 66q116 -119 156 -176l244 61l28 -110l-206 -50q82 -122 127 -284t45 -322q0 -287 -143 -459t-380 -172q-192 0 -301.5 116.5t-109.5 324.5z M236 410q0 -146 68.5 -223.5t195.5 -77.5q150 0 248 127t98 335q0 144 -61 228t-181 84q-163 0 -265.5 -133t-102.5 -340z" />
<glyph unicode="&#xf1;" horiz-adv-x="1067" d="M27 0l223 1004h156l-33 -146q135 160 344 160q127 0 194.5 -63.5t67.5 -184.5q0 -76 -37 -238l-119 -532h-159l112 508q35 153 35 213q0 77 -41.5 116.5t-120.5 39.5q-133 0 -237 -117q-46 -52 -70 -113.5t-45 -154.5l-109 -492h-161zM358 1260q54 79 100 113t99 34 q42 0 98 -27l45 -24q56 -29 76 -29q31 0 55.5 17t59.5 63l88 -70q-98 -143 -199 -143q-47 0 -104 31l-53 28q-34 19 -64 19q-64 0 -115 -82z" />
<glyph unicode="&#xf2;" horiz-adv-x="1089" d="M74 414q0 251 141 426q73 91 175.5 140.5t223.5 49.5q188 0 292 -111.5t104 -320.5q0 -215 -99 -381q-69 -115 -177.5 -178.5t-244.5 -63.5q-195 0 -305 116t-110 323zM236 414q0 -148 67.5 -226.5t194.5 -78.5q92 0 164.5 49t119.5 139q66 126 66 287q0 147 -59.5 230 t-186.5 83q-158 0 -262 -135q-104 -136 -104 -348zM418 1466h182l119 -303h-111z" />
<glyph unicode="&#xf3;" horiz-adv-x="1089" d="M74 414q0 251 141 426q73 91 175.5 140.5t223.5 49.5q188 0 292 -111.5t104 -320.5q0 -215 -99 -381q-69 -115 -177.5 -178.5t-244.5 -63.5q-195 0 -305 116t-110 323zM236 414q0 -148 67.5 -226.5t194.5 -78.5q92 0 164.5 49t119.5 139q66 126 66 287q0 147 -59.5 230 t-186.5 83q-158 0 -262 -135q-104 -136 -104 -348zM549 1163l209 303h207l-293 -303h-123z" />
<glyph unicode="&#xf4;" horiz-adv-x="1089" d="M74 414q0 251 141 426q73 91 175.5 140.5t223.5 49.5q188 0 292 -111.5t104 -320.5q0 -215 -99 -381q-69 -115 -177.5 -178.5t-244.5 -63.5q-195 0 -305 116t-110 323zM236 414q0 -148 67.5 -226.5t194.5 -78.5q92 0 164.5 49t119.5 139q66 126 66 287q0 147 -59.5 230 t-186.5 83q-158 0 -262 -135q-104 -136 -104 -348zM379 1163l239 303h160l133 -303h-131l-94 187l-174 -187h-133z" />
<glyph unicode="&#xf5;" horiz-adv-x="1089" d="M74 414q0 251 141 426q73 91 175.5 140.5t223.5 49.5q188 0 292 -111.5t104 -320.5q0 -215 -99 -381q-69 -115 -177.5 -178.5t-244.5 -63.5q-195 0 -305 116t-110 323zM236 414q0 -148 67.5 -226.5t194.5 -78.5q92 0 164.5 49t119.5 139q66 126 66 287q0 147 -59.5 230 t-186.5 83q-158 0 -262 -135q-104 -136 -104 -348zM344 1260q54 79 100 113t99 34q42 0 98 -27l45 -24q56 -29 76 -29q31 0 55.5 17t59.5 63l88 -70q-98 -143 -199 -143q-47 0 -104 31l-54 28q-34 19 -63 19q-64 0 -115 -82z" />
<glyph unicode="&#xf6;" horiz-adv-x="1089" d="M74 414q0 251 141 426q73 91 175.5 140.5t223.5 49.5q188 0 292 -111.5t104 -320.5q0 -215 -99 -381q-69 -115 -177.5 -178.5t-244.5 -63.5q-195 0 -305 116t-110 323zM236 414q0 -148 67.5 -226.5t194.5 -78.5q92 0 164.5 49t119.5 139q66 126 66 287q0 147 -59.5 230 t-186.5 83q-158 0 -262 -135q-104 -136 -104 -348zM367 1219l41 186h145l-41 -186h-145zM784 1219l43 186h146l-41 -186h-148z" />
<glyph unicode="&#xf7;" horiz-adv-x="1515" d="M188 545l37 160h1141l-37 -160h-1141zM588 166l49 219h174l-49 -219h-174zM743 864l50 219h174l-49 -219h-175z" />
<glyph unicode="&#xf8;" horiz-adv-x="1089" d="M-27 16l156 150q-55 98 -55 248q0 176 69.5 316.5t193 220t277.5 79.5q190 0 295 -117l148 140l57 -66l-156 -147q52 -104 52 -242q0 -275 -145 -449t-376 -174q-199 0 -309 119l-151 -143zM236 414q0 -72 16 -131l543 520q-62 94 -193 94q-161 0 -263.5 -136 t-102.5 -347zM291 201q65 -92 207 -92q156 0 253 135t97 340q0 69 -17 135z" />
<glyph unicode="&#xf9;" horiz-adv-x="1067" d="M90 240q0 86 35 239l117 525h159l-112 -508q-35 -153 -35 -213q0 -77 41.5 -116.5t120.5 -39.5q133 0 237 117q46 52 70 113.5t45 154.5l109 492h161l-223 -1004h-156l33 145q-134 -159 -344 -159q-125 0 -191.5 66t-66.5 188zM430 1466h182l119 -303h-110z" />
<glyph unicode="&#xfa;" horiz-adv-x="1067" d="M90 240q0 86 35 239l117 525h159l-112 -508q-35 -153 -35 -213q0 -77 41.5 -116.5t120.5 -39.5q133 0 237 117q46 52 70 113.5t45 154.5l109 492h161l-223 -1004h-156l33 145q-134 -159 -344 -159q-125 0 -191.5 66t-66.5 188zM569 1163l209 303h207l-293 -303h-123z" />
<glyph unicode="&#xfb;" horiz-adv-x="1067" d="M90 240q0 86 35 239l117 525h159l-112 -508q-35 -153 -35 -213q0 -77 41.5 -116.5t120.5 -39.5q133 0 237 117q46 52 70 113.5t45 154.5l109 492h161l-223 -1004h-156l33 145q-134 -159 -344 -159q-125 0 -191.5 66t-66.5 188zM395 1163l240 303h160l133 -303h-131 l-95 187l-174 -187h-133z" />
<glyph unicode="&#xfc;" horiz-adv-x="1067" d="M90 240q0 86 35 239l117 525h159l-112 -508q-35 -153 -35 -213q0 -77 41.5 -116.5t120.5 -39.5q133 0 237 117q46 52 70 113.5t45 154.5l109 492h161l-223 -1004h-156l33 145q-134 -159 -344 -159q-125 0 -191.5 66t-66.5 188zM389 1219l41 186h145l-40 -186h-146z M807 1219l43 186h145l-41 -186h-147z" />
<glyph unicode="&#xfd;" horiz-adv-x="888" d="M-141 -410l35 136q53 -29 98 -29q28 0 45 3t41 15t46 36.5t52 68.5t68 110l24 43l-157 1031h168q57 -455 104 -861q197 400 440 861h181l-619 -1125q-86 -153 -147 -217q-53 -56 -109.5 -77t-136.5 -21q-66 0 -133 26zM469 1163l209 303h207l-293 -303h-123z" />
<glyph unicode="&#xfe;" horiz-adv-x="1087" d="M-63 -414l411 1860h160l-125 -557q134 137 313 137q153 0 236.5 -100.5t83.5 -282.5q0 -174 -63.5 -325.5t-179 -244.5t-255.5 -93q-209 0 -301 176l-125 -570h-155zM283 377q0 -120 53.5 -190t157.5 -70q105 0 188.5 74.5t127.5 191.5t44 250q0 258 -215 258 q-146 0 -251 -149t-105 -365z" />
<glyph unicode="&#xff;" horiz-adv-x="888" d="M-141 -410l35 136q53 -29 98 -29q28 0 45 3t41 15t46 36.5t52 68.5t68 110l24 43l-157 1031h168q57 -455 104 -861q197 400 440 861h181l-619 -1125q-86 -153 -147 -217q-53 -56 -109.5 -77t-136.5 -21q-66 0 -133 26zM305 1219l41 186h146l-41 -186h-146zM723 1219 l43 186h145l-41 -186h-147z" />
<glyph unicode="&#x152;" horiz-adv-x="2254" d="M123 563q0 273 115 500q101 198 267.5 304t360.5 106q380 0 471 -306l60 279h882l-32 -152h-705l-104 -467h661l-33 -151h-661l-117 -524h787l-33 -152h-959l47 199q-161 -228 -464 -228q-115 0 -212 36t-172 106.5t-117 185.5t-42 264zM303 569q0 -217 101 -329.5 t288 -112.5q109 0 203.5 42.5t159.5 123.5q91 113 142.5 263t51.5 304q0 221 -94 342t-278 121q-128 0 -237.5 -62t-182 -166t-113.5 -240.5t-41 -285.5z" />
<glyph unicode="&#x153;" horiz-adv-x="1804" d="M74 414q0 176 69.5 316.5t193 220t277.5 79.5q260 0 336 -231q69 109 173 170t231 61q180 0 276 -103.5t96 -299.5q0 -71 -12 -144h-727q-4 -37 -4 -73q0 -147 72 -224t200 -77q89 0 162 47t119 133l131 -86q-77 -118 -181 -173t-243 -55q-135 0 -227.5 57.5 t-132.5 166.5q-63 -105 -164.5 -164.5t-229.5 -59.5q-195 0 -305 116t-110 323zM236 414q0 -148 67.5 -226.5t194.5 -78.5q156 0 253 135t97 340q0 147 -59.5 230t-186.5 83q-161 0 -263.5 -136t-102.5 -347zM1010 606h551q2 14 2 51q0 111 -57.5 175.5t-159.5 64.5 q-123 0 -210 -77t-126 -214z" />
<glyph unicode="&#x178;" horiz-adv-x="1224" d="M203 1446h192q238 -619 271 -709q121 163 555 709h206l-708 -866l-127 -580h-176l133 602zM508 1577l41 184h151l-41 -184h-151zM997 1577l41 184h152l-41 -184h-152z" />
<glyph unicode="&#x2c6;" d="M-49 1163l239 303h160l133 -303h-131l-94 187l-174 -187h-133z" />
<glyph unicode="&#x2dc;" d="M-94 1260q54 79 99.5 113t98.5 34q43 0 99 -27l45 -24q56 -29 76 -29q31 0 54.5 17t59.5 63l88 -70q-98 -143 -198 -143q-48 0 -105 31l-53 28q-34 19 -64 19q-63 0 -114 -82z" />
<glyph unicode="&#x2000;" horiz-adv-x="926" />
<glyph unicode="&#x2001;" horiz-adv-x="1853" />
<glyph unicode="&#x2002;" horiz-adv-x="926" />
<glyph unicode="&#x2003;" horiz-adv-x="1853" />
<glyph unicode="&#x2004;" horiz-adv-x="617" />
<glyph unicode="&#x2005;" horiz-adv-x="463" />
<glyph unicode="&#x2006;" horiz-adv-x="308" />
<glyph unicode="&#x2007;" horiz-adv-x="308" />
<glyph unicode="&#x2008;" horiz-adv-x="231" />
<glyph unicode="&#x2009;" horiz-adv-x="370" />
<glyph unicode="&#x200a;" horiz-adv-x="102" />
<glyph unicode="&#x2010;" horiz-adv-x="747" d="M96 532l33 144h559l-31 -144h-561z" />
<glyph unicode="&#x2011;" horiz-adv-x="747" d="M96 532l33 144h559l-31 -144h-561z" />
<glyph unicode="&#x2012;" horiz-adv-x="747" d="M96 532l33 144h559l-31 -144h-561z" />
<glyph unicode="&#x2013;" horiz-adv-x="1134" d="M96 532l35 144h944l-33 -144h-946z" />
<glyph unicode="&#x2014;" horiz-adv-x="1495" d="M96 532l33 144h1307l-31 -144h-1309z" />
<glyph unicode="&#x2018;" horiz-adv-x="411" d="M213 934l53 246q23 104 60.5 171t109.5 122l70 -62q-54 -43 -79 -87.5t-48 -139.5h65l-55 -250h-176z" />
<glyph unicode="&#x2019;" horiz-adv-x="409" d="M207 969q54 43 79 87.5t48 139.5h-66l56 250h176l-54 -246q-23 -104 -60.5 -171t-109.5 -122z" />
<glyph unicode="&#x201a;" horiz-adv-x="409" d="M-63 -227q54 42 78.5 86.5t47.5 140.5h-65l55 250h176l-53 -246q-23 -104 -60.5 -171t-109.5 -122z" />
<glyph unicode="&#x201c;" horiz-adv-x="735" d="M213 934l53 246q23 104 60.5 171t109.5 122l70 -62q-54 -43 -79 -87.5t-48 -139.5h65l-55 -250h-176zM539 934l53 246q23 104 60.5 171t109.5 122l69 -62q-54 -42 -78.5 -86.5t-47.5 -140.5h65l-55 -250h-176z" />
<glyph unicode="&#x201d;" horiz-adv-x="735" d="M203 969q54 43 79 87.5t48 139.5h-66l55 250h177l-54 -246q-23 -104 -60.5 -171t-109.5 -122zM528 969q54 43 79 87.5t48 139.5h-65l55 250h176l-53 -246q-23 -104 -60.5 -171t-109.5 -122z" />
<glyph unicode="&#x201e;" horiz-adv-x="735" d="M-63 -227q54 42 78.5 86.5t47.5 140.5h-65l55 250h176l-53 -246q-23 -104 -60.5 -171t-109.5 -122zM262 -227q54 43 79 87.5t48 139.5h-65l55 250h176l-53 -246q-23 -104 -60.5 -171t-109.5 -122z" />
<glyph unicode="&#x2022;" horiz-adv-x="653" d="M96 473l97 445h448l-96 -445h-449z" />
<glyph unicode="&#x2026;" horiz-adv-x="2168" d="M174 0l49 221h162l-49 -221h-162zM897 0l49 221h162l-49 -221h-162zM1620 0l49 221h162l-49 -221h-162z" />
<glyph unicode="&#x202f;" horiz-adv-x="370" />
<glyph unicode="&#x2039;" horiz-adv-x="573" d="M96 557l373 399l82 -79l-303 -330l166 -338l-109 -64z" />
<glyph unicode="&#x203a;" horiz-adv-x="575" d="M31 209l305 338l-164 330l111 67l209 -407l-373 -402z" />
<glyph unicode="&#x205f;" horiz-adv-x="463" />
<glyph unicode="&#x20ac;" horiz-adv-x="1323" d="M102 528l27 113h143q6 76 25 160h-143l26 112h144q77 257 251.5 391t421.5 134q130 0 237.5 -44t178.5 -130l-100 -142q-108 170 -324 170q-188 0 -308 -88.5t-189 -290.5h673l-24 -112h-678q-20 -76 -27 -160h670l-27 -113h-645v-8q0 -200 95.5 -300.5t279.5 -100.5 q107 0 192.5 42.5t163.5 149.5l99 -127q-184 -211 -482 -211q-243 0 -379 144.5t-137 410.5h-164z" />
<glyph unicode="&#x2122;" horiz-adv-x="1609" d="M244 1337l26 109h537l-27 -109h-202l-136 -606h-123l136 606h-211zM741 731l164 715h166q13 -93 70 -561q173 322 319 561h185l-164 -715h-127q94 398 143 594q-283 -498 -340 -594h-98q-51 360 -70 594q-44 -220 -129 -594h-119z" />
<glyph unicode="&#x25fc;" horiz-adv-x="1003" d="M0 0v1004h1004v-1004h-1004z" />
</font>
</defs>
</svg>
